<?xml version="1.0" encoding="UTF-8" standalone="no"?>
<!DOCTYPE svg PUBLIC "-//W3C//DTD SVG 1.1//EN"
 "http://www.w3.org/Graphics/SVG/1.1/DTD/svg11.dtd">
<!-- Generated by graphviz version 10.0.1 (20240210.2158)
 -->
<!-- Title: G Pages: 1 -->
<svg width="595pt" height="1207pt"
 viewBox="0.00 0.00 594.62 1207.13" xmlns="http://www.w3.org/2000/svg" xmlns:xlink="http://www.w3.org/1999/xlink">
<g id="graph0" class="graph" transform="scale(1 1) rotate(0) translate(4 1203.13)">
<title>G</title>
<polygon fill="white" stroke="none" points="-4,4 -4,-1203.13 590.62,-1203.13 590.62,4 -4,4"/>
<!-- I -->
<g id="node1" class="node">
<title>I</title>
<polygon fill="none" stroke="blue" points="118.23,-1067.75 123.36,-1068.11 128.42,-1068.65 133.42,-1069.36 138.32,-1070.25 143.11,-1071.32 147.76,-1072.55 152.26,-1073.95 156.6,-1075.52 160.75,-1077.24 164.71,-1079.12 168.45,-1081.14 171.97,-1083.31 175.25,-1085.62 178.28,-1088.05 181.06,-1090.61 183.58,-1093.29 185.83,-1096.08 187.82,-1098.97 189.53,-1101.95 190.96,-1105.02 192.12,-1108.17 193.01,-1111.38 193.63,-1114.66 193.99,-1117.99 194.09,-1121.36 193.93,-1124.76 193.52,-1128.19 192.88,-1131.63 192.01,-1135.07 190.92,-1138.51 189.62,-1141.94 188.11,-1145.34 186.43,-1148.71 184.56,-1152.04 182.53,-1155.32 180.34,-1158.53 178.01,-1161.68 175.55,-1164.75 172.97,-1167.73 170.28,-1170.62 167.49,-1173.41 164.6,-1176.09 161.64,-1178.65 158.61,-1181.08 155.51,-1183.39 152.36,-1185.56 149.15,-1187.58 145.91,-1189.46 142.63,-1191.18 139.32,-1192.75 135.98,-1194.15 132.62,-1195.38 129.24,-1196.45 125.85,-1197.34 122.45,-1198.05 119.04,-1198.59 115.63,-1198.95 112.21,-1199.13 108.79,-1199.13 105.37,-1198.95 101.96,-1198.59 98.55,-1198.05 95.15,-1197.34 91.76,-1196.45 88.38,-1195.38 85.02,-1194.15 81.68,-1192.75 78.37,-1191.18 75.09,-1189.46 71.85,-1187.58 68.64,-1185.56 65.49,-1183.39 62.39,-1181.08 59.36,-1178.65 56.4,-1176.09 53.51,-1173.41 50.72,-1170.62 48.03,-1167.73 45.45,-1164.75 42.99,-1161.68 40.66,-1158.53 38.47,-1155.32 36.44,-1152.04 34.57,-1148.71 32.89,-1145.34 31.38,-1141.94 30.08,-1138.51 28.99,-1135.07 28.12,-1131.63 27.48,-1128.19 27.07,-1124.76 26.91,-1121.36 27.01,-1117.99 27.37,-1114.66 27.99,-1111.38 28.88,-1108.17 30.04,-1105.02 31.47,-1101.95 33.18,-1098.97 35.17,-1096.08 37.42,-1093.29 39.94,-1090.61 42.72,-1088.05 45.75,-1085.62 49.03,-1083.31 52.55,-1081.14 56.29,-1079.12 60.25,-1077.24 64.4,-1075.52 68.74,-1073.95 73.24,-1072.55 77.89,-1071.32 82.68,-1070.25 87.58,-1069.36 92.58,-1068.65 97.64,-1068.11 102.77,-1067.75 107.92,-1067.57 113.08,-1067.57 118.23,-1067.75"/>
<text text-anchor="middle" x="110.5" y="-1124.85" font-family="Helvetica,sans-Serif" font-size="20.00">Idea</text>
</g>
<!-- D -->
<g id="node2" class="node">
<title>D</title>
<polygon fill="none" stroke="blue" points="268.88,-731.57 64.12,-731.57 64.12,-617.57 268.88,-617.57 268.88,-731.57"/>
<text text-anchor="middle" x="166.5" y="-676.57" font-family="Helvetica,sans-Serif" font-size="20.00">Digital Design </text>
<text text-anchor="middle" x="166.5" y="-655.57" font-family="Helvetica,sans-Serif" font-size="20.00"> SystemVerilog</text>
</g>
<!-- I&#45;&gt;D -->
<g id="edge9" class="edge">
<title>I&#45;&gt;D</title>
<path fill="none" stroke="black" d="M83.01,-1069.72C54.32,-994.62 19.22,-866.5 63.5,-767.57 67.83,-757.9 73.72,-748.84 80.52,-740.45"/>
<polygon fill="black" stroke="black" points="83,-742.94 86.91,-733.09 77.71,-738.35 83,-742.94"/>
</g>
<!-- AD -->
<g id="node6" class="node">
<title>AD</title>
<polygon fill="none" stroke="red" points="397.38,-1031.57 189.62,-1031.57 189.62,-917.57 397.38,-917.57 397.38,-1031.57"/>
<text text-anchor="middle" x="293.5" y="-976.57" font-family="Helvetica,sans-Serif" font-size="20.00">Analog Design </text>
<text text-anchor="middle" x="293.5" y="-955.57" font-family="Helvetica,sans-Serif" font-size="20.00">Xschem</text>
</g>
<!-- I&#45;&gt;AD -->
<g id="edge8" class="edge">
<title>I&#45;&gt;AD</title>
<path fill="none" stroke="black" d="M169.66,-1081.66C185.4,-1068.18 202.61,-1053.44 219.05,-1039.35"/>
<polygon fill="black" stroke="black" points="221.1,-1042.2 226.42,-1033.04 216.55,-1036.89 221.1,-1042.2"/>
</g>
<!-- S -->
<g id="node3" class="node">
<title>S</title>
<polygon fill="none" stroke="blue" points="333,-581.57 0,-581.57 0,-467.57 333,-467.57 333,-581.57"/>
<text text-anchor="middle" x="166.5" y="-526.57" font-family="Helvetica,sans-Serif" font-size="20.00">Digital Simulation </text>
<text text-anchor="middle" x="166.5" y="-505.57" font-family="Helvetica,sans-Serif" font-size="20.00"> iverilog/vpp/verilator/gtkwave</text>
</g>
<!-- D&#45;&gt;S -->
<g id="edge1" class="edge">
<title>D&#45;&gt;S</title>
<path fill="none" stroke="black" d="M159.92,-617.19C159.77,-609.31 159.72,-601.14 159.77,-593.08"/>
<polygon fill="black" stroke="black" points="163.27,-593.34 159.91,-583.3 156.27,-593.25 163.27,-593.34"/>
</g>
<!-- S&#45;&gt;D -->
<g id="edge5" class="edge">
<title>S&#45;&gt;D</title>
<path fill="none" stroke="black" d="M173.07,-581.78C173.23,-589.67 173.28,-597.83 173.23,-605.9"/>
<polygon fill="black" stroke="black" points="169.73,-605.63 173.1,-615.68 176.73,-605.73 169.73,-605.63"/>
</g>
<!-- PNR -->
<g id="node4" class="node">
<title>PNR</title>
<polygon fill="none" stroke="blue" points="264,-281.57 69,-281.57 69,-167.57 264,-167.57 264,-281.57"/>
<text text-anchor="middle" x="166.5" y="-226.57" font-family="Helvetica,sans-Serif" font-size="20.00">RTL to GDSII </text>
<text text-anchor="middle" x="166.5" y="-205.57" font-family="Helvetica,sans-Serif" font-size="20.00">OpenLane</text>
</g>
<!-- S&#45;&gt;PNR -->
<g id="edge2" class="edge">
<title>S&#45;&gt;PNR</title>
<path fill="none" stroke="black" d="M161.08,-467.17C159.43,-417.72 159.32,-345.75 160.74,-293.22"/>
<polygon fill="black" stroke="black" points="164.23,-293.6 161.03,-283.5 157.23,-293.39 164.23,-293.6"/>
</g>
<!-- PNR&#45;&gt;S -->
<g id="edge4" class="edge">
<title>PNR&#45;&gt;S</title>
<path fill="none" stroke="black" d="M171.92,-281.99C173.57,-331.44 173.68,-403.41 172.26,-455.93"/>
<polygon fill="black" stroke="black" points="168.77,-455.55 171.97,-465.65 175.77,-455.76 168.77,-455.55"/>
</g>
<!-- TO -->
<g id="node5" class="node">
<title>TO</title>
<polygon fill="none" stroke="blue" points="176.48,-0.18 183.09,-0.54 189.63,-1.08 196.08,-1.8 202.4,-2.69 208.58,-3.75 214.59,-4.99 220.4,-6.39 225.99,-7.95 231.35,-9.67 236.46,-11.55 241.29,-13.58 245.82,-15.74 250.06,-18.05 253.97,-20.49 257.56,-23.05 260.81,-25.72 263.72,-28.51 266.28,-31.4 268.49,-34.38 270.34,-37.45 271.84,-40.6 272.99,-43.82 273.79,-47.09 274.25,-50.42 274.37,-53.79 274.17,-57.19 273.65,-60.62 272.82,-64.06 271.69,-67.51 270.28,-70.95 268.6,-74.37 266.66,-77.78 264.49,-81.15 262.08,-84.47 259.46,-87.75 256.63,-90.97 253.63,-94.11 250.45,-97.18 247.12,-100.17 243.65,-103.06 240.04,-105.84 236.32,-108.52 232.5,-111.08 228.58,-113.52 224.59,-115.82 220.52,-117.99 216.38,-120.02 212.2,-121.89 207.96,-123.61 203.69,-125.18 199.38,-126.58 195.05,-127.81 190.69,-128.88 186.32,-129.77 181.93,-130.49 177.53,-131.03 173.12,-131.39 168.71,-131.57 164.29,-131.57 159.88,-131.39 155.47,-131.03 151.07,-130.49 146.68,-129.77 142.31,-128.88 137.95,-127.81 133.62,-126.58 129.31,-125.18 125.04,-123.61 120.8,-121.89 116.62,-120.02 112.48,-117.99 108.41,-115.82 104.42,-113.52 100.5,-111.08 96.68,-108.52 92.96,-105.84 89.35,-103.06 85.88,-100.17 82.55,-97.18 79.37,-94.11 76.37,-90.97 73.54,-87.75 70.92,-84.47 68.51,-81.15 66.34,-77.78 64.4,-74.37 62.72,-70.95 61.31,-67.51 60.18,-64.06 59.35,-60.62 58.83,-57.19 58.63,-53.79 58.75,-50.42 59.21,-47.09 60.01,-43.82 61.16,-40.6 62.66,-37.45 64.51,-34.38 66.72,-31.4 69.28,-28.51 72.19,-25.72 75.44,-23.05 79.03,-20.49 82.94,-18.05 87.18,-15.74 91.71,-13.58 96.54,-11.55 101.65,-9.67 107.01,-7.95 112.6,-6.39 118.41,-4.99 124.42,-3.75 130.6,-2.69 136.92,-1.8 143.37,-1.08 149.91,-0.54 156.52,-0.18 163.17,0 169.83,0 176.48,-0.18"/>
<text text-anchor="middle" x="166.5" y="-57.28" font-family="Helvetica,sans-Serif" font-size="20.00">Tapeout</text>
</g>
<!-- PNR&#45;&gt;TO -->
<g id="edge3" class="edge">
<title>PNR&#45;&gt;TO</title>
<path fill="none" stroke="black" d="M166.5,-167.41C166.5,-159.58 166.5,-151.44 166.5,-143.32"/>
<polygon fill="black" stroke="black" points="170,-143.41 166.5,-133.41 163,-143.41 170,-143.41"/>
</g>
<!-- ASV -->
<g id="node7" class="node">
<title>ASV</title>
<polygon fill="none" stroke="blue" points="272.62,-881.57 72.38,-881.57 72.38,-767.57 272.62,-767.57 272.62,-881.57"/>
<text text-anchor="middle" x="172.5" y="-826.57" font-family="Helvetica,sans-Serif" font-size="20.00">Analog Model </text>
<text text-anchor="middle" x="172.5" y="-805.57" font-family="Helvetica,sans-Serif" font-size="20.00">SystemVerilog</text>
</g>
<!-- AD&#45;&gt;ASV -->
<g id="edge6" class="edge">
<title>AD&#45;&gt;ASV</title>
<path fill="none" stroke="black" d="M247.41,-917.19C240.3,-908.49 232.9,-899.45 225.65,-890.58"/>
<polygon fill="black" stroke="black" points="228.46,-888.48 219.42,-882.96 223.04,-892.91 228.46,-888.48"/>
</g>
<!-- AS -->
<g id="node8" class="node">
<title>AS</title>
<polygon fill="none" stroke="red" points="530.12,-881.57 290.88,-881.57 290.88,-767.57 530.12,-767.57 530.12,-881.57"/>
<text text-anchor="middle" x="410.5" y="-826.57" font-family="Helvetica,sans-Serif" font-size="20.00">Analog Simulation </text>
<text text-anchor="middle" x="410.5" y="-805.57" font-family="Helvetica,sans-Serif" font-size="20.00">ngspice</text>
</g>
<!-- AD&#45;&gt;AS -->
<g id="edge10" class="edge">
<title>AD&#45;&gt;AS</title>
<path fill="none" stroke="black" d="M331.49,-917.19C338.19,-908.49 345.3,-899.45 352.4,-890.58"/>
<polygon fill="black" stroke="black" points="354.99,-892.95 358.53,-882.96 349.54,-888.56 354.99,-892.95"/>
</g>
<!-- ASV&#45;&gt;D -->
<g id="edge7" class="edge">
<title>ASV&#45;&gt;D</title>
<path fill="none" stroke="black" d="M170.21,-767.19C169.89,-759.31 169.56,-751.14 169.24,-743.08"/>
<polygon fill="black" stroke="black" points="172.74,-743.15 168.84,-733.3 165.75,-743.43 172.74,-743.15"/>
</g>
<!-- AS&#45;&gt;AD -->
<g id="edge18" class="edge">
<title>AS&#45;&gt;AD</title>
<path fill="none" stroke="black" d="M372.63,-881.78C365.93,-890.48 358.83,-899.52 351.73,-908.4"/>
<polygon fill="black" stroke="black" points="349.14,-906.03 345.59,-916.01 354.59,-910.42 349.14,-906.03"/>
</g>
<!-- AL -->
<g id="node9" class="node">
<title>AL</title>
<polygon fill="none" stroke="red" points="513.25,-731.57 307.75,-731.57 307.75,-617.57 513.25,-617.57 513.25,-731.57"/>
<text text-anchor="middle" x="410.5" y="-676.57" font-family="Helvetica,sans-Serif" font-size="20.00">Analog Layout </text>
<text text-anchor="middle" x="410.5" y="-655.57" font-family="Helvetica,sans-Serif" font-size="20.00">Magic</text>
</g>
<!-- AS&#45;&gt;AL -->
<g id="edge11" class="edge">
<title>AS&#45;&gt;AL</title>
<path fill="none" stroke="black" d="M403.92,-767.19C403.77,-759.31 403.72,-751.14 403.77,-743.08"/>
<polygon fill="black" stroke="black" points="407.27,-743.34 403.91,-733.3 400.27,-743.25 407.27,-743.34"/>
</g>
<!-- AL&#45;&gt;AS -->
<g id="edge17" class="edge">
<title>AL&#45;&gt;AS</title>
<path fill="none" stroke="black" d="M417.07,-731.78C417.23,-739.67 417.28,-747.83 417.23,-755.9"/>
<polygon fill="black" stroke="black" points="413.73,-755.63 417.1,-765.68 420.73,-755.73 413.73,-755.63"/>
</g>
<!-- AV -->
<g id="node10" class="node">
<title>AV</title>
<polygon fill="none" stroke="red" points="484.25,-581.57 350.75,-581.57 350.75,-467.57 484.25,-467.57 484.25,-581.57"/>
<text text-anchor="middle" x="417.5" y="-526.57" font-family="Helvetica,sans-Serif" font-size="20.00">LVS</text>
<text text-anchor="middle" x="417.5" y="-505.57" font-family="Helvetica,sans-Serif" font-size="20.00">netgen</text>
</g>
<!-- AL&#45;&gt;AV -->
<g id="edge12" class="edge">
<title>AL&#45;&gt;AV</title>
<path fill="none" stroke="black" d="M413.17,-617.19C413.54,-609.31 413.93,-601.14 414.31,-593.08"/>
<polygon fill="black" stroke="black" points="417.79,-593.45 414.77,-583.3 410.8,-593.12 417.79,-593.45"/>
</g>
<!-- LPE -->
<g id="node11" class="node">
<title>LPE</title>
<polygon fill="none" stroke="red" points="586.62,-431.57 428.38,-431.57 428.38,-317.57 586.62,-317.57 586.62,-431.57"/>
<text text-anchor="middle" x="507.5" y="-376.57" font-family="Helvetica,sans-Serif" font-size="20.00">Parasitics</text>
<text text-anchor="middle" x="507.5" y="-355.57" font-family="Helvetica,sans-Serif" font-size="20.00">Magic</text>
</g>
<!-- AV&#45;&gt;LPE -->
<g id="edge15" class="edge">
<title>AV&#45;&gt;LPE</title>
<path fill="none" stroke="black" d="M451.78,-467.19C456.91,-458.76 462.23,-450.01 467.46,-441.41"/>
<polygon fill="black" stroke="black" points="470.32,-443.44 472.53,-433.08 464.34,-439.8 470.32,-443.44"/>
</g>
<!-- AGDS -->
<g id="node12" class="node">
<title>AGDS</title>
<polygon fill="none" stroke="blue" points="383.5,-421.07 257.5,-421.07 257.5,-328.07 383.5,-328.07 383.5,-421.07"/>
<text text-anchor="middle" x="320.5" y="-366.07" font-family="Helvetica,sans-Serif" font-size="20.00">GDSII</text>
</g>
<!-- AV&#45;&gt;AGDS -->
<g id="edge13" class="edge">
<title>AV&#45;&gt;AGDS</title>
<path fill="none" stroke="black" d="M380.55,-467.19C372.69,-455.2 364.41,-442.56 356.58,-430.62"/>
<polygon fill="black" stroke="black" points="359.66,-428.93 351.25,-422.49 353.81,-432.77 359.66,-428.93"/>
</g>
<!-- LPE&#45;&gt;AS -->
<g id="edge16" class="edge">
<title>LPE&#45;&gt;AS</title>
<path fill="none" stroke="black" d="M525.29,-431.79C545.04,-504.76 568.5,-634.25 522.5,-731.57 517.87,-741.36 511.63,-750.46 504.45,-758.83"/>
<polygon fill="black" stroke="black" points="501.9,-756.44 497.69,-766.16 507.04,-761.18 501.9,-756.44"/>
</g>
<!-- AGDS&#45;&gt;PNR -->
<g id="edge14" class="edge">
<title>AGDS&#45;&gt;PNR</title>
<path fill="none" stroke="black" d="M273.04,-327.95C260.52,-315.93 246.78,-302.72 233.45,-289.91"/>
<polygon fill="black" stroke="black" points="235.94,-287.45 226.31,-283.04 231.09,-292.5 235.94,-287.45"/>
</g>
</g>
</svg>
