<?xml version="1.0" encoding="UTF-8" standalone="no"?>
<!DOCTYPE svg PUBLIC "-//W3C//DTD SVG 1.1//EN"
 "http://www.w3.org/Graphics/SVG/1.1/DTD/svg11.dtd">
<!-- Generated by graphviz version 10.0.1 (20240210.2158)
 -->
<!-- Title: G Pages: 1 -->
<svg width="1982pt" height="359pt"
 viewBox="0.00 0.00 1981.66 359.43" xmlns="http://www.w3.org/2000/svg" xmlns:xlink="http://www.w3.org/1999/xlink">
<g id="graph0" class="graph" transform="scale(1 1) rotate(0) translate(4 355.43)">
<title>G</title>
<polygon fill="white" stroke="none" points="-4,4 -4,-355.43 1977.66,-355.43 1977.66,4 -4,4"/>
<!-- I -->
<g id="node1" class="node">
<title>I</title>
<polygon fill="none" stroke="blue" points="91.32,-181.4 96.44,-181.76 101.51,-182.3 106.5,-183.01 111.4,-183.9 116.19,-184.97 120.85,-186.2 125.35,-187.6 129.69,-189.17 133.84,-190.89 137.79,-192.77 141.53,-194.79 145.05,-196.96 148.33,-199.27 151.37,-201.7 154.15,-204.26 156.67,-206.94 158.92,-209.73 160.9,-212.62 162.61,-215.6 164.05,-218.67 165.21,-221.82 166.1,-225.03 166.72,-228.31 167.08,-231.64 167.17,-235.01 167.01,-238.41 166.61,-241.84 165.97,-245.28 165.09,-248.72 164,-252.16 162.7,-255.59 161.2,-258.99 159.51,-262.36 157.65,-265.69 155.61,-268.97 153.43,-272.18 151.1,-275.33 148.64,-278.4 146.06,-281.38 143.36,-284.27 140.57,-287.06 137.69,-289.74 134.73,-292.3 131.69,-294.73 128.59,-297.04 125.44,-299.21 122.24,-301.23 118.99,-303.11 115.71,-304.83 112.4,-306.4 109.06,-307.8 105.71,-309.03 102.33,-310.1 98.94,-310.99 95.54,-311.7 92.13,-312.24 88.71,-312.6 85.3,-312.78 81.88,-312.78 78.46,-312.6 75.04,-312.24 71.63,-311.7 68.23,-310.99 64.84,-310.1 61.47,-309.03 58.11,-307.8 54.77,-306.4 51.46,-304.83 48.18,-303.11 44.93,-301.23 41.73,-299.21 38.58,-297.04 35.48,-294.73 32.44,-292.3 29.48,-289.74 26.6,-287.06 23.81,-284.27 21.12,-281.38 18.53,-278.4 16.07,-275.33 13.74,-272.18 11.56,-268.97 9.53,-265.69 7.66,-262.36 5.97,-258.99 4.47,-255.59 3.17,-252.16 2.08,-248.72 1.2,-245.28 0.56,-241.84 0.16,-238.41 0,-235.01 0.1,-231.64 0.45,-228.31 1.07,-225.03 1.96,-221.82 3.12,-218.67 4.56,-215.6 6.27,-212.62 8.25,-209.73 10.51,-206.94 13.02,-204.26 15.81,-201.7 18.84,-199.27 22.12,-196.96 25.64,-194.79 29.38,-192.77 33.33,-190.89 37.48,-189.17 41.82,-187.6 46.33,-186.2 50.98,-184.97 55.77,-183.9 60.67,-183.01 65.66,-182.3 70.73,-181.76 75.85,-181.4 81,-181.22 86.17,-181.22 91.32,-181.4"/>
<text text-anchor="middle" x="83.59" y="-238.5" font-family="Helvetica,sans-Serif" font-size="20.00">Idea</text>
</g>
<!-- D -->
<g id="node2" class="node">
<title>D</title>
<polygon fill="none" stroke="blue" points="927.3,-328 722.55,-328 722.55,-214 927.3,-214 927.3,-328"/>
<text text-anchor="middle" x="824.92" y="-273" font-family="Helvetica,sans-Serif" font-size="20.00">Digital Design </text>
<text text-anchor="middle" x="824.92" y="-252" font-family="Helvetica,sans-Serif" font-size="20.00"> SystemVerilog</text>
</g>
<!-- I&#45;&gt;D -->
<g id="edge9" class="edge">
<title>I&#45;&gt;D</title>
<path fill="none" stroke="black" d="M152.87,-273.59C265.09,-313.65 495.14,-380.4 686.17,-337 694.63,-335.08 703.17,-332.57 711.64,-329.66"/>
<polygon fill="black" stroke="black" points="712.69,-333 720.89,-326.29 710.3,-326.42 712.69,-333"/>
</g>
<!-- AD -->
<g id="node6" class="node">
<title>AD</title>
<polygon fill="none" stroke="red" points="410.92,-262 203.17,-262 203.17,-148 410.92,-148 410.92,-262"/>
<text text-anchor="middle" x="307.05" y="-207" font-family="Helvetica,sans-Serif" font-size="20.00">Analog Design </text>
<text text-anchor="middle" x="307.05" y="-186" font-family="Helvetica,sans-Serif" font-size="20.00">Xschem</text>
</g>
<!-- I&#45;&gt;AD -->
<g id="edge8" class="edge">
<title>I&#45;&gt;AD</title>
<path fill="none" stroke="black" d="M167.36,-231.3C175.3,-229.8 183.45,-228.25 191.62,-226.7"/>
<polygon fill="black" stroke="black" points="192.1,-230.17 201.28,-224.87 190.8,-223.29 192.1,-230.17"/>
</g>
<!-- S -->
<g id="node3" class="node">
<title>S</title>
<polygon fill="none" stroke="blue" points="1296.67,-328 963.67,-328 963.67,-214 1296.67,-214 1296.67,-328"/>
<text text-anchor="middle" x="1130.17" y="-273" font-family="Helvetica,sans-Serif" font-size="20.00">Digital Simulation </text>
<text text-anchor="middle" x="1130.17" y="-252" font-family="Helvetica,sans-Serif" font-size="20.00"> iverilog/vpp/verilator/gtkwave</text>
</g>
<!-- D&#45;&gt;S -->
<g id="edge1" class="edge">
<title>D&#45;&gt;S</title>
<path fill="none" stroke="black" d="M927.74,-264.58C935.67,-264.47 943.8,-264.39 952.03,-264.34"/>
<polygon fill="black" stroke="black" points="951.82,-267.84 961.8,-264.28 951.78,-260.84 951.82,-267.84"/>
</g>
<!-- S&#45;&gt;D -->
<g id="edge5" class="edge">
<title>S&#45;&gt;D</title>
<path fill="none" stroke="black" d="M963.31,-277.72C955.2,-277.69 947.13,-277.64 939.22,-277.55"/>
<polygon fill="black" stroke="black" points="939.3,-274.06 929.26,-277.43 939.21,-281.05 939.3,-274.06"/>
</g>
<!-- PNR -->
<g id="node4" class="node">
<title>PNR</title>
<polygon fill="none" stroke="blue" points="1721.92,-328 1526.92,-328 1526.92,-214 1721.92,-214 1721.92,-328"/>
<text text-anchor="middle" x="1624.42" y="-273" font-family="Helvetica,sans-Serif" font-size="20.00">RTL to GDSII </text>
<text text-anchor="middle" x="1624.42" y="-252" font-family="Helvetica,sans-Serif" font-size="20.00">OpenLane</text>
</g>
<!-- S&#45;&gt;PNR -->
<g id="edge2" class="edge">
<title>S&#45;&gt;PNR</title>
<path fill="none" stroke="black" d="M1297.14,-264.58C1369.15,-263.97 1451.44,-264.21 1515.37,-265.3"/>
<polygon fill="black" stroke="black" points="1515.1,-268.8 1525.16,-265.48 1515.23,-261.8 1515.1,-268.8"/>
</g>
<!-- PNR&#45;&gt;S -->
<g id="edge4" class="edge">
<title>PNR&#45;&gt;S</title>
<path fill="none" stroke="black" d="M1526.68,-276.49C1464.55,-277.7 1382,-278.04 1308.4,-277.51"/>
<polygon fill="black" stroke="black" points="1308.68,-274.01 1298.65,-277.43 1308.62,-281.01 1308.68,-274.01"/>
</g>
<!-- TO -->
<g id="node5" class="node">
<title>TO</title>
<polygon fill="none" stroke="blue" points="1875.77,-205.4 1882.38,-205.76 1888.92,-206.3 1895.37,-207.01 1901.69,-207.9 1907.87,-208.97 1913.88,-210.2 1919.69,-211.6 1925.29,-213.17 1930.65,-214.89 1935.75,-216.77 1940.58,-218.79 1945.12,-220.96 1949.35,-223.27 1953.27,-225.7 1956.85,-228.26 1960.11,-230.94 1963.01,-233.73 1965.57,-236.62 1967.78,-239.6 1969.63,-242.67 1971.13,-245.82 1972.28,-249.03 1973.08,-252.31 1973.54,-255.64 1973.66,-259.01 1973.46,-262.41 1972.94,-265.84 1972.11,-269.28 1970.98,-272.72 1969.57,-276.16 1967.89,-279.59 1965.96,-282.99 1963.78,-286.36 1961.37,-289.69 1958.75,-292.97 1955.93,-296.18 1952.92,-299.33 1949.74,-302.4 1946.41,-305.38 1942.94,-308.27 1939.34,-311.06 1935.62,-313.74 1931.79,-316.3 1927.88,-318.73 1923.88,-321.04 1919.81,-323.21 1915.67,-325.23 1911.49,-327.11 1907.25,-328.83 1902.98,-330.4 1898.67,-331.8 1894.34,-333.03 1889.98,-334.1 1885.61,-334.99 1881.22,-335.7 1876.82,-336.24 1872.41,-336.6 1868,-336.78 1863.59,-336.78 1859.17,-336.6 1854.77,-336.24 1850.37,-335.7 1845.98,-334.99 1841.6,-334.1 1837.24,-333.03 1832.91,-331.8 1828.6,-330.4 1824.33,-328.83 1820.1,-327.11 1815.91,-325.23 1811.78,-323.21 1807.71,-321.04 1803.71,-318.73 1799.79,-316.3 1795.97,-313.74 1792.25,-311.06 1788.65,-308.27 1785.17,-305.38 1781.84,-302.4 1778.66,-299.33 1775.66,-296.18 1772.84,-292.97 1770.21,-289.69 1767.81,-286.36 1765.63,-282.99 1763.69,-279.59 1762.01,-276.16 1760.6,-272.72 1759.48,-269.28 1758.65,-265.84 1758.13,-262.41 1757.92,-259.01 1758.04,-255.64 1758.5,-252.31 1759.3,-249.03 1760.45,-245.82 1761.95,-242.67 1763.81,-239.6 1766.01,-236.62 1768.57,-233.73 1771.48,-230.94 1774.73,-228.26 1778.32,-225.7 1782.24,-223.27 1786.47,-220.96 1791.01,-218.79 1795.84,-216.77 1800.94,-214.89 1806.3,-213.17 1811.89,-211.6 1817.71,-210.2 1823.71,-208.97 1829.89,-207.9 1836.22,-207.01 1842.66,-206.3 1849.2,-205.76 1855.81,-205.4 1862.46,-205.22 1869.12,-205.22 1875.77,-205.4"/>
<text text-anchor="middle" x="1865.79" y="-262.5" font-family="Helvetica,sans-Serif" font-size="20.00">Tapeout</text>
</g>
<!-- PNR&#45;&gt;TO -->
<g id="edge3" class="edge">
<title>PNR&#45;&gt;TO</title>
<path fill="none" stroke="black" d="M1722.09,-271C1730.66,-271 1739.4,-271 1748.11,-271"/>
<polygon fill="black" stroke="black" points="1748.02,-274.5 1758.02,-271 1748.02,-267.5 1748.02,-274.5"/>
</g>
<!-- ASV -->
<g id="node7" class="node">
<title>ASV</title>
<polygon fill="none" stroke="blue" points="666.67,-328 466.42,-328 466.42,-214 666.67,-214 666.67,-328"/>
<text text-anchor="middle" x="566.55" y="-273" font-family="Helvetica,sans-Serif" font-size="20.00">Analog Model </text>
<text text-anchor="middle" x="566.55" y="-252" font-family="Helvetica,sans-Serif" font-size="20.00">SystemVerilog</text>
</g>
<!-- AD&#45;&gt;ASV -->
<g id="edge6" class="edge">
<title>AD&#45;&gt;ASV</title>
<path fill="none" stroke="black" d="M411.3,-231.46C425.68,-235.15 440.51,-238.95 455.02,-242.67"/>
<polygon fill="black" stroke="black" points="454.02,-246.03 464.57,-245.12 455.76,-239.25 454.02,-246.03"/>
</g>
<!-- AS -->
<g id="node8" class="node">
<title>AS</title>
<polygon fill="none" stroke="red" points="686.17,-196 446.92,-196 446.92,-82 686.17,-82 686.17,-196"/>
<text text-anchor="middle" x="566.55" y="-141" font-family="Helvetica,sans-Serif" font-size="20.00">Analog Simulation </text>
<text text-anchor="middle" x="566.55" y="-120" font-family="Helvetica,sans-Serif" font-size="20.00">ngspice</text>
</g>
<!-- AD&#45;&gt;AS -->
<g id="edge10" class="edge">
<title>AD&#45;&gt;AS</title>
<path fill="none" stroke="black" d="M411.3,-171.9C419.28,-169.78 427.4,-167.66 435.53,-165.58"/>
<polygon fill="black" stroke="black" points="436.31,-168.99 445.14,-163.13 434.58,-162.2 436.31,-168.99"/>
</g>
<!-- ASV&#45;&gt;D -->
<g id="edge7" class="edge">
<title>ASV&#45;&gt;D</title>
<path fill="none" stroke="black" d="M667.03,-271C681.5,-271 696.49,-271 711.19,-271"/>
<polygon fill="black" stroke="black" points="710.86,-274.5 720.86,-271 710.86,-267.5 710.86,-274.5"/>
</g>
<!-- AS&#45;&gt;AD -->
<g id="edge18" class="edge">
<title>AS&#45;&gt;AD</title>
<path fill="none" stroke="black" d="M446.6,-176.22C438.5,-178.33 430.34,-180.41 422.26,-182.44"/>
<polygon fill="black" stroke="black" points="421.62,-178.99 412.77,-184.8 423.32,-185.78 421.62,-178.99"/>
</g>
<!-- AL -->
<g id="node9" class="node">
<title>AL</title>
<polygon fill="none" stroke="red" points="927.67,-196 722.17,-196 722.17,-82 927.67,-82 927.67,-196"/>
<text text-anchor="middle" x="824.92" y="-141" font-family="Helvetica,sans-Serif" font-size="20.00">Analog Layout </text>
<text text-anchor="middle" x="824.92" y="-120" font-family="Helvetica,sans-Serif" font-size="20.00">Magic</text>
</g>
<!-- AS&#45;&gt;AL -->
<g id="edge11" class="edge">
<title>AS&#45;&gt;AL</title>
<path fill="none" stroke="black" d="M686.35,-132.27C694.45,-132.24 702.61,-132.25 710.68,-132.29"/>
<polygon fill="black" stroke="black" points="710.48,-135.79 720.51,-132.37 710.54,-128.79 710.48,-135.79"/>
</g>
<!-- AL&#45;&gt;AS -->
<g id="edge17" class="edge">
<title>AL&#45;&gt;AS</title>
<path fill="none" stroke="black" d="M722.02,-145.62C714.05,-145.7 705.95,-145.74 697.83,-145.75"/>
<polygon fill="black" stroke="black" points="697.87,-142.25 687.87,-145.74 697.86,-149.25 697.87,-142.25"/>
</g>
<!-- AV -->
<g id="node10" class="node">
<title>AV</title>
<polygon fill="none" stroke="red" points="1196.92,-196 1063.42,-196 1063.42,-82 1196.92,-82 1196.92,-196"/>
<text text-anchor="middle" x="1130.17" y="-141" font-family="Helvetica,sans-Serif" font-size="20.00">LVS</text>
<text text-anchor="middle" x="1130.17" y="-120" font-family="Helvetica,sans-Serif" font-size="20.00">netgen</text>
</g>
<!-- AL&#45;&gt;AV -->
<g id="edge12" class="edge">
<title>AL&#45;&gt;AV</title>
<path fill="none" stroke="black" d="M928.17,-139C968.52,-139 1014.12,-139 1051.68,-139"/>
<polygon fill="black" stroke="black" points="1051.54,-142.5 1061.54,-139 1051.54,-135.5 1051.54,-142.5"/>
</g>
<!-- LPE -->
<g id="node11" class="node">
<title>LPE</title>
<polygon fill="none" stroke="red" points="1490.92,-114 1332.67,-114 1332.67,0 1490.92,0 1490.92,-114"/>
<text text-anchor="middle" x="1411.8" y="-59" font-family="Helvetica,sans-Serif" font-size="20.00">Parasitics</text>
<text text-anchor="middle" x="1411.8" y="-38" font-family="Helvetica,sans-Serif" font-size="20.00">Magic</text>
</g>
<!-- AV&#45;&gt;LPE -->
<g id="edge15" class="edge">
<title>AV&#45;&gt;LPE</title>
<path fill="none" stroke="black" d="M1197.08,-119.67C1234.21,-108.78 1281.09,-95.04 1321.47,-83.19"/>
<polygon fill="black" stroke="black" points="1322.34,-86.59 1330.95,-80.41 1320.37,-79.87 1322.34,-86.59"/>
</g>
<!-- AGDS -->
<g id="node12" class="node">
<title>AGDS</title>
<polygon fill="none" stroke="blue" points="1474.8,-230.5 1348.8,-230.5 1348.8,-137.5 1474.8,-137.5 1474.8,-230.5"/>
<text text-anchor="middle" x="1411.8" y="-175.5" font-family="Helvetica,sans-Serif" font-size="20.00">GDSII</text>
</g>
<!-- AV&#45;&gt;AGDS -->
<g id="edge13" class="edge">
<title>AV&#45;&gt;AGDS</title>
<path fill="none" stroke="black" d="M1197.08,-149.61C1239.27,-156.4 1294.05,-165.21 1337.58,-172.22"/>
<polygon fill="black" stroke="black" points="1336.76,-175.63 1347.19,-173.76 1337.87,-168.72 1336.76,-175.63"/>
</g>
<!-- LPE&#45;&gt;AS -->
<g id="edge16" class="edge">
<title>LPE&#45;&gt;AS</title>
<path fill="none" stroke="black" d="M1332.21,-49.29C1203.15,-38.73 938.97,-26.04 722.17,-73 713.94,-74.78 705.6,-77 697.28,-79.54"/>
<polygon fill="black" stroke="black" points="696.26,-76.19 687.81,-82.58 698.4,-82.86 696.26,-76.19"/>
</g>
<!-- AGDS&#45;&gt;PNR -->
<g id="edge14" class="edge">
<title>AGDS&#45;&gt;PNR</title>
<path fill="none" stroke="black" d="M1475.14,-209.75C1488.12,-215.11 1502.15,-220.91 1516.23,-226.72"/>
<polygon fill="black" stroke="black" points="1514.5,-229.8 1525.08,-230.38 1517.17,-223.33 1514.5,-229.8"/>
</g>
</g>
</svg>
