<?xml version="1.0" encoding="UTF-8"?>
<svg xmlns="http://www.w3.org/2000/svg" xmlns:xlink="http://www.w3.org/1999/xlink" width="233.9164" height="174.04829" viewBox="0 0 233.9164 174.04829">
<defs>
<clipPath id="clip-0">
<path clip-rule="nonzero" d="M 13 0 L 233.238281 0 L 233.238281 74 L 13 74 Z M 13 0 "/>
</clipPath>
</defs>
<path fill-rule="nonzero" fill="rgb(0%, 0%, 0%)" fill-opacity="1" d="M 26.132812 -79.296875 C 25.804688 -79.296875 25.539062 -79.5625 25.539062 -79.890625 C 25.539062 -80.21875 25.804688 -80.484375 26.132812 -80.484375 L 52.117188 -80.484375 C 52.445312 -80.484375 52.710938 -80.21875 52.710938 -79.890625 C 52.710938 -79.5625 52.445312 -79.296875 52.117188 -79.296875 Z M 52.117188 -84.621094 L 62.992188 -79.890625 L 52.117188 -75.164062 Z M 26.550781 -70.515625 C 26.695312 -70.222656 26.574219 -69.867188 26.28125 -69.71875 C 25.984375 -69.574219 25.628906 -69.695312 25.484375 -69.988281 C 25.449219 -70.054688 25.230469 -70.359375 25.113281 -70.746094 C 25.023438 -71.046875 25.125 -71.4375 25.332031 -71.652344 C 25.902344 -72.253906 26.746094 -72.226562 27.714844 -72.25 C 28.652344 -72.269531 29.773438 -72.296875 30.75 -72.148438 C 31.265625 -72.070312 31.765625 -71.988281 32.203125 -71.710938 C 32.414062 -71.578125 32.648438 -71.410156 32.804688 -71.109375 C 33.066406 -70.597656 32.792969 -70.152344 32.554688 -69.835938 L 31.695312 -68.949219 L 29.464844 -67.144531 C 29.144531 -66.859375 29.007812 -66.644531 28.972656 -66.464844 L 28.984375 -66.171875 L 29.40625 -65.917969 C 30.007812 -65.621094 31 -65.542969 32.171875 -65.554688 L 34.128906 -65.722656 L 35.28125 -65.949219 L 35.839844 -66.046875 C 36.152344 -66.152344 36.488281 -65.984375 36.59375 -65.671875 C 36.695312 -65.359375 36.527344 -65.023438 36.214844 -64.921875 C 35.875 -64.808594 35.96875 -64.882812 35.867188 -64.882812 L 34.753906 -64.890625 C 34.425781 -64.917969 34.183594 -65.207031 34.210938 -65.53125 C 34.238281 -65.859375 34.523438 -66.105469 34.851562 -66.078125 L 35.488281 -66.066406 L 35.839844 -66.070312 L 35.945312 -66.074219 L 35.960938 -66.074219 L 35.945312 -66.074219 C 35.957031 -66.074219 35.765625 -66.023438 35.839844 -66.046875 L 36.214844 -64.921875 L 35.527344 -64.785156 L 34.308594 -64.546875 C 33.640625 -64.445312 32.902344 -64.371094 32.183594 -64.363281 C 30.949219 -64.351562 29.808594 -64.394531 28.882812 -64.851562 C 28.605469 -64.984375 28.242188 -65.128906 27.984375 -65.53125 C 27.730469 -65.925781 27.746094 -66.363281 27.804688 -66.679688 C 27.902344 -67.226562 28.253906 -67.660156 28.671875 -68.03125 L 30.914062 -69.847656 L 31.601562 -70.546875 L 31.714844 -70.730469 L 31.710938 -70.695312 L 31.746094 -70.566406 L 31.570312 -70.707031 C 31.402344 -70.8125 31.046875 -70.898438 30.574219 -70.972656 C 29.742188 -71.097656 28.667969 -71.082031 27.742188 -71.0625 C 27.152344 -71.046875 26.644531 -70.992188 26.355469 -70.898438 L 26.191406 -70.835938 C 26.15625 -70.796875 26.238281 -71.140625 26.253906 -71.085938 Z M 28.472656 -67.71875 C 28.75 -67.542969 28.832031 -67.175781 28.65625 -66.898438 C 28.476562 -66.621094 28.109375 -66.539062 27.832031 -66.714844 L 27.25 -67.039062 L 26.96875 -67.214844 C 26.863281 -67.300781 26.589844 -67.515625 26.703125 -67.933594 C 26.839844 -68.4375 27.183594 -68.441406 27.386719 -68.488281 C 28.105469 -68.652344 29.21875 -68.601562 30.511719 -68.570312 C 31.832031 -68.539062 33.195312 -68.488281 34.175781 -68.53125 C 34.503906 -68.546875 34.78125 -68.292969 34.792969 -67.964844 C 34.808594 -67.636719 34.554688 -67.359375 34.226562 -67.34375 C 33.015625 -67.289062 31.390625 -67.363281 29.9375 -67.390625 L 28.132812 -67.382812 L 27.648438 -67.328125 L 27.628906 -67.328125 C 27.609375 -67.316406 27.765625 -67.4375 27.722656 -67.398438 C 27.675781 -67.351562 27.878906 -67.726562 27.851562 -67.625 C 27.828125 -67.53125 27.839844 -67.96875 27.855469 -67.890625 C 27.875 -67.820312 27.769531 -68.085938 27.792969 -68.050781 C 27.832031 -67.984375 27.699219 -68.15625 27.710938 -68.144531 Z M 38.808594 -65.8125 C 39.128906 -65.746094 39.339844 -65.433594 39.273438 -65.113281 C 39.210938 -64.789062 38.898438 -64.582031 38.574219 -64.648438 L 38.730469 -64.710938 C 38.683594 -64.613281 38.652344 -64.207031 38.707031 -63.832031 L 38.8125 -63.363281 L 38.855469 -63.265625 L 38.839844 -63.285156 C 38.855469 -63.265625 38.65625 -63.421875 38.726562 -63.382812 C 39.007812 -63.210938 39.097656 -62.847656 38.929688 -62.566406 C 38.757812 -62.285156 38.394531 -62.191406 38.113281 -62.363281 C 37.664062 -62.632812 37.699219 -62.902344 37.625 -63.191406 C 37.507812 -63.636719 37.4375 -64.175781 37.507812 -64.699219 C 37.546875 -64.960938 37.617188 -65.238281 37.824219 -65.484375 C 38.042969 -65.742188 38.457031 -65.882812 38.808594 -65.8125 M 39.984375 -68.640625 C 40.125 -68.34375 40 -67.988281 39.707031 -67.847656 C 39.410156 -67.707031 39.054688 -67.832031 38.914062 -68.125 C 38.691406 -68.582031 38.519531 -68.960938 38.542969 -69.429688 C 38.5625 -69.757812 38.84375 -70.007812 39.171875 -69.992188 C 39.5 -69.972656 39.75 -69.695312 39.730469 -69.367188 C 39.71875 -69.152344 39.761719 -69.101562 39.984375 -68.640625 M 47.074219 -73.65625 C 47.328125 -73.449219 47.367188 -73.074219 47.160156 -72.820312 C 46.953125 -72.566406 46.578125 -72.527344 46.324219 -72.734375 C 46.167969 -72.859375 46.027344 -73 45.941406 -73.21875 C 45.804688 -73.566406 46.050781 -74.042969 46.296875 -74.183594 C 46.523438 -74.320312 46.738281 -74.351562 46.957031 -74.371094 C 47.710938 -74.441406 48.683594 -74.269531 49.335938 -73.550781 C 49.589844 -73.269531 49.816406 -72.863281 49.820312 -72.386719 C 49.828125 -71.996094 49.703125 -71.628906 49.519531 -71.285156 C 48.984375 -70.261719 47.867188 -69.609375 47.402344 -69.121094 L 47.285156 -68.976562 C 47.273438 -68.957031 47.296875 -69.105469 47.292969 -69.039062 C 47.289062 -68.953125 47.191406 -69.328125 47.226562 -69.273438 L 47.167969 -69.339844 L 47.375 -69.28125 C 47.890625 -69.183594 48.828125 -69.246094 49.65625 -69.347656 L 50.695312 -69.496094 L 51.007812 -69.542969 L 51.101562 -69.558594 L 51.191406 -69.5625 C 51.234375 -69.5625 51.859375 -69.957031 51.785156 -68.925781 C 51.726562 -68.109375 51.4375 -68.425781 51.40625 -68.414062 C 51.097656 -68.296875 50.753906 -68.449219 50.636719 -68.753906 C 50.519531 -69.058594 50.667969 -69.402344 50.976562 -69.523438 C 51.007812 -69.535156 50.542969 -68.191406 50.601562 -69.011719 C 50.671875 -70.027344 51.230469 -68.375 51.1875 -68.375 C 51.167969 -68.375 48.714844 -67.820312 47.152344 -68.113281 L 46.535156 -68.335938 C 46.328125 -68.460938 46.089844 -68.742188 46.105469 -69.089844 C 46.121094 -69.476562 46.328125 -69.714844 46.542969 -69.941406 C 47.179688 -70.605469 48.164062 -71.257812 48.46875 -71.835938 L 48.632812 -72.371094 C 48.632812 -72.507812 48.578125 -72.617188 48.457031 -72.753906 C 48.175781 -73.0625 47.507812 -73.226562 47.0625 -73.1875 L 46.898438 -73.15625 L 46.929688 -73.183594 C 46.894531 -73.15625 47.078125 -73.4375 47.046875 -73.351562 C 47.023438 -73.285156 47.066406 -73.621094 47.074219 -73.558594 L 47.042969 -73.664062 C 47.070312 -73.601562 47.015625 -73.703125 47.074219 -73.65625 M 47.527344 -64.039062 C 47.40625 -64.34375 47.554688 -64.6875 47.859375 -64.808594 C 48.164062 -64.929688 48.511719 -64.78125 48.632812 -64.476562 C 48.660156 -64.40625 48.777344 -64.238281 48.578125 -63.929688 C 48.371094 -63.609375 48.03125 -63.652344 47.929688 -63.679688 C 47.492188 -63.789062 47.644531 -63.832031 47.585938 -63.882812 L 47.3125 -64.136719 L 47.203125 -64.246094 L 47.15625 -64.300781 C 47.136719 -64.328125 47.050781 -64.300781 47.039062 -64.636719 C 47.035156 -64.800781 47.199219 -65.132812 47.433594 -65.214844 C 47.777344 -65.339844 47.839844 -65.21875 47.886719 -65.195312 L 48.011719 -65.117188 C 48.273438 -64.917969 48.324219 -64.542969 48.125 -64.285156 C 47.925781 -64.023438 47.550781 -63.972656 47.289062 -64.171875 L 47.304688 -64.164062 L 47.367188 -64.125 C 47.34375 -64.136719 47.570312 -64.0625 47.496094 -64.078125 C 47.410156 -64.097656 48.296875 -64.484375 48.058594 -64.238281 C 47.816406 -63.996094 48.175781 -64.921875 48.203125 -64.828125 C 48.226562 -64.753906 48.128906 -64.984375 48.144531 -64.960938 C 48.1875 -64.886719 48.078125 -65.046875 48.085938 -65.042969 L 48.292969 -64.847656 L 48.402344 -64.75 L 48.378906 -64.765625 L 48.320312 -64.796875 C 48.34375 -64.785156 48.125 -64.851562 48.191406 -64.835938 C 48.246094 -64.824219 47.800781 -64.792969 47.925781 -64.828125 C 48.027344 -64.855469 47.527344 -64.511719 47.613281 -64.621094 C 47.738281 -64.78125 47.496094 -64.109375 47.488281 -64.203125 C 47.480469 -64.285156 47.539062 -64.003906 47.527344 -64.039062 M 7.707031 87.25 C 7.378906 87.25 7.109375 86.984375 7.109375 86.65625 C 7.109375 86.328125 7.378906 86.0625 7.707031 86.0625 L 33.6875 86.0625 C 34.015625 86.0625 34.28125 86.328125 34.28125 86.65625 C 34.28125 86.984375 34.015625 87.25 33.6875 87.25 Z M 33.6875 81.929688 L 44.5625 86.65625 L 33.6875 91.382812 Z M 8.121094 96.03125 C 8.265625 96.324219 8.144531 96.683594 7.851562 96.828125 C 7.554688 96.972656 7.199219 96.851562 7.054688 96.558594 C 7.023438 96.492188 6.800781 96.1875 6.6875 95.800781 C 6.59375 95.5 6.695312 95.109375 6.902344 94.894531 C 7.472656 94.292969 8.316406 94.320312 9.285156 94.296875 C 10.226562 94.277344 11.34375 94.253906 12.320312 94.398438 C 12.839844 94.476562 13.335938 94.558594 13.777344 94.835938 C 13.984375 94.96875 14.21875 95.136719 14.375 95.4375 C 14.636719 95.949219 14.363281 96.394531 14.128906 96.710938 L 13.265625 97.597656 L 11.035156 99.402344 C 10.71875 99.6875 10.578125 99.902344 10.542969 100.082031 L 10.558594 100.375 L 10.976562 100.628906 C 11.578125 100.925781 12.570312 101.007812 13.742188 100.996094 L 15.699219 100.824219 L 16.851562 100.597656 L 17.410156 100.5 C 17.722656 100.394531 18.058594 100.566406 18.164062 100.875 C 18.265625 101.1875 18.097656 101.523438 17.785156 101.628906 C 17.445312 101.738281 17.539062 101.664062 17.4375 101.664062 L 16.324219 101.65625 C 15.996094 101.628906 15.753906 101.339844 15.78125 101.015625 C 15.808594 100.6875 16.09375 100.445312 16.421875 100.46875 L 17.0625 100.480469 L 17.414062 100.476562 L 17.519531 100.472656 L 17.535156 100.472656 L 17.515625 100.476562 C 17.527344 100.472656 17.335938 100.523438 17.410156 100.5 L 17.785156 101.628906 L 17.097656 101.761719 L 15.878906 102 C 15.214844 102.101562 14.476562 102.175781 13.757812 102.183594 C 12.523438 102.195312 11.378906 102.152344 10.453125 101.699219 C 10.179688 101.5625 9.8125 101.417969 9.554688 101.015625 C 9.304688 100.625 9.316406 100.183594 9.375 99.867188 C 9.476562 99.320312 9.828125 98.890625 10.242188 98.515625 L 12.484375 96.703125 L 13.175781 96 L 13.285156 95.816406 L 13.285156 95.851562 L 13.316406 95.980469 L 13.140625 95.839844 C 12.976562 95.734375 12.617188 95.648438 12.144531 95.574219 C 11.316406 95.449219 10.238281 95.464844 9.3125 95.488281 C 8.722656 95.5 8.214844 95.554688 7.925781 95.648438 L 7.765625 95.710938 C 7.726562 95.75 7.808594 95.40625 7.824219 95.460938 Z M 10.042969 98.832031 C 10.320312 99.007812 10.402344 99.375 10.226562 99.652344 C 10.050781 99.925781 9.683594 100.007812 9.40625 99.832031 L 8.820312 99.507812 L 8.539062 99.332031 C 8.433594 99.246094 8.164062 99.03125 8.277344 98.613281 C 8.414062 98.109375 8.757812 98.105469 8.957031 98.058594 C 9.675781 97.898438 10.789062 97.945312 12.085938 97.976562 C 13.402344 98.011719 14.769531 98.058594 15.746094 98.015625 C 16.074219 98 16.351562 98.253906 16.367188 98.582031 C 16.378906 98.910156 16.125 99.1875 15.796875 99.203125 C 14.585938 99.257812 12.960938 99.183594 11.507812 99.15625 L 9.703125 99.164062 L 9.222656 99.21875 L 9.199219 99.222656 C 9.179688 99.230469 9.335938 99.109375 9.292969 99.148438 C 9.246094 99.195312 9.449219 98.820312 9.421875 98.925781 C 9.398438 99.015625 9.410156 98.578125 9.429688 98.65625 C 9.445312 98.726562 9.339844 98.460938 9.363281 98.496094 C 9.402344 98.5625 9.269531 98.390625 9.28125 98.402344 Z M 20.378906 100.734375 C 20.703125 100.800781 20.910156 101.113281 20.847656 101.433594 C 20.78125 101.757812 20.46875 101.964844 20.144531 101.902344 L 20.304688 101.835938 C 20.253906 101.933594 20.222656 102.339844 20.277344 102.714844 L 20.382812 103.183594 L 20.425781 103.285156 L 20.410156 103.261719 C 20.425781 103.28125 20.230469 103.125 20.296875 103.167969 C 20.578125 103.335938 20.667969 103.699219 20.5 103.980469 C 20.332031 104.261719 19.964844 104.355469 19.683594 104.183594 C 19.234375 103.914062 19.273438 103.644531 19.195312 103.355469 C 19.078125 102.910156 19.007812 102.371094 19.082031 101.847656 C 19.117188 101.585938 19.1875 101.308594 19.394531 101.0625 C 19.613281 100.804688 20.03125 100.664062 20.378906 100.734375 M 21.554688 97.90625 C 21.699219 98.203125 21.574219 98.558594 21.277344 98.699219 C 20.980469 98.839844 20.625 98.71875 20.484375 98.421875 C 20.265625 97.964844 20.089844 97.585938 20.117188 97.117188 C 20.132812 96.789062 20.414062 96.539062 20.742188 96.554688 C 21.070312 96.574219 21.320312 96.851562 21.304688 97.179688 C 21.292969 97.394531 21.332031 97.445312 21.554688 97.90625 M 28.644531 92.890625 C 28.902344 93.097656 28.9375 93.472656 28.730469 93.726562 C 28.523438 93.980469 28.148438 94.019531 27.894531 93.8125 C 27.738281 93.6875 27.597656 93.546875 27.515625 93.328125 C 27.378906 92.980469 27.625 92.503906 27.867188 92.363281 C 28.09375 92.230469 28.308594 92.195312 28.527344 92.175781 C 29.28125 92.109375 30.253906 92.277344 30.90625 92.996094 C 31.164062 93.277344 31.386719 93.683594 31.394531 94.164062 C 31.398438 94.550781 31.273438 94.921875 31.09375 95.265625 C 30.554688 96.289062 29.441406 96.9375 28.972656 97.425781 L 28.855469 97.570312 C 28.84375 97.589844 28.867188 97.441406 28.863281 97.511719 C 28.859375 97.59375 28.761719 97.21875 28.800781 97.273438 L 28.738281 97.207031 L 28.945312 97.265625 C 29.460938 97.363281 30.398438 97.300781 31.226562 97.199219 L 32.269531 97.054688 L 32.578125 97.003906 L 32.671875 96.988281 L 32.761719 96.984375 C 32.808594 96.984375 33.429688 96.59375 33.355469 97.621094 C 33.300781 98.4375 33.011719 98.121094 32.976562 98.132812 C 32.671875 98.253906 32.328125 98.101562 32.207031 97.792969 C 32.089844 97.488281 32.242188 97.144531 32.546875 97.023438 C 32.578125 97.011719 32.113281 98.351562 32.171875 97.535156 C 32.242188 96.527344 32.800781 98.171875 32.757812 98.171875 C 32.738281 98.171875 30.285156 98.726562 28.726562 98.433594 L 28.105469 98.214844 C 27.898438 98.085938 27.660156 97.804688 27.675781 97.457031 C 27.695312 97.070312 27.898438 96.832031 28.113281 96.605469 C 28.75 95.941406 29.734375 95.292969 30.039062 94.710938 L 30.203125 94.179688 C 30.203125 94.039062 30.148438 93.929688 30.027344 93.792969 C 29.746094 93.484375 29.078125 93.320312 28.632812 93.359375 L 28.46875 93.390625 L 28.5 93.363281 C 28.464844 93.394531 28.652344 93.109375 28.617188 93.195312 C 28.59375 93.261719 28.636719 92.925781 28.644531 92.988281 L 28.617188 92.882812 C 28.644531 92.945312 28.585938 92.84375 28.644531 92.890625 M 29.097656 102.507812 C 28.976562 102.203125 29.125 101.859375 29.429688 101.738281 C 29.738281 101.617188 30.082031 101.765625 30.203125 102.070312 C 30.230469 102.140625 30.347656 102.308594 30.148438 102.617188 C 29.941406 102.9375 29.601562 102.894531 29.5 102.871094 C 29.226562 102.800781 29.277344 102.761719 29.246094 102.738281 L 28.925781 102.453125 L 28.792969 102.320312 L 28.757812 102.28125 L 28.6875 102.179688 L 28.617188 101.980469 C 28.597656 101.851562 28.652344 101.527344 28.902344 101.378906 C 29.289062 101.152344 29.394531 101.324219 29.449219 101.347656 L 29.585938 101.429688 C 29.84375 101.628906 29.894531 102.003906 29.695312 102.261719 C 29.496094 102.523438 29.121094 102.574219 28.863281 102.375 L 28.875 102.382812 L 28.9375 102.421875 C 28.914062 102.410156 29.144531 102.488281 29.066406 102.46875 C 28.980469 102.449219 29.867188 102.0625 29.628906 102.308594 C 29.390625 102.550781 29.746094 101.625 29.773438 101.71875 C 29.796875 101.792969 29.699219 101.5625 29.714844 101.585938 C 29.757812 101.660156 29.652344 101.5 29.65625 101.503906 L 29.863281 101.699219 L 29.972656 101.796875 L 29.949219 101.78125 L 29.890625 101.75 C 29.917969 101.761719 29.695312 101.695312 29.761719 101.710938 C 29.820312 101.722656 29.371094 101.753906 29.496094 101.71875 C 29.597656 101.691406 29.097656 102.035156 29.183594 101.925781 C 29.308594 101.765625 29.066406 102.4375 29.058594 102.347656 C 29.050781 102.261719 29.113281 102.542969 29.097656 102.507812 "/>
<g clip-path="url(#clip-0)">
<path fill-rule="nonzero" fill="rgb(92.941284%, 21.176147%, 14.117432%)" fill-opacity="1" d="M 107.117188 -151.300781 C 107.015625 -150.988281 106.683594 -150.816406 106.371094 -150.917969 C 106.058594 -151.019531 105.886719 -151.351562 105.984375 -151.664062 C 106.003906 -151.71875 105.976562 -151.542969 105.972656 -151.558594 L 105.832031 -151.777344 L 105.75 -151.863281 L 105.511719 -152.042969 L 105.546875 -152.042969 C 105.515625 -152.035156 105.730469 -152.183594 105.683594 -152.128906 C 105.640625 -152.082031 105.757812 -152.273438 105.75 -152.25 L 105.816406 -151.957031 L 106.152344 -151.144531 C 106.46875 -150.496094 106.9375 -149.710938 107.484375 -149.015625 C 108.007812 -148.351562 108.585938 -147.851562 109.058594 -147.632812 C 109.800781 -147.289062 110.183594 -147.652344 110.246094 -148.3125 C 110.320312 -149.117188 109.347656 -150.863281 108.019531 -152.328125 C 107.527344 -152.867188 107.058594 -153.351562 106.574219 -153.703125 C 106.039062 -154.089844 105.394531 -154.300781 104.84375 -154.425781 L 104.339844 -154.523438 L 104.421875 -154.542969 C 104.378906 -154.527344 104.59375 -154.683594 104.554688 -154.636719 L 104.617188 -154.746094 L 104.632812 -154.796875 L 104.898438 -154.234375 C 105.265625 -153.710938 105.84375 -153.148438 106.636719 -152.648438 L 108.078125 -151.914062 L 111.183594 -150.621094 C 112.003906 -150.304688 112.609375 -150.132812 112.796875 -150.136719 L 112.769531 -150.121094 C 112.8125 -150.140625 112.59375 -149.945312 112.632812 -150 L 112.582031 -149.886719 L 112.574219 -149.859375 L 112.535156 -150.003906 C 112.421875 -150.3125 112.585938 -150.652344 112.894531 -150.765625 C 113.203125 -150.875 113.542969 -150.710938 113.652344 -150.402344 C 113.757812 -150.113281 113.84375 -149.808594 113.683594 -149.457031 C 113.5625 -149.183594 113.265625 -149.007812 113.03125 -148.964844 C 112.367188 -148.84375 111.714844 -149.144531 110.753906 -149.511719 L 107.59375 -150.828125 L 106 -151.640625 C 105.085938 -152.21875 104.394531 -152.886719 103.925781 -153.550781 C 103.671875 -153.914062 103.484375 -154.277344 103.449219 -154.683594 C 103.429688 -154.894531 103.449219 -155.148438 103.625 -155.378906 C 103.804688 -155.613281 104.113281 -155.71875 104.367188 -155.714844 L 105.105469 -155.585938 C 105.742188 -155.441406 106.542969 -155.195312 107.273438 -154.667969 C 107.871094 -154.230469 108.390625 -153.6875 108.898438 -153.128906 C 110.335938 -151.542969 111.574219 -149.769531 111.429688 -148.203125 C 111.367188 -147.5625 111.0625 -146.960938 110.53125 -146.613281 C 109.992188 -146.261719 109.246094 -146.234375 108.558594 -146.554688 C 107.835938 -146.890625 107.15625 -147.511719 106.550781 -148.277344 C 105.941406 -149.054688 105.4375 -149.898438 105.082031 -150.621094 L 104.640625 -151.746094 C 104.550781 -152.097656 104.4375 -152.496094 104.777344 -152.898438 C 105.0625 -153.238281 105.503906 -153.28125 105.835938 -153.183594 C 106.175781 -153.089844 106.34375 -152.902344 106.460938 -152.816406 L 106.730469 -152.554688 C 106.980469 -152.265625 107.304688 -151.882812 107.117188 -151.300781 M 109.242188 -155.769531 C 109.050781 -156.035156 109.117188 -156.40625 109.382812 -156.597656 C 109.652344 -156.785156 110.023438 -156.722656 110.210938 -156.457031 C 110.554688 -155.96875 112.609375 -154.644531 113.355469 -154.753906 C 113.679688 -154.804688 113.984375 -154.578125 114.03125 -154.253906 C 114.082031 -153.929688 113.855469 -153.628906 113.53125 -153.578125 C 112.660156 -153.449219 111.792969 -153.871094 111.007812 -154.335938 C 110.230469 -154.796875 109.585938 -155.28125 109.242188 -155.769531 M 190.980469 -187.019531 C 191.226562 -186.800781 191.25 -186.425781 191.03125 -186.179688 C 190.816406 -185.933594 190.4375 -185.910156 190.191406 -186.128906 L 190.230469 -186.101562 L 190.328125 -186.0625 C 190.242188 -186.085938 190.734375 -186.140625 190.636719 -186.09375 C 190.554688 -186.054688 190.828125 -186.269531 190.800781 -186.230469 C 190.757812 -186.171875 190.835938 -186.300781 190.832031 -186.277344 C 190.8125 -186.164062 190.835938 -185.808594 190.988281 -185.367188 C 191.132812 -184.953125 191.394531 -184.4375 191.777344 -183.875 C 192.292969 -183.117188 193.027344 -182.300781 193.78125 -181.632812 C 194.257812 -181.214844 194.769531 -180.898438 195.207031 -180.660156 L 195.808594 -180.414062 C 195.878906 -180.398438 195.773438 -180.371094 195.832031 -180.394531 C 195.878906 -180.414062 195.664062 -180.222656 195.691406 -180.273438 L 195.671875 -180.222656 L 195.554688 -180.730469 C 195.382812 -181.207031 195.023438 -181.828125 194.621094 -182.460938 C 193.925781 -183.554688 193.109375 -184.578125 192.207031 -185.417969 C 191.703125 -185.882812 191.183594 -186.292969 190.726562 -186.570312 L 190.160156 -186.863281 L 189.984375 -186.910156 L 190.0625 -186.933594 C 189.953125 -186.890625 190.347656 -187.214844 190.304688 -187.140625 C 190.269531 -187.078125 190.355469 -187.296875 190.351562 -187.273438 L 190.394531 -187.109375 L 190.585938 -186.652344 C 190.882812 -186.089844 191.390625 -185.4375 192.222656 -184.707031 L 193.597656 -183.613281 L 196.015625 -182.0625 L 197.65625 -181.0625 C 198.28125 -180.703125 198.71875 -180.523438 199.03125 -180.441406 L 199.6875 -180.347656 L 199.5 -180.078125 C 199.445312 -180.402344 199.667969 -180.707031 199.988281 -180.761719 C 200.3125 -180.816406 200.621094 -180.59375 200.671875 -180.269531 C 200.710938 -180.039062 200.679688 -179.753906 200.507812 -179.53125 C 200.257812 -179.203125 199.894531 -179.152344 199.605469 -179.152344 L 198.730469 -179.289062 C 198.277344 -179.410156 197.75 -179.640625 197.066406 -180.03125 L 195.394531 -181.046875 L 192.90625 -182.648438 L 191.433594 -183.816406 C 190.523438 -184.621094 189.910156 -185.382812 189.535156 -186.105469 L 189.207031 -186.957031 L 189.171875 -187.417969 C 189.195312 -187.605469 189.3125 -187.914062 189.625 -188.039062 C 190.003906 -188.191406 190.28125 -188.078125 190.542969 -187.988281 L 191.339844 -187.589844 C 191.894531 -187.253906 192.464844 -186.796875 193.011719 -186.289062 C 194.007812 -185.367188 194.882812 -184.265625 195.621094 -183.101562 C 196.042969 -182.4375 196.441406 -181.773438 196.671875 -181.140625 C 196.886719 -180.550781 197.066406 -179.878906 196.507812 -179.425781 C 195.949219 -178.976562 195.308594 -179.253906 194.640625 -179.613281 C 194.152344 -179.878906 193.5625 -180.238281 192.996094 -180.742188 C 192.164062 -181.472656 191.378906 -182.347656 190.796875 -183.207031 C 190.367188 -183.839844 190.054688 -184.433594 189.867188 -184.976562 C 189.667969 -185.550781 189.589844 -186.042969 189.660156 -186.46875 C 189.695312 -186.683594 189.757812 -186.945312 190.054688 -187.128906 C 190.371094 -187.328125 190.789062 -187.1875 190.980469 -187.019531 M 195.730469 -185.894531 C 195.9375 -186.152344 196.308594 -186.191406 196.566406 -185.984375 C 196.820312 -185.78125 196.863281 -185.40625 196.65625 -185.148438 C 196.46875 -184.917969 196.152344 -184.691406 195.777344 -184.75 C 195.230469 -184.839844 195.074219 -185.289062 194.996094 -185.621094 C 194.921875 -185.949219 194.921875 -186.308594 195.050781 -186.664062 C 195.21875 -187.113281 195.683594 -187.402344 196.148438 -187.4375 C 196.359375 -187.453125 196.664062 -187.460938 197.003906 -187.347656 C 197.996094 -187.019531 198.726562 -186.085938 199.226562 -185.8125 L 199.378906 -185.746094 L 199.332031 -185.734375 L 199.222656 -185.671875 L 199.207031 -185.664062 L 199.355469 -186.5625 C 199.445312 -187.707031 199.304688 -189.207031 199.207031 -189.527344 C 199.109375 -189.839844 199.28125 -190.171875 199.59375 -190.269531 C 199.910156 -190.367188 200.242188 -190.195312 200.339844 -189.878906 C 200.5625 -189.175781 200.640625 -187.769531 200.539062 -186.46875 L 200.390625 -185.46875 C 200.308594 -185.160156 200.179688 -184.765625 199.714844 -184.609375 C 199.3125 -184.472656 198.949219 -184.605469 198.652344 -184.769531 C 197.828125 -185.222656 197.085938 -186.066406 196.628906 -186.21875 L 196.238281 -186.25 L 196.167969 -186.25 L 196.179688 -185.808594 L 196.15625 -185.835938 C 196.179688 -185.8125 195.972656 -185.929688 196.035156 -185.910156 C 196.128906 -185.875 195.695312 -185.871094 195.753906 -185.898438 C 195.808594 -185.921875 195.707031 -185.863281 195.730469 -185.894531 M 33.949219 -104.136719 C 34.078125 -103.835938 33.941406 -103.484375 33.640625 -103.355469 C 33.339844 -103.222656 32.992188 -103.359375 32.859375 -103.660156 L 32.535156 -104.382812 L 32.351562 -104.78125 L 32.300781 -104.886719 L 32.351562 -104.828125 C 32.320312 -104.859375 32.585938 -104.683594 32.503906 -104.722656 C 32.417969 -104.761719 33.035156 -104.714844 32.882812 -104.679688 C 32.730469 -104.648438 33.289062 -104.976562 33.222656 -104.894531 C 33.164062 -104.820312 33.332031 -105.121094 33.320312 -105.078125 C 33.292969 -104.996094 33.34375 -105.246094 33.34375 -105.222656 C 33.339844 -105.144531 33.34375 -105.273438 33.347656 -105.242188 L 34.085938 -102.574219 L 35.074219 -99.394531 L 35.617188 -97.925781 L 35.785156 -97.59375 L 35.730469 -97.625 C 35.761719 -97.609375 35.558594 -97.691406 35.609375 -97.679688 C 35.675781 -97.660156 35.339844 -97.675781 35.402344 -97.6875 C 35.460938 -97.695312 35.226562 -97.621094 35.261719 -97.640625 C 35.320312 -97.671875 35.15625 -97.558594 35.167969 -97.570312 L 35.640625 -98.726562 L 36.535156 -101.144531 L 37.335938 -104.023438 C 37.554688 -104.898438 37.636719 -105.652344 37.84375 -106.210938 C 37.902344 -106.363281 37.96875 -106.523438 38.148438 -106.671875 C 38.292969 -106.792969 38.566406 -106.882812 38.796875 -106.816406 C 39.425781 -106.636719 39.425781 -106.1875 39.539062 -105.734375 C 39.617188 -105.417969 39.421875 -105.09375 39.105469 -105.015625 C 38.785156 -104.9375 38.464844 -105.132812 38.382812 -105.449219 L 38.28125 -105.773438 L 38.359375 -105.722656 C 38.292969 -105.761719 38.78125 -105.671875 38.664062 -105.660156 C 38.574219 -105.648438 38.925781 -105.769531 38.875 -105.734375 C 38.804688 -105.691406 38.980469 -105.839844 38.972656 -105.828125 L 38.957031 -105.792969 L 38.488281 -103.734375 L 37.660156 -100.769531 L 36.761719 -98.324219 L 36.332031 -97.230469 L 36.078125 -96.804688 C 35.960938 -96.664062 35.6875 -96.429688 35.316406 -96.527344 C 34.707031 -96.679688 34.691406 -97.082031 34.53125 -97.445312 L 33.945312 -99.015625 L 32.953125 -102.21875 L 32.339844 -104.324219 L 32.191406 -104.957031 L 32.160156 -105.179688 L 32.183594 -105.421875 C 32.210938 -105.523438 32.304688 -105.765625 32.621094 -105.839844 C 32.933594 -105.914062 33.105469 -105.753906 33.171875 -105.6875 C 33.511719 -105.363281 33.480469 -105.160156 33.609375 -104.890625 Z M 39.066406 -96.699219 C 39.074219 -97.027344 39.34375 -97.292969 39.671875 -97.289062 C 40 -97.28125 40.261719 -97.011719 40.257812 -96.683594 L 40.117188 -95.085938 L 40.003906 -94.195312 L 39.972656 -93.917969 L 39.972656 -93.847656 L 39.964844 -93.886719 L 39.929688 -93.976562 C 39.949219 -93.9375 39.800781 -94.148438 39.84375 -94.101562 C 39.882812 -94.0625 39.632812 -94.242188 39.691406 -94.214844 C 39.796875 -94.160156 39.308594 -94.257812 39.390625 -94.265625 C 39.445312 -94.273438 39.238281 -94.222656 39.265625 -94.234375 L 39.210938 -94.207031 L 39.242188 -94.230469 C 39.480469 -94.453125 39.859375 -94.4375 40.082031 -94.195312 C 40.304688 -93.957031 40.289062 -93.578125 40.046875 -93.355469 C 39.929688 -93.25 39.828125 -93.117188 39.523438 -93.085938 C 39.269531 -93.058594 38.9375 -93.285156 38.855469 -93.46875 C 38.652344 -93.910156 38.792969 -94.089844 38.820312 -94.324219 L 38.9375 -95.230469 Z M 40.992188 -100.9375 C 41.078125 -100.621094 40.890625 -100.292969 40.574219 -100.207031 C 40.257812 -100.121094 39.929688 -100.308594 39.84375 -100.625 L 39.707031 -100.878906 C 39.613281 -101.027344 39.460938 -101.292969 39.5 -101.628906 C 39.539062 -101.957031 39.832031 -102.191406 40.160156 -102.152344 C 40.484375 -102.117188 40.71875 -101.820312 40.679688 -101.496094 L 40.671875 -101.578125 C 40.675781 -101.574219 40.878906 -101.351562 40.992188 -100.9375 M 273.164062 -126.765625 C 273.164062 -126.4375 272.898438 -126.171875 272.570312 -126.171875 C 272.242188 -126.171875 271.976562 -126.4375 271.976562 -126.765625 L 271.976562 -128.308594 C 271.976562 -128.304688 271.992188 -128.183594 271.984375 -128.234375 C 271.933594 -128.558594 272.152344 -128.863281 272.476562 -128.914062 C 272.800781 -128.96875 273.105469 -128.746094 273.160156 -128.421875 L 273.167969 -128.136719 L 273.164062 -127.695312 Z M 271.988281 -128.4375 C 272.046875 -128.761719 272.359375 -128.972656 272.679688 -128.914062 C 273.003906 -128.851562 273.214844 -128.542969 273.15625 -128.21875 C 273.140625 -128.140625 273.164062 -128.296875 273.164062 -128.292969 L 272.980469 -126.605469 L 272.515625 -123.632812 C 272.195312 -121.878906 271.839844 -120.121094 271.851562 -119.246094 L 271.824219 -118.832031 C 271.824219 -118.8125 271.765625 -119.03125 271.789062 -118.96875 C 271.816406 -118.90625 271.566406 -119.234375 271.640625 -119.171875 C 271.699219 -119.121094 271.363281 -119.292969 271.433594 -119.277344 C 271.5 -119.261719 271.234375 -119.28125 271.273438 -119.285156 C 271.34375 -119.292969 271.179688 -119.261719 271.179688 -119.261719 C 271.625 -119.496094 273.429688 -121.835938 274.953125 -124.355469 C 276.371094 -126.695312 277.792969 -129.070312 279.015625 -130.726562 C 279.589844 -131.503906 280.058594 -132.101562 280.617188 -132.410156 C 280.902344 -132.566406 281.40625 -132.636719 281.730469 -132.335938 C 282.039062 -132.050781 282.082031 -131.691406 282.101562 -131.316406 C 282.117188 -130.988281 281.863281 -130.707031 281.535156 -130.691406 C 281.207031 -130.675781 280.929688 -130.929688 280.914062 -131.257812 L 280.878906 -131.507812 C 280.871094 -131.535156 280.953125 -131.433594 280.910156 -131.476562 C 280.863281 -131.523438 281.199219 -131.367188 281.125 -131.375 C 281.058594 -131.382812 281.21875 -131.382812 281.214844 -131.382812 C 280.539062 -131.113281 278.15625 -127.355469 275.972656 -123.742188 C 275.082031 -122.269531 274.132812 -120.878906 273.300781 -119.816406 L 272.222656 -118.585938 L 271.753906 -118.222656 C 271.574219 -118.121094 271.207031 -117.984375 270.875 -118.261719 C 270.523438 -118.554688 270.632812 -118.835938 270.644531 -118.953125 L 270.664062 -119.230469 C 270.648438 -120.371094 271.027344 -122.101562 271.34375 -123.84375 C 271.726562 -125.9375 271.960938 -127.882812 271.976562 -128.339844 Z M 278.472656 -122.671875 C 278.800781 -122.707031 279.09375 -122.472656 279.128906 -122.144531 C 279.164062 -121.820312 278.925781 -121.527344 278.601562 -121.492188 L 278.359375 -121.222656 L 277.699219 -120.292969 C 277.296875 -119.644531 276.867188 -118.839844 276.558594 -118.082031 C 276.351562 -117.582031 276.269531 -117.070312 276.261719 -116.691406 C 276.261719 -116.472656 276.207031 -116.570312 276.234375 -116.5625 C 276.324219 -116.527344 277.167969 -116.75 278.042969 -117.367188 C 278.789062 -117.894531 279.535156 -118.71875 280.191406 -119.535156 C 280.785156 -120.273438 281.210938 -121.027344 281.4375 -121.640625 C 281.722656 -122.402344 281.503906 -122.640625 281.054688 -122.730469 C 280.53125 -122.835938 279.625 -122.5625 278.878906 -121.714844 C 278.660156 -121.46875 278.285156 -121.445312 278.039062 -121.664062 C 277.792969 -121.882812 277.769531 -122.257812 277.988281 -122.503906 C 278.964844 -123.609375 280.234375 -124.109375 281.289062 -123.894531 C 281.8125 -123.789062 282.304688 -123.472656 282.550781 -122.976562 C 282.800781 -122.476562 282.785156 -121.851562 282.554688 -121.226562 C 282.273438 -120.464844 281.785156 -119.617188 281.117188 -118.789062 C 280.425781 -117.929688 279.628906 -117.035156 278.726562 -116.398438 C 277.734375 -115.695312 276.769531 -115.105469 275.828125 -115.441406 C 275.320312 -115.625 275.066406 -116.210938 275.074219 -116.710938 C 275.082031 -117.238281 275.1875 -117.878906 275.457031 -118.53125 C 275.800781 -119.371094 276.253906 -120.21875 276.6875 -120.921875 L 277.421875 -121.953125 C 277.730469 -122.351562 278.085938 -122.628906 278.472656 -122.671875 M 15.519531 62.410156 C 15.652344 62.710938 15.515625 63.0625 15.214844 63.191406 C 14.914062 63.324219 14.5625 63.1875 14.429688 62.886719 L 14.105469 62.164062 L 13.921875 61.769531 L 13.871094 61.660156 L 13.921875 61.71875 C 13.890625 61.6875 14.15625 61.863281 14.074219 61.824219 C 13.992188 61.785156 14.609375 61.832031 14.453125 61.867188 C 14.300781 61.902344 14.859375 61.570312 14.792969 61.652344 C 14.734375 61.730469 14.902344 61.425781 14.890625 61.472656 C 14.863281 61.550781 14.917969 61.300781 14.914062 61.328125 C 14.914062 61.402344 14.914062 61.273438 14.917969 61.304688 L 15.65625 63.972656 L 16.644531 67.15625 L 17.191406 68.621094 L 17.355469 68.953125 L 17.304688 68.921875 C 17.332031 68.941406 17.128906 68.855469 17.179688 68.871094 C 17.246094 68.886719 16.910156 68.871094 16.972656 68.859375 C 17.03125 68.851562 16.796875 68.925781 16.832031 68.910156 C 16.894531 68.875 16.730469 68.988281 16.738281 68.976562 L 17.214844 67.820312 L 18.105469 65.402344 L 18.90625 62.523438 C 19.128906 61.652344 19.207031 60.894531 19.414062 60.335938 C 19.472656 60.183594 19.539062 60.023438 19.71875 59.875 C 19.863281 59.753906 20.136719 59.664062 20.371094 59.730469 C 21 59.910156 20.996094 60.359375 21.109375 60.8125 C 21.1875 61.128906 20.992188 61.453125 20.675781 61.53125 C 20.355469 61.609375 20.035156 61.414062 19.957031 61.097656 L 19.851562 60.773438 L 19.933594 60.824219 C 19.863281 60.785156 20.351562 60.875 20.234375 60.890625 C 20.148438 60.898438 20.496094 60.777344 20.445312 60.8125 C 20.378906 60.859375 20.550781 60.707031 20.542969 60.71875 L 20.527344 60.753906 L 20.0625 62.816406 L 19.234375 65.78125 L 18.332031 68.226562 L 17.902344 69.316406 L 17.648438 69.742188 C 17.53125 69.882812 17.261719 70.117188 16.890625 70.023438 C 16.28125 69.867188 16.265625 69.464844 16.101562 69.101562 L 15.519531 67.53125 L 14.523438 64.332031 L 13.914062 62.222656 L 13.761719 61.589844 L 13.730469 61.367188 L 13.753906 61.125 C 13.78125 61.027344 13.875 60.78125 14.191406 60.707031 C 14.503906 60.632812 14.675781 60.792969 14.742188 60.859375 C 15.082031 61.183594 15.054688 61.386719 15.179688 61.65625 Z M 20.640625 69.847656 C 20.644531 69.519531 20.914062 69.253906 21.242188 69.261719 C 21.570312 69.265625 21.832031 69.535156 21.828125 69.863281 L 21.6875 71.460938 L 21.574219 72.351562 L 21.546875 72.628906 L 21.542969 72.703125 L 21.535156 72.664062 L 21.503906 72.570312 C 21.519531 72.609375 21.371094 72.398438 21.414062 72.445312 C 21.453125 72.488281 21.203125 72.304688 21.261719 72.332031 C 21.367188 72.386719 20.878906 72.292969 20.960938 72.28125 C 21.015625 72.273438 20.808594 72.324219 20.835938 72.3125 L 20.78125 72.34375 L 20.8125 72.316406 C 21.050781 72.09375 21.429688 72.109375 21.652344 72.351562 C 21.875 72.589844 21.859375 72.96875 21.617188 73.191406 C 21.5 73.296875 21.398438 73.429688 21.097656 73.460938 C 20.839844 73.492188 20.511719 73.261719 20.425781 73.078125 C 20.226562 72.636719 20.367188 72.460938 20.390625 72.222656 L 20.507812 71.316406 Z M 22.5625 65.609375 C 22.648438 65.925781 22.460938 66.253906 22.144531 66.339844 C 21.828125 66.425781 21.503906 66.238281 21.417969 65.921875 L 21.277344 65.667969 C 21.183594 65.519531 21.03125 65.253906 21.070312 64.917969 C 21.109375 64.589844 21.402344 64.355469 21.730469 64.394531 C 22.054688 64.433594 22.289062 64.726562 22.253906 65.054688 L 22.242188 64.96875 C 22.246094 64.972656 22.449219 65.195312 22.5625 65.609375 "/>
</g>
<path fill-rule="nonzero" fill="rgb(7.058716%, 1.176453%, 46.665955%)" fill-opacity="1" d="M 115.882812 -100.015625 C 115.6875 -100.277344 115.742188 -100.652344 116.003906 -100.847656 C 116.265625 -101.042969 116.640625 -100.992188 116.835938 -100.726562 L 120.527344 -95.796875 C 120.726562 -95.53125 120.671875 -95.160156 120.410156 -94.964844 C 120.148438 -94.765625 119.773438 -94.820312 119.578125 -95.082031 Z M 107.664062 -140.519531 C 109.164062 -140.519531 110.476562 -139.707031 111.183594 -138.5 C 111.535156 -137.894531 111.738281 -137.195312 111.738281 -136.445312 C 111.738281 -134.945312 110.925781 -133.632812 109.714844 -132.925781 C 109.113281 -132.574219 108.414062 -132.375 107.664062 -132.375 C 106.164062 -132.375 104.851562 -133.183594 104.144531 -134.394531 C 103.792969 -134.996094 103.589844 -135.699219 103.589844 -136.445312 C 103.589844 -137.945312 104.402344 -139.257812 105.613281 -139.964844 C 106.214844 -140.316406 106.914062 -140.519531 107.664062 -140.519531 M 107.664062 -139.332031 C 107.132812 -139.332031 106.636719 -139.1875 106.210938 -138.9375 C 105.355469 -138.4375 104.78125 -137.507812 104.78125 -136.445312 C 104.78125 -135.917969 104.921875 -135.421875 105.171875 -134.992188 C 105.671875 -134.136719 106.601562 -133.5625 107.664062 -133.5625 C 108.195312 -133.5625 108.691406 -133.703125 109.117188 -133.953125 C 109.972656 -134.453125 110.546875 -135.382812 110.546875 -136.445312 C 110.546875 -136.976562 110.40625 -137.472656 110.15625 -137.898438 C 109.65625 -138.753906 108.726562 -139.332031 107.664062 -139.332031 M 102.742188 71.703125 C 102.742188 72.03125 102.476562 72.296875 102.148438 72.296875 C 101.820312 72.296875 101.554688 72.03125 101.554688 71.703125 L 101.554688 57.386719 C 101.554688 57.058594 101.820312 56.792969 102.148438 56.792969 C 102.476562 56.792969 102.742188 57.058594 102.742188 57.386719 Z M 102.148438 56.792969 C 102.476562 56.792969 102.742188 57.058594 102.742188 57.386719 C 102.742188 57.714844 102.476562 57.980469 102.148438 57.980469 L 77.371094 57.980469 C 77.042969 57.980469 76.777344 57.714844 76.777344 57.386719 C 76.777344 57.058594 77.042969 56.792969 77.371094 56.792969 Z M 76.777344 57.386719 C 76.777344 57.058594 77.042969 56.792969 77.371094 56.792969 C 77.699219 56.792969 77.964844 57.058594 77.964844 57.386719 L 77.964844 71.703125 C 77.964844 72.03125 77.699219 72.296875 77.371094 72.296875 C 77.042969 72.296875 76.777344 72.03125 76.777344 71.703125 Z M 77.371094 71.109375 C 77.699219 71.109375 77.964844 71.375 77.964844 71.703125 C 77.964844 72.03125 77.699219 72.296875 77.371094 72.296875 L 56.066406 72.296875 C 55.738281 72.296875 55.472656 72.03125 55.472656 71.703125 C 55.472656 71.375 55.738281 71.109375 56.066406 71.109375 Z M 101.167969 53.152344 C 101.496094 53.152344 101.761719 53.417969 101.761719 53.746094 C 101.761719 54.074219 101.496094 54.339844 101.167969 54.339844 L 78.351562 54.339844 C 78.023438 54.339844 77.757812 54.074219 77.757812 53.746094 C 77.757812 53.417969 78.023438 53.152344 78.351562 53.152344 Z M 89.164062 34.164062 C 89.164062 33.835938 89.433594 33.570312 89.761719 33.570312 C 90.089844 33.570312 90.355469 33.835938 90.355469 34.164062 L 90.355469 53.746094 C 90.355469 54.074219 90.089844 54.339844 89.761719 54.339844 C 89.433594 54.339844 89.164062 54.074219 89.164062 53.746094 Z M 123.453125 71.109375 C 123.78125 71.109375 124.046875 71.375 124.046875 71.703125 C 124.046875 72.03125 123.78125 72.296875 123.453125 72.296875 L 102.148438 72.296875 C 101.820312 72.296875 101.554688 72.03125 101.554688 71.703125 C 101.554688 71.375 101.820312 71.109375 102.148438 71.109375 Z M 105.84375 65.582031 C 106.171875 65.582031 106.4375 65.847656 106.4375 66.175781 C 106.4375 66.503906 106.171875 66.769531 105.84375 66.769531 L 98.457031 66.769531 C 98.128906 66.769531 97.863281 66.503906 97.863281 66.175781 C 97.863281 65.847656 98.128906 65.582031 98.457031 65.582031 Z M 105.367188 65.820312 C 105.5625 65.554688 105.9375 65.503906 106.199219 65.699219 C 106.460938 65.894531 106.515625 66.269531 106.320312 66.53125 L 102.625 71.464844 C 102.429688 71.726562 102.054688 71.78125 101.792969 71.582031 C 101.53125 71.386719 101.476562 71.015625 101.671875 70.75 Z M 105.367188 65.820312 "/>
<path fill-rule="nonzero" fill="rgb(7.058716%, 1.176453%, 46.665955%)" fill-opacity="1" d="M 104.582031 67.28125 C 104.511719 67.601562 104.195312 67.804688 103.875 67.734375 C 103.554688 67.664062 103.351562 67.347656 103.421875 67.027344 C 103.527344 66.542969 103.703125 66.609375 103.753906 66.570312 C 103.8125 66.523438 103.867188 66.496094 103.894531 66.480469 C 103.914062 66.46875 103.796875 66.554688 103.855469 66.507812 C 104.109375 66.300781 104.484375 66.339844 104.691406 66.59375 C 104.898438 66.851562 104.859375 67.222656 104.605469 67.429688 C 104.453125 67.554688 104.535156 67.46875 104.488281 67.503906 C 104.453125 67.53125 104.449219 67.535156 104.445312 67.539062 C 104.4375 67.542969 104.507812 67.464844 104.484375 67.492188 C 104.472656 67.507812 104.546875 67.390625 104.53125 67.421875 C 104.511719 67.457031 104.597656 67.222656 104.582031 67.28125 M 104.453125 66.417969 C 104.753906 66.546875 104.898438 66.894531 104.769531 67.195312 C 104.644531 67.5 104.296875 67.640625 103.992188 67.515625 C 103.988281 67.511719 103.992188 67.515625 103.976562 67.507812 C 103.996094 67.515625 104.003906 67.519531 104.003906 67.519531 C 104.003906 67.519531 104.027344 67.523438 104.015625 67.519531 C 103.953125 67.519531 103.894531 67.515625 103.847656 67.511719 C 103.585938 67.511719 103.296875 67.511719 102.945312 67.511719 C 102.636719 67.515625 102.289062 67.511719 101.9375 67.511719 C 101.703125 67.511719 101.476562 67.511719 101.273438 67.511719 C 101.125 67.511719 100.996094 67.511719 100.882812 67.511719 C 100.734375 67.515625 100.628906 67.515625 100.558594 67.523438 C 100.542969 67.527344 100.488281 67.542969 100.402344 67.566406 C 100.347656 67.582031 100.304688 67.59375 100.285156 67.601562 C 100.28125 67.601562 100.328125 67.582031 100.304688 67.59375 C 100.292969 67.597656 100.386719 67.550781 100.363281 67.566406 C 100.332031 67.582031 100.515625 67.433594 100.472656 67.480469 C 100.441406 67.507812 100.628906 67.230469 100.585938 67.320312 C 100.441406 67.617188 100.085938 67.742188 99.792969 67.597656 C 99.496094 67.453125 99.371094 67.097656 99.515625 66.804688 C 99.558594 66.710938 99.605469 66.664062 99.636719 66.632812 C 99.964844 66.308594 100.003906 66.445312 100.066406 66.425781 C 100.132812 66.40625 100.246094 66.367188 100.402344 66.347656 C 100.578125 66.324219 100.730469 66.324219 100.878906 66.324219 C 101 66.324219 101.128906 66.324219 101.273438 66.324219 C 101.476562 66.324219 101.703125 66.324219 101.9375 66.324219 C 102.292969 66.324219 102.636719 66.328125 102.9375 66.324219 C 103.289062 66.320312 103.589844 66.320312 103.863281 66.324219 C 103.949219 66.324219 104.023438 66.332031 104.078125 66.332031 C 104.191406 66.339844 104.28125 66.359375 104.347656 66.382812 C 104.378906 66.390625 104.40625 66.402344 104.429688 66.410156 C 104.464844 66.425781 104.441406 66.414062 104.453125 66.417969 M 99.476562 67.230469 C 99.386719 66.914062 99.570312 66.585938 99.886719 66.5 C 100.203125 66.410156 100.53125 66.59375 100.621094 66.910156 C 100.640625 66.976562 100.535156 66.726562 100.554688 66.761719 C 100.578125 66.792969 100.492188 66.675781 100.503906 66.691406 C 100.53125 66.714844 100.332031 66.554688 100.355469 66.566406 C 100.375 66.578125 100.316406 66.546875 100.320312 66.550781 C 100.363281 66.570312 100.324219 66.550781 100.40625 66.570312 C 100.707031 66.644531 101.054688 66.75 101.488281 66.796875 C 101.859375 66.839844 102.351562 66.820312 102.863281 66.835938 C 103.125 66.847656 103.382812 66.863281 103.621094 66.90625 C 103.792969 66.9375 103.933594 66.988281 104.042969 67.035156 C 104.121094 67.070312 104.195312 67.109375 104.289062 67.191406 C 104.328125 67.226562 104.363281 67.265625 104.402344 67.320312 C 104.488281 67.476562 104.527344 67.628906 104.5 67.78125 C 104.441406 68.105469 104.132812 68.320312 103.8125 68.261719 C 103.488281 68.203125 103.273438 67.894531 103.328125 67.570312 C 103.34375 67.5 103.34375 67.84375 103.332031 67.777344 C 103.320312 67.714844 103.414062 67.988281 103.390625 67.941406 C 103.394531 67.953125 103.507812 68.085938 103.488281 68.070312 C 103.433594 68.023438 103.570312 68.125 103.5625 68.125 C 103.53125 68.109375 103.472656 68.089844 103.410156 68.078125 C 103.257812 68.050781 103.050781 68.03125 102.824219 68.027344 C 102.363281 68.011719 101.851562 68.035156 101.355469 67.980469 C 100.808594 67.917969 100.378906 67.785156 100.117188 67.722656 C 100.074219 67.710938 100.003906 67.707031 99.871094 67.652344 C 99.820312 67.632812 99.757812 67.621094 99.636719 67.5 C 99.570312 67.425781 99.515625 67.367188 99.476562 67.230469 M 103.609375 67.167969 C 103.894531 67.003906 104.257812 67.097656 104.421875 67.382812 C 104.589844 67.664062 104.492188 68.03125 104.210938 68.195312 C 104.125 68.242188 104.050781 68.261719 104.003906 68.273438 C 103.929688 68.289062 103.886719 68.285156 103.84375 68.285156 C 103.761719 68.285156 103.691406 68.273438 103.617188 68.265625 C 103.570312 68.257812 103.714844 68.265625 103.699219 68.265625 C 103.683594 68.269531 103.644531 68.289062 103.5 68.308594 C 103.386719 68.324219 103.273438 68.335938 103.144531 68.347656 C 102.996094 68.359375 102.828125 68.367188 102.640625 68.375 C 102.335938 68.386719 101.996094 68.386719 101.703125 68.394531 C 101.554688 68.394531 101.421875 68.402344 101.300781 68.410156 C 101.199219 68.414062 101.121094 68.414062 101.121094 68.414062 C 101.082031 68.417969 101.097656 68.414062 101.078125 68.417969 C 101.074219 68.417969 101.125 68.410156 101.105469 68.414062 C 101.089844 68.417969 101.273438 68.351562 101.214844 68.378906 C 100.914062 68.511719 100.5625 68.375 100.429688 68.074219 C 100.296875 67.773438 100.433594 67.421875 100.734375 67.289062 C 100.851562 67.238281 100.882812 67.246094 100.910156 67.242188 C 100.964844 67.234375 100.988281 67.234375 101.011719 67.230469 C 101.105469 67.222656 101.171875 67.222656 101.246094 67.222656 C 101.363281 67.214844 101.507812 67.207031 101.679688 67.203125 C 101.984375 67.199219 102.320312 67.199219 102.59375 67.1875 C 102.773438 67.179688 102.925781 67.171875 103.046875 67.160156 C 103.160156 67.152344 103.246094 67.144531 103.335938 67.128906 C 103.347656 67.128906 103.46875 67.039062 103.796875 67.089844 C 103.832031 67.09375 103.851562 67.09375 103.855469 67.09375 C 103.863281 67.09375 103.699219 67.121094 103.769531 67.105469 C 103.828125 67.09375 103.542969 67.207031 103.617188 67.164062 C 103.617188 67.164062 103.609375 67.171875 103.609375 67.167969 M 100.375 67.839844 C 100.375 67.511719 100.640625 67.246094 100.96875 67.246094 C 101.296875 67.246094 101.5625 67.511719 101.5625 67.839844 C 101.5625 67.933594 101.488281 67.546875 101.515625 67.609375 C 101.550781 67.695312 101.375 67.410156 101.40625 67.441406 C 101.433594 67.472656 101.324219 67.371094 101.339844 67.382812 C 101.429688 67.460938 101.269531 67.335938 101.285156 67.347656 C 101.300781 67.355469 101.265625 67.335938 101.265625 67.335938 C 101.292969 67.351562 101.257812 67.332031 101.28125 67.339844 C 101.339844 67.359375 101.441406 67.390625 101.554688 67.433594 C 101.800781 67.527344 102.046875 67.648438 102.28125 67.746094 C 102.582031 67.875 102.867188 67.972656 103.082031 68.015625 C 103.144531 68.027344 103.226562 68.03125 103.34375 68.03125 C 103.4375 68.03125 103.527344 68.03125 103.601562 68.03125 C 103.734375 68.027344 103.84375 68.03125 103.890625 68.03125 C 103.890625 68.03125 103.894531 68.03125 103.902344 68.03125 C 104.230469 68.035156 104.492188 68.304688 104.484375 68.636719 C 104.480469 68.964844 104.210938 69.226562 103.882812 69.21875 C 103.878906 69.21875 103.890625 69.21875 103.890625 69.21875 C 103.824219 69.21875 103.730469 69.21875 103.617188 69.21875 C 103.527344 69.21875 103.433594 69.21875 103.335938 69.21875 C 103.21875 69.21875 103.050781 69.21875 102.851562 69.183594 C 102.503906 69.113281 102.160156 68.984375 101.820312 68.84375 C 101.554688 68.730469 101.308594 68.613281 101.132812 68.546875 C 101.066406 68.519531 100.984375 68.496094 100.898438 68.464844 C 100.855469 68.449219 100.808594 68.4375 100.742188 68.402344 C 100.71875 68.390625 100.679688 68.386719 100.578125 68.292969 C 100.5625 68.285156 100.375 68.203125 100.375 67.839844 M 103.839844 68.03125 C 104.167969 68.003906 104.457031 68.246094 104.484375 68.574219 C 104.511719 68.902344 104.269531 69.1875 103.941406 69.21875 C 103.921875 69.21875 103.914062 69.21875 103.90625 69.21875 C 103.875 69.222656 103.84375 69.222656 103.796875 69.222656 C 103.703125 69.226562 103.578125 69.222656 103.429688 69.21875 C 102.984375 69.199219 102.492188 69.121094 102.097656 69.066406 C 101.972656 69.050781 101.859375 69.035156 101.765625 69.023438 C 101.671875 69.015625 101.746094 69.003906 101.6875 69.011719 C 101.613281 69.023438 101.59375 69.023438 101.582031 69.023438 C 101.570312 69.023438 101.726562 68.984375 101.675781 69.003906 C 101.617188 69.023438 101.976562 68.777344 101.898438 68.859375 C 101.828125 68.929688 102.035156 68.582031 102.019531 68.648438 C 102 68.714844 102.03125 68.453125 102.035156 68.492188 C 102.039062 68.570312 101.964844 68.292969 101.988281 68.332031 C 102.023438 68.390625 101.855469 68.179688 101.882812 68.207031 C 101.921875 68.238281 101.828125 68.164062 101.828125 68.167969 C 101.835938 68.171875 101.859375 68.183594 101.898438 68.207031 C 102.058594 68.304688 102.261719 68.417969 102.445312 68.484375 C 102.582031 68.535156 102.695312 68.582031 102.78125 68.613281 C 102.90625 68.65625 103.027344 68.6875 103.167969 68.746094 C 103.175781 68.75 103.144531 68.699219 103.359375 68.824219 C 103.644531 68.988281 103.742188 69.351562 103.574219 69.636719 C 103.410156 69.921875 103.046875 70.019531 102.761719 69.851562 C 102.707031 69.820312 102.859375 69.894531 102.847656 69.894531 C 102.839844 69.890625 102.792969 69.878906 102.710938 69.84375 C 102.695312 69.835938 102.546875 69.792969 102.378906 69.734375 C 102.25 69.6875 102.140625 69.640625 102.035156 69.601562 C 101.730469 69.488281 101.46875 69.339844 101.273438 69.21875 C 101.261719 69.210938 101.136719 69.230469 100.964844 68.9375 C 100.898438 68.828125 100.859375 68.710938 100.847656 68.570312 C 100.839844 68.421875 100.871094 68.210938 101.039062 68.039062 C 101.210938 67.855469 101.382812 67.847656 101.453125 67.839844 C 101.511719 67.835938 101.488281 67.839844 101.503906 67.835938 C 101.679688 67.808594 101.789062 67.832031 101.878906 67.839844 C 102 67.851562 102.128906 67.871094 102.261719 67.890625 C 102.667969 67.945312 103.136719 68.015625 103.476562 68.03125 C 103.597656 68.035156 103.703125 68.035156 103.777344 68.035156 C 103.8125 68.035156 103.839844 68.03125 103.847656 68.03125 C 103.851562 68.03125 103.824219 68.035156 103.839844 68.03125 M 102.894531 68.769531 C 103.210938 68.679688 103.539062 68.863281 103.628906 69.179688 C 103.71875 69.496094 103.535156 69.824219 103.21875 69.914062 C 103.179688 69.925781 103.144531 69.929688 103.109375 69.933594 C 103.054688 69.941406 102.996094 69.945312 102.925781 69.941406 C 102.925781 69.941406 102.84375 69.945312 102.734375 69.941406 C 102.636719 69.9375 102.523438 69.941406 102.398438 69.941406 C 102.355469 69.941406 102.3125 69.941406 102.265625 69.941406 C 102.15625 69.941406 102.148438 69.933594 102.113281 69.9375 C 102.042969 69.945312 101.992188 69.945312 101.976562 69.945312 C 101.972656 69.945312 102.035156 69.9375 102.007812 69.941406 C 101.988281 69.945312 102.117188 69.917969 102.082031 69.925781 C 102.046875 69.9375 102.292969 69.824219 102.230469 69.863281 C 101.953125 70.035156 101.585938 69.949219 101.414062 69.667969 C 101.242188 69.390625 101.328125 69.023438 101.605469 68.851562 C 102.039062 68.582031 101.972656 68.757812 101.988281 68.757812 C 102.128906 68.742188 102.199219 68.753906 102.265625 68.753906 C 102.308594 68.753906 102.355469 68.753906 102.398438 68.753906 C 102.507812 68.753906 102.628906 68.75 102.761719 68.753906 C 102.816406 68.753906 102.878906 68.746094 102.988281 68.753906 C 102.992188 68.753906 102.929688 68.761719 102.957031 68.757812 C 102.980469 68.753906 102.859375 68.78125 102.894531 68.769531 M 101.550781 69.824219 C 101.296875 69.621094 101.253906 69.246094 101.460938 68.988281 C 101.664062 68.734375 102.039062 68.691406 102.296875 68.898438 C 102.3125 68.910156 102.320312 68.917969 102.324219 68.921875 C 102.328125 68.925781 102.332031 68.929688 102.351562 68.941406 C 102.375 68.960938 102.40625 68.984375 102.417969 68.992188 C 102.53125 69.0625 102.523438 69.074219 102.582031 69.101562 C 102.617188 69.117188 102.640625 69.128906 102.644531 69.128906 C 102.644531 69.132812 102.613281 69.117188 102.628906 69.125 C 102.644531 69.128906 102.441406 69.078125 102.511719 69.089844 C 102.835938 69.144531 103.054688 69.449219 103.003906 69.773438 C 102.949219 70.097656 102.644531 70.316406 102.320312 70.265625 C 102.058594 70.222656 102.101562 70.1875 102.09375 70.183594 C 101.921875 70.109375 101.859375 70.042969 101.789062 70 C 101.714844 69.953125 101.65625 69.910156 101.609375 69.871094 C 101.589844 69.855469 101.574219 69.84375 101.546875 69.820312 C 101.542969 69.816406 101.5625 69.832031 101.550781 69.824219 M 102.898438 69.328125 C 103.085938 69.597656 103.019531 69.96875 102.75 70.15625 C 102.480469 70.34375 102.109375 70.277344 101.921875 70.007812 C 101.917969 70.003906 101.914062 69.996094 101.910156 69.988281 C 101.917969 70.003906 101.902344 69.984375 101.894531 69.96875 C 101.902344 69.980469 101.898438 69.976562 101.894531 69.972656 C 101.839844 69.914062 101.796875 69.867188 101.753906 69.789062 C 101.734375 69.765625 101.710938 69.707031 101.699219 69.679688 C 101.652344 69.527344 101.59375 69.382812 101.742188 69.136719 C 101.910156 68.855469 102.277344 68.765625 102.558594 68.933594 C 102.839844 69.105469 102.929688 69.46875 102.757812 69.75 C 102.722656 69.8125 102.839844 69.523438 102.828125 69.574219 C 102.8125 69.648438 102.839844 69.359375 102.839844 69.402344 C 102.84375 69.445312 102.816406 69.28125 102.824219 69.304688 C 102.804688 69.246094 102.726562 69.109375 102.753906 69.152344 C 102.796875 69.21875 102.75 69.144531 102.75 69.148438 C 102.804688 69.203125 102.84375 69.253906 102.863281 69.285156 C 102.890625 69.320312 102.851562 69.269531 102.871094 69.292969 C 102.910156 69.351562 102.894531 69.324219 102.898438 69.328125 "/>
<path fill-rule="nonzero" fill="rgb(7.058716%, 1.176453%, 46.665955%)" fill-opacity="1" d="M 97.980469 66.53125 C 97.785156 66.269531 97.835938 65.894531 98.101562 65.699219 C 98.363281 65.503906 98.734375 65.554688 98.933594 65.820312 L 102.625 70.75 C 102.820312 71.015625 102.769531 71.386719 102.503906 71.582031 C 102.242188 71.78125 101.871094 71.726562 101.671875 71.464844 Z M 89.761719 26.027344 C 91.261719 26.027344 92.574219 26.839844 93.277344 28.050781 C 93.632812 28.652344 93.832031 29.351562 93.832031 30.101562 C 93.832031 31.601562 93.019531 32.914062 91.8125 33.621094 C 91.210938 33.972656 90.507812 34.175781 89.761719 34.175781 C 88.257812 34.175781 86.949219 33.363281 86.242188 32.152344 C 85.890625 31.550781 85.6875 30.847656 85.6875 30.101562 C 85.6875 28.601562 86.5 27.289062 87.707031 26.582031 C 88.3125 26.230469 89.011719 26.027344 89.761719 26.027344 M 89.761719 27.21875 C 89.230469 27.21875 88.734375 27.359375 88.308594 27.609375 C 87.453125 28.109375 86.875 29.039062 86.875 30.101562 C 86.875 30.628906 87.019531 31.128906 87.269531 31.554688 C 87.769531 32.410156 88.695312 32.984375 89.761719 32.984375 C 90.289062 32.984375 90.785156 32.84375 91.210938 32.59375 C 92.070312 32.09375 92.644531 31.164062 92.644531 30.101562 C 92.644531 29.570312 92.5 29.074219 92.253906 28.648438 C 91.753906 27.792969 90.824219 27.21875 89.761719 27.21875 M 123.445312 72.296875 C 123.445312 71.96875 123.710938 71.703125 124.039062 71.703125 C 124.367188 71.703125 124.632812 71.96875 124.632812 72.296875 L 124.632812 101.730469 C 124.632812 102.058594 124.367188 102.324219 124.039062 102.324219 C 123.710938 102.324219 123.445312 102.058594 123.445312 101.730469 Z M 123.445312 108.933594 C 123.445312 108.605469 123.710938 108.339844 124.039062 108.339844 C 124.367188 108.339844 124.632812 108.605469 124.632812 108.933594 L 124.632812 140.277344 C 124.632812 140.605469 124.367188 140.871094 124.039062 140.871094 C 123.710938 140.871094 123.445312 140.605469 123.445312 140.277344 Z M 110.492188 102.324219 C 110.164062 102.324219 109.898438 102.058594 109.898438 101.730469 C 109.898438 101.402344 110.164062 101.136719 110.492188 101.136719 L 137.59375 101.136719 C 137.921875 101.136719 138.1875 101.402344 138.1875 101.730469 C 138.1875 102.058594 137.921875 102.324219 137.59375 102.324219 Z M 110.488281 109.527344 C 110.160156 109.527344 109.894531 109.261719 109.894531 108.933594 C 109.894531 108.605469 110.160156 108.339844 110.488281 108.339844 L 137.589844 108.339844 C 137.917969 108.339844 138.183594 108.605469 138.183594 108.933594 C 138.183594 109.261719 137.917969 109.527344 137.589844 109.527344 Z M 123.445312 137.730469 C 123.445312 137.402344 123.714844 137.136719 124.042969 137.136719 C 124.371094 137.136719 124.636719 137.402344 124.636719 137.730469 L 124.636719 148.640625 C 124.636719 148.96875 124.371094 149.234375 124.042969 149.234375 C 123.714844 149.234375 123.445312 148.96875 123.445312 148.640625 Z M 115.558594 149.96875 C 115.230469 149.96875 114.964844 149.703125 114.964844 149.375 C 114.964844 149.046875 115.230469 148.78125 115.558594 148.78125 L 132.523438 148.78125 C 132.851562 148.78125 133.117188 149.046875 133.117188 149.375 C 133.117188 149.703125 132.851562 149.96875 132.523438 149.96875 Z M 118.488281 153.859375 C 118.160156 153.859375 117.894531 153.59375 117.894531 153.265625 C 117.894531 152.9375 118.160156 152.671875 118.488281 152.671875 L 129.882812 152.671875 C 130.210938 152.671875 130.476562 152.9375 130.476562 153.265625 C 130.476562 153.59375 130.210938 153.859375 129.882812 153.859375 Z M 121.753906 157.507812 C 121.425781 157.507812 121.160156 157.242188 121.160156 156.914062 C 121.160156 156.585938 121.425781 156.320312 121.753906 156.320312 L 126.617188 156.320312 C 126.949219 156.320312 127.214844 156.585938 127.214844 156.914062 C 127.214844 157.242188 126.949219 157.507812 126.617188 157.507812 Z M 170.128906 71.703125 C 170.128906 72.03125 169.863281 72.296875 169.535156 72.296875 C 169.207031 72.296875 168.941406 72.03125 168.941406 71.703125 L 168.941406 57.386719 C 168.941406 57.058594 169.207031 56.792969 169.535156 56.792969 C 169.863281 56.792969 170.128906 57.058594 170.128906 57.386719 Z M 169.535156 56.792969 C 169.863281 56.792969 170.128906 57.058594 170.128906 57.386719 C 170.128906 57.714844 169.863281 57.980469 169.535156 57.980469 L 144.757812 57.980469 C 144.425781 57.980469 144.160156 57.714844 144.160156 57.386719 C 144.160156 57.058594 144.425781 56.792969 144.757812 56.792969 Z M 144.160156 57.386719 C 144.160156 57.058594 144.425781 56.792969 144.757812 56.792969 C 145.085938 56.792969 145.351562 57.058594 145.351562 57.386719 L 145.351562 71.703125 C 145.351562 72.03125 145.085938 72.296875 144.757812 72.296875 C 144.425781 72.296875 144.160156 72.03125 144.160156 71.703125 Z M 144.757812 71.109375 C 145.085938 71.109375 145.351562 71.375 145.351562 71.703125 C 145.351562 72.03125 145.085938 72.296875 144.757812 72.296875 L 123.453125 72.296875 C 123.125 72.296875 122.859375 72.03125 122.859375 71.703125 C 122.859375 71.375 123.125 71.109375 123.453125 71.109375 Z M 168.550781 53.152344 C 168.878906 53.152344 169.144531 53.417969 169.144531 53.746094 C 169.144531 54.074219 168.878906 54.339844 168.550781 54.339844 L 145.738281 54.339844 C 145.410156 54.339844 145.144531 54.074219 145.144531 53.746094 C 145.144531 53.417969 145.410156 53.152344 145.738281 53.152344 Z M 156.550781 34.164062 C 156.550781 33.835938 156.816406 33.570312 157.144531 33.570312 C 157.472656 33.570312 157.738281 33.835938 157.738281 34.164062 L 157.738281 53.746094 C 157.738281 54.074219 157.472656 54.339844 157.144531 54.339844 C 156.816406 54.339844 156.550781 54.074219 156.550781 53.746094 Z M 190.835938 71.109375 C 191.164062 71.109375 191.433594 71.375 191.433594 71.703125 C 191.433594 72.03125 191.164062 72.296875 190.835938 72.296875 L 169.535156 72.296875 C 169.207031 72.296875 168.941406 72.03125 168.941406 71.703125 C 168.941406 71.375 169.207031 71.109375 169.535156 71.109375 Z M 173.226562 65.582031 C 173.554688 65.582031 173.820312 65.847656 173.820312 66.175781 C 173.820312 66.503906 173.554688 66.769531 173.226562 66.769531 L 165.839844 66.769531 C 165.511719 66.769531 165.246094 66.503906 165.246094 66.175781 C 165.246094 65.847656 165.511719 65.582031 165.839844 65.582031 Z M 172.753906 65.820312 C 172.949219 65.554688 173.320312 65.503906 173.585938 65.699219 C 173.847656 65.894531 173.902344 66.269531 173.703125 66.53125 L 170.011719 71.464844 C 169.8125 71.726562 169.441406 71.78125 169.179688 71.582031 C 168.914062 71.386719 168.863281 71.015625 169.058594 70.75 Z M 172.753906 65.820312 "/>
<path fill-rule="nonzero" fill="rgb(7.058716%, 1.176453%, 46.665955%)" fill-opacity="1" d="M 171.96875 67.28125 C 171.898438 67.601562 171.582031 67.804688 171.257812 67.734375 C 170.9375 67.664062 170.738281 67.347656 170.808594 67.027344 C 170.914062 66.542969 171.089844 66.609375 171.140625 66.570312 C 171.199219 66.523438 171.25 66.496094 171.277344 66.480469 C 171.300781 66.46875 171.183594 66.554688 171.238281 66.507812 C 171.492188 66.300781 171.867188 66.339844 172.074219 66.59375 C 172.28125 66.851562 172.246094 67.222656 171.988281 67.429688 C 171.835938 67.554688 171.917969 67.46875 171.871094 67.503906 C 171.839844 67.53125 171.835938 67.535156 171.828125 67.539062 C 171.824219 67.542969 171.894531 67.464844 171.871094 67.492188 C 171.859375 67.507812 171.933594 67.390625 171.917969 67.421875 C 171.898438 67.457031 171.980469 67.222656 171.96875 67.28125 M 171.835938 66.417969 C 172.140625 66.546875 172.28125 66.894531 172.15625 67.195312 C 172.03125 67.5 171.683594 67.640625 171.378906 67.515625 C 171.371094 67.511719 171.378906 67.515625 171.363281 67.507812 C 171.378906 67.515625 171.386719 67.519531 171.386719 67.519531 C 171.386719 67.519531 171.414062 67.523438 171.398438 67.519531 C 171.335938 67.519531 171.28125 67.515625 171.230469 67.511719 C 170.972656 67.511719 170.679688 67.511719 170.328125 67.511719 C 170.019531 67.515625 169.671875 67.511719 169.320312 67.511719 C 169.089844 67.511719 168.859375 67.511719 168.65625 67.511719 C 168.507812 67.511719 168.382812 67.511719 168.269531 67.511719 C 168.121094 67.515625 168.015625 67.515625 167.945312 67.523438 C 167.925781 67.527344 167.871094 67.542969 167.789062 67.566406 C 167.734375 67.582031 167.6875 67.59375 167.671875 67.601562 C 167.667969 67.601562 167.710938 67.582031 167.691406 67.59375 C 167.679688 67.597656 167.773438 67.550781 167.746094 67.566406 C 167.71875 67.582031 167.902344 67.433594 167.855469 67.480469 C 167.828125 67.507812 168.015625 67.230469 167.96875 67.320312 C 167.828125 67.617188 167.472656 67.742188 167.175781 67.597656 C 166.878906 67.453125 166.757812 67.097656 166.898438 66.804688 C 166.945312 66.710938 166.992188 66.664062 167.023438 66.632812 C 167.347656 66.308594 167.386719 66.445312 167.449219 66.425781 C 167.519531 66.40625 167.632812 66.367188 167.789062 66.347656 C 167.964844 66.324219 168.117188 66.324219 168.261719 66.324219 C 168.382812 66.324219 168.511719 66.324219 168.65625 66.324219 C 168.859375 66.324219 169.089844 66.324219 169.320312 66.324219 C 169.675781 66.324219 170.023438 66.328125 170.320312 66.324219 C 170.675781 66.320312 170.972656 66.320312 171.25 66.324219 C 171.335938 66.324219 171.410156 66.332031 171.460938 66.332031 C 171.574219 66.339844 171.664062 66.359375 171.734375 66.382812 C 171.765625 66.390625 171.792969 66.402344 171.816406 66.410156 C 171.847656 66.425781 171.828125 66.414062 171.835938 66.417969 M 166.863281 67.230469 C 166.773438 66.914062 166.957031 66.585938 167.273438 66.5 C 167.589844 66.410156 167.917969 66.59375 168.007812 66.910156 C 168.023438 66.976562 167.917969 66.726562 167.941406 66.761719 C 167.960938 66.792969 167.875 66.675781 167.890625 66.691406 C 167.917969 66.714844 167.71875 66.554688 167.742188 66.566406 C 167.761719 66.578125 167.699219 66.546875 167.707031 66.550781 C 167.75 66.570312 167.710938 66.550781 167.789062 66.570312 C 168.089844 66.644531 168.4375 66.75 168.875 66.796875 C 169.242188 66.839844 169.734375 66.820312 170.246094 66.835938 C 170.511719 66.847656 170.765625 66.863281 171.007812 66.90625 C 171.179688 66.9375 171.320312 66.988281 171.429688 67.035156 C 171.503906 67.070312 171.582031 67.109375 171.675781 67.191406 C 171.710938 67.226562 171.75 67.265625 171.785156 67.320312 C 171.875 67.476562 171.910156 67.628906 171.886719 67.78125 C 171.828125 68.105469 171.519531 68.320312 171.195312 68.261719 C 170.871094 68.203125 170.65625 67.894531 170.714844 67.570312 C 170.726562 67.5 170.726562 67.84375 170.714844 67.777344 C 170.703125 67.714844 170.800781 67.988281 170.773438 67.941406 C 170.78125 67.953125 170.890625 68.085938 170.875 68.070312 C 170.820312 68.023438 170.953125 68.125 170.949219 68.125 C 170.914062 68.109375 170.855469 68.089844 170.792969 68.078125 C 170.644531 68.050781 170.433594 68.03125 170.207031 68.027344 C 169.75 68.011719 169.238281 68.035156 168.738281 67.980469 C 168.191406 67.917969 167.761719 67.785156 167.503906 67.722656 C 167.460938 67.710938 167.386719 67.707031 167.253906 67.652344 C 167.207031 67.632812 167.144531 67.621094 167.019531 67.5 C 166.957031 67.425781 166.898438 67.367188 166.863281 67.230469 M 170.996094 67.167969 C 171.277344 67.003906 171.640625 67.097656 171.808594 67.382812 C 171.972656 67.664062 171.878906 68.03125 171.59375 68.195312 C 171.507812 68.242188 171.4375 68.261719 171.386719 68.273438 C 171.3125 68.289062 171.273438 68.285156 171.230469 68.285156 C 171.148438 68.285156 171.078125 68.273438 171 68.265625 C 170.953125 68.257812 171.097656 68.265625 171.085938 68.265625 C 171.066406 68.269531 171.027344 68.289062 170.882812 68.308594 C 170.769531 68.324219 170.660156 68.335938 170.53125 68.347656 C 170.378906 68.359375 170.214844 68.367188 170.023438 68.375 C 169.71875 68.386719 169.378906 68.386719 169.089844 68.394531 C 168.941406 68.394531 168.808594 68.402344 168.683594 68.410156 C 168.582031 68.414062 168.507812 68.414062 168.503906 68.414062 C 168.464844 68.417969 168.484375 68.414062 168.460938 68.417969 C 168.457031 68.417969 168.507812 68.410156 168.492188 68.414062 C 168.472656 68.417969 168.65625 68.351562 168.597656 68.378906 C 168.296875 68.511719 167.949219 68.375 167.816406 68.074219 C 167.683594 67.773438 167.820312 67.421875 168.117188 67.289062 C 168.238281 67.238281 168.269531 67.246094 168.292969 67.242188 C 168.347656 67.234375 168.371094 67.234375 168.394531 67.230469 C 168.492188 67.222656 168.558594 67.222656 168.632812 67.222656 C 168.746094 67.214844 168.894531 67.207031 169.0625 67.203125 C 169.371094 67.199219 169.703125 67.199219 169.976562 67.1875 C 170.160156 67.179688 170.3125 67.171875 170.433594 67.160156 C 170.542969 67.152344 170.628906 67.144531 170.722656 67.128906 C 170.730469 67.128906 170.855469 67.039062 171.179688 67.089844 C 171.214844 67.09375 171.234375 67.09375 171.242188 67.09375 C 171.246094 67.09375 171.082031 67.121094 171.15625 67.105469 C 171.210938 67.09375 170.929688 67.207031 171 67.164062 C 171 67.164062 170.992188 67.171875 170.996094 67.167969 M 167.757812 67.839844 C 167.757812 67.511719 168.023438 67.246094 168.355469 67.246094 C 168.683594 67.246094 168.949219 67.511719 168.949219 67.839844 C 168.949219 67.933594 168.875 67.546875 168.898438 67.609375 C 168.9375 67.695312 168.757812 67.410156 168.789062 67.441406 C 168.816406 67.472656 168.710938 67.371094 168.722656 67.382812 C 168.8125 67.460938 168.65625 67.335938 168.671875 67.347656 C 168.683594 67.355469 168.652344 67.335938 168.652344 67.335938 C 168.675781 67.351562 168.640625 67.332031 168.667969 67.339844 C 168.726562 67.359375 168.824219 67.390625 168.9375 67.433594 C 169.1875 67.527344 169.433594 67.648438 169.664062 67.746094 C 169.96875 67.875 170.253906 67.972656 170.464844 68.015625 C 170.53125 68.027344 170.613281 68.03125 170.730469 68.03125 C 170.824219 68.03125 170.910156 68.03125 170.988281 68.03125 C 171.117188 68.027344 171.230469 68.03125 171.273438 68.03125 C 171.277344 68.03125 171.28125 68.03125 171.285156 68.03125 C 171.613281 68.035156 171.875 68.304688 171.871094 68.636719 C 171.863281 68.964844 171.59375 69.226562 171.265625 69.21875 C 171.261719 69.21875 171.273438 69.21875 171.273438 69.21875 C 171.210938 69.21875 171.117188 69.21875 171.003906 69.21875 C 170.914062 69.21875 170.816406 69.21875 170.71875 69.21875 C 170.601562 69.21875 170.4375 69.21875 170.238281 69.183594 C 169.890625 69.113281 169.546875 68.984375 169.207031 68.84375 C 168.9375 68.730469 168.695312 68.613281 168.519531 68.546875 C 168.449219 68.519531 168.367188 68.496094 168.28125 68.464844 C 168.238281 68.449219 168.195312 68.4375 168.125 68.402344 C 168.105469 68.390625 168.066406 68.386719 167.964844 68.292969 C 167.949219 68.285156 167.757812 68.203125 167.757812 67.839844 M 171.226562 68.03125 C 171.550781 68.003906 171.839844 68.246094 171.867188 68.574219 C 171.898438 68.902344 171.65625 69.1875 171.328125 69.21875 C 171.308594 69.21875 171.300781 69.21875 171.292969 69.21875 C 171.261719 69.222656 171.226562 69.222656 171.183594 69.222656 C 171.089844 69.226562 170.960938 69.222656 170.816406 69.21875 C 170.367188 69.199219 169.878906 69.121094 169.484375 69.066406 C 169.355469 69.050781 169.242188 69.035156 169.148438 69.023438 C 169.058594 69.015625 169.128906 69.003906 169.074219 69.011719 C 169 69.023438 168.980469 69.023438 168.96875 69.023438 C 168.957031 69.023438 169.109375 68.984375 169.058594 69.003906 C 169 69.023438 169.363281 68.777344 169.285156 68.859375 C 169.214844 68.929688 169.421875 68.582031 169.402344 68.648438 C 169.382812 68.714844 169.417969 68.453125 169.421875 68.492188 C 169.425781 68.570312 169.347656 68.292969 169.371094 68.332031 C 169.40625 68.390625 169.238281 68.179688 169.269531 68.207031 C 169.304688 68.238281 169.210938 68.164062 169.214844 68.167969 C 169.21875 68.171875 169.242188 68.183594 169.285156 68.207031 C 169.441406 68.304688 169.644531 68.417969 169.832031 68.484375 C 169.964844 68.535156 170.078125 68.582031 170.167969 68.613281 C 170.289062 68.65625 170.410156 68.6875 170.554688 68.746094 C 170.5625 68.75 170.53125 68.699219 170.746094 68.824219 C 171.027344 68.988281 171.125 69.351562 170.960938 69.636719 C 170.796875 69.921875 170.433594 70.019531 170.148438 69.851562 C 170.09375 69.820312 170.242188 69.894531 170.234375 69.894531 C 170.222656 69.890625 170.179688 69.878906 170.09375 69.84375 C 170.078125 69.835938 169.933594 69.792969 169.765625 69.734375 C 169.636719 69.6875 169.523438 69.640625 169.421875 69.601562 C 169.113281 69.488281 168.855469 69.339844 168.660156 69.21875 C 168.644531 69.210938 168.523438 69.230469 168.347656 68.9375 C 168.285156 68.828125 168.242188 68.710938 168.234375 68.570312 C 168.222656 68.421875 168.253906 68.210938 168.421875 68.039062 C 168.59375 67.855469 168.769531 67.847656 168.839844 67.839844 C 168.894531 67.835938 168.871094 67.839844 168.890625 67.835938 C 169.066406 67.808594 169.171875 67.832031 169.265625 67.839844 C 169.386719 67.851562 169.515625 67.871094 169.648438 67.890625 C 170.050781 67.945312 170.519531 68.015625 170.863281 68.03125 C 170.980469 68.035156 171.089844 68.035156 171.164062 68.035156 C 171.195312 68.035156 171.222656 68.03125 171.234375 68.03125 C 171.234375 68.03125 171.210938 68.035156 171.226562 68.03125 M 170.28125 68.769531 C 170.59375 68.679688 170.925781 68.863281 171.015625 69.179688 C 171.105469 69.496094 170.921875 69.824219 170.605469 69.914062 C 170.5625 69.925781 170.527344 69.929688 170.496094 69.933594 C 170.4375 69.941406 170.378906 69.945312 170.3125 69.941406 C 170.3125 69.941406 170.226562 69.945312 170.117188 69.941406 C 170.023438 69.9375 169.910156 69.941406 169.78125 69.941406 C 169.738281 69.941406 169.695312 69.941406 169.652344 69.941406 C 169.542969 69.941406 169.53125 69.933594 169.5 69.9375 C 169.425781 69.945312 169.375 69.945312 169.359375 69.945312 C 169.355469 69.945312 169.421875 69.9375 169.390625 69.941406 C 169.375 69.945312 169.503906 69.917969 169.46875 69.925781 C 169.429688 69.9375 169.679688 69.824219 169.617188 69.863281 C 169.335938 70.035156 168.972656 69.949219 168.800781 69.667969 C 168.625 69.390625 168.710938 69.023438 168.992188 68.851562 C 169.425781 68.582031 169.355469 68.757812 169.375 68.757812 C 169.515625 68.742188 169.582031 68.753906 169.652344 68.753906 C 169.695312 68.753906 169.738281 68.753906 169.785156 68.753906 C 169.894531 68.753906 170.015625 68.75 170.144531 68.753906 C 170.199219 68.753906 170.265625 68.746094 170.371094 68.753906 C 170.378906 68.753906 170.3125 68.761719 170.34375 68.757812 C 170.363281 68.753906 170.246094 68.78125 170.28125 68.769531 M 168.9375 69.824219 C 168.679688 69.621094 168.640625 69.246094 168.84375 68.988281 C 169.050781 68.734375 169.425781 68.691406 169.679688 68.898438 C 169.699219 68.910156 169.703125 68.917969 169.710938 68.921875 C 169.710938 68.925781 169.71875 68.929688 169.734375 68.941406 C 169.761719 68.960938 169.792969 68.984375 169.800781 68.992188 C 169.914062 69.0625 169.90625 69.074219 169.964844 69.101562 C 170 69.117188 170.023438 69.128906 170.03125 69.128906 C 170.03125 69.132812 170 69.117188 170.011719 69.125 C 170.03125 69.128906 169.828125 69.078125 169.898438 69.089844 C 170.222656 69.144531 170.441406 69.449219 170.386719 69.773438 C 170.335938 70.097656 170.03125 70.316406 169.707031 70.265625 C 169.445312 70.222656 169.484375 70.1875 169.480469 70.183594 C 169.308594 70.109375 169.242188 70.042969 169.175781 70 C 169.097656 69.953125 169.039062 69.910156 168.992188 69.871094 C 168.976562 69.855469 168.957031 69.84375 168.933594 69.820312 C 168.925781 69.816406 168.949219 69.832031 168.9375 69.824219 M 170.28125 69.328125 C 170.46875 69.597656 170.402344 69.96875 170.132812 70.15625 C 169.863281 70.34375 169.492188 70.277344 169.304688 70.007812 C 169.304688 70.003906 169.296875 69.996094 169.292969 69.988281 C 169.300781 70.003906 169.289062 69.984375 169.277344 69.96875 C 169.285156 69.980469 169.28125 69.976562 169.277344 69.972656 C 169.226562 69.914062 169.183594 69.867188 169.136719 69.789062 C 169.121094 69.765625 169.09375 69.707031 169.085938 69.679688 C 169.039062 69.527344 168.976562 69.382812 169.125 69.136719 C 169.296875 68.855469 169.660156 68.765625 169.941406 68.933594 C 170.222656 69.105469 170.3125 69.46875 170.144531 69.75 C 170.105469 69.8125 170.226562 69.523438 170.214844 69.574219 C 170.199219 69.648438 170.222656 69.359375 170.226562 69.402344 C 170.230469 69.445312 170.203125 69.28125 170.210938 69.304688 C 170.191406 69.246094 170.113281 69.109375 170.140625 69.152344 C 170.179688 69.21875 170.132812 69.144531 170.136719 69.148438 C 170.1875 69.203125 170.226562 69.253906 170.25 69.285156 C 170.273438 69.320312 170.234375 69.269531 170.253906 69.292969 C 170.296875 69.351562 170.28125 69.324219 170.28125 69.328125 M 56.734375 71.109375 C 57.0625 71.109375 57.328125 71.375 57.328125 71.703125 C 57.328125 72.03125 57.0625 72.296875 56.734375 72.296875 L 37.640625 72.296875 C 37.3125 72.296875 37.046875 72.03125 37.046875 71.703125 C 37.046875 71.375 37.3125 71.109375 37.640625 71.109375 Z M 56.734375 71.109375 "/>
<path fill-rule="nonzero" fill="rgb(7.058716%, 1.176453%, 46.665955%)" fill-opacity="1" d="M 165.363281 66.53125 C 165.167969 66.269531 165.222656 65.894531 165.484375 65.699219 C 165.746094 65.503906 166.121094 65.554688 166.316406 65.820312 L 170.011719 70.75 C 170.207031 71.015625 170.152344 71.386719 169.890625 71.582031 C 169.628906 71.78125 169.253906 71.726562 169.058594 71.464844 Z M 157.144531 26.027344 C 158.644531 26.027344 159.957031 26.839844 160.664062 28.050781 C 161.015625 28.652344 161.21875 29.351562 161.21875 30.101562 C 161.21875 31.601562 160.40625 32.914062 159.195312 33.621094 C 158.59375 33.972656 157.894531 34.175781 157.144531 34.175781 C 155.644531 34.175781 154.332031 33.363281 153.625 32.152344 C 153.273438 31.550781 153.070312 30.847656 153.070312 30.101562 C 153.070312 28.601562 153.882812 27.289062 155.09375 26.582031 C 155.695312 26.230469 156.398438 26.027344 157.144531 26.027344 M 157.144531 27.21875 C 156.617188 27.21875 156.121094 27.359375 155.691406 27.609375 C 154.835938 28.109375 154.261719 29.039062 154.261719 30.101562 C 154.261719 30.628906 154.402344 31.128906 154.652344 31.554688 C 155.152344 32.410156 156.082031 32.984375 157.144531 32.984375 C 157.675781 32.984375 158.171875 32.84375 158.597656 32.59375 C 159.453125 32.09375 160.027344 31.164062 160.027344 30.101562 C 160.027344 29.570312 159.886719 29.074219 159.636719 28.648438 C 159.136719 27.792969 158.207031 27.21875 157.144531 27.21875 M 38.234375 71.644531 C 38.234375 73.148438 37.421875 74.457031 36.214844 75.164062 C 35.613281 75.515625 34.910156 75.71875 34.164062 75.71875 C 32.660156 75.71875 31.347656 74.90625 30.644531 73.699219 C 30.292969 73.09375 30.089844 72.394531 30.089844 71.644531 C 30.089844 70.144531 30.902344 68.832031 32.109375 68.125 C 32.710938 67.773438 33.414062 67.574219 34.164062 67.574219 C 35.664062 67.574219 36.976562 68.382812 37.679688 69.59375 C 38.03125 70.195312 38.234375 70.898438 38.234375 71.644531 M 37.046875 71.644531 C 37.046875 71.117188 36.902344 70.621094 36.65625 70.191406 C 36.152344 69.335938 35.226562 68.761719 34.164062 68.761719 C 33.632812 68.761719 33.136719 68.902344 32.710938 69.152344 C 31.855469 69.652344 31.277344 70.582031 31.277344 71.644531 C 31.277344 72.175781 31.421875 72.671875 31.667969 73.097656 C 32.171875 73.953125 33.097656 74.53125 34.164062 74.53125 C 34.691406 74.53125 35.1875 74.386719 35.613281 74.136719 C 36.472656 73.636719 37.046875 72.707031 37.046875 71.644531 M 194.757812 75.53125 C 194.757812 75.203125 195.023438 74.9375 195.351562 74.9375 C 195.679688 74.9375 195.945312 75.203125 195.945312 75.53125 L 195.945312 92.578125 C 195.945312 92.90625 195.679688 93.171875 195.351562 93.171875 C 195.023438 93.171875 194.757812 92.90625 194.757812 92.578125 Z M 211.261719 107.648438 C 211.261719 113.421875 208.136719 118.464844 203.488281 121.183594 C 201.167969 122.539062 198.472656 123.3125 195.59375 123.3125 C 189.820312 123.3125 184.777344 120.1875 182.058594 115.539062 C 180.703125 113.222656 179.929688 110.523438 179.929688 107.648438 C 179.929688 101.871094 183.054688 96.828125 187.703125 94.109375 C 190.019531 92.757812 192.71875 91.980469 195.59375 91.980469 C 201.371094 91.980469 206.414062 95.105469 209.132812 99.753906 C 210.484375 102.074219 211.261719 104.769531 211.261719 107.648438 M 210.074219 107.648438 C 210.074219 104.988281 209.355469 102.496094 208.105469 100.355469 C 205.59375 96.058594 200.933594 93.167969 195.59375 93.167969 C 192.9375 93.167969 190.445312 93.886719 188.304688 95.136719 C 184.003906 97.648438 181.117188 102.308594 181.117188 107.648438 C 181.117188 110.304688 181.835938 112.796875 183.085938 114.9375 C 185.597656 119.238281 190.257812 122.125 195.59375 122.125 C 198.253906 122.125 200.746094 121.40625 202.886719 120.15625 C 207.183594 117.644531 210.074219 112.984375 210.074219 107.648438 M 194.65625 122.714844 C 194.65625 122.386719 194.925781 122.121094 195.253906 122.121094 C 195.582031 122.121094 195.847656 122.386719 195.847656 122.714844 L 195.847656 144.105469 C 195.847656 144.433594 195.582031 144.699219 195.253906 144.699219 C 194.925781 144.699219 194.65625 144.433594 194.65625 144.105469 Z M 199.382812 72.054688 C 199.382812 73.554688 198.570312 74.867188 197.359375 75.570312 C 196.757812 75.925781 196.058594 76.125 195.308594 76.125 C 193.808594 76.125 192.496094 75.3125 191.789062 74.105469 C 191.4375 73.503906 191.234375 72.800781 191.234375 72.054688 C 191.234375 70.550781 192.046875 69.242188 193.257812 68.535156 C 193.859375 68.183594 194.558594 67.980469 195.308594 67.980469 C 196.808594 67.980469 198.121094 68.792969 198.828125 70 C 199.179688 70.605469 199.382812 71.304688 199.382812 72.054688 M 198.191406 72.054688 C 198.191406 71.523438 198.050781 71.027344 197.800781 70.601562 C 197.300781 69.746094 196.371094 69.167969 195.308594 69.167969 C 194.777344 69.167969 194.28125 69.3125 193.855469 69.5625 C 193 70.0625 192.425781 70.988281 192.425781 72.054688 C 192.425781 72.582031 192.566406 73.078125 192.816406 73.503906 C 193.316406 74.363281 194.246094 74.9375 195.308594 74.9375 C 195.839844 74.9375 196.335938 74.792969 196.761719 74.546875 C 197.617188 74.046875 198.191406 73.117188 198.191406 72.054688 M 194.65625 96.90625 C 194.65625 96.578125 194.925781 96.3125 195.253906 96.3125 C 195.582031 96.3125 195.847656 96.578125 195.847656 96.90625 L 195.847656 106.753906 C 195.847656 107.082031 195.582031 107.351562 195.253906 107.351562 C 194.925781 107.351562 194.65625 107.082031 194.65625 106.753906 Z M 190.285156 102.425781 C 189.957031 102.425781 189.691406 102.160156 189.691406 101.832031 C 189.691406 101.503906 189.957031 101.238281 190.285156 101.238281 L 200.21875 101.238281 C 200.546875 101.238281 200.8125 101.503906 200.8125 101.832031 C 200.8125 102.160156 200.546875 102.425781 200.21875 102.425781 Z M 190.628906 118.277344 C 190.300781 118.277344 190.035156 118.011719 190.035156 117.683594 C 190.035156 117.355469 190.300781 117.089844 190.628906 117.089844 L 200.5625 117.089844 C 200.890625 117.089844 201.15625 117.355469 201.15625 117.683594 C 201.15625 118.011719 200.890625 118.277344 200.5625 118.277344 Z M 194.65625 144.761719 C 194.65625 144.433594 194.925781 144.167969 195.253906 144.167969 C 195.582031 144.167969 195.847656 144.433594 195.847656 144.761719 L 195.847656 155.671875 C 195.847656 156 195.582031 156.265625 195.253906 156.265625 C 194.925781 156.265625 194.65625 156 194.65625 155.671875 Z M 186.769531 157 C 186.441406 157 186.175781 156.734375 186.175781 156.40625 C 186.175781 156.078125 186.441406 155.8125 186.769531 155.8125 L 203.734375 155.8125 C 204.0625 155.8125 204.328125 156.078125 204.328125 156.40625 C 204.328125 156.734375 204.0625 157 203.734375 157 Z M 189.699219 160.890625 C 189.371094 160.890625 189.105469 160.625 189.105469 160.296875 C 189.105469 159.96875 189.371094 159.703125 189.699219 159.703125 L 201.09375 159.703125 C 201.421875 159.703125 201.6875 159.96875 201.6875 160.296875 C 201.6875 160.625 201.421875 160.890625 201.09375 160.890625 Z M 192.964844 164.539062 C 192.636719 164.539062 192.371094 164.273438 192.371094 163.945312 C 192.371094 163.617188 192.636719 163.351562 192.964844 163.351562 L 197.832031 163.351562 C 198.160156 163.351562 198.425781 163.617188 198.425781 163.945312 C 198.425781 164.273438 198.160156 164.539062 197.832031 164.539062 Z M 192.964844 164.539062 "/>
<path fill-rule="nonzero" fill="rgb(92.941284%, 21.176147%, 14.117432%)" fill-opacity="1" d="M 208.386719 59.769531 C 208.386719 60.097656 208.117188 60.363281 207.789062 60.363281 C 207.460938 60.363281 207.195312 60.097656 207.195312 59.769531 L 207.195312 58.839844 L 207.199219 58.394531 L 207.199219 58.226562 C 207.199219 58.226562 207.214844 58.351562 207.203125 58.300781 C 207.152344 57.976562 207.375 57.671875 207.699219 57.621094 C 208.023438 57.566406 208.328125 57.789062 208.378906 58.113281 L 208.386719 58.398438 Z M 207.207031 58.097656 C 207.265625 57.773438 207.578125 57.5625 207.902344 57.621094 C 208.222656 57.683594 208.4375 57.992188 208.375 58.316406 C 208.359375 58.394531 208.386719 58.238281 208.386719 58.242188 L 208.199219 59.929688 L 207.734375 62.902344 C 207.414062 64.65625 207.0625 66.414062 207.070312 67.289062 L 207.046875 67.703125 C 207.042969 67.722656 206.984375 67.503906 207.007812 67.566406 C 207.035156 67.628906 206.785156 67.300781 206.859375 67.363281 C 206.917969 67.414062 206.585938 67.242188 206.652344 67.257812 C 206.71875 67.273438 206.453125 67.253906 206.492188 67.25 C 206.5625 67.242188 206.398438 67.273438 206.398438 67.273438 C 206.84375 67.039062 208.648438 64.699219 210.175781 62.179688 C 211.589844 59.839844 213.011719 57.464844 214.234375 55.808594 C 214.808594 55.03125 215.277344 54.433594 215.835938 54.125 C 216.121094 53.96875 216.625 53.898438 216.949219 54.199219 C 217.257812 54.484375 217.300781 54.84375 217.320312 55.21875 C 217.335938 55.546875 217.082031 55.828125 216.757812 55.84375 C 216.429688 55.859375 216.148438 55.605469 216.132812 55.277344 L 216.097656 55.027344 C 216.089844 55 216.171875 55.101562 216.128906 55.058594 C 216.085938 55.011719 216.417969 55.167969 216.34375 55.160156 C 216.28125 55.152344 216.4375 55.152344 216.433594 55.152344 C 215.757812 55.421875 213.378906 59.179688 211.191406 62.792969 C 210.300781 64.265625 209.351562 65.65625 208.519531 66.71875 L 207.445312 67.949219 L 206.972656 68.3125 C 206.792969 68.414062 206.425781 68.550781 206.09375 68.273438 C 205.746094 67.980469 205.851562 67.699219 205.863281 67.582031 L 205.882812 67.304688 C 205.867188 66.164062 206.246094 64.433594 206.5625 62.691406 C 206.945312 60.597656 207.179688 58.652344 207.195312 58.195312 Z M 213.691406 63.863281 C 214.019531 63.828125 214.3125 64.0625 214.347656 64.390625 C 214.382812 64.714844 214.144531 65.007812 213.820312 65.042969 L 213.578125 65.3125 L 212.917969 66.242188 C 212.515625 66.890625 212.085938 67.695312 211.777344 68.453125 C 211.570312 68.953125 211.488281 69.460938 211.484375 69.84375 C 211.480469 70.058594 211.425781 69.964844 211.453125 69.972656 C 211.542969 70.007812 212.386719 69.785156 213.261719 69.167969 C 214.007812 68.640625 214.753906 67.816406 215.410156 67 C 216.003906 66.261719 216.433594 65.507812 216.660156 64.894531 C 216.941406 64.132812 216.722656 63.894531 216.273438 63.804688 C 215.75 63.699219 214.84375 63.972656 214.097656 64.820312 C 213.882812 65.066406 213.503906 65.089844 213.257812 64.871094 C 213.011719 64.652344 212.988281 64.277344 213.207031 64.03125 C 214.183594 62.925781 215.453125 62.425781 216.507812 62.640625 C 217.03125 62.746094 217.523438 63.0625 217.769531 63.558594 C 218.019531 64.058594 218.003906 64.683594 217.773438 65.308594 C 217.492188 66.070312 217.003906 66.917969 216.335938 67.746094 C 215.648438 68.605469 214.851562 69.5 213.945312 70.136719 C 212.953125 70.839844 211.988281 71.429688 211.050781 71.09375 C 210.539062 70.90625 210.285156 70.324219 210.292969 69.824219 C 210.304688 69.296875 210.410156 68.65625 210.675781 68.003906 C 211.019531 67.164062 211.472656 66.316406 211.90625 65.613281 L 212.640625 64.582031 C 212.949219 64.183594 213.304688 63.90625 213.691406 63.863281 M 91.910156 7.175781 C 91.894531 7.503906 91.617188 7.757812 91.289062 7.746094 C 90.960938 7.730469 90.707031 7.453125 90.71875 7.125 L 90.730469 7.199219 L 90.359375 7.109375 C 89.992188 7.089844 89.570312 7.265625 88.886719 7.898438 C 87.96875 8.746094 86.828125 10.167969 86.285156 11.523438 C 86.054688 12.101562 85.984375 12.65625 86.011719 13.035156 C 86.035156 13.363281 86.105469 13.34375 86.476562 13.34375 C 86.882812 13.34375 87.382812 13.203125 87.972656 12.8125 C 88.847656 12.226562 89.898438 11.175781 90.882812 9.992188 C 91.84375 8.835938 92.480469 7.441406 92.667969 6.515625 L 92.699219 6.046875 L 92.730469 6.128906 C 92.6875 6.054688 93.054688 6.335938 92.964844 6.308594 C 92.894531 6.285156 93.117188 6.316406 93.101562 6.320312 C 93.066406 6.324219 92.398438 6.796875 91.878906 7.46875 C 91.089844 8.496094 90.355469 9.707031 89.777344 11.179688 C 89.417969 12.097656 89.09375 13.136719 88.828125 14.113281 C 88.53125 15.222656 88.371094 16.117188 88.367188 16.683594 L 88.414062 17.105469 C 88.417969 17.113281 88.242188 16.976562 88.308594 17.011719 C 88.378906 17.046875 88.121094 16.984375 88.144531 16.980469 C 88.464844 16.921875 88.777344 17.132812 88.839844 17.453125 C 88.902344 17.777344 88.691406 18.089844 88.367188 18.148438 C 87.996094 18.222656 87.53125 17.976562 87.363281 17.660156 C 87.125 17.207031 87.148438 16.707031 87.214844 16.089844 C 87.285156 15.445312 87.445312 14.679688 87.679688 13.800781 C 87.953125 12.792969 88.289062 11.71875 88.671875 10.746094 C 89.292969 9.164062 90.085938 7.847656 90.9375 6.746094 C 91.359375 6.195312 91.8125 5.734375 92.257812 5.433594 C 92.476562 5.285156 92.695312 5.15625 93.003906 5.136719 C 93.335938 5.113281 93.773438 5.4375 93.855469 5.769531 C 93.925781 6.078125 93.902344 6.398438 93.832031 6.75 C 93.59375 7.933594 92.886719 9.4375 91.796875 10.75 C 90.765625 11.992188 89.667969 13.105469 88.632812 13.800781 C 87.882812 14.300781 87.144531 14.53125 86.476562 14.53125 C 86.132812 14.53125 85.757812 14.476562 85.425781 14.246094 C 85.085938 14.011719 84.859375 13.582031 84.824219 13.121094 C 84.785156 12.535156 84.886719 11.824219 85.183594 11.078125 C 85.824219 9.476562 87.042969 7.984375 88.078125 7.027344 C 88.875 6.289062 89.644531 5.878906 90.425781 5.921875 C 90.730469 5.941406 91.046875 6.003906 91.339844 6.179688 C 91.640625 6.355469 91.925781 6.738281 91.910156 7.175781 M 93.171875 12.390625 C 93.425781 12.59375 93.472656 12.96875 93.269531 13.226562 C 93.0625 13.480469 92.691406 13.527344 92.433594 13.324219 C 92.414062 13.3125 92.597656 13.347656 92.542969 13.34375 C 92.441406 13.339844 92.910156 13.191406 92.84375 13.25 C 92.796875 13.285156 92.910156 13.171875 92.90625 13.175781 L 92.824219 13.519531 L 92.203125 17.3125 C 92.230469 17.636719 91.988281 17.925781 91.660156 17.957031 C 91.332031 17.984375 91.046875 17.742188 91.015625 17.414062 C 90.980469 16.972656 91.109375 16.4375 91.242188 15.65625 L 91.652344 13.3125 C 91.699219 13.035156 91.726562 12.769531 91.945312 12.476562 C 92.066406 12.320312 92.316406 12.15625 92.582031 12.15625 C 92.839844 12.160156 93.023438 12.273438 93.171875 12.390625 M 161.878906 8.90625 C 161.929688 9.230469 161.710938 9.535156 161.386719 9.589844 C 161.0625 9.640625 160.757812 9.417969 160.703125 9.09375 C 160.640625 8.6875 160.710938 8.332031 160.722656 8.058594 L 160.714844 7.828125 L 160.746094 7.886719 C 160.71875 7.847656 160.941406 8.019531 160.886719 7.996094 L 160.996094 8.019531 L 160.003906 8.589844 L 158.246094 9.867188 C 157.695312 10.316406 157.132812 10.839844 156.621094 11.40625 C 156.105469 11.972656 155.664062 12.585938 155.355469 13.15625 C 154.234375 15.226562 155.253906 15.933594 156.570312 15.414062 C 157.132812 15.191406 157.808594 14.722656 158.546875 14.042969 C 159.226562 13.417969 159.949219 12.695312 160.574219 11.886719 C 161.207031 11.0625 161.714844 10.144531 161.996094 9.398438 C 162.195312 8.871094 162.191406 8.460938 162.164062 8.367188 C 162.15625 8.339844 162.308594 8.527344 162.257812 8.492188 L 162.351562 8.535156 L 162.125 8.613281 C 161.503906 8.894531 160.660156 9.554688 159.816406 10.59375 C 159.171875 11.390625 158.542969 12.480469 158.109375 13.648438 C 157.84375 14.359375 157.703125 15.113281 157.578125 15.800781 L 157.289062 17.808594 L 157.179688 18.414062 L 157.167969 18.355469 C 157.1875 18.414062 156.988281 18.152344 157.035156 18.183594 L 157.035156 18.171875 C 157.359375 18.21875 157.582031 18.523438 157.535156 18.847656 C 157.484375 19.171875 157.183594 19.394531 156.855469 19.347656 C 156.4375 19.28125 155.996094 18.808594 155.992188 18.433594 C 155.988281 18.09375 156.078125 17.871094 156.109375 17.644531 L 156.410156 15.59375 C 156.535156 14.890625 156.6875 14.0625 156.996094 13.234375 C 157.476562 11.945312 158.152344 10.753906 158.894531 9.84375 C 159.828125 8.695312 160.78125 7.921875 161.628906 7.53125 C 161.890625 7.414062 162.164062 7.324219 162.476562 7.355469 C 162.800781 7.386719 163.1875 7.65625 163.296875 8.011719 C 163.457031 8.519531 163.371094 9.121094 163.109375 9.820312 C 162.777344 10.699219 162.21875 11.695312 161.515625 12.609375 C 160.832031 13.496094 160.0625 14.265625 159.351562 14.917969 C 158.546875 15.65625 157.777344 16.214844 157.007812 16.519531 C 155.976562 16.925781 154.816406 16.792969 154.175781 16.015625 C 153.527344 15.222656 153.578125 13.9375 154.308594 12.589844 C 154.671875 11.921875 155.167969 11.238281 155.742188 10.605469 C 156.296875 9.992188 156.902344 9.429688 157.492188 8.945312 L 159.339844 7.605469 L 160.300781 7.023438 C 160.59375 6.882812 160.910156 6.722656 161.335938 6.894531 C 161.636719 7.019531 161.8125 7.3125 161.867188 7.535156 C 162.023438 8.152344 161.84375 8.699219 161.878906 8.90625 M 161.421875 14.871094 C 161.132812 14.71875 161.019531 14.359375 161.171875 14.066406 C 161.324219 13.777344 161.683594 13.664062 161.972656 13.816406 L 161.875 13.777344 C 161.921875 13.792969 161.5625 13.765625 161.660156 13.757812 C 161.757812 13.75 161.234375 13.980469 161.332031 13.894531 C 161.425781 13.816406 161.132812 14.230469 161.160156 14.152344 C 161.183594 14.082031 161.128906 14.359375 161.128906 14.316406 C 161.132812 14.246094 161.144531 14.472656 161.140625 14.449219 C 161.125 14.382812 161.152344 14.492188 161.140625 14.460938 L 161.078125 14.3125 C 160.921875 13.921875 160.964844 13.527344 161.21875 13.179688 C 161.515625 12.773438 161.945312 12.765625 162.277344 12.792969 C 162.609375 12.816406 162.9375 12.914062 163.230469 13.085938 C 163.585938 13.292969 163.871094 13.648438 164 14.085938 C 164.085938 14.386719 164.117188 14.753906 164.035156 15.144531 C 163.839844 16.070312 163.121094 16.785156 162.683594 17.425781 L 162.164062 18.34375 C 162.164062 18.347656 162.035156 18.207031 162.203125 18.25 C 163.140625 18.488281 165.796875 17.648438 166.539062 17.316406 C 166.839844 17.183594 167.191406 17.320312 167.324219 17.617188 C 167.457031 17.917969 167.324219 18.269531 167.023438 18.402344 C 166.597656 18.59375 165.757812 18.890625 164.78125 19.140625 C 163.789062 19.394531 162.765625 19.617188 161.910156 19.402344 C 161.367188 19.265625 160.878906 18.664062 161 18.09375 C 161.109375 17.59375 161.402344 17.195312 161.703125 16.757812 C 162.191406 16.035156 162.78125 15.320312 162.871094 14.898438 L 162.855469 14.417969 C 162.8125 14.265625 162.726562 14.167969 162.632812 14.113281 L 162.183594 13.976562 L 162.058594 13.980469 L 162.089844 13.964844 L 162.175781 13.882812 C 162.144531 13.929688 162.164062 13.824219 162.179688 13.871094 L 162.269531 14.089844 C 162.289062 14.140625 162.355469 14.175781 162.308594 14.441406 C 162.28125 14.605469 162.042969 14.90625 161.792969 14.9375 C 161.570312 14.96875 161.480469 14.902344 161.421875 14.871094 "/>
<path fill-rule="nonzero" fill="rgb(0%, 45.097351%, 23.136902%)" fill-opacity="1" d="M 99.371094 99.902344 C 99.332031 100.226562 99.035156 100.460938 98.710938 100.421875 C 98.382812 100.382812 98.152344 100.085938 98.191406 99.757812 C 98.242188 99.359375 98.226562 99.058594 98.175781 98.910156 C 98.132812 98.785156 98.128906 98.777344 98.011719 98.746094 C 97.816406 98.6875 97.625 98.65625 97.285156 98.75 C 96.972656 98.832031 96.570312 99 96.097656 99.265625 C 94.789062 100 93.15625 101.296875 91.933594 102.710938 C 91.265625 103.484375 90.785156 104.3125 90.515625 105.050781 C 90.085938 106.230469 90.597656 107.21875 91.34375 107.808594 C 91.855469 108.210938 92.558594 108.40625 93.242188 108.496094 C 94.921875 108.722656 96.253906 108.5 98.339844 107.339844 C 98.625 107.179688 98.988281 107.28125 99.148438 107.566406 C 99.308594 107.855469 99.203125 108.214844 98.917969 108.375 C 96.6875 109.621094 94.957031 109.925781 93.085938 109.675781 C 92.285156 109.570312 91.367188 109.34375 90.609375 108.742188 C 89.554688 107.910156 88.785156 106.335938 89.398438 104.644531 C 89.722656 103.753906 90.277344 102.8125 91.035156 101.933594 C 92.359375 100.398438 94.0625 99.046875 95.515625 98.230469 C 96.054688 97.929688 96.535156 97.71875 96.972656 97.601562 C 97.535156 97.449219 98.015625 97.507812 98.34375 97.601562 C 98.796875 97.734375 99.164062 98.113281 99.304688 98.539062 C 99.441406 98.957031 99.429688 99.410156 99.371094 99.902344 M 101.332031 104.480469 C 101.613281 104.648438 101.710938 105.011719 101.546875 105.292969 C 101.382812 105.578125 101.019531 105.675781 100.734375 105.511719 C 100.691406 105.484375 101.007812 105.574219 100.925781 105.566406 C 100.847656 105.5625 101.214844 105.503906 101.152344 105.53125 C 101.09375 105.554688 101.300781 105.425781 101.273438 105.449219 C 101.230469 105.492188 101.320312 105.394531 101.3125 105.40625 C 101.210938 105.613281 101.066406 106.621094 101.023438 107.933594 L 101.023438 110.558594 L 101.046875 113.34375 C 101.039062 114.023438 101.132812 114.488281 100.738281 114.964844 C 100.53125 115.21875 100.15625 115.257812 99.902344 115.046875 C 99.648438 114.839844 99.613281 114.464844 99.820312 114.210938 C 99.867188 114.15625 99.78125 114.28125 99.785156 114.257812 C 99.886719 113.921875 99.855469 112.535156 99.835938 110.570312 L 99.835938 107.894531 C 99.867188 106.941406 99.925781 106.148438 100.042969 105.550781 C 100.097656 105.265625 100.15625 105.027344 100.292969 104.800781 C 100.359375 104.679688 100.460938 104.542969 100.660156 104.449219 C 100.871094 104.351562 101.160156 104.382812 101.332031 104.480469 "/>
</svg>
