<?xml version="1.0" encoding="UTF-8"?>
<svg xmlns="http://www.w3.org/2000/svg" xmlns:xlink="http://www.w3.org/1999/xlink" width="288.0865" height="185.0423" viewBox="0 0 288.0865 185.0423">
<defs>
<clipPath id="clip-0">
<path clip-rule="nonzero" d="M 0.289062 112 L 49 112 L 49 184.089844 L 0.289062 184.089844 Z M 0.289062 112 "/>
</clipPath>
<clipPath id="clip-1">
<path clip-rule="nonzero" d="M 0.289062 6 L 268 6 L 268 184.089844 L 0.289062 184.089844 Z M 0.289062 6 "/>
</clipPath>
<clipPath id="clip-2">
<path clip-rule="nonzero" d="M 40 56 L 110 56 L 110 184.089844 L 40 184.089844 Z M 40 56 "/>
</clipPath>
</defs>
<g clip-path="url(#clip-0)">
<path fill-rule="nonzero" fill="rgb(0%, 0%, 0%)" fill-opacity="1" d="M 11.285156 118.003906 C 10.957031 118.003906 10.691406 117.738281 10.691406 117.410156 C 10.691406 117.082031 10.957031 116.8125 11.285156 116.8125 L 37.277344 116.8125 C 37.605469 116.8125 37.871094 117.082031 37.871094 117.410156 C 37.871094 117.738281 37.605469 118.003906 37.277344 118.003906 Z M 37.277344 112.679688 L 48.152344 117.410156 L 37.277344 122.136719 Z M 11.699219 126.785156 C 11.84375 127.082031 11.722656 127.4375 11.429688 127.582031 C 11.136719 127.726562 10.777344 127.609375 10.632812 127.3125 C 10.601562 127.246094 10.382812 126.945312 10.265625 126.554688 C 10.175781 126.253906 10.277344 125.867188 10.480469 125.648438 C 11.050781 125.046875 11.898438 125.074219 12.867188 125.054688 C 13.804688 125.03125 14.925781 125.007812 15.902344 125.15625 C 16.417969 125.234375 16.917969 125.3125 17.355469 125.589844 C 17.566406 125.722656 17.800781 125.894531 17.957031 126.195312 C 18.21875 126.707031 17.945312 127.152344 17.707031 127.46875 L 16.847656 128.351562 L 14.617188 130.160156 C 14.296875 130.445312 14.15625 130.660156 14.125 130.835938 L 14.136719 131.132812 L 14.558594 131.386719 C 15.160156 131.683594 16.152344 131.761719 17.324219 131.75 L 19.28125 131.582031 L 20.433594 131.355469 L 20.996094 131.253906 C 21.304688 131.152344 21.640625 131.320312 21.746094 131.632812 C 21.847656 131.945312 21.679688 132.28125 21.367188 132.382812 C 21.03125 132.496094 21.121094 132.421875 21.019531 132.421875 L 19.90625 132.414062 C 19.578125 132.386719 19.335938 132.097656 19.363281 131.769531 C 19.390625 131.445312 19.675781 131.199219 20.003906 131.226562 L 20.644531 131.238281 L 20.996094 131.234375 L 21.101562 131.230469 L 21.117188 131.230469 L 21.097656 131.230469 C 21.113281 131.230469 20.917969 131.28125 20.992188 131.253906 L 21.367188 132.382812 L 20.679688 132.519531 L 19.460938 132.757812 C 18.796875 132.859375 18.058594 132.933594 17.335938 132.941406 C 16.101562 132.953125 14.960938 132.90625 14.035156 132.453125 C 13.757812 132.320312 13.394531 132.175781 13.136719 131.773438 C 12.882812 131.378906 12.898438 130.941406 12.957031 130.625 C 13.054688 130.078125 13.40625 129.644531 13.824219 129.273438 L 16.066406 127.457031 L 16.753906 126.757812 L 16.867188 126.570312 L 16.863281 126.605469 L 16.898438 126.738281 L 16.722656 126.597656 C 16.554688 126.492188 16.199219 126.402344 15.726562 126.332031 C 14.894531 126.207031 13.820312 126.21875 12.894531 126.242188 C 12.300781 126.253906 11.796875 126.3125 11.503906 126.402344 L 11.34375 126.46875 C 11.308594 126.503906 11.386719 126.160156 11.402344 126.214844 Z M 13.621094 129.585938 C 13.898438 129.761719 13.980469 130.128906 13.804688 130.40625 C 13.628906 130.683594 13.261719 130.765625 12.984375 130.589844 L 12.398438 130.261719 L 12.121094 130.085938 C 12.011719 130.003906 11.742188 129.789062 11.855469 129.371094 C 11.992188 128.863281 12.335938 128.863281 12.539062 128.816406 C 13.253906 128.652344 14.371094 128.703125 15.664062 128.734375 C 16.984375 128.765625 18.351562 128.816406 19.328125 128.773438 C 19.65625 128.757812 19.933594 129.011719 19.949219 129.339844 C 19.960938 129.667969 19.707031 129.945312 19.378906 129.960938 C 18.167969 130.011719 16.542969 129.9375 15.089844 129.910156 L 13.28125 129.921875 L 12.800781 129.976562 L 12.78125 129.976562 C 12.761719 129.988281 12.914062 129.863281 12.875 129.90625 C 12.828125 129.953125 13.03125 129.578125 13.003906 129.679688 C 12.980469 129.769531 12.992188 129.335938 13.007812 129.414062 C 13.023438 129.484375 12.917969 129.214844 12.941406 129.253906 C 12.984375 129.316406 12.847656 129.148438 12.863281 129.15625 Z M 23.964844 131.492188 C 24.285156 131.554688 24.492188 131.871094 24.429688 132.191406 C 24.363281 132.511719 24.050781 132.722656 23.730469 132.65625 L 23.886719 132.589844 C 23.835938 132.691406 23.804688 133.097656 23.859375 133.472656 L 23.96875 133.941406 L 24.007812 134.039062 L 23.992188 134.019531 C 24.007812 134.039062 23.8125 133.882812 23.878906 133.921875 C 24.160156 134.09375 24.25 134.457031 24.082031 134.738281 C 23.914062 135.019531 23.546875 135.113281 23.265625 134.941406 C 22.816406 134.671875 22.855469 134.402344 22.777344 134.113281 C 22.660156 133.667969 22.589844 133.128906 22.664062 132.605469 C 22.699219 132.34375 22.769531 132.066406 22.980469 131.820312 C 23.195312 131.5625 23.613281 131.421875 23.964844 131.492188 M 25.140625 128.660156 C 25.28125 128.957031 25.15625 129.3125 24.859375 129.457031 C 24.5625 129.597656 24.210938 129.472656 24.066406 129.175781 C 23.847656 128.71875 23.675781 128.34375 23.699219 127.871094 C 23.71875 127.546875 23.996094 127.292969 24.324219 127.3125 C 24.652344 127.328125 24.902344 127.609375 24.886719 127.9375 C 24.875 128.148438 24.917969 128.199219 25.140625 128.660156 M 32.230469 123.644531 C 32.484375 123.851562 32.523438 124.226562 32.316406 124.480469 C 32.109375 124.738281 31.734375 124.777344 31.480469 124.566406 C 31.324219 124.441406 31.183594 124.304688 31.097656 124.085938 C 30.960938 123.734375 31.207031 123.257812 31.453125 123.117188 C 31.679688 122.984375 31.894531 122.949219 32.113281 122.929688 C 32.867188 122.863281 33.839844 123.03125 34.492188 123.75 C 34.75 124.03125 34.972656 124.4375 34.980469 124.917969 C 34.984375 125.308594 34.859375 125.675781 34.679688 126.019531 C 34.140625 127.042969 33.027344 127.695312 32.558594 128.183594 L 32.441406 128.328125 C 32.429688 128.347656 32.453125 128.199219 32.449219 128.265625 C 32.445312 128.351562 32.347656 127.972656 32.386719 128.03125 L 32.324219 127.964844 L 32.53125 128.023438 C 33.046875 128.117188 33.984375 128.054688 34.8125 127.957031 L 35.855469 127.808594 L 36.164062 127.757812 L 36.257812 127.746094 L 36.347656 127.738281 C 36.394531 127.738281 37.015625 127.34375 36.945312 128.375 C 36.886719 129.195312 36.597656 128.875 36.5625 128.890625 C 36.257812 129.007812 35.914062 128.855469 35.792969 128.550781 C 35.675781 128.242188 35.828125 127.898438 36.132812 127.78125 C 36.164062 127.769531 35.699219 129.109375 35.757812 128.292969 C 35.828125 127.277344 36.390625 128.929688 36.347656 128.929688 C 36.324219 128.929688 33.871094 129.484375 32.3125 129.191406 L 31.691406 128.96875 C 31.484375 128.839844 31.246094 128.5625 31.261719 128.214844 C 31.277344 127.828125 31.484375 127.585938 31.699219 127.363281 C 32.335938 126.695312 33.320312 126.046875 33.625 125.464844 L 33.789062 124.933594 C 33.789062 124.796875 33.734375 124.683594 33.613281 124.550781 C 33.332031 124.238281 32.664062 124.074219 32.21875 124.113281 L 32.054688 124.144531 L 32.085938 124.121094 C 32.050781 124.148438 32.238281 123.863281 32.203125 123.949219 C 32.179688 124.015625 32.222656 123.683594 32.230469 123.746094 L 32.203125 123.636719 C 32.230469 123.703125 32.171875 123.597656 32.230469 123.644531 M 32.683594 133.265625 C 32.5625 132.960938 32.710938 132.617188 33.015625 132.496094 C 33.320312 132.371094 33.667969 132.523438 33.789062 132.828125 C 33.816406 132.898438 33.9375 133.066406 33.734375 133.375 C 33.527344 133.695312 33.1875 133.652344 33.085938 133.625 C 32.648438 133.515625 32.804688 133.472656 32.742188 133.421875 L 32.46875 133.167969 L 32.359375 133.058594 L 32.3125 133.003906 C 32.292969 132.972656 32.207031 133.003906 32.195312 132.667969 C 32.191406 132.503906 32.355469 132.171875 32.589844 132.089844 C 32.933594 131.964844 32.996094 132.085938 33.042969 132.109375 L 33.171875 132.1875 C 33.429688 132.386719 33.480469 132.757812 33.28125 133.019531 C 33.082031 133.28125 32.707031 133.332031 32.445312 133.132812 L 32.460938 133.140625 L 32.523438 133.179688 C 32.5 133.167969 32.730469 133.242188 32.652344 133.226562 C 32.566406 133.207031 33.453125 132.820312 33.214844 133.066406 C 32.976562 133.308594 33.332031 132.382812 33.359375 132.472656 C 33.382812 132.550781 33.285156 132.316406 33.300781 132.34375 C 33.34375 132.417969 33.238281 132.257812 33.242188 132.261719 L 33.449219 132.457031 L 33.558594 132.554688 L 33.535156 132.539062 L 33.476562 132.507812 C 33.503906 132.519531 33.28125 132.453125 33.347656 132.46875 C 33.40625 132.476562 32.957031 132.511719 33.082031 132.476562 C 33.183594 132.449219 32.683594 132.792969 32.769531 132.683594 C 32.894531 132.523438 32.652344 133.195312 32.644531 133.101562 C 32.636719 133.019531 32.699219 133.300781 32.683594 133.265625 M -7.148438 284.597656 C -7.476562 284.597656 -7.742188 284.332031 -7.742188 284.003906 C -7.742188 283.675781 -7.476562 283.410156 -7.148438 283.410156 L 18.839844 283.410156 C 19.167969 283.410156 19.4375 283.675781 19.4375 284.003906 C 19.4375 284.332031 19.167969 284.597656 18.839844 284.597656 Z M 18.839844 279.273438 L 29.71875 284.003906 L 18.839844 288.734375 Z M -6.734375 293.382812 C -6.589844 293.675781 -6.710938 294.03125 -7.003906 294.179688 C -7.296875 294.324219 -7.65625 294.203125 -7.800781 293.910156 C -7.832031 293.84375 -8.050781 293.539062 -8.167969 293.152344 C -8.261719 292.851562 -8.160156 292.460938 -7.953125 292.246094 C -7.382812 291.644531 -6.535156 291.671875 -5.566406 291.648438 C -4.628906 291.628906 -3.507812 291.601562 -2.53125 291.75 C -2.015625 291.828125 -1.515625 291.910156 -1.078125 292.1875 C -0.867188 292.320312 -0.632812 292.488281 -0.476562 292.789062 C -0.214844 293.300781 -0.492188 293.746094 -0.726562 294.0625 L -1.585938 294.949219 L -3.820312 296.753906 C -4.136719 297.039062 -4.277344 297.253906 -4.308594 297.433594 L -4.296875 297.726562 L -3.875 297.984375 C -3.273438 298.277344 -2.28125 298.359375 -1.109375 298.347656 L 0.847656 298.179688 L 2 297.949219 L 2.558594 297.851562 C 2.871094 297.746094 3.207031 297.917969 3.3125 298.230469 C 3.414062 298.539062 3.246094 298.875 2.933594 298.980469 C 2.59375 299.09375 2.6875 299.015625 2.585938 299.019531 L 1.472656 299.007812 C 1.144531 298.980469 0.902344 298.695312 0.929688 298.367188 C 0.957031 298.039062 1.242188 297.796875 1.570312 297.824219 L 2.210938 297.832031 L 2.5625 297.828125 L 2.667969 297.824219 L 2.683594 297.824219 L 2.664062 297.828125 C 2.675781 297.824219 2.484375 297.875 2.558594 297.851562 L 2.933594 298.980469 L 2.246094 299.113281 L 1.027344 299.355469 C 0.359375 299.457031 -0.378906 299.527344 -1.097656 299.535156 C -2.332031 299.546875 -3.472656 299.503906 -4.398438 299.050781 C -4.675781 298.914062 -5.042969 298.773438 -5.296875 298.371094 C -5.550781 297.976562 -5.535156 297.535156 -5.480469 297.21875 C -5.378906 296.671875 -5.027344 296.242188 -4.609375 295.867188 L -2.367188 294.050781 L -1.679688 293.351562 L -1.566406 293.167969 L -1.570312 293.203125 L -1.535156 293.332031 L -1.710938 293.191406 C -1.878906 293.085938 -2.234375 293 -2.710938 292.925781 C -3.539062 292.800781 -4.613281 292.816406 -5.539062 292.835938 C -6.132812 292.851562 -6.636719 292.90625 -6.929688 293 L -7.089844 293.0625 C -7.125 293.101562 -7.046875 292.757812 -7.03125 292.8125 Z M -4.8125 296.183594 C -4.535156 296.359375 -4.453125 296.726562 -4.628906 297.003906 C -4.804688 297.28125 -5.171875 297.363281 -5.449219 297.1875 L -6.035156 296.859375 L -6.3125 296.683594 C -6.421875 296.597656 -6.691406 296.382812 -6.578125 295.964844 C -6.441406 295.460938 -6.097656 295.457031 -5.894531 295.410156 C -5.179688 295.25 -4.066406 295.300781 -2.769531 295.332031 C -1.453125 295.363281 -0.0859375 295.410156 0.894531 295.367188 C 1.222656 295.351562 1.5 295.605469 1.515625 295.933594 C 1.527344 296.261719 1.273438 296.542969 0.945312 296.554688 C -0.265625 296.609375 -1.890625 296.535156 -3.34375 296.507812 L -5.152344 296.515625 L -5.632812 296.570312 L -5.652344 296.574219 C -5.671875 296.582031 -5.519531 296.460938 -5.558594 296.503906 C -5.605469 296.546875 -5.402344 296.171875 -5.429688 296.277344 C -5.457031 296.367188 -5.445312 295.929688 -5.425781 296.007812 C -5.410156 296.078125 -5.515625 295.8125 -5.492188 295.847656 C -5.453125 295.914062 -5.585938 295.742188 -5.574219 295.753906 Z M 5.527344 298.085938 C 5.851562 298.152344 6.058594 298.464844 5.996094 298.789062 C 5.929688 299.109375 5.617188 299.316406 5.296875 299.253906 L 5.453125 299.1875 C 5.402344 299.289062 5.371094 299.695312 5.425781 300.066406 L 5.53125 300.535156 L 5.574219 300.636719 L 5.558594 300.617188 C 5.574219 300.636719 5.378906 300.480469 5.445312 300.519531 C 5.726562 300.6875 5.816406 301.054688 5.648438 301.335938 C 5.480469 301.617188 5.113281 301.707031 4.832031 301.539062 C 4.382812 301.269531 4.421875 301 4.34375 300.710938 C 4.226562 300.261719 4.15625 299.726562 4.230469 299.203125 C 4.265625 298.9375 4.335938 298.660156 4.546875 298.414062 C 4.761719 298.160156 5.179688 298.015625 5.527344 298.085938 M 6.703125 295.257812 C 6.847656 295.554688 6.722656 295.910156 6.425781 296.050781 C 6.128906 296.195312 5.773438 296.070312 5.632812 295.773438 C 5.414062 295.316406 5.238281 294.9375 5.265625 294.46875 C 5.28125 294.140625 5.5625 293.890625 5.890625 293.90625 C 6.21875 293.925781 6.46875 294.203125 6.453125 294.53125 C 6.441406 294.746094 6.484375 294.796875 6.703125 295.257812 M 13.796875 290.242188 C 14.050781 290.449219 14.089844 290.824219 13.882812 291.078125 C 13.675781 291.332031 13.300781 291.371094 13.046875 291.164062 C 12.890625 291.039062 12.75 290.898438 12.664062 290.679688 C 12.527344 290.332031 12.773438 289.855469 13.019531 289.710938 C 13.246094 289.578125 13.460938 289.546875 13.679688 289.527344 C 14.433594 289.457031 15.40625 289.628906 16.058594 290.347656 C 16.316406 290.628906 16.539062 291.03125 16.546875 291.511719 C 16.550781 291.902344 16.425781 292.269531 16.246094 292.613281 C 15.707031 293.640625 14.59375 294.289062 14.125 294.777344 L 14.007812 294.921875 C 13.996094 294.941406 14.019531 294.792969 14.015625 294.863281 C 14.011719 294.945312 13.914062 294.570312 13.949219 294.625 L 13.890625 294.558594 L 14.097656 294.617188 C 14.613281 294.714844 15.550781 294.652344 16.378906 294.550781 L 17.421875 294.40625 L 17.730469 294.355469 L 17.824219 294.339844 L 17.914062 294.335938 C 17.960938 294.335938 18.582031 293.945312 18.507812 294.972656 C 18.453125 295.789062 18.164062 295.472656 18.128906 295.484375 C 17.824219 295.605469 17.480469 295.453125 17.359375 295.144531 C 17.242188 294.839844 17.394531 294.496094 17.699219 294.375 C 17.730469 294.363281 17.265625 295.703125 17.324219 294.886719 C 17.394531 293.878906 17.953125 295.523438 17.910156 295.523438 C 17.890625 295.523438 15.4375 296.078125 13.878906 295.785156 L 13.257812 295.566406 C 13.050781 295.4375 12.8125 295.15625 12.828125 294.808594 C 12.84375 294.421875 13.050781 294.183594 13.265625 293.957031 C 13.902344 293.292969 14.886719 292.640625 15.191406 292.0625 L 15.355469 291.527344 C 15.355469 291.390625 15.300781 291.28125 15.179688 291.144531 C 14.898438 290.835938 14.230469 290.671875 13.785156 290.710938 L 13.621094 290.738281 L 13.652344 290.714844 C 13.617188 290.742188 13.800781 290.460938 13.769531 290.546875 C 13.746094 290.613281 13.789062 290.277344 13.796875 290.339844 L 13.765625 290.234375 C 13.792969 290.296875 13.738281 290.195312 13.796875 290.242188 M 14.25 299.863281 C 14.128906 299.558594 14.277344 299.210938 14.582031 299.089844 C 14.886719 298.96875 15.234375 299.117188 15.355469 299.421875 C 15.382812 299.492188 15.5 299.660156 15.300781 299.96875 C 15.09375 300.289062 14.753906 300.25 14.652344 300.222656 C 14.378906 300.152344 14.429688 300.117188 14.398438 300.089844 L 14.078125 299.804688 L 13.945312 299.675781 L 13.90625 299.636719 L 13.835938 299.535156 L 13.769531 299.332031 C 13.75 299.203125 13.804688 298.878906 14.054688 298.730469 C 14.4375 298.503906 14.546875 298.675781 14.601562 298.699219 L 14.734375 298.78125 C 14.996094 298.980469 15.046875 299.355469 14.847656 299.617188 C 14.648438 299.878906 14.273438 299.925781 14.011719 299.726562 L 14.027344 299.734375 L 14.089844 299.773438 C 14.066406 299.761719 14.296875 299.839844 14.21875 299.820312 C 14.132812 299.800781 15.019531 299.417969 14.78125 299.660156 C 14.539062 299.902344 14.898438 298.980469 14.925781 299.070312 C 14.949219 299.148438 14.851562 298.914062 14.867188 298.9375 C 14.910156 299.011719 14.800781 298.851562 14.808594 298.859375 L 15.015625 299.054688 L 15.125 299.152344 L 15.101562 299.136719 L 15.042969 299.105469 C 15.070312 299.117188 14.847656 299.050781 14.914062 299.0625 C 14.96875 299.074219 14.523438 299.105469 14.648438 299.074219 C 14.75 299.046875 14.25 299.390625 14.335938 299.28125 C 14.460938 299.121094 14.21875 299.792969 14.210938 299.699219 C 14.203125 299.613281 14.261719 299.894531 14.25 299.863281 "/>
</g>
<path fill-rule="nonzero" fill="rgb(7.058716%, 1.176453%, 46.665955%)" fill-opacity="1" d="M 162.085938 -135.671875 C 162.347656 -135.867188 162.722656 -135.8125 162.917969 -135.550781 C 163.113281 -135.289062 163.0625 -134.914062 162.796875 -134.71875 L 157.863281 -131.023438 C 157.601562 -130.828125 157.226562 -130.878906 157.03125 -131.144531 C 156.835938 -131.40625 156.886719 -131.777344 157.152344 -131.976562 Z M 156.320312 -118.667969 C 156.320312 -118.996094 156.585938 -119.261719 156.914062 -119.261719 C 157.242188 -119.261719 157.507812 -118.996094 157.507812 -118.667969 L 157.507812 -107.753906 C 157.507812 -107.425781 157.242188 -107.160156 156.914062 -107.160156 C 156.585938 -107.160156 156.320312 -107.425781 156.320312 -107.753906 Z M 148.429688 -106.429688 C 148.097656 -106.429688 147.832031 -106.695312 147.832031 -107.023438 C 147.832031 -107.351562 148.097656 -107.617188 148.429688 -107.617188 L 165.398438 -107.617188 C 165.726562 -107.617188 165.992188 -107.351562 165.992188 -107.023438 C 165.992188 -106.695312 165.726562 -106.429688 165.398438 -106.429688 Z M 151.359375 -102.535156 C 151.03125 -102.535156 150.765625 -102.800781 150.765625 -103.128906 C 150.765625 -103.457031 151.03125 -103.726562 151.359375 -103.726562 L 162.753906 -103.726562 C 163.085938 -103.726562 163.351562 -103.457031 163.351562 -103.128906 C 163.351562 -102.800781 163.085938 -102.535156 162.753906 -102.535156 Z M 154.625 -98.886719 C 154.296875 -98.886719 154.027344 -99.152344 154.027344 -99.480469 C 154.027344 -99.808594 154.296875 -100.074219 154.625 -100.074219 L 159.492188 -100.074219 C 159.820312 -100.074219 160.085938 -99.808594 160.085938 -99.480469 C 160.085938 -99.152344 159.820312 -98.886719 159.492188 -98.886719 Z M 165.0625 -228.144531 C 165.0625 -226.644531 164.25 -225.332031 163.039062 -224.625 C 162.4375 -224.273438 161.734375 -224.070312 160.988281 -224.070312 C 159.484375 -224.070312 158.171875 -224.882812 157.46875 -226.09375 C 157.113281 -226.695312 156.914062 -227.394531 156.914062 -228.144531 C 156.914062 -229.644531 157.726562 -230.957031 158.933594 -231.664062 C 159.539062 -232.015625 160.238281 -232.21875 160.988281 -232.21875 C 162.488281 -232.21875 163.800781 -231.40625 164.507812 -230.199219 C 164.859375 -229.59375 165.0625 -228.894531 165.0625 -228.144531 M 163.871094 -228.144531 C 163.871094 -228.675781 163.730469 -229.171875 163.480469 -229.597656 C 162.980469 -230.453125 162.050781 -231.03125 160.988281 -231.03125 C 160.457031 -231.03125 159.960938 -230.886719 159.535156 -230.636719 C 158.679688 -230.136719 158.101562 -229.207031 158.101562 -228.144531 C 158.101562 -227.617188 158.246094 -227.117188 158.492188 -226.691406 C 158.996094 -225.835938 159.921875 -225.261719 160.988281 -225.261719 C 161.515625 -225.261719 162.011719 -225.402344 162.441406 -225.652344 C 163.296875 -226.152344 163.871094 -227.082031 163.871094 -228.144531 M 202.042969 -143.890625 C 202.042969 -142.390625 201.230469 -141.078125 200.023438 -140.371094 C 199.417969 -140.019531 198.71875 -139.816406 197.96875 -139.816406 C 196.46875 -139.816406 195.15625 -140.628906 194.449219 -141.839844 C 194.097656 -142.441406 193.894531 -143.144531 193.894531 -143.890625 C 193.894531 -145.394531 194.707031 -146.707031 195.917969 -147.414062 C 196.519531 -147.765625 197.222656 -147.964844 197.96875 -147.964844 C 199.472656 -147.964844 200.78125 -147.152344 201.488281 -145.945312 C 201.839844 -145.34375 202.042969 -144.640625 202.042969 -143.890625 M 200.855469 -143.890625 C 200.855469 -144.421875 200.710938 -144.917969 200.460938 -145.34375 C 199.960938 -146.203125 199.035156 -146.777344 197.96875 -146.777344 C 197.441406 -146.777344 196.945312 -146.632812 196.515625 -146.386719 C 195.660156 -145.886719 195.085938 -144.957031 195.085938 -143.890625 C 195.085938 -143.363281 195.226562 -142.867188 195.476562 -142.441406 C 195.976562 -141.582031 196.90625 -141.007812 197.96875 -141.007812 C 198.5 -141.007812 198.996094 -141.148438 199.421875 -141.398438 C 200.277344 -141.898438 200.855469 -142.828125 200.855469 -143.890625 M 100.867188 -261.394531 C 100.867188 -259.890625 100.058594 -258.578125 98.847656 -257.875 C 98.246094 -257.519531 97.542969 -257.320312 96.792969 -257.320312 C 95.292969 -257.320312 93.980469 -258.132812 93.273438 -259.339844 C 92.921875 -259.941406 92.722656 -260.644531 92.722656 -261.394531 C 92.722656 -262.894531 93.53125 -264.207031 94.742188 -264.914062 C 95.34375 -265.265625 96.046875 -265.46875 96.792969 -265.46875 C 98.296875 -265.46875 99.609375 -264.65625 100.316406 -263.445312 C 100.667969 -262.84375 100.867188 -262.140625 100.867188 -261.394531 M 99.679688 -261.394531 C 99.679688 -261.921875 99.539062 -262.417969 99.289062 -262.847656 C 98.789062 -263.703125 97.859375 -264.277344 96.792969 -264.277344 C 96.265625 -264.277344 95.769531 -264.136719 95.34375 -263.886719 C 94.484375 -263.386719 93.910156 -262.457031 93.910156 -261.394531 C 93.910156 -260.863281 94.050781 -260.367188 94.300781 -259.941406 C 94.800781 -259.082031 95.730469 -258.507812 96.792969 -258.507812 C 97.324219 -258.507812 97.820312 -258.652344 98.246094 -258.898438 C 99.105469 -259.398438 99.679688 -260.328125 99.679688 -261.394531 M 90.847656 -52.972656 C 90.519531 -52.972656 90.253906 -53.238281 90.253906 -53.566406 C 90.253906 -53.894531 90.519531 -54.160156 90.847656 -54.160156 L 98.914062 -54.160156 C 99.242188 -54.160156 99.507812 -53.894531 99.507812 -53.566406 C 99.507812 -53.238281 99.242188 -52.972656 98.914062 -52.972656 Z M 99.507812 -53.566406 C 99.507812 -53.238281 99.242188 -52.972656 98.914062 -52.972656 C 98.585938 -52.972656 98.320312 -53.238281 98.320312 -53.566406 L 98.320312 -67.859375 C 98.320312 -68.1875 98.585938 -68.453125 98.914062 -68.453125 C 99.242188 -68.453125 99.507812 -68.1875 99.507812 -67.859375 Z M 98.914062 -67.261719 C 98.585938 -67.261719 98.320312 -67.53125 98.320312 -67.859375 C 98.320312 -68.1875 98.585938 -68.453125 98.914062 -68.453125 L 112.96875 -68.453125 C 113.300781 -68.453125 113.566406 -68.1875 113.566406 -67.859375 C 113.566406 -67.53125 113.300781 -67.261719 112.96875 -67.261719 Z M 112.375 -67.859375 C 112.375 -68.1875 112.640625 -68.453125 112.96875 -68.453125 C 113.300781 -68.453125 113.566406 -68.1875 113.566406 -67.859375 L 113.566406 -52.914062 C 113.566406 -52.585938 113.300781 -52.320312 112.96875 -52.320312 C 112.640625 -52.320312 112.375 -52.585938 112.375 -52.914062 Z M 171.773438 -70.113281 C 171.445312 -70.113281 171.179688 -70.378906 171.179688 -70.707031 C 171.179688 -71.035156 171.445312 -71.300781 171.773438 -71.300781 L 198.960938 -71.300781 C 199.289062 -71.300781 199.554688 -71.035156 199.554688 -70.707031 C 199.554688 -70.378906 199.289062 -70.113281 198.960938 -70.113281 Z M 193.894531 -50.886719 C 193.566406 -50.886719 193.300781 -51.152344 193.300781 -51.480469 C 193.300781 -51.808594 193.566406 -52.074219 193.894531 -52.074219 L 198.960938 -52.074219 C 199.289062 -52.074219 199.554688 -51.808594 199.554688 -51.480469 C 199.554688 -51.152344 199.289062 -50.886719 198.960938 -50.886719 Z M 113.753906 -52.972656 C 113.425781 -52.972656 113.160156 -53.238281 113.160156 -53.566406 C 113.160156 -53.894531 113.425781 -54.160156 113.753906 -54.160156 L 139.375 -54.160156 C 139.707031 -54.160156 139.972656 -53.894531 139.972656 -53.566406 C 139.972656 -53.238281 139.707031 -52.972656 139.375 -52.972656 Z M 139.972656 -53.566406 C 139.972656 -53.238281 139.707031 -52.972656 139.375 -52.972656 C 139.046875 -52.972656 138.78125 -53.238281 138.78125 -53.566406 L 138.78125 -67.859375 C 138.78125 -68.1875 139.046875 -68.453125 139.375 -68.453125 C 139.707031 -68.453125 139.972656 -68.1875 139.972656 -67.859375 Z M 139.375 -67.261719 C 139.046875 -67.261719 138.78125 -67.53125 138.78125 -67.859375 C 138.78125 -68.1875 139.046875 -68.453125 139.375 -68.453125 L 153.433594 -68.453125 C 153.761719 -68.453125 154.027344 -68.1875 154.027344 -67.859375 C 154.027344 -67.53125 153.761719 -67.261719 153.433594 -67.261719 Z M 152.839844 -67.859375 C 152.839844 -68.1875 153.105469 -68.453125 153.433594 -68.453125 C 153.761719 -68.453125 154.027344 -68.1875 154.027344 -67.859375 L 154.027344 -52.914062 C 154.027344 -52.585938 153.761719 -52.320312 153.433594 -52.320312 C 153.105469 -52.320312 152.839844 -52.585938 152.839844 -52.914062 Z M 153.824219 -51.929688 C 153.496094 -51.929688 153.230469 -52.195312 153.230469 -52.523438 C 153.230469 -52.851562 153.496094 -53.117188 153.824219 -53.117188 L 179.449219 -53.117188 C 179.777344 -53.117188 180.042969 -52.851562 180.042969 -52.523438 C 180.042969 -52.195312 179.777344 -51.929688 179.449219 -51.929688 Z M 180.042969 -52.523438 C 180.042969 -52.195312 179.777344 -51.929688 179.449219 -51.929688 C 179.121094 -51.929688 178.855469 -52.195312 178.855469 -52.523438 L 178.855469 -66.816406 C 178.855469 -67.144531 179.121094 -67.410156 179.449219 -67.410156 C 179.777344 -67.410156 180.042969 -67.144531 180.042969 -66.816406 Z M 179.449219 -66.21875 C 179.121094 -66.21875 178.855469 -66.488281 178.855469 -66.816406 C 178.855469 -67.144531 179.121094 -67.410156 179.449219 -67.410156 L 193.503906 -67.410156 C 193.832031 -67.410156 194.097656 -67.144531 194.097656 -66.816406 C 194.097656 -66.488281 193.832031 -66.21875 193.503906 -66.21875 Z M 192.910156 -66.816406 C 192.910156 -67.144531 193.175781 -67.410156 193.503906 -67.410156 C 193.832031 -67.410156 194.097656 -67.144531 194.097656 -66.816406 L 194.097656 -51.871094 C 194.097656 -51.542969 193.832031 -51.277344 193.503906 -51.277344 C 193.175781 -51.277344 192.910156 -51.542969 192.910156 -51.871094 Z M 131.703125 -71.15625 C 131.375 -71.15625 131.109375 -71.421875 131.109375 -71.75 C 131.109375 -72.078125 131.375 -72.347656 131.703125 -72.347656 L 157.328125 -72.347656 C 157.65625 -72.347656 157.921875 -72.078125 157.921875 -71.75 C 157.921875 -71.421875 157.65625 -71.15625 157.328125 -71.15625 Z M 157.921875 -71.75 C 157.921875 -71.421875 157.65625 -71.15625 157.328125 -71.15625 C 157 -71.15625 156.730469 -71.421875 156.730469 -71.75 L 156.730469 -86.042969 C 156.730469 -86.371094 157 -86.636719 157.328125 -86.636719 C 157.65625 -86.636719 157.921875 -86.371094 157.921875 -86.042969 Z M 157.328125 -85.449219 C 157 -85.449219 156.730469 -85.714844 156.730469 -86.042969 C 156.730469 -86.371094 157 -86.636719 157.328125 -86.636719 L 171.382812 -86.636719 C 171.710938 -86.636719 171.976562 -86.371094 171.976562 -86.042969 C 171.976562 -85.714844 171.710938 -85.449219 171.382812 -85.449219 Z M 170.789062 -86.042969 C 170.789062 -86.371094 171.054688 -86.636719 171.382812 -86.636719 C 171.710938 -86.636719 171.976562 -86.371094 171.976562 -86.042969 L 171.976562 -71.097656 C 171.976562 -70.769531 171.710938 -70.503906 171.382812 -70.503906 C 171.054688 -70.503906 170.789062 -70.769531 170.789062 -71.097656 Z M 91.238281 -71.15625 C 90.910156 -71.15625 90.644531 -71.421875 90.644531 -71.75 C 90.644531 -72.078125 90.910156 -72.347656 91.238281 -72.347656 L 116.863281 -72.347656 C 117.191406 -72.347656 117.457031 -72.078125 117.457031 -71.75 C 117.457031 -71.421875 117.191406 -71.15625 116.863281 -71.15625 Z M 117.457031 -71.75 C 117.457031 -71.421875 117.191406 -71.15625 116.863281 -71.15625 C 116.535156 -71.15625 116.269531 -71.421875 116.269531 -71.75 L 116.269531 -86.042969 C 116.269531 -86.371094 116.535156 -86.636719 116.863281 -86.636719 C 117.191406 -86.636719 117.457031 -86.371094 117.457031 -86.042969 Z M 116.863281 -85.449219 C 116.535156 -85.449219 116.269531 -85.714844 116.269531 -86.042969 C 116.269531 -86.371094 116.535156 -86.636719 116.863281 -86.636719 L 130.921875 -86.636719 C 131.25 -86.636719 131.515625 -86.371094 131.515625 -86.042969 C 131.515625 -85.714844 131.25 -85.449219 130.921875 -85.449219 Z M 130.324219 -86.042969 C 130.324219 -86.371094 130.59375 -86.636719 130.921875 -86.636719 C 131.25 -86.636719 131.515625 -86.371094 131.515625 -86.042969 L 131.515625 -71.097656 C 131.515625 -70.769531 131.25 -70.503906 130.921875 -70.503906 C 130.59375 -70.503906 130.324219 -70.769531 130.324219 -71.097656 Z M 133.128906 103.046875 C 132.800781 103.046875 132.53125 102.777344 132.53125 102.449219 C 132.53125 102.121094 132.800781 101.855469 133.128906 101.855469 L 162.566406 101.855469 C 162.898438 101.855469 163.164062 102.121094 163.164062 102.449219 C 163.164062 102.777344 162.898438 103.046875 162.566406 103.046875 Z M 169.777344 103.046875 C 169.449219 103.046875 169.179688 102.777344 169.179688 102.449219 C 169.179688 102.121094 169.449219 101.855469 169.777344 101.855469 L 201.125 101.855469 C 201.453125 101.855469 201.722656 102.121094 201.722656 102.449219 C 201.722656 102.777344 201.453125 103.046875 201.125 103.046875 Z M 163.164062 116.003906 C 163.164062 116.332031 162.898438 116.597656 162.566406 116.597656 C 162.238281 116.597656 161.972656 116.332031 161.972656 116.003906 L 161.972656 88.890625 C 161.972656 88.5625 162.238281 88.296875 162.566406 88.296875 C 162.898438 88.296875 163.164062 88.5625 163.164062 88.890625 Z M 170.371094 116.007812 C 170.371094 116.335938 170.105469 116.601562 169.777344 116.601562 C 169.449219 116.601562 169.179688 116.335938 169.179688 116.007812 L 169.179688 88.894531 C 169.179688 88.566406 169.449219 88.300781 169.777344 88.300781 C 170.105469 88.300781 170.371094 88.566406 170.371094 88.894531 Z M 190.078125 64.910156 C 190.078125 65.238281 189.8125 65.507812 189.484375 65.507812 C 189.15625 65.507812 188.890625 65.238281 188.890625 64.910156 L 188.890625 50.589844 C 188.890625 50.261719 189.15625 49.996094 189.484375 49.996094 C 189.8125 49.996094 190.078125 50.261719 190.078125 50.589844 Z M 189.484375 49.996094 C 189.8125 49.996094 190.078125 50.261719 190.078125 50.589844 C 190.078125 50.921875 189.8125 51.1875 189.484375 51.1875 L 164.699219 51.1875 C 164.371094 51.1875 164.105469 50.921875 164.105469 50.589844 C 164.105469 50.261719 164.371094 49.996094 164.699219 49.996094 Z M 164.105469 50.589844 C 164.105469 50.261719 164.371094 49.996094 164.699219 49.996094 C 165.027344 49.996094 165.292969 50.261719 165.292969 50.589844 L 165.292969 64.910156 C 165.292969 65.238281 165.027344 65.507812 164.699219 65.507812 C 164.371094 65.507812 164.105469 65.238281 164.105469 64.910156 Z M 164.699219 64.316406 C 165.027344 64.316406 165.292969 64.582031 165.292969 64.910156 C 165.292969 65.238281 165.027344 65.507812 164.699219 65.507812 L 143.390625 65.507812 C 143.058594 65.507812 142.792969 65.238281 142.792969 64.910156 C 142.792969 64.582031 143.058594 64.316406 143.390625 64.316406 Z M 188.5 46.355469 C 188.828125 46.355469 189.097656 46.621094 189.097656 46.949219 C 189.097656 47.277344 188.828125 47.542969 188.5 47.542969 L 165.679688 47.542969 C 165.351562 47.542969 165.085938 47.277344 165.085938 46.949219 C 165.085938 46.621094 165.351562 46.355469 165.679688 46.355469 Z M 176.496094 27.359375 C 176.496094 27.03125 176.761719 26.765625 177.089844 26.765625 C 177.417969 26.765625 177.6875 27.03125 177.6875 27.359375 L 177.6875 46.949219 C 177.6875 47.277344 177.417969 47.542969 177.089844 47.542969 C 176.761719 47.542969 176.496094 47.277344 176.496094 46.949219 Z M 210.792969 64.316406 C 211.121094 64.316406 211.386719 64.582031 211.386719 64.910156 C 211.386719 65.238281 211.121094 65.507812 210.792969 65.507812 L 189.484375 65.507812 C 189.15625 65.507812 188.890625 65.238281 188.890625 64.910156 C 188.890625 64.582031 189.15625 64.316406 189.484375 64.316406 Z M 193.179688 58.789062 C 193.507812 58.789062 193.773438 59.054688 193.773438 59.382812 C 193.773438 59.710938 193.507812 59.976562 193.179688 59.976562 L 185.789062 59.976562 C 185.460938 59.976562 185.195312 59.710938 185.195312 59.382812 C 185.195312 59.054688 185.460938 58.789062 185.789062 58.789062 Z M 192.703125 59.027344 C 192.898438 58.761719 193.273438 58.710938 193.535156 58.90625 C 193.796875 59.105469 193.851562 59.476562 193.65625 59.738281 L 189.960938 64.671875 C 189.761719 64.9375 189.390625 64.988281 189.128906 64.792969 C 188.863281 64.597656 188.8125 64.222656 189.007812 63.960938 Z M 192.703125 59.027344 "/>
<path fill-rule="nonzero" fill="rgb(7.058716%, 1.176453%, 46.665955%)" fill-opacity="1" d="M 135.378906 101.855469 C 135.707031 101.855469 135.972656 102.121094 135.972656 102.449219 C 135.972656 102.777344 135.707031 103.046875 135.378906 103.046875 L 124.910156 103.046875 C 124.582031 103.046875 124.316406 102.777344 124.316406 102.449219 C 124.316406 102.121094 124.582031 101.855469 124.910156 101.855469 Z M 191.917969 60.488281 C 191.847656 60.808594 191.53125 61.011719 191.210938 60.941406 C 190.890625 60.871094 190.6875 60.554688 190.757812 60.234375 C 190.863281 59.75 191.039062 59.816406 191.089844 59.777344 C 191.148438 59.730469 191.199219 59.703125 191.230469 59.6875 C 191.25 59.675781 191.132812 59.761719 191.1875 59.71875 C 191.445312 59.507812 191.820312 59.546875 192.027344 59.800781 C 192.234375 60.058594 192.195312 60.433594 191.941406 60.640625 C 191.789062 60.761719 191.871094 60.675781 191.824219 60.714844 C 191.789062 60.738281 191.785156 60.742188 191.777344 60.746094 C 191.773438 60.753906 191.84375 60.671875 191.820312 60.699219 C 191.808594 60.71875 191.882812 60.597656 191.867188 60.628906 C 191.847656 60.664062 191.933594 60.429688 191.917969 60.488281 M 191.785156 59.625 C 192.089844 59.753906 192.234375 60.101562 192.105469 60.402344 C 191.980469 60.707031 191.632812 60.851562 191.328125 60.722656 C 191.324219 60.722656 191.328125 60.722656 191.3125 60.714844 C 191.328125 60.722656 191.339844 60.726562 191.339844 60.726562 C 191.339844 60.726562 191.363281 60.730469 191.351562 60.730469 C 191.289062 60.726562 191.230469 60.722656 191.183594 60.722656 C 190.921875 60.71875 190.628906 60.71875 190.28125 60.722656 C 189.96875 60.722656 189.621094 60.722656 189.269531 60.722656 C 189.039062 60.722656 188.808594 60.722656 188.605469 60.722656 C 188.457031 60.722656 188.332031 60.71875 188.21875 60.722656 C 188.070312 60.722656 187.964844 60.722656 187.894531 60.734375 C 187.875 60.734375 187.820312 60.75 187.738281 60.773438 C 187.683594 60.792969 187.636719 60.804688 187.621094 60.808594 C 187.617188 60.808594 187.660156 60.792969 187.640625 60.800781 C 187.628906 60.804688 187.722656 60.757812 187.695312 60.773438 C 187.667969 60.789062 187.851562 60.644531 187.804688 60.6875 C 187.777344 60.71875 187.964844 60.4375 187.917969 60.527344 C 187.777344 60.824219 187.421875 60.949219 187.125 60.804688 C 186.828125 60.664062 186.707031 60.308594 186.847656 60.011719 C 186.894531 59.917969 186.941406 59.871094 186.972656 59.839844 C 187.296875 59.515625 187.335938 59.652344 187.398438 59.636719 C 187.46875 59.613281 187.582031 59.574219 187.738281 59.554688 C 187.914062 59.53125 188.066406 59.53125 188.210938 59.53125 C 188.332031 59.53125 188.460938 59.53125 188.605469 59.53125 C 188.808594 59.53125 189.039062 59.53125 189.269531 59.53125 C 189.628906 59.53125 189.972656 59.535156 190.269531 59.53125 C 190.625 59.53125 190.925781 59.527344 191.199219 59.53125 C 191.285156 59.535156 191.359375 59.539062 191.410156 59.542969 C 191.523438 59.546875 191.613281 59.570312 191.683594 59.589844 C 191.714844 59.597656 191.742188 59.609375 191.765625 59.617188 C 191.796875 59.632812 191.777344 59.621094 191.785156 59.625 M 186.8125 60.4375 C 186.722656 60.125 186.90625 59.792969 187.222656 59.707031 C 187.539062 59.617188 187.867188 59.800781 187.957031 60.117188 C 187.972656 60.183594 187.867188 59.933594 187.890625 59.96875 C 187.910156 60 187.824219 59.882812 187.839844 59.898438 C 187.867188 59.921875 187.667969 59.761719 187.691406 59.777344 C 187.710938 59.785156 187.648438 59.757812 187.652344 59.757812 C 187.699219 59.777344 187.660156 59.757812 187.738281 59.777344 C 188.039062 59.851562 188.386719 59.957031 188.824219 60.003906 C 189.191406 60.046875 189.683594 60.027344 190.199219 60.046875 C 190.460938 60.054688 190.714844 60.070312 190.957031 60.117188 C 191.128906 60.148438 191.269531 60.195312 191.378906 60.246094 C 191.453125 60.277344 191.53125 60.316406 191.625 60.398438 C 191.660156 60.433594 191.699219 60.472656 191.734375 60.527344 C 191.824219 60.683594 191.863281 60.835938 191.835938 60.988281 C 191.777344 61.3125 191.46875 61.527344 191.144531 61.46875 C 190.820312 61.410156 190.605469 61.101562 190.664062 60.78125 C 190.675781 60.710938 190.679688 61.050781 190.664062 60.988281 C 190.652344 60.921875 190.75 61.195312 190.726562 61.152344 C 190.730469 61.164062 190.84375 61.296875 190.824219 61.277344 C 190.769531 61.230469 190.902344 61.335938 190.898438 61.332031 C 190.867188 61.316406 190.804688 61.296875 190.746094 61.285156 C 190.59375 61.257812 190.382812 61.242188 190.160156 61.234375 C 189.699219 61.21875 189.1875 61.242188 188.6875 61.1875 C 188.140625 61.125 187.710938 60.996094 187.453125 60.929688 C 187.410156 60.917969 187.335938 60.914062 187.203125 60.859375 C 187.15625 60.839844 187.09375 60.832031 186.96875 60.707031 C 186.90625 60.636719 186.847656 60.574219 186.8125 60.4375 M 190.945312 60.378906 C 191.226562 60.210938 191.59375 60.304688 191.757812 60.589844 C 191.925781 60.875 191.828125 61.238281 191.546875 61.402344 C 191.460938 61.453125 191.386719 61.46875 191.335938 61.480469 C 191.265625 61.496094 191.222656 61.492188 191.179688 61.492188 C 191.097656 61.492188 191.027344 61.484375 190.949219 61.472656 C 190.902344 61.464844 191.046875 61.472656 191.035156 61.476562 C 191.015625 61.476562 190.976562 61.496094 190.832031 61.515625 C 190.71875 61.53125 190.609375 61.542969 190.480469 61.554688 C 190.332031 61.566406 190.164062 61.574219 189.976562 61.582031 C 189.667969 61.59375 189.328125 61.59375 189.039062 61.601562 C 188.890625 61.605469 188.757812 61.609375 188.632812 61.617188 C 188.53125 61.621094 188.457031 61.621094 188.453125 61.625 C 188.414062 61.625 188.433594 61.625 188.414062 61.625 C 188.40625 61.625 188.457031 61.617188 188.441406 61.621094 C 188.421875 61.625 188.609375 61.558594 188.546875 61.585938 C 188.246094 61.71875 187.898438 61.582031 187.765625 61.28125 C 187.632812 60.980469 187.765625 60.628906 188.066406 60.5 C 188.1875 60.445312 188.21875 60.453125 188.242188 60.449219 C 188.296875 60.441406 188.320312 60.441406 188.34375 60.4375 C 188.441406 60.429688 188.507812 60.433594 188.582031 60.429688 C 188.695312 60.421875 188.84375 60.414062 189.011719 60.410156 C 189.320312 60.40625 189.652344 60.40625 189.925781 60.394531 C 190.109375 60.386719 190.261719 60.378906 190.382812 60.367188 C 190.492188 60.359375 190.578125 60.351562 190.671875 60.339844 C 190.683594 60.335938 190.804688 60.246094 191.132812 60.296875 C 191.164062 60.300781 191.1875 60.304688 191.191406 60.304688 C 191.195312 60.304688 191.035156 60.328125 191.105469 60.3125 C 191.164062 60.304688 190.878906 60.414062 190.953125 60.375 C 190.949219 60.375 190.941406 60.378906 190.945312 60.378906 M 187.707031 61.050781 C 187.707031 60.722656 187.972656 60.453125 188.304688 60.453125 C 188.632812 60.453125 188.898438 60.722656 188.898438 61.050781 C 188.898438 61.140625 188.824219 60.753906 188.847656 60.816406 C 188.886719 60.902344 188.707031 60.617188 188.738281 60.648438 C 188.765625 60.679688 188.660156 60.578125 188.675781 60.589844 C 188.761719 60.667969 188.605469 60.546875 188.621094 60.554688 C 188.632812 60.5625 188.601562 60.542969 188.601562 60.542969 C 188.628906 60.558594 188.589844 60.539062 188.617188 60.546875 C 188.675781 60.570312 188.777344 60.597656 188.890625 60.640625 C 189.136719 60.734375 189.382812 60.855469 189.617188 60.953125 C 189.917969 61.082031 190.203125 61.179688 190.414062 61.222656 C 190.480469 61.234375 190.5625 61.238281 190.679688 61.238281 C 190.773438 61.238281 190.859375 61.238281 190.9375 61.238281 C 191.070312 61.238281 191.179688 61.238281 191.222656 61.238281 C 191.226562 61.238281 191.230469 61.238281 191.238281 61.238281 C 191.566406 61.242188 191.828125 61.515625 191.820312 61.84375 C 191.816406 62.171875 191.542969 62.433594 191.214844 62.425781 C 191.210938 62.425781 191.226562 62.425781 191.222656 62.425781 C 191.160156 62.425781 191.066406 62.425781 190.953125 62.425781 C 190.863281 62.429688 190.765625 62.429688 190.671875 62.425781 C 190.554688 62.425781 190.386719 62.429688 190.1875 62.390625 C 189.839844 62.320312 189.496094 62.195312 189.15625 62.050781 C 188.886719 61.9375 188.644531 61.820312 188.46875 61.753906 C 188.398438 61.726562 188.316406 61.703125 188.230469 61.671875 C 188.1875 61.660156 188.144531 61.644531 188.074219 61.609375 C 188.054688 61.601562 188.015625 61.597656 187.914062 61.503906 C 187.898438 61.492188 187.707031 61.410156 187.707031 61.050781 M 191.175781 61.242188 C 191.503906 61.210938 191.789062 61.457031 191.820312 61.78125 C 191.847656 62.109375 191.605469 62.398438 191.277344 62.425781 C 191.257812 62.425781 191.25 62.425781 191.242188 62.429688 C 191.210938 62.429688 191.175781 62.429688 191.132812 62.429688 C 191.039062 62.433594 190.910156 62.433594 190.765625 62.425781 C 190.316406 62.410156 189.828125 62.328125 189.433594 62.273438 C 189.308594 62.257812 189.191406 62.242188 189.097656 62.234375 C 189.007812 62.222656 189.082031 62.210938 189.023438 62.21875 C 188.949219 62.230469 188.929688 62.230469 188.917969 62.230469 C 188.90625 62.234375 189.058594 62.195312 189.007812 62.210938 C 188.949219 62.230469 189.3125 61.984375 189.234375 62.066406 C 189.164062 62.140625 189.371094 61.789062 189.351562 61.859375 C 189.335938 61.921875 189.367188 61.660156 189.371094 61.703125 C 189.375 61.777344 189.300781 61.5 189.320312 61.539062 C 189.355469 61.597656 189.1875 61.390625 189.21875 61.414062 C 189.253906 61.445312 189.160156 61.375 189.164062 61.375 C 189.167969 61.378906 189.191406 61.390625 189.234375 61.414062 C 189.390625 61.511719 189.59375 61.625 189.78125 61.691406 C 189.914062 61.742188 190.027344 61.789062 190.117188 61.820312 C 190.238281 61.867188 190.359375 61.894531 190.503906 61.953125 C 190.511719 61.957031 190.480469 61.910156 190.695312 62.03125 C 190.980469 62.199219 191.074219 62.5625 190.910156 62.84375 C 190.746094 63.128906 190.382812 63.226562 190.097656 63.0625 C 190.042969 63.03125 190.191406 63.105469 190.183594 63.101562 C 190.171875 63.097656 190.128906 63.085938 190.042969 63.050781 C 190.03125 63.046875 189.882812 63 189.714844 62.941406 C 189.585938 62.894531 189.472656 62.847656 189.371094 62.808594 C 189.066406 62.695312 188.804688 62.546875 188.609375 62.425781 C 188.59375 62.417969 188.472656 62.4375 188.296875 62.144531 C 188.234375 62.035156 188.191406 61.917969 188.183594 61.777344 C 188.171875 61.628906 188.207031 61.421875 188.371094 61.246094 C 188.542969 61.0625 188.71875 61.058594 188.789062 61.050781 C 188.84375 61.042969 188.820312 61.046875 188.839844 61.046875 C 189.015625 61.019531 189.121094 61.039062 189.214844 61.050781 C 189.335938 61.0625 189.464844 61.078125 189.597656 61.097656 C 190.003906 61.152344 190.46875 61.226562 190.8125 61.238281 C 190.933594 61.242188 191.039062 61.242188 191.113281 61.242188 C 191.148438 61.242188 191.175781 61.242188 191.183594 61.242188 C 191.1875 61.242188 191.160156 61.242188 191.175781 61.242188 M 190.230469 61.976562 C 190.546875 61.886719 190.875 62.070312 190.964844 62.386719 C 191.054688 62.703125 190.871094 63.03125 190.554688 63.121094 C 190.511719 63.132812 190.476562 63.140625 190.445312 63.144531 C 190.386719 63.152344 190.328125 63.152344 190.261719 63.148438 C 190.261719 63.148438 190.175781 63.152344 190.070312 63.148438 C 189.972656 63.148438 189.859375 63.148438 189.730469 63.148438 C 189.6875 63.148438 189.644531 63.148438 189.601562 63.148438 C 189.492188 63.148438 189.480469 63.144531 189.449219 63.148438 C 189.375 63.152344 189.324219 63.152344 189.308594 63.152344 C 189.304688 63.152344 189.371094 63.148438 189.339844 63.152344 C 189.324219 63.152344 189.453125 63.125 189.417969 63.136719 C 189.378906 63.144531 189.628906 63.03125 189.566406 63.070312 C 189.289062 63.242188 188.921875 63.15625 188.75 62.878906 C 188.574219 62.597656 188.660156 62.234375 188.941406 62.058594 C 189.375 61.789062 189.304688 61.964844 189.324219 61.964844 C 189.464844 61.949219 189.535156 61.960938 189.601562 61.960938 C 189.644531 61.960938 189.6875 61.960938 189.734375 61.960938 C 189.84375 61.960938 189.964844 61.957031 190.097656 61.960938 C 190.148438 61.960938 190.214844 61.957031 190.320312 61.960938 C 190.328125 61.960938 190.261719 61.96875 190.292969 61.964844 C 190.3125 61.960938 190.195312 61.988281 190.230469 61.976562 M 188.886719 63.03125 C 188.628906 62.828125 188.589844 62.453125 188.792969 62.195312 C 189 61.941406 189.375 61.898438 189.628906 62.105469 C 189.648438 62.121094 189.652344 62.125 189.660156 62.128906 C 189.660156 62.132812 189.667969 62.136719 189.683594 62.148438 C 189.710938 62.171875 189.742188 62.191406 189.75 62.199219 C 189.863281 62.269531 189.855469 62.28125 189.914062 62.308594 C 189.949219 62.324219 189.972656 62.335938 189.980469 62.339844 C 189.980469 62.339844 189.949219 62.324219 189.960938 62.332031 C 189.980469 62.339844 189.777344 62.289062 189.847656 62.300781 C 190.171875 62.351562 190.390625 62.65625 190.335938 62.980469 C 190.285156 63.304688 189.980469 63.527344 189.65625 63.472656 C 189.394531 63.429688 189.433594 63.394531 189.429688 63.394531 C 189.257812 63.316406 189.191406 63.25 189.125 63.210938 C 189.046875 63.160156 188.988281 63.117188 188.945312 63.082031 C 188.925781 63.066406 188.90625 63.050781 188.882812 63.03125 C 188.875 63.027344 188.898438 63.042969 188.886719 63.03125 M 190.230469 62.539062 C 190.417969 62.808594 190.351562 63.179688 190.082031 63.367188 C 189.8125 63.554688 189.445312 63.488281 189.257812 63.21875 C 189.253906 63.210938 189.25 63.207031 189.242188 63.199219 C 189.25 63.210938 189.238281 63.191406 189.226562 63.175781 C 189.234375 63.1875 189.230469 63.183594 189.226562 63.179688 C 189.175781 63.125 189.132812 63.074219 189.089844 63 C 189.070312 62.972656 189.042969 62.914062 189.035156 62.890625 C 188.988281 62.738281 188.925781 62.589844 189.078125 62.34375 C 189.246094 62.0625 189.613281 61.972656 189.890625 62.140625 C 190.171875 62.3125 190.265625 62.675781 190.09375 62.957031 C 190.054688 63.023438 190.175781 62.730469 190.164062 62.785156 C 190.148438 62.855469 190.171875 62.570312 190.175781 62.613281 C 190.179688 62.652344 190.152344 62.488281 190.160156 62.515625 C 190.140625 62.457031 190.0625 62.320312 190.089844 62.359375 C 190.128906 62.425781 190.082031 62.355469 190.085938 62.355469 C 190.136719 62.410156 190.179688 62.464844 190.199219 62.492188 C 190.222656 62.527344 190.183594 62.476562 190.203125 62.5 C 190.246094 62.558594 190.230469 62.535156 190.230469 62.539062 M 142.792969 64.910156 C 142.792969 64.582031 143.058594 64.316406 143.390625 64.316406 C 143.71875 64.316406 143.984375 64.582031 143.984375 64.910156 L 143.984375 102.449219 C 143.984375 102.777344 143.71875 103.046875 143.390625 103.046875 C 143.058594 103.046875 142.792969 102.777344 142.792969 102.449219 Z M 60.328125 101.855469 C 60.65625 101.855469 60.921875 102.121094 60.921875 102.449219 C 60.921875 102.777344 60.65625 103.046875 60.328125 103.046875 L 41.226562 103.046875 C 40.898438 103.046875 40.632812 102.777344 40.632812 102.449219 C 40.632812 102.121094 40.898438 101.855469 41.226562 101.855469 Z M 210.199219 64.910156 C 210.199219 64.582031 210.464844 64.316406 210.792969 64.316406 C 211.121094 64.316406 211.386719 64.582031 211.386719 64.910156 L 211.386719 102.933594 C 211.386719 103.261719 211.121094 103.527344 210.792969 103.527344 C 210.464844 103.527344 210.199219 103.261719 210.199219 102.933594 Z M 210.792969 102.339844 C 211.121094 102.339844 211.386719 102.605469 211.386719 102.933594 C 211.386719 103.261719 211.121094 103.527344 210.792969 103.527344 L 200.226562 103.527344 C 199.898438 103.527344 199.632812 103.261719 199.632812 102.933594 C 199.632812 102.605469 199.898438 102.339844 200.226562 102.339844 Z M 210.792969 83.601562 C 210.464844 83.601562 210.199219 83.335938 210.199219 83.007812 C 210.199219 82.679688 210.464844 82.410156 210.792969 82.410156 L 241.835938 82.410156 C 242.164062 82.410156 242.429688 82.679688 242.429688 83.007812 C 242.429688 83.335938 242.164062 83.601562 241.835938 83.601562 Z M 210.792969 83.601562 "/>
<path fill-rule="nonzero" fill="rgb(7.058716%, 1.176453%, 46.665955%)" fill-opacity="1" d="M 185.3125 59.738281 C 185.117188 59.476562 185.171875 59.105469 185.433594 58.90625 C 185.695312 58.710938 186.070312 58.761719 186.265625 59.027344 L 189.960938 63.960938 C 190.15625 64.222656 190.101562 64.597656 189.839844 64.792969 C 189.578125 64.988281 189.203125 64.9375 189.007812 64.671875 Z M 177.089844 19.78125 C 178.59375 19.78125 179.90625 20.59375 180.609375 21.800781 C 180.964844 22.40625 181.164062 23.105469 181.164062 23.855469 C 181.164062 25.355469 180.351562 26.667969 179.144531 27.375 C 178.539062 27.726562 177.839844 27.929688 177.089844 27.929688 C 175.589844 27.929688 174.277344 27.117188 173.570312 25.90625 C 173.21875 25.304688 173.015625 24.601562 173.015625 23.855469 C 173.015625 22.351562 173.828125 21.042969 175.039062 20.335938 C 175.640625 19.984375 176.34375 19.78125 177.089844 19.78125 M 177.089844 20.96875 C 176.5625 20.96875 176.066406 21.113281 175.636719 21.363281 C 174.78125 21.863281 174.207031 22.792969 174.207031 23.855469 C 174.207031 24.382812 174.347656 24.882812 174.597656 25.308594 C 175.097656 26.164062 176.027344 26.738281 177.089844 26.738281 C 177.621094 26.738281 178.117188 26.597656 178.542969 26.347656 C 179.402344 25.847656 179.976562 24.917969 179.976562 23.855469 C 179.976562 23.324219 179.832031 22.828125 179.585938 22.402344 C 179.082031 21.546875 178.15625 20.96875 177.089844 20.96875 M 41.824219 102.394531 C 41.824219 103.894531 41.011719 105.207031 39.800781 105.914062 C 39.199219 106.265625 38.496094 106.46875 37.75 106.46875 C 36.246094 106.46875 34.9375 105.65625 34.230469 104.445312 C 33.878906 103.84375 33.675781 103.140625 33.675781 102.394531 C 33.675781 100.890625 34.488281 99.582031 35.695312 98.875 C 36.300781 98.523438 37 98.320312 37.75 98.320312 C 39.25 98.320312 40.5625 99.132812 41.269531 100.339844 C 41.621094 100.945312 41.824219 101.644531 41.824219 102.394531 M 40.632812 102.394531 C 40.632812 101.863281 40.492188 101.367188 40.242188 100.941406 C 39.742188 100.085938 38.8125 99.507812 37.75 99.507812 C 37.21875 99.507812 36.722656 99.652344 36.296875 99.902344 C 35.441406 100.402344 34.863281 101.332031 34.863281 102.394531 C 34.863281 102.921875 35.007812 103.421875 35.257812 103.847656 C 35.757812 104.703125 36.6875 105.277344 37.75 105.277344 C 38.277344 105.277344 38.773438 105.136719 39.203125 104.886719 C 40.058594 104.386719 40.632812 103.457031 40.632812 102.394531 M 244.753906 86.289062 C 244.753906 85.957031 245.019531 85.691406 245.351562 85.691406 C 245.679688 85.691406 245.945312 85.957031 245.945312 86.289062 L 245.945312 103.335938 C 245.945312 103.667969 245.679688 103.933594 245.351562 103.933594 C 245.019531 103.933594 244.753906 103.667969 244.753906 103.335938 Z M 261.265625 118.414062 C 261.265625 124.1875 258.140625 129.234375 253.488281 131.953125 C 251.171875 133.308594 248.472656 134.082031 245.59375 134.082031 C 239.816406 134.082031 234.773438 130.957031 232.054688 126.304688 C 230.699219 123.988281 229.921875 121.289062 229.921875 118.414062 C 229.921875 112.636719 233.046875 107.589844 237.699219 104.871094 C 240.019531 103.519531 242.714844 102.742188 245.59375 102.742188 C 251.371094 102.742188 256.417969 105.867188 259.136719 110.519531 C 260.488281 112.835938 261.265625 115.535156 261.265625 118.414062 M 260.078125 118.414062 C 260.078125 115.753906 259.359375 113.261719 258.109375 111.117188 C 255.597656 106.820312 250.933594 103.929688 245.59375 103.929688 C 242.933594 103.929688 240.441406 104.648438 238.300781 105.898438 C 234 108.410156 231.113281 113.074219 231.113281 118.414062 C 231.113281 121.070312 231.828125 123.566406 233.082031 125.707031 C 235.59375 130.003906 240.257812 132.894531 245.59375 132.894531 C 248.253906 132.894531 250.746094 132.175781 252.890625 130.925781 C 257.1875 128.414062 260.078125 123.75 260.078125 118.414062 M 244.65625 133.484375 C 244.65625 133.15625 244.921875 132.890625 245.25 132.890625 C 245.582031 132.890625 245.847656 133.15625 245.847656 133.484375 L 245.847656 154.878906 C 245.847656 155.210938 245.582031 155.476562 245.25 155.476562 C 244.921875 155.476562 244.65625 155.210938 244.65625 154.878906 Z M 249.382812 82.808594 C 249.382812 84.308594 248.570312 85.621094 247.359375 86.328125 C 246.757812 86.679688 246.054688 86.882812 245.308594 86.882812 C 243.804688 86.882812 242.496094 86.070312 241.789062 84.859375 C 241.4375 84.257812 241.234375 83.554688 241.234375 82.808594 C 241.234375 81.304688 242.046875 79.996094 243.253906 79.289062 C 243.859375 78.9375 244.558594 78.734375 245.308594 78.734375 C 246.808594 78.734375 248.121094 79.546875 248.828125 80.753906 C 249.179688 81.359375 249.382812 82.058594 249.382812 82.808594 M 248.191406 82.808594 C 248.191406 82.277344 248.050781 81.78125 247.800781 81.355469 C 247.300781 80.5 246.371094 79.921875 245.308594 79.921875 C 244.777344 79.921875 244.28125 80.066406 243.855469 80.316406 C 243 80.816406 242.421875 81.746094 242.421875 82.808594 C 242.421875 83.335938 242.566406 83.835938 242.816406 84.261719 C 243.316406 85.117188 244.246094 85.691406 245.308594 85.691406 C 245.835938 85.691406 246.335938 85.550781 246.761719 85.300781 C 247.617188 84.800781 248.191406 83.871094 248.191406 82.808594 M 244.65625 107.667969 C 244.65625 107.339844 244.921875 107.074219 245.25 107.074219 C 245.582031 107.074219 245.847656 107.339844 245.847656 107.667969 L 245.847656 117.519531 C 245.847656 117.847656 245.582031 118.113281 245.25 118.113281 C 244.921875 118.113281 244.65625 117.847656 244.65625 117.519531 Z M 240.285156 113.191406 C 239.957031 113.191406 239.691406 112.921875 239.691406 112.59375 C 239.691406 112.265625 239.957031 112 240.285156 112 L 250.21875 112 C 250.546875 112 250.8125 112.265625 250.8125 112.59375 C 250.8125 112.921875 250.546875 113.191406 250.21875 113.191406 Z M 240.628906 129.046875 C 240.300781 129.046875 240.03125 128.78125 240.03125 128.453125 C 240.03125 128.125 240.300781 127.859375 240.628906 127.859375 L 250.5625 127.859375 C 250.890625 127.859375 251.15625 128.125 251.15625 128.453125 C 251.15625 128.78125 250.890625 129.046875 250.5625 129.046875 Z M 244.65625 155.539062 C 244.65625 155.210938 244.921875 154.945312 245.25 154.945312 C 245.582031 154.945312 245.847656 155.210938 245.847656 155.539062 L 245.847656 166.453125 C 245.847656 166.78125 245.582031 167.046875 245.25 167.046875 C 244.921875 167.046875 244.65625 166.78125 244.65625 166.453125 Z M 236.765625 167.78125 C 236.4375 167.78125 236.171875 167.511719 236.171875 167.183594 C 236.171875 166.855469 236.4375 166.589844 236.765625 166.589844 L 253.738281 166.589844 C 254.066406 166.589844 254.332031 166.855469 254.332031 167.183594 C 254.332031 167.511719 254.066406 167.78125 253.738281 167.78125 Z M 239.699219 171.671875 C 239.371094 171.671875 239.105469 171.40625 239.105469 171.078125 C 239.105469 170.75 239.371094 170.480469 239.699219 170.480469 L 251.09375 170.480469 C 251.421875 170.480469 251.6875 170.75 251.6875 171.078125 C 251.6875 171.40625 251.421875 171.671875 251.09375 171.671875 Z M 242.960938 175.320312 C 242.632812 175.320312 242.367188 175.054688 242.367188 174.726562 C 242.367188 174.398438 242.632812 174.132812 242.960938 174.132812 L 247.832031 174.132812 C 248.160156 174.132812 248.425781 174.398438 248.425781 174.726562 C 248.425781 175.054688 248.160156 175.320312 247.832031 175.320312 Z M 242.960938 175.320312 "/>
<g clip-path="url(#clip-1)">
<path fill-rule="nonzero" fill="rgb(92.941284%, 21.176147%, 14.117432%)" fill-opacity="1" d="M 92.292969 45.976562 C 92.191406 46.289062 91.855469 46.460938 91.542969 46.359375 C 91.230469 46.261719 91.058594 45.925781 91.160156 45.613281 C 91.175781 45.558594 91.148438 45.734375 91.148438 45.71875 L 91.003906 45.5 L 90.925781 45.414062 L 90.6875 45.238281 L 90.71875 45.234375 C 90.6875 45.242188 90.902344 45.09375 90.855469 45.148438 C 90.816406 45.199219 90.929688 45.003906 90.921875 45.03125 L 90.988281 45.320312 L 91.324219 46.136719 C 91.640625 46.785156 92.113281 47.570312 92.660156 48.265625 C 93.179688 48.925781 93.761719 49.429688 94.234375 49.648438 C 94.972656 49.992188 95.359375 49.625 95.421875 48.964844 C 95.496094 48.164062 94.523438 46.417969 93.191406 44.949219 C 92.703125 44.410156 92.234375 43.925781 91.75 43.574219 C 91.214844 43.1875 90.566406 42.980469 90.015625 42.851562 L 89.511719 42.753906 L 89.597656 42.734375 C 89.550781 42.753906 89.765625 42.597656 89.726562 42.640625 L 89.792969 42.53125 L 89.804688 42.484375 L 90.070312 43.042969 C 90.4375 43.566406 91.019531 44.132812 91.808594 44.632812 L 93.253906 45.367188 L 96.359375 46.65625 C 97.179688 46.972656 97.785156 47.144531 97.972656 47.144531 L 97.945312 47.160156 C 97.988281 47.140625 97.769531 47.335938 97.808594 47.277344 L 97.757812 47.394531 L 97.75 47.421875 L 97.710938 47.273438 C 97.597656 46.964844 97.761719 46.625 98.070312 46.515625 C 98.378906 46.40625 98.71875 46.566406 98.828125 46.875 C 98.933594 47.164062 99.019531 47.472656 98.859375 47.824219 C 98.738281 48.097656 98.445312 48.269531 98.207031 48.3125 C 97.542969 48.433594 96.890625 48.136719 95.929688 47.765625 L 92.769531 46.453125 L 91.175781 45.636719 C 90.261719 45.058594 89.566406 44.394531 89.097656 43.726562 C 88.84375 43.367188 88.660156 43 88.621094 42.59375 C 88.601562 42.386719 88.621094 42.128906 88.796875 41.898438 C 88.976562 41.664062 89.289062 41.558594 89.539062 41.566406 L 90.28125 41.695312 C 90.914062 41.839844 91.71875 42.082031 92.445312 42.613281 C 93.046875 43.046875 93.566406 43.59375 94.074219 44.152344 C 95.511719 45.734375 96.75 47.511719 96.605469 49.078125 C 96.542969 49.71875 96.238281 50.320312 95.707031 50.667969 C 95.167969 51.019531 94.421875 51.046875 93.730469 50.726562 C 93.007812 50.390625 92.332031 49.769531 91.726562 49 C 91.113281 48.226562 90.609375 47.382812 90.257812 46.65625 L 89.8125 45.53125 C 89.722656 45.183594 89.609375 44.78125 89.949219 44.382812 C 90.238281 44.039062 90.675781 44 91.011719 44.09375 C 91.351562 44.191406 91.519531 44.375 91.632812 44.460938 L 91.902344 44.722656 C 92.15625 45.015625 92.476562 45.394531 92.292969 45.976562 M 94.417969 41.511719 C 94.226562 41.242188 94.289062 40.871094 94.558594 40.679688 C 94.824219 40.492188 95.195312 40.554688 95.386719 40.824219 C 95.730469 41.308594 97.785156 42.632812 98.53125 42.523438 C 98.859375 42.476562 99.160156 42.699219 99.207031 43.023438 C 99.257812 43.347656 99.03125 43.652344 98.707031 43.699219 C 97.835938 43.828125 96.96875 43.40625 96.179688 42.941406 C 95.402344 42.480469 94.761719 41.996094 94.417969 41.511719 M 176.179688 10.25 C 176.425781 10.464844 176.449219 10.84375 176.230469 11.089844 C 176.011719 11.335938 175.636719 11.359375 175.390625 11.140625 L 175.429688 11.167969 L 175.527344 11.207031 C 175.441406 11.183594 175.933594 11.128906 175.835938 11.171875 C 175.753906 11.210938 176.027344 11 176 11.039062 C 175.957031 11.097656 176.035156 10.96875 176.03125 10.992188 C 176.011719 11.105469 176.035156 11.460938 176.1875 11.902344 C 176.332031 12.316406 176.59375 12.832031 176.976562 13.394531 C 177.492188 14.152344 178.226562 14.972656 178.984375 15.636719 C 179.457031 16.058594 179.96875 16.371094 180.40625 16.609375 L 181.007812 16.859375 C 181.082031 16.871094 180.972656 16.902344 181.03125 16.878906 C 181.078125 16.859375 180.863281 17.046875 180.890625 17 L 180.871094 17.046875 L 180.753906 16.539062 C 180.582031 16.0625 180.222656 15.441406 179.820312 14.808594 C 179.125 13.714844 178.308594 12.691406 177.402344 11.851562 C 176.902344 11.386719 176.382812 10.976562 175.921875 10.699219 L 175.359375 10.40625 L 175.179688 10.359375 L 175.261719 10.335938 C 175.152344 10.378906 175.546875 10.054688 175.503906 10.128906 C 175.46875 10.1875 175.554688 9.972656 175.550781 9.996094 L 175.59375 10.160156 L 175.785156 10.617188 C 176.082031 11.179688 176.589844 11.832031 177.421875 12.5625 L 178.796875 13.65625 L 181.214844 15.207031 L 182.859375 16.207031 C 183.484375 16.566406 183.921875 16.75 184.230469 16.832031 L 184.886719 16.925781 L 184.699219 17.191406 C 184.648438 16.867188 184.867188 16.5625 185.191406 16.507812 C 185.515625 16.457031 185.820312 16.675781 185.875 17 C 185.910156 17.230469 185.878906 17.515625 185.710938 17.738281 C 185.460938 18.070312 185.09375 18.121094 184.808594 18.117188 L 183.929688 17.980469 C 183.480469 17.863281 182.949219 17.632812 182.265625 17.238281 L 180.59375 16.222656 L 178.105469 14.621094 L 176.632812 13.457031 C 175.71875 12.648438 175.105469 11.886719 174.730469 11.164062 L 174.40625 10.3125 L 174.371094 9.851562 C 174.390625 9.664062 174.511719 9.351562 174.820312 9.230469 C 175.203125 9.078125 175.480469 9.191406 175.742188 9.277344 L 176.539062 9.679688 C 177.09375 10.015625 177.664062 10.46875 178.214844 10.980469 C 179.207031 11.902344 180.082031 13.003906 180.824219 14.171875 C 181.242188 14.832031 181.640625 15.496094 181.871094 16.132812 C 182.085938 16.71875 182.269531 17.390625 181.707031 17.84375 C 181.148438 18.296875 180.507812 18.015625 179.84375 17.65625 C 179.351562 17.390625 178.765625 17.03125 178.195312 16.53125 C 177.363281 15.796875 176.574219 14.921875 175.992188 14.0625 C 175.5625 13.429688 175.25 12.835938 175.0625 12.292969 C 174.863281 11.71875 174.785156 11.226562 174.859375 10.800781 C 174.894531 10.585938 174.957031 10.324219 175.253906 10.140625 C 175.570312 9.941406 175.988281 10.082031 176.179688 10.25 M 180.929688 11.375 C 181.136719 11.117188 181.511719 11.078125 181.765625 11.285156 C 182.023438 11.488281 182.0625 11.863281 181.859375 12.121094 C 181.667969 12.351562 181.355469 12.578125 180.976562 12.519531 C 180.429688 12.429688 180.273438 11.980469 180.195312 11.648438 C 180.121094 11.320312 180.121094 10.960938 180.253906 10.605469 C 180.421875 10.152344 180.886719 9.867188 181.351562 9.832031 C 181.558594 9.816406 181.867188 9.808594 182.203125 9.921875 C 183.195312 10.25 183.925781 11.183594 184.425781 11.457031 L 184.582031 11.523438 L 184.535156 11.535156 L 184.421875 11.597656 L 184.40625 11.605469 L 184.558594 10.707031 C 184.644531 9.5625 184.507812 8.058594 184.40625 7.742188 C 184.308594 7.429688 184.484375 7.09375 184.796875 6.996094 C 185.109375 6.898438 185.445312 7.074219 185.542969 7.386719 C 185.761719 8.09375 185.84375 9.5 185.742188 10.800781 L 185.59375 11.800781 C 185.507812 12.109375 185.378906 12.503906 184.914062 12.660156 C 184.515625 12.796875 184.152344 12.664062 183.855469 12.5 C 183.027344 12.046875 182.289062 11.203125 181.828125 11.046875 L 181.4375 11.019531 L 181.367188 11.019531 L 181.378906 11.457031 L 181.359375 11.433594 C 181.378906 11.457031 181.175781 11.339844 181.234375 11.359375 C 181.328125 11.394531 180.894531 11.398438 180.957031 11.371094 C 181.007812 11.347656 180.90625 11.40625 180.929688 11.375 M 19.101562 93.15625 C 19.234375 93.457031 19.09375 93.808594 18.792969 93.9375 C 18.492188 94.070312 18.144531 93.933594 18.011719 93.632812 L 17.6875 92.910156 L 17.503906 92.511719 L 17.453125 92.40625 L 17.503906 92.464844 C 17.472656 92.433594 17.738281 92.605469 17.65625 92.570312 C 17.570312 92.53125 18.191406 92.578125 18.035156 92.613281 C 17.882812 92.644531 18.441406 92.316406 18.375 92.398438 C 18.316406 92.472656 18.484375 92.171875 18.472656 92.214844 C 18.445312 92.296875 18.5 92.046875 18.496094 92.070312 C 18.496094 92.148438 18.496094 92.019531 18.5 92.050781 L 19.238281 94.71875 L 20.226562 97.902344 L 20.773438 99.367188 L 20.9375 99.703125 L 20.886719 99.667969 C 20.914062 99.6875 20.710938 99.605469 20.761719 99.617188 C 20.828125 99.632812 20.492188 99.617188 20.554688 99.609375 C 20.613281 99.597656 20.378906 99.675781 20.414062 99.65625 C 20.476562 99.625 20.3125 99.734375 20.320312 99.726562 L 20.796875 98.566406 L 21.6875 96.148438 L 22.492188 93.269531 C 22.710938 92.394531 22.789062 91.640625 22.996094 91.082031 C 23.054688 90.925781 23.121094 90.769531 23.300781 90.617188 C 23.445312 90.496094 23.71875 90.410156 23.953125 90.476562 C 24.582031 90.652344 24.582031 91.105469 24.691406 91.558594 C 24.773438 91.875 24.578125 92.199219 24.257812 92.277344 C 23.941406 92.355469 23.617188 92.160156 23.539062 91.84375 L 23.433594 91.519531 L 23.515625 91.570312 C 23.449219 91.53125 23.933594 91.621094 23.816406 91.632812 C 23.730469 91.644531 24.078125 91.523438 24.027344 91.558594 C 23.960938 91.601562 24.132812 91.453125 24.125 91.464844 L 24.113281 91.5 L 23.644531 93.558594 L 22.816406 96.527344 L 21.914062 98.972656 L 21.488281 100.0625 L 21.230469 100.488281 C 21.113281 100.632812 20.84375 100.863281 20.472656 100.769531 C 19.863281 100.617188 19.847656 100.210938 19.683594 99.851562 L 19.101562 98.277344 L 18.105469 95.078125 L 17.492188 92.96875 L 17.34375 92.335938 L 17.3125 92.113281 L 17.335938 91.867188 C 17.363281 91.769531 17.457031 91.527344 17.773438 91.453125 C 18.085938 91.378906 18.257812 91.539062 18.324219 91.605469 C 18.664062 91.929688 18.636719 92.132812 18.761719 92.402344 Z M 24.222656 100.59375 C 24.226562 100.265625 24.496094 100.003906 24.824219 100.007812 C 25.152344 100.011719 25.417969 100.28125 25.410156 100.609375 L 25.269531 102.210938 L 25.15625 103.097656 L 25.128906 103.378906 L 25.125 103.449219 L 25.117188 103.410156 L 25.085938 103.320312 C 25.105469 103.355469 24.953125 103.148438 24.996094 103.195312 C 25.035156 103.234375 24.785156 103.050781 24.847656 103.082031 C 24.949219 103.136719 24.460938 103.039062 24.542969 103.03125 C 24.601562 103.023438 24.390625 103.074219 24.417969 103.0625 L 24.367188 103.089844 L 24.394531 103.066406 C 24.636719 102.84375 25.011719 102.859375 25.234375 103.097656 C 25.457031 103.339844 25.441406 103.714844 25.203125 103.9375 C 25.085938 104.046875 24.980469 104.179688 24.679688 104.210938 C 24.421875 104.238281 24.09375 104.011719 24.007812 103.828125 C 23.808594 103.382812 23.949219 103.207031 23.976562 102.972656 L 24.089844 102.0625 Z M 26.148438 96.355469 C 26.234375 96.671875 26.046875 97 25.730469 97.085938 C 25.414062 97.171875 25.085938 96.984375 25 96.667969 L 24.859375 96.414062 C 24.765625 96.265625 24.617188 96 24.65625 95.664062 C 24.691406 95.335938 24.988281 95.101562 25.3125 95.140625 C 25.640625 95.179688 25.875 95.472656 25.835938 95.800781 L 25.828125 95.714844 C 25.828125 95.71875 26.035156 95.941406 26.148438 96.355469 M 258.386719 70.523438 C 258.386719 70.851562 258.121094 71.117188 257.792969 71.117188 C 257.464844 71.117188 257.199219 70.851562 257.199219 70.523438 L 257.199219 68.976562 C 257.199219 68.980469 257.214844 69.105469 257.207031 69.050781 C 257.15625 68.726562 257.375 68.421875 257.699219 68.371094 C 258.023438 68.316406 258.328125 68.539062 258.382812 68.863281 L 258.390625 69.148438 L 258.386719 69.589844 Z M 257.210938 68.847656 C 257.269531 68.527344 257.582031 68.3125 257.902344 68.371094 C 258.226562 68.433594 258.4375 68.742188 258.378906 69.066406 C 258.363281 69.144531 258.386719 68.988281 258.386719 68.992188 L 258.203125 70.683594 L 257.738281 73.65625 C 257.417969 75.40625 257.0625 77.167969 257.074219 78.042969 L 257.046875 78.453125 C 257.046875 78.476562 256.988281 78.257812 257.011719 78.320312 C 257.035156 78.382812 256.789062 78.054688 256.863281 78.117188 C 256.921875 78.167969 256.585938 77.996094 256.65625 78.011719 C 256.722656 78.027344 256.457031 78.007812 256.496094 78 C 256.566406 77.992188 256.402344 78.027344 256.402344 78.027344 C 256.84375 77.792969 258.652344 75.453125 260.179688 72.929688 C 261.59375 70.589844 263.015625 68.214844 264.238281 66.558594 C 264.816406 65.777344 265.285156 65.183594 265.84375 64.875 C 266.125 64.71875 266.632812 64.648438 266.957031 64.949219 C 267.265625 65.234375 267.304688 65.589844 267.324219 65.96875 C 267.34375 66.296875 267.089844 66.578125 266.761719 66.59375 C 266.433594 66.609375 266.152344 66.355469 266.136719 66.027344 L 266.105469 65.777344 C 266.09375 65.75 266.179688 65.851562 266.136719 65.808594 C 266.089844 65.761719 266.421875 65.917969 266.347656 65.910156 C 266.285156 65.902344 266.441406 65.902344 266.441406 65.902344 C 265.765625 66.171875 263.382812 69.929688 261.195312 73.546875 C 260.304688 75.019531 259.355469 76.410156 258.523438 77.472656 L 257.445312 78.703125 L 256.976562 79.066406 C 256.796875 79.167969 256.429688 79.304688 256.097656 79.027344 C 255.746094 78.734375 255.851562 78.453125 255.863281 78.335938 L 255.886719 78.058594 C 255.871094 76.914062 256.25 75.1875 256.566406 73.441406 C 256.949219 71.347656 257.183594 69.402344 257.199219 68.949219 Z M 263.695312 74.613281 C 264.023438 74.578125 264.316406 74.816406 264.351562 75.140625 C 264.386719 75.46875 264.152344 75.761719 263.824219 75.796875 L 263.582031 76.066406 L 262.921875 76.992188 C 262.519531 77.644531 262.089844 78.449219 261.78125 79.207031 C 261.578125 79.707031 261.492188 80.21875 261.488281 80.597656 C 261.484375 80.816406 261.429688 80.71875 261.457031 80.726562 C 261.546875 80.761719 262.390625 80.539062 263.265625 79.921875 C 264.011719 79.394531 264.761719 78.570312 265.414062 77.753906 C 266.007812 77.015625 266.4375 76.261719 266.664062 75.648438 C 266.949219 74.882812 266.730469 74.648438 266.277344 74.554688 C 265.757812 74.449219 264.851562 74.726562 264.101562 75.570312 C 263.886719 75.816406 263.511719 75.839844 263.265625 75.625 C 263.019531 75.40625 262.996094 75.03125 263.210938 74.785156 C 264.1875 73.679688 265.457031 73.175781 266.515625 73.390625 C 267.039062 73.496094 267.527344 73.816406 267.777344 74.3125 C 268.027344 74.8125 268.011719 75.4375 267.78125 76.0625 C 267.496094 76.820312 267.007812 77.667969 266.34375 78.5 C 265.652344 79.359375 264.855469 80.253906 263.953125 80.890625 C 262.957031 81.59375 261.992188 82.1875 261.054688 81.847656 C 260.542969 81.664062 260.289062 81.082031 260.296875 80.578125 C 260.304688 80.050781 260.414062 79.410156 260.679688 78.757812 C 261.023438 77.917969 261.476562 77.070312 261.910156 76.367188 L 262.644531 75.332031 C 262.957031 74.9375 263.308594 74.65625 263.695312 74.613281 M 0.667969 259.75 C 0.796875 260.054688 0.660156 260.402344 0.359375 260.535156 C 0.0585938 260.667969 -0.289062 260.527344 -0.421875 260.226562 L -0.746094 259.507812 L -0.929688 259.109375 L -0.984375 259.003906 L -0.929688 259.058594 C -0.960938 259.03125 -0.695312 259.203125 -0.777344 259.164062 C -0.863281 259.125 -0.246094 259.175781 -0.398438 259.207031 C -0.550781 259.242188 0.0078125 258.910156 -0.0585938 258.996094 C -0.117188 259.070312 0.0507812 258.765625 0.0390625 258.8125 C 0.0117188 258.890625 0.0625 258.640625 0.0625 258.667969 C 0.0585938 258.746094 0.0625 258.613281 0.0664062 258.648438 L 0.804688 261.3125 L 1.792969 264.496094 L 2.339844 265.964844 L 2.503906 266.296875 L 2.449219 266.265625 C 2.480469 266.28125 2.277344 266.199219 2.328125 266.210938 C 2.394531 266.230469 2.058594 266.214844 2.121094 266.203125 C 2.179688 266.195312 1.945312 266.269531 1.980469 266.25 C 2.042969 266.21875 1.875 266.332031 1.886719 266.320312 L 2.363281 265.164062 L 3.253906 262.742188 L 4.054688 259.867188 C 4.277344 258.992188 4.355469 258.234375 4.5625 257.679688 C 4.621094 257.523438 4.6875 257.363281 4.867188 257.214844 C 5.011719 257.09375 5.285156 257.003906 5.519531 257.070312 C 6.148438 257.25 6.148438 257.699219 6.257812 258.152344 C 6.335938 258.472656 6.144531 258.792969 5.824219 258.871094 C 5.503906 258.953125 5.183594 258.757812 5.105469 258.4375 L 5 258.113281 L 5.082031 258.167969 C 5.011719 258.125 5.5 258.214844 5.382812 258.230469 C 5.296875 258.238281 5.644531 258.121094 5.59375 258.152344 C 5.527344 258.199219 5.699219 258.046875 5.691406 258.058594 L 5.675781 258.09375 L 5.210938 260.15625 L 4.382812 263.121094 L 3.480469 265.566406 L 3.050781 266.660156 L 2.796875 267.085938 C 2.679688 267.226562 2.410156 267.460938 2.035156 267.367188 C 1.429688 267.210938 1.410156 266.808594 1.25 266.445312 L 0.664062 264.875 L -0.328125 261.671875 L -0.941406 259.566406 L -1.089844 258.929688 L -1.125 258.707031 L -1.101562 258.464844 C -1.070312 258.367188 -0.976562 258.121094 -0.660156 258.046875 C -0.347656 257.976562 -0.175781 258.136719 -0.109375 258.199219 C 0.230469 258.523438 0.199219 258.730469 0.328125 258.996094 Z M 5.789062 267.191406 C 5.792969 266.863281 6.0625 266.597656 6.390625 266.605469 C 6.71875 266.609375 6.980469 266.878906 6.976562 267.207031 L 6.835938 268.804688 L 6.722656 269.695312 L 6.695312 269.972656 L 6.691406 270.046875 L 6.683594 270.007812 L 6.652344 269.917969 C 6.667969 269.953125 6.519531 269.742188 6.5625 269.789062 C 6.601562 269.832031 6.351562 269.648438 6.410156 269.679688 C 6.515625 269.730469 6.027344 269.636719 6.109375 269.625 C 6.167969 269.617188 5.957031 269.671875 5.984375 269.660156 L 5.933594 269.6875 L 5.960938 269.660156 C 6.203125 269.4375 6.578125 269.453125 6.800781 269.695312 C 7.023438 269.9375 7.007812 270.3125 6.769531 270.535156 C 6.652344 270.644531 6.546875 270.773438 6.246094 270.808594 C 5.988281 270.835938 5.660156 270.605469 5.574219 270.421875 C 5.375 269.980469 5.515625 269.804688 5.539062 269.566406 L 5.65625 268.660156 Z M 7.714844 262.953125 C 7.800781 263.269531 7.613281 263.597656 7.296875 263.683594 C 6.976562 263.769531 6.652344 263.582031 6.566406 263.265625 L 6.425781 263.007812 C 6.332031 262.863281 6.179688 262.597656 6.21875 262.257812 C 6.257812 261.933594 6.554688 261.699219 6.878906 261.738281 C 7.207031 261.773438 7.4375 262.070312 7.402344 262.394531 L 7.394531 262.308594 C 7.394531 262.316406 7.601562 262.535156 7.714844 262.953125 "/>
</g>
<path fill-rule="nonzero" fill="rgb(7.058716%, 1.176453%, 46.665955%)" fill-opacity="1" d="M 105.824219 102.449219 C 105.824219 102.777344 105.558594 103.046875 105.230469 103.046875 C 104.902344 103.046875 104.636719 102.777344 104.636719 102.449219 L 104.636719 88.132812 C 104.636719 87.800781 104.902344 87.535156 105.230469 87.535156 C 105.558594 87.535156 105.824219 87.800781 105.824219 88.132812 Z M 105.230469 87.535156 C 105.558594 87.535156 105.824219 87.800781 105.824219 88.132812 C 105.824219 88.460938 105.558594 88.726562 105.230469 88.726562 L 80.445312 88.726562 C 80.117188 88.726562 79.851562 88.460938 79.851562 88.132812 C 79.851562 87.800781 80.117188 87.535156 80.445312 87.535156 Z M 79.851562 88.132812 C 79.851562 87.800781 80.117188 87.535156 80.445312 87.535156 C 80.773438 87.535156 81.039062 87.800781 81.039062 88.132812 L 81.039062 102.449219 C 81.039062 102.777344 80.773438 103.046875 80.445312 103.046875 C 80.117188 103.046875 79.851562 102.777344 79.851562 102.449219 Z M 80.445312 101.855469 C 80.773438 101.855469 81.039062 102.121094 81.039062 102.449219 C 81.039062 102.777344 80.773438 103.046875 80.445312 103.046875 L 59.136719 103.046875 C 58.808594 103.046875 58.542969 102.777344 58.542969 102.449219 C 58.542969 102.121094 58.808594 101.855469 59.136719 101.855469 Z M 104.25 83.894531 C 104.578125 83.894531 104.84375 84.160156 104.84375 84.488281 C 104.84375 84.816406 104.578125 85.082031 104.25 85.082031 L 81.429688 85.082031 C 81.101562 85.082031 80.832031 84.816406 80.832031 84.488281 C 80.832031 84.160156 81.101562 83.894531 81.429688 83.894531 Z M 92.242188 64.898438 C 92.242188 64.570312 92.511719 64.304688 92.839844 64.304688 C 93.167969 64.304688 93.433594 64.570312 93.433594 64.898438 L 93.433594 84.488281 C 93.433594 84.816406 93.167969 85.082031 92.839844 85.082031 C 92.511719 85.082031 92.242188 84.816406 92.242188 84.488281 Z M 126.539062 101.855469 C 126.871094 101.855469 127.136719 102.121094 127.136719 102.449219 C 127.136719 102.777344 126.871094 103.046875 126.539062 103.046875 L 105.230469 103.046875 C 104.902344 103.046875 104.636719 102.777344 104.636719 102.449219 C 104.636719 102.121094 104.902344 101.855469 105.230469 101.855469 Z M 108.925781 96.328125 C 109.253906 96.328125 109.519531 96.59375 109.519531 96.921875 C 109.519531 97.25 109.253906 97.515625 108.925781 97.515625 L 101.535156 97.515625 C 101.207031 97.515625 100.941406 97.25 100.941406 96.921875 C 100.941406 96.59375 101.207031 96.328125 101.535156 96.328125 Z M 108.449219 96.566406 C 108.648438 96.304688 109.019531 96.25 109.28125 96.445312 C 109.546875 96.644531 109.597656 97.015625 109.402344 97.277344 L 105.707031 102.210938 C 105.511719 102.476562 105.136719 102.527344 104.875 102.332031 C 104.613281 102.136719 104.558594 101.761719 104.753906 101.5 Z M 108.449219 96.566406 "/>
<path fill-rule="nonzero" fill="rgb(0%, 45.097351%, 23.136902%)" fill-opacity="1" d="M 166.5625 124.25 C 166.457031 124.5625 166.121094 124.726562 165.808594 124.621094 C 165.5 124.519531 165.332031 124.179688 165.4375 123.871094 C 165.566406 123.484375 165.527344 123.292969 165.492188 123.234375 C 165.453125 123.164062 165.191406 123.035156 164.636719 123.101562 C 164.027344 123.175781 163.242188 123.441406 162.433594 123.863281 C 160.84375 124.699219 159.515625 125.949219 159.324219 126.964844 C 159.136719 127.957031 160.347656 129.386719 161.875 129.835938 C 163.636719 130.355469 165.789062 129.539062 166.878906 128.601562 C 167.128906 128.390625 167.503906 128.417969 167.714844 128.667969 C 167.929688 128.914062 167.902344 129.292969 167.652344 129.503906 C 166.273438 130.6875 163.835938 131.652344 161.542969 130.976562 C 159.570312 130.398438 157.800781 128.632812 158.15625 126.746094 C 158.46875 125.074219 160.109375 123.738281 161.882812 122.8125 C 163.085938 122.179688 164.265625 121.800781 165.257812 121.910156 C 165.75 121.960938 166.253906 122.179688 166.523438 122.636719 C 166.789062 123.097656 166.757812 123.671875 166.5625 124.25 M 170.59375 126.65625 C 170.789062 126.921875 170.734375 127.292969 170.46875 127.488281 C 170.207031 127.683594 169.832031 127.628906 169.636719 127.367188 L 169.582031 127.296875 C 169.578125 127.292969 169.742188 127.367188 169.675781 127.347656 C 169.613281 127.328125 170.019531 127.328125 169.925781 127.351562 C 169.847656 127.371094 170.148438 127.222656 170.109375 127.257812 L 170.167969 127.191406 L 170.074219 127.804688 C 170 128.78125 170.015625 130.042969 170.035156 131.207031 C 170.054688 132.339844 170.105469 133.246094 170.042969 133.757812 C 170.007812 134.082031 169.710938 134.316406 169.386719 134.277344 C 169.058594 134.242188 168.824219 133.945312 168.863281 133.621094 C 168.945312 132.898438 168.726562 129.875 168.890625 127.714844 C 168.921875 127.304688 168.929688 126.941406 169.152344 126.574219 C 169.273438 126.371094 169.632812 126.117188 169.980469 126.199219 C 170.300781 126.273438 170.453125 126.464844 170.59375 126.65625 "/>
<path fill-rule="nonzero" fill="rgb(7.058716%, 1.176453%, 46.665955%)" fill-opacity="1" d="M 107.664062 98.027344 C 107.59375 98.351562 107.277344 98.550781 106.957031 98.480469 C 106.636719 98.410156 106.433594 98.09375 106.503906 97.773438 C 106.609375 97.292969 106.789062 97.355469 106.835938 97.316406 C 106.894531 97.269531 106.949219 97.242188 106.976562 97.226562 C 107 97.214844 106.878906 97.300781 106.9375 97.257812 C 107.191406 97.050781 107.566406 97.085938 107.773438 97.34375 C 107.980469 97.597656 107.941406 97.972656 107.6875 98.179688 C 107.535156 98.304688 107.617188 98.214844 107.570312 98.253906 C 107.535156 98.277344 107.53125 98.28125 107.527344 98.285156 C 107.519531 98.292969 107.589844 98.210938 107.566406 98.242188 C 107.554688 98.257812 107.632812 98.136719 107.613281 98.167969 C 107.59375 98.203125 107.679688 97.96875 107.664062 98.027344 M 107.535156 97.164062 C 107.835938 97.292969 107.980469 97.640625 107.855469 97.941406 C 107.726562 98.246094 107.378906 98.390625 107.078125 98.261719 C 107.070312 98.261719 107.074219 98.261719 107.058594 98.257812 C 107.078125 98.261719 107.085938 98.265625 107.085938 98.265625 C 107.085938 98.265625 107.109375 98.269531 107.097656 98.269531 C 107.035156 98.265625 106.976562 98.261719 106.929688 98.261719 C 106.667969 98.257812 106.378906 98.257812 106.027344 98.261719 C 105.71875 98.261719 105.371094 98.261719 105.019531 98.261719 C 104.785156 98.261719 104.558594 98.261719 104.355469 98.261719 C 104.207031 98.261719 104.078125 98.261719 103.964844 98.261719 C 103.816406 98.261719 103.710938 98.261719 103.640625 98.273438 C 103.621094 98.273438 103.570312 98.289062 103.484375 98.3125 C 103.429688 98.332031 103.382812 98.34375 103.367188 98.347656 C 103.363281 98.347656 103.410156 98.332031 103.386719 98.339844 C 103.375 98.34375 103.46875 98.296875 103.441406 98.3125 C 103.414062 98.328125 103.597656 98.183594 103.554688 98.226562 C 103.523438 98.257812 103.710938 97.976562 103.667969 98.066406 C 103.523438 98.363281 103.167969 98.488281 102.871094 98.34375 C 102.578125 98.203125 102.453125 97.847656 102.59375 97.550781 C 102.640625 97.457031 102.6875 97.410156 102.71875 97.378906 C 103.046875 97.058594 103.085938 97.191406 103.144531 97.175781 C 103.214844 97.152344 103.328125 97.113281 103.484375 97.09375 C 103.660156 97.070312 103.8125 97.074219 103.957031 97.070312 C 104.082031 97.070312 104.210938 97.070312 104.355469 97.070312 C 104.558594 97.070312 104.785156 97.070312 105.019531 97.070312 C 105.375 97.070312 105.71875 97.074219 106.019531 97.070312 C 106.371094 97.070312 106.671875 97.066406 106.945312 97.070312 C 107.03125 97.074219 107.105469 97.078125 107.160156 97.082031 C 107.273438 97.085938 107.363281 97.109375 107.429688 97.128906 C 107.464844 97.136719 107.492188 97.148438 107.515625 97.15625 C 107.546875 97.171875 107.523438 97.160156 107.535156 97.164062 M 102.558594 97.976562 C 102.46875 97.664062 102.652344 97.332031 102.96875 97.246094 C 103.285156 97.15625 103.613281 97.339844 103.703125 97.65625 C 103.722656 97.722656 103.617188 97.472656 103.636719 97.507812 C 103.65625 97.539062 103.574219 97.421875 103.585938 97.4375 C 103.613281 97.460938 103.414062 97.300781 103.4375 97.316406 C 103.457031 97.324219 103.398438 97.296875 103.402344 97.296875 C 103.445312 97.316406 103.40625 97.296875 103.488281 97.316406 C 103.789062 97.390625 104.136719 97.496094 104.570312 97.542969 C 104.9375 97.585938 105.433594 97.566406 105.945312 97.585938 C 106.207031 97.59375 106.464844 97.609375 106.703125 97.65625 C 106.878906 97.6875 107.015625 97.734375 107.125 97.785156 C 107.203125 97.816406 107.277344 97.855469 107.371094 97.9375 C 107.410156 97.972656 107.445312 98.011719 107.484375 98.066406 C 107.574219 98.222656 107.609375 98.375 107.582031 98.527344 C 107.523438 98.851562 107.214844 99.066406 106.894531 99.007812 C 106.570312 98.949219 106.355469 98.640625 106.410156 98.320312 C 106.425781 98.25 106.425781 98.589844 106.414062 98.527344 C 106.402344 98.460938 106.496094 98.734375 106.472656 98.691406 C 106.476562 98.703125 106.589844 98.835938 106.570312 98.816406 C 106.515625 98.769531 106.652344 98.875 106.648438 98.871094 C 106.613281 98.855469 106.554688 98.835938 106.492188 98.824219 C 106.34375 98.796875 106.132812 98.78125 105.90625 98.773438 C 105.445312 98.757812 104.933594 98.78125 104.4375 98.726562 C 103.890625 98.664062 103.460938 98.535156 103.199219 98.46875 C 103.15625 98.457031 103.082031 98.453125 102.953125 98.398438 C 102.902344 98.378906 102.839844 98.371094 102.714844 98.246094 C 102.652344 98.175781 102.597656 98.113281 102.558594 97.976562 M 106.691406 97.917969 C 106.976562 97.75 107.339844 97.84375 107.503906 98.128906 C 107.671875 98.414062 107.574219 98.777344 107.292969 98.941406 C 107.207031 98.992188 107.136719 99.011719 107.085938 99.019531 C 107.011719 99.035156 106.972656 99.03125 106.929688 99.03125 C 106.84375 99.03125 106.773438 99.023438 106.699219 99.011719 C 106.652344 99.003906 106.796875 99.011719 106.785156 99.015625 C 106.765625 99.015625 106.726562 99.035156 106.582031 99.054688 C 106.46875 99.070312 106.355469 99.082031 106.226562 99.09375 C 106.078125 99.105469 105.910156 99.113281 105.722656 99.121094 C 105.414062 99.132812 105.078125 99.132812 104.785156 99.140625 C 104.636719 99.144531 104.503906 99.152344 104.378906 99.15625 C 104.28125 99.160156 104.203125 99.160156 104.199219 99.164062 C 104.164062 99.164062 104.179688 99.164062 104.160156 99.164062 C 104.15625 99.167969 104.207031 99.15625 104.1875 99.160156 C 104.167969 99.164062 104.355469 99.097656 104.296875 99.125 C 103.996094 99.257812 103.644531 99.121094 103.511719 98.820312 C 103.378906 98.519531 103.515625 98.171875 103.816406 98.039062 C 103.933594 97.984375 103.964844 97.992188 103.992188 97.988281 C 104.046875 97.980469 104.070312 97.980469 104.089844 97.976562 C 104.1875 97.96875 104.253906 97.972656 104.328125 97.96875 C 104.441406 97.964844 104.589844 97.953125 104.761719 97.949219 C 105.066406 97.945312 105.402344 97.945312 105.675781 97.933594 C 105.855469 97.925781 106.007812 97.917969 106.128906 97.910156 C 106.242188 97.898438 106.328125 97.890625 106.417969 97.878906 C 106.429688 97.875 106.550781 97.785156 106.878906 97.835938 C 106.914062 97.839844 106.933594 97.84375 106.9375 97.84375 C 106.945312 97.84375 106.78125 97.867188 106.851562 97.851562 C 106.910156 97.84375 106.625 97.953125 106.699219 97.914062 C 106.699219 97.914062 106.691406 97.917969 106.691406 97.917969 M 103.457031 98.589844 C 103.457031 98.261719 103.722656 97.992188 104.050781 97.992188 C 104.378906 97.992188 104.644531 98.261719 104.644531 98.589844 C 104.644531 98.679688 104.570312 98.296875 104.597656 98.355469 C 104.632812 98.441406 104.457031 98.15625 104.488281 98.1875 C 104.515625 98.21875 104.40625 98.117188 104.421875 98.128906 C 104.511719 98.207031 104.351562 98.085938 104.367188 98.09375 C 104.382812 98.101562 104.347656 98.082031 104.347656 98.082031 C 104.375 98.097656 104.335938 98.078125 104.363281 98.089844 C 104.421875 98.109375 104.523438 98.136719 104.636719 98.179688 C 104.882812 98.273438 105.128906 98.394531 105.363281 98.492188 C 105.664062 98.621094 105.949219 98.71875 106.164062 98.761719 C 106.226562 98.773438 106.308594 98.777344 106.425781 98.777344 C 106.519531 98.777344 106.609375 98.777344 106.683594 98.777344 C 106.816406 98.777344 106.929688 98.777344 106.972656 98.777344 C 106.976562 98.777344 106.980469 98.777344 106.984375 98.777344 C 107.3125 98.785156 107.574219 99.054688 107.570312 99.382812 C 107.5625 99.710938 107.292969 99.972656 106.964844 99.964844 C 106.960938 99.964844 106.972656 99.964844 106.972656 99.964844 C 106.90625 99.964844 106.8125 99.964844 106.703125 99.964844 C 106.609375 99.96875 106.515625 99.96875 106.417969 99.964844 C 106.300781 99.964844 106.132812 99.96875 105.933594 99.929688 C 105.585938 99.859375 105.242188 99.734375 104.902344 99.589844 C 104.636719 99.476562 104.390625 99.359375 104.214844 99.292969 C 104.148438 99.269531 104.066406 99.242188 103.976562 99.210938 C 103.9375 99.199219 103.890625 99.183594 103.824219 99.148438 C 103.800781 99.140625 103.761719 99.136719 103.660156 99.042969 C 103.644531 99.03125 103.457031 98.949219 103.457031 98.589844 M 106.921875 98.78125 C 107.25 98.753906 107.539062 98.996094 107.566406 99.320312 C 107.59375 99.648438 107.351562 99.9375 107.023438 99.964844 C 107.003906 99.96875 107 99.96875 106.988281 99.96875 C 106.957031 99.96875 106.925781 99.96875 106.882812 99.96875 C 106.785156 99.972656 106.660156 99.972656 106.511719 99.964844 C 106.066406 99.949219 105.574219 99.867188 105.179688 99.8125 C 105.054688 99.796875 104.9375 99.78125 104.847656 99.773438 C 104.753906 99.761719 104.828125 99.75 104.769531 99.757812 C 104.695312 99.769531 104.675781 99.769531 104.664062 99.769531 C 104.652344 99.773438 104.808594 99.734375 104.753906 99.75 C 104.699219 99.769531 105.058594 99.523438 104.980469 99.605469 C 104.910156 99.679688 105.117188 99.332031 105.101562 99.398438 C 105.082031 99.460938 105.113281 99.199219 105.117188 99.242188 C 105.121094 99.316406 105.046875 99.039062 105.070312 99.078125 C 105.105469 99.136719 104.9375 98.929688 104.964844 98.953125 C 105.003906 98.984375 104.910156 98.914062 104.910156 98.914062 C 104.917969 98.917969 104.941406 98.929688 104.980469 98.953125 C 105.140625 99.050781 105.34375 99.164062 105.527344 99.230469 C 105.664062 99.28125 105.777344 99.328125 105.863281 99.363281 C 105.988281 99.40625 106.109375 99.433594 106.25 99.496094 C 106.257812 99.496094 106.226562 99.449219 106.441406 99.570312 C 106.726562 99.738281 106.824219 100.101562 106.65625 100.382812 C 106.492188 100.667969 106.128906 100.765625 105.84375 100.601562 C 105.789062 100.570312 105.941406 100.644531 105.929688 100.640625 C 105.921875 100.636719 105.875 100.628906 105.792969 100.589844 C 105.777344 100.585938 105.628906 100.539062 105.460938 100.480469 C 105.332031 100.433594 105.222656 100.386719 105.117188 100.347656 C 104.8125 100.234375 104.550781 100.085938 104.355469 99.964844 C 104.34375 99.957031 104.21875 99.976562 104.046875 99.683594 C 103.980469 99.574219 103.9375 99.457031 103.929688 99.316406 C 103.921875 99.171875 103.953125 98.960938 104.117188 98.785156 C 104.292969 98.601562 104.464844 98.597656 104.535156 98.589844 C 104.59375 98.582031 104.570312 98.585938 104.585938 98.585938 C 104.761719 98.558594 104.871094 98.578125 104.960938 98.589844 C 105.082031 98.601562 105.210938 98.617188 105.34375 98.636719 C 105.75 98.691406 106.21875 98.765625 106.558594 98.777344 C 106.679688 98.78125 106.785156 98.78125 106.859375 98.78125 C 106.894531 98.78125 106.921875 98.78125 106.929688 98.78125 C 106.933594 98.78125 106.910156 98.78125 106.921875 98.78125 M 105.976562 99.515625 C 106.292969 99.425781 106.621094 99.609375 106.710938 99.925781 C 106.800781 100.242188 106.617188 100.570312 106.300781 100.660156 C 106.261719 100.671875 106.226562 100.679688 106.191406 100.683594 C 106.136719 100.691406 106.078125 100.691406 106.007812 100.6875 C 106.007812 100.6875 105.925781 100.691406 105.816406 100.6875 C 105.71875 100.6875 105.605469 100.691406 105.480469 100.6875 C 105.4375 100.6875 105.394531 100.6875 105.347656 100.6875 C 105.238281 100.6875 105.230469 100.683594 105.195312 100.6875 C 105.125 100.695312 105.074219 100.691406 105.058594 100.691406 C 105.054688 100.691406 105.117188 100.6875 105.089844 100.691406 C 105.070312 100.691406 105.199219 100.664062 105.164062 100.675781 C 105.128906 100.683594 105.375 100.570312 105.3125 100.609375 C 105.035156 100.78125 104.667969 100.695312 104.496094 100.417969 C 104.324219 100.136719 104.410156 99.773438 104.6875 99.597656 C 105.121094 99.332031 105.054688 99.503906 105.070312 99.503906 C 105.210938 99.488281 105.28125 99.5 105.347656 99.5 C 105.390625 99.5 105.4375 99.5 105.480469 99.5 C 105.589844 99.5 105.710938 99.496094 105.84375 99.5 C 105.898438 99.5 105.960938 99.496094 106.070312 99.5 C 106.074219 99.5 106.011719 99.507812 106.039062 99.503906 C 106.0625 99.5 105.941406 99.527344 105.976562 99.515625 M 104.632812 100.574219 C 104.378906 100.367188 104.335938 99.992188 104.542969 99.738281 C 104.746094 99.480469 105.121094 99.4375 105.378906 99.644531 C 105.394531 99.660156 105.402344 99.664062 105.40625 99.667969 C 105.410156 99.671875 105.414062 99.675781 105.433594 99.6875 C 105.457031 99.710938 105.488281 99.730469 105.5 99.738281 C 105.613281 99.808594 105.605469 99.820312 105.664062 99.847656 C 105.699219 99.863281 105.722656 99.875 105.726562 99.878906 C 105.726562 99.878906 105.695312 99.863281 105.710938 99.871094 C 105.726562 99.878906 105.523438 99.828125 105.59375 99.839844 C 105.917969 99.890625 106.136719 100.195312 106.085938 100.519531 C 106.03125 100.84375 105.726562 101.066406 105.402344 101.011719 C 105.140625 100.96875 105.183594 100.933594 105.175781 100.933594 C 105.003906 100.855469 104.941406 100.792969 104.871094 100.75 C 104.792969 100.703125 104.738281 100.65625 104.691406 100.621094 C 104.671875 100.605469 104.65625 100.589844 104.628906 100.570312 C 104.625 100.566406 104.644531 100.582031 104.632812 100.574219 M 105.980469 100.078125 C 106.167969 100.347656 106.101562 100.71875 105.832031 100.90625 C 105.5625 101.09375 105.191406 101.027344 105.003906 100.757812 C 105 100.75 104.996094 100.746094 104.992188 100.738281 C 104.996094 100.753906 104.984375 100.730469 104.972656 100.714844 C 104.984375 100.726562 104.976562 100.722656 104.976562 100.71875 C 104.921875 100.664062 104.878906 100.613281 104.835938 100.539062 C 104.816406 100.511719 104.792969 100.453125 104.78125 100.429688 C 104.734375 100.277344 104.675781 100.132812 104.824219 99.882812 C 104.992188 99.601562 105.359375 99.511719 105.640625 99.679688 C 105.921875 99.851562 106.011719 100.214844 105.839844 100.496094 C 105.804688 100.5625 105.921875 100.273438 105.910156 100.324219 C 105.894531 100.394531 105.921875 100.109375 105.925781 100.152344 C 105.925781 100.191406 105.898438 100.027344 105.90625 100.054688 C 105.886719 99.996094 105.808594 99.859375 105.835938 99.898438 C 105.878906 99.964844 105.832031 99.894531 105.832031 99.898438 C 105.886719 99.949219 105.925781 100.003906 105.945312 100.03125 C 105.972656 100.066406 105.933594 100.015625 105.953125 100.039062 C 105.992188 100.097656 105.976562 100.074219 105.980469 100.078125 "/>
<g clip-path="url(#clip-2)">
<path fill-rule="nonzero" fill="rgb(7.058716%, 1.176453%, 46.665955%)" fill-opacity="1" d="M 101.0625 97.277344 C 100.863281 97.015625 100.917969 96.644531 101.179688 96.445312 C 101.441406 96.25 101.816406 96.304688 102.011719 96.566406 L 105.707031 101.5 C 105.902344 101.761719 105.851562 102.136719 105.585938 102.332031 C 105.324219 102.527344 104.953125 102.476562 104.753906 102.210938 Z M 92.839844 56.761719 C 94.339844 56.761719 95.652344 57.574219 96.359375 58.785156 C 96.710938 59.386719 96.914062 60.089844 96.914062 60.835938 C 96.914062 62.339844 96.101562 63.652344 94.890625 64.355469 C 94.289062 64.710938 93.585938 64.910156 92.839844 64.910156 C 91.335938 64.910156 90.023438 64.097656 89.320312 62.890625 C 88.964844 62.289062 88.765625 61.585938 88.765625 60.835938 C 88.765625 59.335938 89.578125 58.023438 90.785156 57.316406 C 91.390625 56.964844 92.089844 56.761719 92.839844 56.761719 M 92.839844 57.953125 C 92.308594 57.953125 91.8125 58.09375 91.386719 58.34375 C 90.53125 58.84375 89.953125 59.773438 89.953125 60.835938 C 89.953125 61.367188 90.097656 61.863281 90.34375 62.289062 C 90.847656 63.148438 91.773438 63.722656 92.839844 63.722656 C 93.367188 63.722656 93.863281 63.578125 94.292969 63.332031 C 95.148438 62.832031 95.722656 61.902344 95.722656 60.835938 C 95.722656 60.308594 95.582031 59.8125 95.332031 59.382812 C 94.832031 58.527344 93.902344 57.953125 92.839844 57.953125 M 87.917969 269.046875 C 87.917969 269.375 87.652344 269.640625 87.324219 269.640625 C 86.992188 269.640625 86.726562 269.375 86.726562 269.046875 L 86.726562 254.726562 C 86.726562 254.398438 86.992188 254.132812 87.324219 254.132812 C 87.652344 254.132812 87.917969 254.398438 87.917969 254.726562 Z M 87.324219 254.132812 C 87.652344 254.132812 87.917969 254.398438 87.917969 254.726562 C 87.917969 255.054688 87.652344 255.320312 87.324219 255.320312 L 62.535156 255.320312 C 62.207031 255.320312 61.941406 255.054688 61.941406 254.726562 C 61.941406 254.398438 62.207031 254.132812 62.535156 254.132812 Z M 61.941406 254.726562 C 61.941406 254.398438 62.207031 254.132812 62.535156 254.132812 C 62.863281 254.132812 63.132812 254.398438 63.132812 254.726562 L 63.132812 269.046875 C 63.132812 269.375 62.863281 269.640625 62.535156 269.640625 C 62.207031 269.640625 61.941406 269.375 61.941406 269.046875 Z M 62.535156 268.453125 C 62.863281 268.453125 63.132812 268.71875 63.132812 269.046875 C 63.132812 269.375 62.863281 269.640625 62.535156 269.640625 L 41.226562 269.640625 C 40.898438 269.640625 40.632812 269.375 40.632812 269.046875 C 40.632812 268.71875 40.898438 268.453125 41.226562 268.453125 Z M 86.339844 250.488281 C 86.667969 250.488281 86.933594 250.757812 86.933594 251.085938 C 86.933594 251.414062 86.667969 251.679688 86.339844 251.679688 L 63.519531 251.679688 C 63.191406 251.679688 62.925781 251.414062 62.925781 251.085938 C 62.925781 250.757812 63.191406 250.488281 63.519531 250.488281 Z M 74.335938 231.496094 C 74.335938 231.167969 74.601562 230.902344 74.929688 230.902344 C 75.257812 230.902344 75.523438 231.167969 75.523438 231.496094 L 75.523438 251.085938 C 75.523438 251.414062 75.257812 251.679688 74.929688 251.679688 C 74.601562 251.679688 74.335938 251.414062 74.335938 251.085938 Z M 108.632812 268.453125 C 108.960938 268.453125 109.226562 268.71875 109.226562 269.046875 C 109.226562 269.375 108.960938 269.640625 108.632812 269.640625 L 87.324219 269.640625 C 86.992188 269.640625 86.726562 269.375 86.726562 269.046875 C 86.726562 268.71875 86.992188 268.453125 87.324219 268.453125 Z M 91.015625 262.921875 C 91.34375 262.921875 91.613281 263.191406 91.613281 263.519531 C 91.613281 263.847656 91.34375 264.113281 91.015625 264.113281 L 83.628906 264.113281 C 83.300781 264.113281 83.035156 263.847656 83.035156 263.519531 C 83.035156 263.191406 83.300781 262.921875 83.628906 262.921875 Z M 90.542969 263.160156 C 90.738281 262.898438 91.109375 262.84375 91.375 263.042969 C 91.636719 263.238281 91.691406 263.613281 91.492188 263.875 L 87.796875 268.808594 C 87.601562 269.070312 87.230469 269.125 86.964844 268.929688 C 86.703125 268.730469 86.648438 268.359375 86.847656 268.09375 Z M 90.542969 263.160156 "/>
</g>
</svg>
