<?xml version="1.0" encoding="UTF-8"?>
<svg xmlns="http://www.w3.org/2000/svg" xmlns:xlink="http://www.w3.org/1999/xlink" width="188.5681" height="251.8374" viewBox="0 0 188.5681 251.8374">
<defs>
<clipPath id="clip-0">
<path clip-rule="nonzero" d="M 43 19 L 165 19 L 165 251.46875 L 43 251.46875 Z M 43 19 "/>
</clipPath>
</defs>
<path fill-rule="nonzero" fill="rgb(7.058716%, 1.176453%, 46.665955%)" fill-opacity="1" d="M 71.746094 97.695312 C 71.746094 97.363281 72.011719 97.097656 72.34375 97.097656 C 72.671875 97.097656 72.9375 97.363281 72.9375 97.695312 L 72.9375 127.21875 C 72.9375 127.550781 72.671875 127.816406 72.34375 127.816406 C 72.011719 127.816406 71.746094 127.550781 71.746094 127.21875 Z M 71.746094 134.449219 C 71.746094 134.117188 72.011719 133.851562 72.34375 133.851562 C 72.671875 133.851562 72.9375 134.117188 72.9375 134.449219 L 72.9375 165.890625 C 72.9375 166.21875 72.671875 166.484375 72.34375 166.484375 C 72.011719 166.484375 71.746094 166.21875 71.746094 165.890625 Z M 58.75 127.816406 C 58.421875 127.816406 58.15625 127.550781 58.15625 127.21875 C 58.15625 126.890625 58.421875 126.625 58.75 126.625 L 85.941406 126.625 C 86.269531 126.625 86.535156 126.890625 86.535156 127.21875 C 86.535156 127.550781 86.269531 127.816406 85.941406 127.816406 Z M 58.746094 135.042969 C 58.417969 135.042969 58.152344 134.777344 58.152344 134.449219 C 58.152344 134.117188 58.417969 133.851562 58.746094 133.851562 L 85.9375 133.851562 C 86.265625 133.851562 86.535156 134.117188 86.535156 134.449219 C 86.535156 134.777344 86.265625 135.042969 85.9375 135.042969 Z M 71.746094 165.796875 C 71.746094 165.464844 72.015625 165.199219 72.34375 165.199219 C 72.671875 165.199219 72.941406 165.464844 72.941406 165.796875 L 72.941406 176.738281 C 72.941406 177.070312 72.671875 177.335938 72.34375 177.335938 C 72.015625 177.335938 71.746094 177.070312 71.746094 176.738281 Z M 63.835938 178.070312 C 63.503906 178.070312 63.238281 177.804688 63.238281 177.476562 C 63.238281 177.144531 63.503906 176.878906 63.835938 176.878906 L 80.855469 176.878906 C 81.183594 176.878906 81.449219 177.144531 81.449219 177.476562 C 81.449219 177.804688 81.183594 178.070312 80.855469 178.070312 Z M 66.773438 181.972656 C 66.445312 181.972656 66.179688 181.707031 66.179688 181.378906 C 66.179688 181.046875 66.445312 180.78125 66.773438 180.78125 L 78.203125 180.78125 C 78.53125 180.78125 78.800781 181.046875 78.800781 181.378906 C 78.800781 181.707031 78.53125 181.972656 78.203125 181.972656 Z M 70.046875 185.636719 C 69.71875 185.636719 69.453125 185.367188 69.453125 185.039062 C 69.453125 184.710938 69.71875 184.441406 70.046875 184.441406 L 74.929688 184.441406 C 75.257812 184.441406 75.527344 184.710938 75.527344 185.039062 C 75.527344 185.367188 75.257812 185.636719 74.929688 185.636719 Z M 72.34375 70.3125 C 72.011719 70.3125 71.746094 70.046875 71.746094 69.71875 C 71.746094 69.390625 72.011719 69.121094 72.34375 69.121094 L 86.703125 69.121094 C 87.03125 69.121094 87.300781 69.390625 87.300781 69.71875 C 87.300781 70.046875 87.03125 70.3125 86.703125 70.3125 Z M 87.300781 69.71875 C 87.300781 70.046875 87.03125 70.3125 86.703125 70.3125 C 86.375 70.3125 86.105469 70.046875 86.105469 69.71875 L 86.105469 44.859375 C 86.105469 44.53125 86.375 44.265625 86.703125 44.265625 C 87.03125 44.265625 87.300781 44.53125 87.300781 44.859375 Z M 86.703125 44.265625 C 87.03125 44.265625 87.300781 44.53125 87.300781 44.859375 C 87.300781 45.191406 87.03125 45.457031 86.703125 45.457031 L 72.34375 45.457031 C 72.011719 45.457031 71.746094 45.191406 71.746094 44.859375 C 71.746094 44.53125 72.011719 44.265625 72.34375 44.265625 Z M 72.9375 44.859375 C 72.9375 45.191406 72.671875 45.457031 72.34375 45.457031 C 72.011719 45.457031 71.746094 45.191406 71.746094 44.859375 L 71.746094 23.492188 C 71.746094 23.160156 72.011719 22.894531 72.34375 22.894531 C 72.671875 22.894531 72.9375 23.160156 72.9375 23.492188 Z M 90.953125 68.734375 C 90.953125 69.0625 90.683594 69.328125 90.355469 69.328125 C 90.027344 69.328125 89.757812 69.0625 89.757812 68.734375 L 89.757812 45.847656 C 89.757812 45.515625 90.027344 45.25 90.355469 45.25 C 90.683594 45.25 90.953125 45.515625 90.953125 45.847656 Z M 110 56.691406 C 110.332031 56.691406 110.597656 56.960938 110.597656 57.289062 C 110.597656 57.617188 110.332031 57.886719 110 57.886719 L 90.355469 57.886719 C 90.027344 57.886719 89.757812 57.617188 89.757812 57.289062 C 89.757812 56.960938 90.027344 56.691406 90.355469 56.691406 Z M 72.9375 91.089844 C 72.9375 91.417969 72.671875 91.683594 72.34375 91.683594 C 72.011719 91.683594 71.746094 91.417969 71.746094 91.089844 L 71.746094 69.71875 C 71.746094 69.390625 72.011719 69.121094 72.34375 69.121094 C 72.671875 69.121094 72.9375 69.390625 72.9375 69.71875 Z M 78.484375 73.421875 C 78.484375 73.753906 78.214844 74.019531 77.886719 74.019531 C 77.558594 74.019531 77.289062 73.753906 77.289062 73.421875 L 77.289062 66.011719 C 77.289062 65.683594 77.558594 65.417969 77.886719 65.417969 C 78.214844 65.417969 78.484375 65.683594 78.484375 66.011719 Z M 78.246094 72.945312 C 78.507812 73.144531 78.5625 73.515625 78.363281 73.78125 C 78.167969 74.042969 77.792969 74.097656 77.53125 73.902344 L 72.582031 70.195312 C 72.316406 69.996094 72.265625 69.625 72.460938 69.359375 C 72.660156 69.097656 73.03125 69.042969 73.296875 69.242188 Z M 78.246094 72.945312 "/>
<path fill-rule="nonzero" fill="rgb(92.941284%, 21.176147%, 14.117432%)" fill-opacity="1" d="M 30.996094 14.679688 C 31.128906 14.984375 30.992188 15.335938 30.6875 15.464844 C 30.386719 15.597656 30.035156 15.460938 29.902344 15.160156 L 29.578125 14.433594 L 29.394531 14.035156 L 29.34375 13.929688 L 29.394531 13.988281 C 29.363281 13.957031 29.628906 14.132812 29.546875 14.09375 C 29.464844 14.054688 30.082031 14.101562 29.929688 14.136719 C 29.773438 14.167969 30.332031 13.839844 30.269531 13.921875 C 30.210938 13.996094 30.378906 13.695312 30.363281 13.738281 C 30.339844 13.820312 30.390625 13.566406 30.390625 13.59375 C 30.386719 13.671875 30.390625 13.539062 30.394531 13.574219 L 31.132812 16.25 L 32.125 19.441406 L 32.671875 20.910156 L 32.839844 21.246094 L 32.785156 21.210938 C 32.816406 21.230469 32.609375 21.148438 32.664062 21.160156 C 32.730469 21.175781 32.390625 21.164062 32.457031 21.152344 C 32.515625 21.140625 32.277344 21.21875 32.3125 21.199219 C 32.375 21.167969 32.210938 21.28125 32.21875 21.269531 L 32.695312 20.109375 L 33.589844 17.683594 L 34.394531 14.796875 C 34.617188 13.917969 34.695312 13.160156 34.902344 12.601562 C 34.960938 12.445312 35.027344 12.289062 35.207031 12.136719 C 35.355469 12.015625 35.628906 11.925781 35.863281 11.992188 C 36.492188 12.171875 36.492188 12.625 36.605469 13.078125 C 36.683594 13.398438 36.488281 13.71875 36.167969 13.800781 C 35.847656 13.878906 35.527344 13.683594 35.445312 13.363281 L 35.34375 13.039062 L 35.421875 13.089844 C 35.355469 13.050781 35.84375 13.140625 35.726562 13.15625 C 35.640625 13.164062 35.988281 13.042969 35.9375 13.078125 C 35.871094 13.125 36.042969 12.972656 36.035156 12.984375 L 36.023438 13.019531 L 35.550781 15.085938 L 34.722656 18.0625 L 33.816406 20.515625 L 33.386719 21.609375 L 33.132812 22.035156 C 33.015625 22.179688 32.742188 22.410156 32.371094 22.316406 C 31.761719 22.164062 31.742188 21.757812 31.582031 21.394531 L 30.996094 19.816406 L 29.996094 16.605469 L 29.382812 14.492188 L 29.234375 13.855469 L 29.203125 13.636719 L 29.226562 13.390625 C 29.253906 13.292969 29.347656 13.046875 29.664062 12.972656 C 29.980469 12.898438 30.148438 13.058594 30.21875 13.125 C 30.558594 13.449219 30.527344 13.65625 30.65625 13.925781 Z M 36.132812 22.140625 C 36.136719 21.8125 36.40625 21.546875 36.738281 21.554688 C 37.066406 21.558594 37.328125 21.828125 37.324219 22.15625 L 37.183594 23.761719 L 37.070312 24.652344 L 37.042969 24.933594 L 37.039062 25.003906 L 37.03125 24.964844 L 37 24.875 C 37.015625 24.910156 36.867188 24.703125 36.910156 24.746094 C 36.949219 24.789062 36.699219 24.605469 36.757812 24.636719 C 36.863281 24.6875 36.375 24.59375 36.453125 24.582031 C 36.511719 24.578125 36.300781 24.628906 36.328125 24.617188 L 36.277344 24.644531 L 36.304688 24.621094 C 36.546875 24.394531 36.925781 24.410156 37.148438 24.652344 C 37.371094 24.894531 37.355469 25.273438 37.113281 25.496094 C 36.996094 25.605469 36.894531 25.734375 36.589844 25.769531 C 36.332031 25.796875 36.003906 25.566406 35.917969 25.382812 C 35.71875 24.9375 35.859375 24.761719 35.882812 24.523438 L 36 23.613281 Z M 38.0625 17.890625 C 38.148438 18.207031 37.960938 18.535156 37.644531 18.621094 C 37.324219 18.707031 37 18.519531 36.914062 18.203125 L 36.773438 17.949219 C 36.679688 17.800781 36.527344 17.535156 36.566406 17.195312 C 36.605469 16.867188 36.898438 16.632812 37.226562 16.671875 C 37.554688 16.710938 37.789062 17.003906 37.75 17.332031 L 37.742188 17.246094 C 37.746094 17.25 37.949219 17.472656 38.0625 17.890625 M 36.105469 202.597656 C 36.164062 202.921875 35.949219 203.230469 35.625 203.289062 C 35.304688 203.347656 34.992188 203.132812 34.933594 202.808594 C 34.824219 202.210938 34.953125 201.714844 34.949219 201.699219 C 34.941406 201.667969 35.054688 201.863281 35.015625 201.816406 C 34.957031 201.75 35.230469 201.929688 35.195312 201.921875 L 35.125 201.9375 L 34.160156 202.367188 L 32.382812 203.402344 L 30.480469 204.636719 C 28.921875 205.722656 28.171875 206.796875 28.03125 207.570312 C 27.859375 208.53125 28.191406 209.546875 28.671875 210.039062 C 28.882812 210.257812 29.09375 210.328125 29.535156 210.273438 C 29.808594 210.238281 30.074219 210.199219 30.398438 210.0625 C 30.984375 209.820312 31.75 209.300781 32.578125 208.703125 C 33.671875 207.914062 34.777344 207.050781 35.675781 206.113281 C 36.222656 205.542969 36.691406 204.925781 37.035156 204.347656 C 37.480469 203.601562 37.691406 202.972656 37.726562 202.574219 L 37.707031 202.269531 C 37.707031 202.265625 37.90625 202.363281 37.839844 202.351562 L 37.800781 202.386719 C 37.503906 202.539062 36.941406 203.125 36.425781 204 L 35.6875 205.398438 C 35.207031 206.414062 34.738281 207.6875 34.242188 208.921875 L 33.609375 210.398438 C 33.054688 211.679688 32.761719 212.519531 32.761719 212.8125 C 32.761719 212.90625 32.648438 212.746094 32.6875 212.769531 L 33.089844 212.789062 C 33.417969 212.773438 33.699219 213.027344 33.714844 213.355469 C 33.734375 213.683594 33.480469 213.964844 33.152344 213.980469 C 32.785156 214 32.441406 213.996094 32.105469 213.808594 C 31.578125 213.515625 31.511719 212.816406 31.644531 212.246094 C 31.785156 211.648438 32.085938 210.914062 32.515625 209.925781 L 33.136719 208.472656 C 33.625 207.261719 34.097656 205.972656 34.609375 204.886719 L 35.398438 203.398438 C 35.789062 202.730469 36.203125 202.1875 36.621094 201.792969 C 37.027344 201.410156 37.460938 201.082031 38.035156 201.175781 C 38.375 201.230469 38.664062 201.492188 38.792969 201.777344 C 39.167969 202.609375 38.816406 203.683594 38.0625 204.957031 C 37.667969 205.625 37.144531 206.304688 36.535156 206.941406 C 35.558594 207.960938 34.398438 208.859375 33.277344 209.671875 C 32.429688 210.285156 31.621094 210.847656 30.855469 211.164062 C 30.394531 211.355469 29.988281 211.417969 29.6875 211.457031 C 28.980469 211.546875 28.285156 211.347656 27.816406 210.871094 C 27.011719 210.046875 26.617188 208.695312 26.859375 207.359375 C 27.082031 206.125 28.082031 204.855469 29.796875 203.65625 L 31.757812 202.386719 L 33.605469 201.3125 C 34.089844 201.058594 34.472656 200.859375 34.863281 200.773438 C 35.085938 200.722656 35.320312 200.703125 35.5625 200.792969 C 35.816406 200.886719 36.023438 201.132812 36.09375 201.363281 C 36.269531 201.964844 36.074219 202.410156 36.105469 202.597656 M 40.046875 207.457031 C 40.105469 207.78125 39.890625 208.09375 39.570312 208.152344 C 39.246094 208.214844 38.933594 208 38.875 207.675781 L 38.867188 207.601562 C 38.847656 207.574219 39.035156 207.746094 38.976562 207.707031 C 38.921875 207.671875 39.261719 207.796875 39.183594 207.785156 C 39.113281 207.777344 39.421875 207.761719 39.367188 207.773438 C 39.28125 207.796875 39.550781 207.679688 39.527344 207.699219 L 39.453125 207.839844 C 38.972656 208.847656 38.601562 211.34375 38.289062 212.285156 C 38.183594 212.597656 37.847656 212.765625 37.535156 212.660156 C 37.222656 212.558594 37.054688 212.21875 37.15625 211.90625 C 37.378906 211.242188 37.730469 208.6875 38.378906 207.328125 C 38.5 207.070312 38.566406 206.753906 39.066406 206.621094 C 39.355469 206.546875 39.714844 206.730469 39.847656 206.921875 C 39.96875 207.097656 40.011719 207.269531 40.046875 207.457031 M 36.332031 224.882812 C 36.347656 225.210938 36.097656 225.492188 35.769531 225.511719 C 35.4375 225.527344 35.15625 225.277344 35.140625 224.949219 C 35.121094 224.582031 35.222656 224.359375 35.238281 224.175781 L 35.242188 224.011719 L 35.246094 224.027344 L 35.292969 224.101562 C 35.257812 224.058594 35.445312 224.214844 35.410156 224.195312 C 35.355469 224.164062 35.519531 224.230469 35.511719 224.230469 L 35.246094 224.253906 C 35.058594 224.28125 34.753906 224.382812 34.3125 224.632812 L 32.347656 225.855469 L 30.5 227.25 C 29.910156 227.742188 29.378906 228.238281 28.972656 228.714844 C 27.765625 230.144531 27.941406 231.183594 28.390625 231.78125 C 28.675781 232.164062 29.0625 232.40625 29.601562 232.46875 C 29.949219 232.511719 30.300781 232.511719 30.71875 232.378906 C 31.933594 231.988281 33.664062 230.570312 35.191406 229.148438 C 35.8125 228.570312 36.371094 228.011719 36.765625 227.5 C 37.472656 226.578125 37.574219 225.617188 37.402344 225.167969 C 37.3125 224.929688 37.316406 224.9375 37.011719 225.035156 C 36.644531 225.152344 36.082031 225.566406 35.53125 226.234375 C 34.96875 226.914062 34.394531 227.734375 33.925781 228.660156 C 33.449219 229.601562 33.117188 230.710938 32.839844 231.765625 L 32.457031 233.390625 L 32.273438 234.773438 C 32.289062 234.921875 32.191406 234.800781 32.3125 234.835938 C 32.628906 234.925781 32.8125 235.253906 32.71875 235.570312 C 32.628906 235.886719 32.296875 236.070312 31.980469 235.980469 C 31.535156 235.851562 31.132812 235.363281 31.085938 234.886719 C 31.042969 234.40625 31.148438 233.882812 31.289062 233.160156 L 31.6875 231.460938 C 31.972656 230.375 32.320312 229.191406 32.863281 228.121094 C 33.378906 227.101562 34.003906 226.210938 34.613281 225.472656 C 35.257812 224.691406 35.9375 224.128906 36.644531 223.898438 C 37.347656 223.675781 38.238281 224.007812 38.515625 224.738281 C 38.886719 225.710938 38.625 227.039062 37.710938 228.226562 C 37.246094 228.832031 36.644531 229.421875 36.003906 230.019531 C 34.433594 231.484375 32.699219 232.992188 31.082031 233.511719 C 30.472656 233.710938 29.914062 233.707031 29.464844 233.65625 C 28.613281 233.554688 27.898438 233.113281 27.4375 232.5 C 26.675781 231.484375 26.597656 229.679688 28.0625 227.945312 C 28.535156 227.390625 29.113281 226.851562 29.738281 226.332031 L 31.671875 224.871094 L 33.730469 223.589844 C 34.253906 223.296875 34.683594 223.125 35.09375 223.074219 L 35.5 223.035156 C 35.671875 223.039062 35.933594 223.03125 36.175781 223.300781 C 36.488281 223.644531 36.449219 224.019531 36.425781 224.28125 Z M 37.058594 231.566406 C 37.128906 231.890625 36.925781 232.207031 36.601562 232.277344 C 36.28125 232.347656 35.960938 232.140625 35.894531 231.820312 C 35.824219 231.5 35.6875 231.144531 35.929688 230.6875 C 36.121094 230.332031 36.492188 230.234375 36.765625 230.242188 C 37.039062 230.25 37.300781 230.34375 37.527344 230.535156 C 37.992188 230.933594 37.988281 231.445312 38.027344 231.902344 C 38.046875 232.183594 38.089844 232.566406 38.019531 233.015625 C 37.859375 234.046875 37.230469 235.015625 36.761719 235.835938 L 35.984375 237.082031 L 35.886719 237.269531 L 35.890625 237.234375 C 35.886719 237.269531 35.863281 237.015625 35.878906 237.078125 C 35.902344 237.15625 35.757812 236.894531 35.785156 236.917969 L 36.078125 236.980469 C 36.523438 237.046875 37.183594 237.015625 37.777344 236.957031 L 39.03125 236.820312 C 39.359375 236.820312 39.628906 237.085938 39.625 237.417969 C 39.625 237.746094 39.359375 238.011719 39.03125 238.011719 C 38.917969 238.011719 37.183594 238.355469 35.902344 238.160156 L 35.296875 238 C 35.089844 237.910156 34.828125 237.742188 34.730469 237.402344 C 34.601562 236.949219 34.820312 236.714844 34.941406 236.503906 L 35.726562 235.246094 C 36.199219 234.414062 36.738281 233.496094 36.84375 232.832031 L 36.835938 231.996094 L 36.765625 231.53125 L 36.75 231.441406 L 36.730469 231.433594 L 36.808594 231.414062 C 36.757812 231.4375 37.03125 231.160156 36.984375 231.25 L 37.007812 231.1875 Z M 33.113281 159.835938 C 33.148438 160.160156 32.914062 160.457031 32.589844 160.496094 C 32.261719 160.535156 31.964844 160.300781 31.925781 159.972656 L 31.871094 159.628906 L 31.882812 159.660156 L 31.925781 159.730469 C 31.902344 159.699219 32.101562 159.894531 32.039062 159.847656 C 31.984375 159.804688 32.425781 159.976562 32.304688 159.960938 C 32.199219 159.945312 32.722656 159.875 32.628906 159.914062 C 32.550781 159.949219 32.847656 159.75 32.804688 159.792969 C 32.738281 159.859375 32.933594 159.597656 32.914062 159.636719 C 32.894531 159.683594 32.949219 159.539062 32.945312 159.550781 C 32.890625 159.996094 33.027344 161.65625 33.296875 163.433594 L 33.808594 165.988281 L 34.25 167.445312 L 34.296875 167.542969 C 34.363281 167.582031 34.058594 167.527344 34.078125 167.519531 C 34.636719 167.277344 36.417969 164.378906 37.851562 161.730469 L 39.007812 159.527344 C 39.414062 158.792969 39.597656 158.296875 40.175781 158.042969 C 40.339844 157.972656 40.625 157.945312 40.84375 158.078125 C 41.152344 158.265625 41.195312 158.519531 41.230469 158.710938 L 41.261719 159.332031 C 41.253906 159.664062 40.976562 159.921875 40.648438 159.914062 C 40.320312 159.902344 40.058594 159.628906 40.070312 159.300781 L 40.050781 158.902344 L 40.070312 158.941406 L 40.128906 159.023438 C 40.070312 158.960938 40.542969 159.179688 40.425781 159.167969 C 40.324219 159.15625 40.691406 159.121094 40.648438 159.140625 C 40.582031 159.167969 40.710938 159.101562 40.683594 159.125 L 40.054688 160.101562 L 38.898438 162.296875 C 38.179688 163.625 37.40625 165.015625 36.65625 166.195312 C 35.929688 167.335938 35.363281 168.261719 34.550781 168.613281 C 34.292969 168.722656 33.929688 168.71875 33.675781 168.5625 C 32.96875 168.128906 32.90625 167.328125 32.648438 166.269531 L 32.117188 163.613281 L 31.808594 161.0625 C 31.746094 160.34375 31.710938 159.796875 31.761719 159.40625 L 31.796875 159.226562 C 31.820312 159.160156 31.832031 159.054688 32.003906 158.914062 C 32.175781 158.769531 32.570312 158.765625 32.738281 158.878906 C 33.164062 159.171875 33.015625 159.28125 33.042969 159.40625 Z M 33.113281 159.835938 "/>
<path fill-rule="nonzero" fill="rgb(7.058716%, 1.176453%, 46.665955%)" fill-opacity="1" d="M 76.777344 72.160156 C 76.457031 72.089844 76.253906 71.769531 76.324219 71.449219 C 76.394531 71.128906 76.710938 70.925781 77.035156 70.996094 C 77.515625 71.101562 77.453125 71.277344 77.492188 71.328125 C 77.539062 71.386719 77.566406 71.441406 77.582031 71.46875 C 77.59375 71.488281 77.503906 71.371094 77.550781 71.429688 C 77.761719 71.683594 77.722656 72.058594 77.464844 72.265625 C 77.210938 72.476562 76.835938 72.4375 76.625 72.179688 C 76.503906 72.027344 76.589844 72.109375 76.550781 72.0625 C 76.527344 72.027344 76.523438 72.027344 76.519531 72.019531 C 76.515625 72.015625 76.59375 72.085938 76.566406 72.0625 C 76.546875 72.046875 76.667969 72.125 76.636719 72.105469 C 76.601562 72.089844 76.839844 72.171875 76.777344 72.160156 M 77.644531 72.027344 C 77.515625 72.332031 77.167969 72.476562 76.863281 72.347656 C 76.558594 72.222656 76.414062 71.871094 76.542969 71.566406 C 76.542969 71.5625 76.542969 71.566406 76.550781 71.550781 C 76.542969 71.570312 76.539062 71.578125 76.539062 71.578125 C 76.539062 71.578125 76.535156 71.601562 76.535156 71.589844 C 76.539062 71.527344 76.542969 71.46875 76.542969 71.421875 C 76.546875 71.160156 76.546875 70.867188 76.542969 70.515625 C 76.542969 70.203125 76.542969 69.855469 76.542969 69.503906 C 76.542969 69.269531 76.542969 69.042969 76.542969 68.839844 C 76.542969 68.691406 76.546875 68.5625 76.542969 68.449219 C 76.542969 68.300781 76.542969 68.191406 76.53125 68.121094 C 76.53125 68.105469 76.515625 68.050781 76.492188 67.964844 C 76.472656 67.910156 76.460938 67.867188 76.457031 67.847656 C 76.457031 67.84375 76.472656 67.890625 76.464844 67.867188 C 76.460938 67.855469 76.507812 67.949219 76.492188 67.925781 C 76.476562 67.898438 76.625 68.082031 76.578125 68.035156 C 76.546875 68.003906 76.828125 68.191406 76.738281 68.148438 C 76.441406 68.003906 76.316406 67.648438 76.460938 67.351562 C 76.601562 67.054688 76.960938 66.929688 77.257812 67.074219 C 77.351562 67.121094 77.398438 67.167969 77.425781 67.199219 C 77.753906 67.523438 77.617188 67.566406 77.632812 67.625 C 77.65625 67.695312 77.695312 67.808594 77.714844 67.964844 C 77.738281 68.140625 77.734375 68.296875 77.738281 68.441406 C 77.738281 68.5625 77.738281 68.691406 77.738281 68.839844 C 77.738281 69.042969 77.738281 69.269531 77.738281 69.503906 C 77.738281 69.863281 77.734375 70.207031 77.738281 70.507812 C 77.738281 70.863281 77.742188 71.164062 77.738281 71.4375 C 77.734375 71.523438 77.730469 71.597656 77.726562 71.652344 C 77.722656 71.765625 77.699219 71.855469 77.679688 71.921875 C 77.671875 71.957031 77.660156 71.984375 77.652344 72.007812 C 77.636719 72.039062 77.648438 72.015625 77.644531 72.027344 M 76.828125 67.039062 C 77.144531 66.949219 77.472656 67.132812 77.5625 67.449219 C 77.652344 67.765625 77.46875 68.097656 77.152344 68.183594 C 77.085938 68.203125 77.335938 68.097656 77.300781 68.121094 C 77.265625 68.140625 77.386719 68.054688 77.371094 68.066406 C 77.347656 68.09375 77.503906 67.894531 77.492188 67.917969 C 77.480469 67.941406 77.511719 67.878906 77.511719 67.882812 C 77.492188 67.925781 77.511719 67.886719 77.492188 67.96875 C 77.417969 68.269531 77.3125 68.621094 77.261719 69.054688 C 77.21875 69.425781 77.238281 69.917969 77.222656 70.433594 C 77.214844 70.695312 77.195312 70.953125 77.152344 71.195312 C 77.121094 71.367188 77.070312 71.507812 77.023438 71.617188 C 76.988281 71.695312 76.953125 71.773438 76.867188 71.863281 C 76.832031 71.902344 76.792969 71.9375 76.738281 71.976562 C 76.582031 72.066406 76.429688 72.101562 76.277344 72.074219 C 75.953125 72.019531 75.738281 71.707031 75.792969 71.382812 C 75.851562 71.058594 76.160156 70.84375 76.484375 70.902344 C 76.558594 70.914062 76.214844 70.914062 76.277344 70.902344 C 76.34375 70.890625 76.070312 70.988281 76.113281 70.960938 C 76.101562 70.96875 75.96875 71.078125 75.984375 71.0625 C 76.035156 71.007812 75.929688 71.140625 75.929688 71.136719 C 75.945312 71.105469 75.96875 71.042969 75.980469 70.980469 C 76.007812 70.832031 76.023438 70.621094 76.03125 70.394531 C 76.046875 69.933594 76.019531 69.421875 76.078125 68.921875 C 76.140625 68.371094 76.269531 67.941406 76.335938 67.679688 C 76.347656 67.636719 76.351562 67.5625 76.40625 67.429688 C 76.425781 67.382812 76.433594 67.320312 76.558594 67.195312 C 76.628906 67.132812 76.691406 67.074219 76.828125 67.039062 M 76.890625 71.183594 C 77.054688 71.46875 76.960938 71.832031 76.675781 72 C 76.390625 72.164062 76.027344 72.070312 75.859375 71.785156 C 75.8125 71.699219 75.792969 71.628906 75.785156 71.578125 C 75.769531 71.503906 75.769531 71.460938 75.769531 71.417969 C 75.773438 71.335938 75.78125 71.265625 75.792969 71.1875 C 75.800781 71.140625 75.789062 71.285156 75.789062 71.273438 C 75.785156 71.253906 75.765625 71.214844 75.746094 71.070312 C 75.730469 70.957031 75.71875 70.847656 75.710938 70.71875 C 75.695312 70.566406 75.6875 70.398438 75.679688 70.210938 C 75.667969 69.902344 75.667969 69.5625 75.664062 69.269531 C 75.660156 69.125 75.652344 68.988281 75.644531 68.863281 C 75.640625 68.765625 75.640625 68.6875 75.640625 68.683594 C 75.636719 68.648438 75.640625 68.664062 75.636719 68.644531 C 75.636719 68.636719 75.644531 68.6875 75.640625 68.671875 C 75.636719 68.652344 75.703125 68.839844 75.675781 68.78125 C 75.542969 68.476562 75.679688 68.125 75.980469 67.992188 C 76.285156 67.859375 76.636719 67.996094 76.769531 68.296875 C 76.820312 68.417969 76.8125 68.449219 76.816406 68.472656 C 76.824219 68.527344 76.824219 68.550781 76.828125 68.574219 C 76.835938 68.671875 76.835938 68.738281 76.839844 68.8125 C 76.84375 68.925781 76.851562 69.074219 76.855469 69.246094 C 76.863281 69.550781 76.863281 69.886719 76.871094 70.164062 C 76.878906 70.34375 76.886719 70.5 76.898438 70.617188 C 76.90625 70.730469 76.917969 70.816406 76.929688 70.910156 C 76.929688 70.917969 77.019531 71.042969 76.972656 71.371094 C 76.964844 71.402344 76.964844 71.425781 76.964844 71.429688 C 76.964844 71.4375 76.9375 71.273438 76.953125 71.34375 C 76.964844 71.402344 76.851562 71.117188 76.894531 71.1875 C 76.894531 71.1875 76.890625 71.179688 76.890625 71.183594 M 76.214844 67.9375 C 76.546875 67.9375 76.8125 68.203125 76.8125 68.535156 C 76.8125 68.863281 76.546875 69.128906 76.214844 69.128906 C 76.125 69.128906 76.511719 69.054688 76.449219 69.082031 C 76.363281 69.117188 76.648438 68.941406 76.617188 68.972656 C 76.585938 69 76.6875 68.890625 76.675781 68.90625 C 76.597656 68.996094 76.722656 68.835938 76.710938 68.851562 C 76.703125 68.867188 76.722656 68.832031 76.722656 68.832031 C 76.710938 68.859375 76.726562 68.820312 76.71875 68.847656 C 76.699219 68.90625 76.667969 69.007812 76.625 69.121094 C 76.53125 69.371094 76.410156 69.617188 76.3125 69.851562 C 76.183594 70.152344 76.082031 70.4375 76.042969 70.652344 C 76.027344 70.714844 76.027344 70.796875 76.027344 70.917969 C 76.023438 71.011719 76.023438 71.097656 76.027344 71.175781 C 76.027344 71.308594 76.027344 71.417969 76.027344 71.464844 C 76.027344 71.464844 76.027344 71.46875 76.027344 71.476562 C 76.019531 71.804688 75.75 72.066406 75.417969 72.0625 C 75.089844 72.054688 74.828125 71.785156 74.832031 71.457031 C 74.832031 71.453125 74.832031 71.464844 74.832031 71.464844 C 74.832031 71.398438 74.835938 71.304688 74.832031 71.191406 C 74.832031 71.101562 74.832031 71.003906 74.832031 70.90625 C 74.835938 70.789062 74.832031 70.621094 74.871094 70.421875 C 74.9375 70.074219 75.066406 69.730469 75.210938 69.386719 C 75.324219 69.121094 75.441406 68.875 75.507812 68.699219 C 75.535156 68.632812 75.558594 68.546875 75.589844 68.460938 C 75.605469 68.417969 75.617188 68.375 75.652344 68.304688 C 75.664062 68.285156 75.667969 68.246094 75.761719 68.140625 C 75.769531 68.125 75.855469 67.9375 76.214844 67.9375 M 76.023438 71.414062 C 76.050781 71.742188 75.808594 72.03125 75.480469 72.058594 C 75.152344 72.089844 74.863281 71.84375 74.835938 71.515625 C 74.832031 71.496094 74.832031 71.488281 74.832031 71.480469 C 74.832031 71.449219 74.832031 71.414062 74.828125 71.371094 C 74.828125 71.277344 74.828125 71.148438 74.835938 71.003906 C 74.851562 70.554688 74.933594 70.0625 74.988281 69.667969 C 75.003906 69.539062 75.019531 69.425781 75.027344 69.332031 C 75.039062 69.238281 75.050781 69.3125 75.042969 69.253906 C 75.03125 69.179688 75.03125 69.160156 75.03125 69.148438 C 75.027344 69.136719 75.066406 69.292969 75.050781 69.242188 C 75.03125 69.183594 75.277344 69.542969 75.195312 69.464844 C 75.121094 69.398438 75.472656 69.605469 75.40625 69.585938 C 75.339844 69.566406 75.601562 69.601562 75.5625 69.601562 C 75.484375 69.609375 75.761719 69.53125 75.722656 69.554688 C 75.664062 69.589844 75.875 69.421875 75.851562 69.449219 C 75.816406 69.488281 75.890625 69.394531 75.890625 69.398438 C 75.886719 69.402344 75.875 69.425781 75.851562 69.464844 C 75.75 69.625 75.636719 69.828125 75.570312 70.015625 C 75.519531 70.152344 75.472656 70.265625 75.441406 70.351562 C 75.394531 70.476562 75.367188 70.597656 75.308594 70.738281 C 75.304688 70.75 75.355469 70.71875 75.230469 70.933594 C 75.0625 71.21875 74.699219 71.3125 74.414062 71.148438 C 74.128906 70.984375 74.03125 70.617188 74.199219 70.332031 C 74.230469 70.277344 74.15625 70.429688 74.15625 70.417969 C 74.160156 70.410156 74.171875 70.363281 74.207031 70.28125 C 74.214844 70.265625 74.257812 70.117188 74.316406 69.949219 C 74.363281 69.820312 74.414062 69.707031 74.449219 69.605469 C 74.5625 69.296875 74.714844 69.035156 74.835938 68.839844 C 74.84375 68.824219 74.824219 68.703125 75.117188 68.527344 C 75.226562 68.464844 75.34375 68.421875 75.484375 68.414062 C 75.632812 68.402344 75.84375 68.433594 76.015625 68.601562 C 76.199219 68.773438 76.207031 68.949219 76.214844 69.019531 C 76.222656 69.078125 76.21875 69.054688 76.21875 69.070312 C 76.246094 69.25 76.226562 69.355469 76.214844 69.449219 C 76.203125 69.570312 76.1875 69.699219 76.167969 69.832031 C 76.113281 70.238281 76.039062 70.707031 76.027344 71.050781 C 76.019531 71.171875 76.019531 71.277344 76.023438 71.351562 C 76.023438 71.386719 76.023438 71.414062 76.023438 71.421875 C 76.023438 71.425781 76.023438 71.398438 76.023438 71.414062 M 75.285156 70.464844 C 75.375 70.78125 75.191406 71.113281 74.875 71.203125 C 74.558594 71.292969 74.226562 71.109375 74.136719 70.792969 C 74.125 70.75 74.121094 70.714844 74.117188 70.683594 C 74.109375 70.625 74.105469 70.566406 74.109375 70.496094 C 74.109375 70.496094 74.105469 70.414062 74.109375 70.304688 C 74.113281 70.207031 74.109375 70.09375 74.109375 69.964844 C 74.109375 69.921875 74.109375 69.878906 74.109375 69.835938 C 74.109375 69.726562 74.117188 69.714844 74.113281 69.683594 C 74.105469 69.609375 74.105469 69.558594 74.105469 69.542969 C 74.105469 69.539062 74.113281 69.605469 74.109375 69.574219 C 74.105469 69.558594 74.132812 69.6875 74.125 69.652344 C 74.113281 69.613281 74.226562 69.863281 74.1875 69.800781 C 74.015625 69.519531 74.101562 69.152344 74.382812 68.980469 C 74.660156 68.808594 75.027344 68.894531 75.203125 69.171875 C 75.472656 69.609375 75.296875 69.539062 75.296875 69.554688 C 75.3125 69.699219 75.300781 69.769531 75.300781 69.835938 C 75.300781 69.878906 75.300781 69.921875 75.300781 69.96875 C 75.300781 70.078125 75.304688 70.199219 75.300781 70.332031 C 75.300781 70.386719 75.304688 70.449219 75.300781 70.558594 C 75.300781 70.5625 75.292969 70.5 75.296875 70.527344 C 75.300781 70.550781 75.273438 70.429688 75.285156 70.464844 M 74.226562 69.117188 C 74.433594 68.859375 74.808594 68.820312 75.0625 69.027344 C 75.320312 69.230469 75.363281 69.609375 75.15625 69.863281 C 75.140625 69.882812 75.136719 69.886719 75.132812 69.894531 C 75.128906 69.894531 75.125 69.902344 75.113281 69.917969 C 75.089844 69.945312 75.070312 69.976562 75.0625 69.984375 C 74.992188 70.101562 74.980469 70.089844 74.953125 70.148438 C 74.9375 70.1875 74.925781 70.207031 74.921875 70.214844 C 74.921875 70.214844 74.9375 70.183594 74.929688 70.199219 C 74.921875 70.214844 74.972656 70.011719 74.960938 70.082031 C 74.910156 70.40625 74.601562 70.628906 74.277344 70.574219 C 73.953125 70.519531 73.730469 70.214844 73.785156 69.890625 C 73.828125 69.628906 73.863281 69.667969 73.863281 69.664062 C 73.941406 69.488281 74.007812 69.425781 74.050781 69.355469 C 74.097656 69.28125 74.140625 69.222656 74.179688 69.175781 C 74.191406 69.15625 74.207031 69.140625 74.230469 69.113281 C 74.234375 69.109375 74.21875 69.128906 74.226562 69.117188 M 74.722656 70.46875 C 74.453125 70.65625 74.082031 70.589844 73.890625 70.320312 C 73.703125 70.050781 73.769531 69.675781 74.042969 69.488281 C 74.046875 69.484375 74.054688 69.480469 74.058594 69.476562 C 74.046875 69.484375 74.066406 69.472656 74.082031 69.460938 C 74.070312 69.46875 74.074219 69.464844 74.078125 69.460938 C 74.136719 69.40625 74.183594 69.367188 74.261719 69.320312 C 74.285156 69.300781 74.34375 69.277344 74.371094 69.265625 C 74.523438 69.21875 74.667969 69.160156 74.917969 69.308594 C 75.199219 69.480469 75.289062 69.847656 75.121094 70.128906 C 74.949219 70.410156 74.582031 70.5 74.300781 70.328125 C 74.238281 70.292969 74.527344 70.410156 74.476562 70.398438 C 74.402344 70.382812 74.691406 70.410156 74.648438 70.414062 C 74.609375 70.414062 74.773438 70.390625 74.746094 70.394531 C 74.804688 70.375 74.941406 70.296875 74.902344 70.324219 C 74.835938 70.367188 74.90625 70.320312 74.902344 70.320312 C 74.851562 70.375 74.796875 70.414062 74.769531 70.4375 C 74.734375 70.460938 74.785156 70.421875 74.761719 70.441406 C 74.703125 70.480469 74.726562 70.464844 74.722656 70.46875 M 72.9375 99.953125 C 72.9375 100.28125 72.671875 100.546875 72.34375 100.546875 C 72.011719 100.546875 71.746094 100.28125 71.746094 99.953125 L 71.746094 89.453125 C 71.746094 89.125 72.011719 88.859375 72.34375 88.859375 C 72.671875 88.859375 72.9375 89.125 72.9375 89.453125 Z M 72.9375 99.953125 "/>
<path fill-rule="nonzero" fill="rgb(7.058716%, 1.176453%, 46.665955%)" fill-opacity="1" d="M 77.53125 65.535156 C 77.792969 65.339844 78.167969 65.390625 78.363281 65.65625 C 78.5625 65.917969 78.507812 66.292969 78.246094 66.488281 L 73.296875 70.195312 C 73.03125 70.394531 72.660156 70.339844 72.460938 70.074219 C 72.265625 69.8125 72.316406 69.4375 72.582031 69.242188 Z M 109.988281 154.808594 C 109.660156 154.808594 109.394531 154.542969 109.394531 154.214844 C 109.394531 153.882812 109.660156 153.617188 109.988281 153.617188 L 124.351562 153.617188 C 124.679688 153.617188 124.945312 153.882812 124.945312 154.214844 C 124.945312 154.542969 124.679688 154.808594 124.351562 154.808594 Z M 124.945312 154.214844 C 124.945312 154.542969 124.679688 154.808594 124.351562 154.808594 C 124.023438 154.808594 123.753906 154.542969 123.753906 154.214844 L 123.753906 129.355469 C 123.753906 129.027344 124.023438 128.761719 124.351562 128.761719 C 124.679688 128.761719 124.945312 129.027344 124.945312 129.355469 Z M 124.351562 128.761719 C 124.679688 128.761719 124.945312 129.027344 124.945312 129.355469 C 124.945312 129.683594 124.679688 129.953125 124.351562 129.953125 L 109.988281 129.953125 C 109.660156 129.953125 109.394531 129.683594 109.394531 129.355469 C 109.394531 129.027344 109.660156 128.761719 109.988281 128.761719 Z M 110.585938 129.355469 C 110.585938 129.683594 110.320312 129.953125 109.988281 129.953125 C 109.660156 129.953125 109.394531 129.683594 109.394531 129.355469 L 109.394531 107.984375 C 109.394531 107.65625 109.660156 107.390625 109.988281 107.390625 C 110.320312 107.390625 110.585938 107.65625 110.585938 107.984375 Z M 128.601562 153.226562 C 128.601562 153.558594 128.332031 153.824219 128.003906 153.824219 C 127.675781 153.824219 127.40625 153.558594 127.40625 153.226562 L 127.40625 130.339844 C 127.40625 130.011719 127.675781 129.746094 128.003906 129.746094 C 128.332031 129.746094 128.601562 130.011719 128.601562 130.339844 Z M 147.648438 141.1875 C 147.976562 141.1875 148.246094 141.457031 148.246094 141.785156 C 148.246094 142.113281 147.976562 142.382812 147.648438 142.382812 L 128.003906 142.382812 C 127.675781 142.382812 127.40625 142.113281 127.40625 141.785156 C 127.40625 141.457031 127.675781 141.1875 128.003906 141.1875 Z M 110.585938 175.582031 C 110.585938 175.914062 110.320312 176.179688 109.988281 176.179688 C 109.660156 176.179688 109.394531 175.914062 109.394531 175.582031 L 109.394531 154.214844 C 109.394531 153.882812 109.660156 153.617188 109.988281 153.617188 C 110.320312 153.617188 110.585938 153.882812 110.585938 154.214844 Z M 116.128906 157.917969 C 116.128906 158.246094 115.863281 158.515625 115.535156 158.515625 C 115.203125 158.515625 114.9375 158.246094 114.9375 157.917969 L 114.9375 150.507812 C 114.9375 150.179688 115.203125 149.910156 115.535156 149.910156 C 115.863281 149.910156 116.128906 150.179688 116.128906 150.507812 Z M 115.890625 157.441406 C 116.15625 157.636719 116.210938 158.011719 116.011719 158.277344 C 115.8125 158.539062 115.441406 158.59375 115.175781 158.394531 L 110.230469 154.691406 C 109.964844 154.492188 109.910156 154.121094 110.109375 153.855469 C 110.304688 153.59375 110.679688 153.539062 110.945312 153.734375 Z M 115.890625 157.441406 "/>
<path fill-rule="nonzero" fill="rgb(7.058716%, 1.176453%, 46.665955%)" fill-opacity="1" d="M 114.425781 156.65625 C 114.101562 156.582031 113.898438 156.265625 113.96875 155.945312 C 114.042969 155.621094 114.359375 155.417969 114.679688 155.488281 C 115.164062 155.597656 115.101562 155.773438 115.140625 155.824219 C 115.1875 155.882812 115.214844 155.933594 115.230469 155.960938 C 115.242188 155.984375 115.152344 155.867188 115.199219 155.921875 C 115.40625 156.179688 115.367188 156.554688 115.113281 156.761719 C 114.859375 156.96875 114.480469 156.933594 114.273438 156.675781 C 114.148438 156.523438 114.238281 156.605469 114.199219 156.558594 C 114.171875 156.523438 114.171875 156.519531 114.167969 156.515625 C 114.160156 156.507812 114.242188 156.578125 114.210938 156.554688 C 114.195312 156.542969 114.316406 156.621094 114.28125 156.601562 C 114.25 156.585938 114.484375 156.667969 114.425781 156.65625 M 115.289062 156.523438 C 115.164062 156.828125 114.8125 156.96875 114.511719 156.84375 C 114.207031 156.714844 114.0625 156.367188 114.191406 156.0625 C 114.191406 156.058594 114.191406 156.0625 114.195312 156.046875 C 114.1875 156.0625 114.1875 156.074219 114.1875 156.074219 C 114.1875 156.074219 114.183594 156.097656 114.183594 156.085938 C 114.1875 156.023438 114.191406 155.964844 114.191406 155.917969 C 114.195312 155.65625 114.195312 155.363281 114.191406 155.011719 C 114.191406 154.699219 114.191406 154.351562 114.191406 154 C 114.191406 153.765625 114.191406 153.535156 114.191406 153.335938 C 114.191406 153.183594 114.191406 153.058594 114.191406 152.945312 C 114.191406 152.796875 114.191406 152.6875 114.179688 152.617188 C 114.179688 152.601562 114.164062 152.546875 114.136719 152.460938 C 114.121094 152.40625 114.109375 152.359375 114.105469 152.34375 C 114.105469 152.339844 114.121094 152.386719 114.113281 152.363281 C 114.109375 152.351562 114.15625 152.445312 114.140625 152.417969 C 114.125 152.390625 114.269531 152.574219 114.226562 152.53125 C 114.195312 152.5 114.476562 152.6875 114.382812 152.644531 C 114.089844 152.5 113.964844 152.144531 114.105469 151.847656 C 114.25 151.550781 114.605469 151.425781 114.902344 151.570312 C 115 151.617188 115.042969 151.664062 115.074219 151.691406 C 115.398438 152.019531 115.261719 152.058594 115.28125 152.121094 C 115.300781 152.191406 115.34375 152.304688 115.363281 152.460938 C 115.386719 152.636719 115.382812 152.789062 115.382812 152.9375 C 115.386719 153.058594 115.382812 153.1875 115.382812 153.335938 C 115.382812 153.535156 115.382812 153.765625 115.382812 154 C 115.382812 154.355469 115.382812 154.703125 115.382812 155 C 115.386719 155.355469 115.386719 155.65625 115.382812 155.933594 C 115.382812 156.019531 115.378906 156.09375 115.375 156.148438 C 115.371094 156.261719 115.347656 156.351562 115.328125 156.417969 C 115.316406 156.449219 115.308594 156.480469 115.296875 156.503906 C 115.285156 156.535156 115.292969 156.511719 115.289062 156.523438 M 114.476562 151.53125 C 114.792969 151.441406 115.121094 151.628906 115.210938 151.945312 C 115.300781 152.261719 115.117188 152.589844 114.796875 152.679688 C 114.730469 152.699219 114.984375 152.59375 114.949219 152.613281 C 114.914062 152.636719 115.035156 152.550781 115.019531 152.5625 C 114.992188 152.589844 115.152344 152.390625 115.140625 152.414062 C 115.128906 152.433594 115.160156 152.371094 115.15625 152.378906 C 115.140625 152.421875 115.160156 152.382812 115.140625 152.464844 C 115.066406 152.765625 114.960938 153.113281 114.910156 153.550781 C 114.867188 153.921875 114.886719 154.414062 114.871094 154.929688 C 114.863281 155.191406 114.84375 155.449219 114.800781 155.691406 C 114.769531 155.863281 114.71875 156.003906 114.671875 156.113281 C 114.636719 156.191406 114.597656 156.265625 114.515625 156.359375 C 114.480469 156.398438 114.441406 156.433594 114.386719 156.472656 C 114.230469 156.5625 114.078125 156.597656 113.925781 156.570312 C 113.601562 156.511719 113.382812 156.203125 113.441406 155.878906 C 113.5 155.554688 113.808594 155.339844 114.132812 155.398438 C 114.203125 155.410156 113.863281 155.410156 113.925781 155.398438 C 113.988281 155.386719 113.714844 155.484375 113.761719 155.457031 C 113.75 155.460938 113.617188 155.574219 113.632812 155.554688 C 113.683594 155.503906 113.578125 155.636719 113.578125 155.632812 C 113.59375 155.597656 113.613281 155.539062 113.625 155.476562 C 113.652344 155.328125 113.671875 155.117188 113.679688 154.890625 C 113.695312 154.429688 113.667969 153.914062 113.726562 153.417969 C 113.789062 152.867188 113.917969 152.4375 113.984375 152.175781 C 113.992188 152.132812 114 152.058594 114.054688 151.925781 C 114.074219 151.878906 114.082031 151.816406 114.207031 151.691406 C 114.277344 151.625 114.339844 151.570312 114.476562 151.53125 M 114.539062 155.679688 C 114.703125 155.960938 114.609375 156.328125 114.324219 156.492188 C 114.039062 156.660156 113.675781 156.566406 113.507812 156.28125 C 113.460938 156.195312 113.441406 156.121094 113.429688 156.070312 C 113.414062 155.996094 113.417969 155.957031 113.417969 155.914062 C 113.417969 155.832031 113.425781 155.761719 113.4375 155.683594 C 113.445312 155.636719 113.4375 155.78125 113.4375 155.769531 C 113.433594 155.75 113.414062 155.710938 113.394531 155.566406 C 113.378906 155.453125 113.367188 155.339844 113.355469 155.210938 C 113.34375 155.0625 113.335938 154.894531 113.328125 154.707031 C 113.316406 154.398438 113.316406 154.058594 113.308594 153.765625 C 113.308594 153.617188 113.300781 153.484375 113.292969 153.359375 C 113.289062 153.257812 113.289062 153.183594 113.289062 153.179688 C 113.285156 153.140625 113.289062 153.160156 113.285156 153.136719 C 113.285156 153.132812 113.292969 153.183594 113.289062 153.167969 C 113.285156 153.148438 113.351562 153.335938 113.324219 153.273438 C 113.191406 152.972656 113.328125 152.621094 113.628906 152.488281 C 113.929688 152.355469 114.28125 152.492188 114.414062 152.792969 C 114.46875 152.914062 114.460938 152.941406 114.464844 152.96875 C 114.472656 153.023438 114.472656 153.046875 114.476562 153.070312 C 114.484375 153.167969 114.480469 153.234375 114.484375 153.308594 C 114.492188 153.421875 114.5 153.570312 114.503906 153.742188 C 114.507812 154.046875 114.507812 154.382812 114.519531 154.65625 C 114.527344 154.839844 114.535156 154.992188 114.546875 155.113281 C 114.554688 155.226562 114.5625 155.3125 114.578125 155.402344 C 114.578125 155.414062 114.667969 155.539062 114.617188 155.863281 C 114.613281 155.898438 114.613281 155.917969 114.609375 155.925781 C 114.609375 155.929688 114.585938 155.765625 114.601562 155.839844 C 114.613281 155.894531 114.5 155.613281 114.542969 155.683594 C 114.539062 155.683594 114.535156 155.675781 114.539062 155.679688 M 113.863281 152.433594 C 114.191406 152.433594 114.460938 152.699219 114.460938 153.027344 C 114.460938 153.359375 114.191406 153.625 113.863281 153.625 C 113.773438 153.625 114.15625 153.550781 114.097656 153.578125 C 114.011719 153.613281 114.296875 153.433594 114.265625 153.464844 C 114.234375 153.496094 114.335938 153.386719 114.324219 153.402344 C 114.246094 153.492188 114.367188 153.332031 114.359375 153.347656 C 114.351562 153.359375 114.371094 153.328125 114.371094 153.328125 C 114.355469 153.355469 114.375 153.316406 114.363281 153.34375 C 114.34375 153.402344 114.316406 153.503906 114.273438 153.617188 C 114.175781 153.863281 114.054688 154.113281 113.957031 154.34375 C 113.832031 154.648438 113.730469 154.933594 113.6875 155.148438 C 113.675781 155.210938 113.675781 155.292969 113.671875 155.410156 C 113.671875 155.507812 113.671875 155.59375 113.671875 155.671875 C 113.675781 155.800781 113.671875 155.914062 113.671875 155.957031 C 113.671875 155.960938 113.671875 155.964844 113.671875 155.96875 C 113.667969 156.300781 113.394531 156.5625 113.066406 156.558594 C 112.738281 156.550781 112.476562 156.28125 112.480469 155.949219 C 112.480469 155.945312 112.480469 155.960938 112.480469 155.957031 C 112.480469 155.894531 112.484375 155.800781 112.480469 155.6875 C 112.480469 155.59375 112.480469 155.5 112.480469 155.402344 C 112.480469 155.285156 112.480469 155.117188 112.519531 154.917969 C 112.585938 154.570312 112.714844 154.226562 112.859375 153.882812 C 112.972656 153.613281 113.089844 153.371094 113.15625 153.195312 C 113.183594 153.125 113.207031 153.042969 113.238281 152.957031 C 113.25 152.914062 113.265625 152.867188 113.300781 152.800781 C 113.308594 152.777344 113.316406 152.742188 113.410156 152.636719 C 113.417969 152.621094 113.5 152.433594 113.863281 152.433594 M 113.671875 155.910156 C 113.699219 156.238281 113.457031 156.527344 113.128906 156.554688 C 112.800781 156.582031 112.511719 156.339844 112.484375 156.011719 C 112.480469 155.992188 112.480469 155.984375 112.480469 155.976562 C 112.480469 155.945312 112.476562 155.910156 112.476562 155.867188 C 112.476562 155.773438 112.476562 155.644531 112.480469 155.5 C 112.5 155.046875 112.578125 154.558594 112.632812 154.164062 C 112.652344 154.035156 112.667969 153.921875 112.675781 153.828125 C 112.683594 153.734375 112.699219 153.808594 112.6875 153.75 C 112.675781 153.675781 112.679688 153.65625 112.675781 153.644531 C 112.675781 153.632812 112.714844 153.789062 112.699219 153.734375 C 112.679688 153.679688 112.925781 154.039062 112.84375 153.960938 C 112.769531 153.890625 113.121094 154.101562 113.050781 154.082031 C 112.988281 154.0625 113.25 154.097656 113.207031 154.097656 C 113.132812 154.101562 113.410156 154.027344 113.371094 154.050781 C 113.3125 154.085938 113.523438 153.917969 113.496094 153.945312 C 113.464844 153.984375 113.539062 153.890625 113.535156 153.890625 C 113.53125 153.898438 113.523438 153.921875 113.496094 153.960938 C 113.398438 154.121094 113.285156 154.324219 113.21875 154.511719 C 113.167969 154.644531 113.121094 154.757812 113.089844 154.847656 C 113.042969 154.96875 113.015625 155.09375 112.953125 155.234375 C 112.953125 155.242188 113 155.210938 112.875 155.425781 C 112.710938 155.710938 112.347656 155.808594 112.0625 155.644531 C 111.777344 155.480469 111.679688 155.113281 111.84375 154.828125 C 111.878906 154.773438 111.800781 154.921875 111.804688 154.914062 C 111.808594 154.902344 111.820312 154.859375 111.855469 154.773438 C 111.859375 154.761719 111.90625 154.613281 111.964844 154.445312 C 112.011719 154.316406 112.058594 154.203125 112.097656 154.101562 C 112.210938 153.792969 112.359375 153.53125 112.480469 153.335938 C 112.492188 153.320312 112.46875 153.199219 112.765625 153.023438 C 112.875 152.960938 112.992188 152.917969 113.132812 152.910156 C 113.28125 152.898438 113.492188 152.929688 113.664062 153.097656 C 113.847656 153.269531 113.855469 153.445312 113.863281 153.515625 C 113.871094 153.574219 113.863281 153.550781 113.867188 153.566406 C 113.894531 153.742188 113.871094 153.851562 113.863281 153.945312 C 113.851562 154.0625 113.835938 154.191406 113.816406 154.328125 C 113.757812 154.734375 113.6875 155.203125 113.671875 155.546875 C 113.667969 155.664062 113.667969 155.773438 113.667969 155.847656 C 113.671875 155.882812 113.671875 155.90625 113.671875 155.917969 C 113.671875 155.917969 113.667969 155.894531 113.671875 155.910156 M 112.929688 154.960938 C 113.023438 155.277344 112.839844 155.605469 112.523438 155.699219 C 112.203125 155.789062 111.875 155.605469 111.785156 155.289062 C 111.773438 155.246094 111.765625 155.210938 111.761719 155.175781 C 111.753906 155.121094 111.753906 155.0625 111.757812 154.992188 C 111.757812 154.992188 111.753906 154.90625 111.757812 154.800781 C 111.757812 154.703125 111.757812 154.589844 111.757812 154.460938 C 111.757812 154.417969 111.757812 154.375 111.757812 154.332031 C 111.757812 154.21875 111.761719 154.210938 111.757812 154.175781 C 111.753906 154.105469 111.753906 154.054688 111.753906 154.039062 C 111.753906 154.035156 111.757812 154.101562 111.753906 154.070312 C 111.753906 154.054688 111.78125 154.179688 111.769531 154.144531 C 111.761719 154.109375 111.875 154.359375 111.835938 154.296875 C 111.664062 154.015625 111.75 153.648438 112.027344 153.476562 C 112.308594 153.300781 112.675781 153.386719 112.851562 153.667969 C 113.121094 154.105469 112.945312 154.035156 112.945312 154.050781 C 112.960938 154.191406 112.949219 154.261719 112.949219 154.332031 C 112.949219 154.375 112.949219 154.417969 112.949219 154.464844 C 112.949219 154.574219 112.953125 154.695312 112.949219 154.828125 C 112.949219 154.878906 112.953125 154.945312 112.949219 155.054688 C 112.949219 155.058594 112.941406 154.992188 112.945312 155.023438 C 112.949219 155.046875 112.921875 154.925781 112.929688 154.960938 M 111.875 153.613281 C 112.078125 153.355469 112.453125 153.316406 112.710938 153.519531 C 112.96875 153.726562 113.011719 154.101562 112.804688 154.359375 C 112.789062 154.378906 112.785156 154.382812 112.78125 154.386719 C 112.777344 154.390625 112.773438 154.398438 112.757812 154.414062 C 112.738281 154.441406 112.714844 154.472656 112.710938 154.480469 C 112.640625 154.59375 112.625 154.585938 112.601562 154.644531 C 112.585938 154.679688 112.574219 154.703125 112.570312 154.710938 C 112.570312 154.710938 112.582031 154.679688 112.578125 154.691406 C 112.570312 154.710938 112.621094 154.507812 112.609375 154.578125 C 112.554688 154.902344 112.25 155.121094 111.925781 155.070312 C 111.601562 155.015625 111.378906 154.710938 111.433594 154.386719 C 111.476562 154.125 111.511719 154.164062 111.511719 154.160156 C 111.589844 153.984375 111.652344 153.921875 111.695312 153.851562 C 111.746094 153.773438 111.789062 153.71875 111.828125 153.671875 C 111.839844 153.652344 111.855469 153.636719 111.875 153.609375 C 111.882812 153.605469 111.863281 153.625 111.875 153.613281 M 112.371094 154.964844 C 112.101562 155.152344 111.726562 155.085938 111.539062 154.8125 C 111.351562 154.542969 111.417969 154.171875 111.6875 153.984375 C 111.695312 153.980469 111.699219 153.976562 111.707031 153.972656 C 111.691406 153.980469 111.714844 153.964844 111.730469 153.957031 C 111.71875 153.964844 111.722656 153.960938 111.726562 153.957031 C 111.78125 153.902344 111.832031 153.859375 111.90625 153.816406 C 111.933594 153.796875 111.992188 153.773438 112.015625 153.761719 C 112.171875 153.714844 112.316406 153.652344 112.566406 153.804688 C 112.847656 153.972656 112.9375 154.339844 112.765625 154.621094 C 112.597656 154.90625 112.230469 154.996094 111.949219 154.824219 C 111.886719 154.785156 112.175781 154.90625 112.125 154.894531 C 112.050781 154.878906 112.339844 154.902344 112.296875 154.90625 C 112.253906 154.910156 112.417969 154.882812 112.394531 154.890625 C 112.453125 154.871094 112.589844 154.792969 112.550781 154.820312 C 112.480469 154.863281 112.554688 154.8125 112.550781 154.816406 C 112.5 154.867188 112.445312 154.910156 112.414062 154.929688 C 112.378906 154.957031 112.433594 154.914062 112.40625 154.933594 C 112.347656 154.976562 112.375 154.960938 112.371094 154.964844 M 109.988281 107.390625 C 110.320312 107.390625 110.585938 107.65625 110.585938 107.984375 C 110.585938 108.316406 110.320312 108.582031 109.988281 108.582031 L 72.34375 108.582031 C 72.011719 108.582031 71.746094 108.316406 71.746094 107.984375 C 71.746094 107.65625 72.011719 107.390625 72.34375 107.390625 Z M 72.34375 23.40625 C 72.671875 23.40625 72.9375 23.671875 72.9375 24.003906 C 72.9375 24.332031 72.671875 24.597656 72.34375 24.597656 L 53.1875 24.597656 C 52.859375 24.597656 52.589844 24.332031 52.589844 24.003906 C 52.589844 23.671875 52.859375 23.40625 53.1875 23.40625 Z M 72.34375 23.40625 "/>
<g clip-path="url(#clip-0)">
<path fill-rule="nonzero" fill="rgb(7.058716%, 1.176453%, 46.665955%)" fill-opacity="1" d="M 115.175781 150.03125 C 115.441406 149.832031 115.8125 149.886719 116.011719 150.152344 C 116.210938 150.414062 116.15625 150.789062 115.890625 150.984375 L 110.945312 154.691406 C 110.679688 154.886719 110.304688 154.835938 110.109375 154.570312 C 109.910156 154.308594 109.964844 153.933594 110.230469 153.734375 Z M 109.394531 167.082031 C 109.394531 166.753906 109.660156 166.484375 109.988281 166.484375 C 110.320312 166.484375 110.585938 166.753906 110.585938 167.082031 L 110.585938 178.023438 C 110.585938 178.355469 110.320312 178.621094 109.988281 178.621094 C 109.660156 178.621094 109.394531 178.355469 109.394531 178.023438 Z M 101.480469 179.355469 C 101.152344 179.355469 100.882812 179.089844 100.882812 178.761719 C 100.882812 178.429688 101.152344 178.164062 101.480469 178.164062 L 118.5 178.164062 C 118.828125 178.164062 119.09375 178.429688 119.09375 178.761719 C 119.09375 179.089844 118.828125 179.355469 118.5 179.355469 Z M 104.421875 183.261719 C 104.089844 183.261719 103.824219 182.992188 103.824219 182.664062 C 103.824219 182.335938 104.089844 182.066406 104.421875 182.066406 L 115.847656 182.066406 C 116.179688 182.066406 116.445312 182.335938 116.445312 182.664062 C 116.445312 182.992188 116.179688 183.261719 115.847656 183.261719 Z M 107.695312 186.921875 C 107.363281 186.921875 107.097656 186.652344 107.097656 186.324219 C 107.097656 185.996094 107.363281 185.730469 107.695312 185.730469 L 112.574219 185.730469 C 112.90625 185.730469 113.171875 185.996094 113.171875 186.324219 C 113.171875 186.652344 112.90625 186.921875 112.574219 186.921875 Z M 118.160156 57.289062 C 118.160156 58.796875 117.347656 60.109375 116.132812 60.820312 C 115.53125 61.171875 114.828125 61.375 114.074219 61.375 C 112.570312 61.375 111.253906 60.5625 110.546875 59.347656 C 110.191406 58.742188 109.988281 58.039062 109.988281 57.289062 C 109.988281 55.785156 110.804688 54.46875 112.015625 53.757812 C 112.621094 53.40625 113.324219 53.203125 114.074219 53.203125 C 115.582031 53.203125 116.898438 54.019531 117.605469 55.230469 C 117.957031 55.835938 118.160156 56.539062 118.160156 57.289062 M 116.96875 57.289062 C 116.96875 56.757812 116.824219 56.261719 116.574219 55.832031 C 116.074219 54.972656 115.140625 54.394531 114.074219 54.394531 C 113.542969 54.394531 113.046875 54.539062 112.617188 54.789062 C 111.757812 55.292969 111.183594 56.222656 111.183594 57.289062 C 111.183594 57.820312 111.324219 58.320312 111.574219 58.746094 C 112.078125 59.605469 113.007812 60.183594 114.074219 60.183594 C 114.605469 60.183594 115.105469 60.039062 115.53125 59.789062 C 116.390625 59.289062 116.96875 58.355469 116.96875 57.289062 M 155.25 141.785156 C 155.25 143.289062 154.4375 144.605469 153.222656 145.316406 C 152.617188 145.667969 151.914062 145.871094 151.164062 145.871094 C 149.660156 145.871094 148.34375 145.054688 147.632812 143.84375 C 147.28125 143.238281 147.078125 142.535156 147.078125 141.785156 C 147.078125 140.277344 147.894531 138.964844 149.105469 138.253906 C 149.710938 137.902344 150.414062 137.699219 151.164062 137.699219 C 152.671875 137.699219 153.984375 138.511719 154.695312 139.726562 C 155.046875 140.332031 155.25 141.035156 155.25 141.785156 M 154.058594 141.785156 C 154.058594 141.253906 153.914062 140.753906 153.664062 140.328125 C 153.164062 139.46875 152.230469 138.890625 151.164062 138.890625 C 150.632812 138.890625 150.136719 139.035156 149.707031 139.285156 C 148.847656 139.785156 148.269531 140.71875 148.269531 141.785156 C 148.269531 142.316406 148.414062 142.8125 148.664062 143.242188 C 149.167969 144.101562 150.097656 144.679688 151.164062 144.679688 C 151.695312 144.679688 152.195312 144.535156 152.621094 144.285156 C 153.480469 143.78125 154.058594 142.851562 154.058594 141.785156 M 53.785156 23.945312 C 53.785156 25.453125 52.96875 26.765625 51.757812 27.476562 C 51.152344 27.828125 50.449219 28.03125 49.699219 28.03125 C 48.191406 28.03125 46.875 27.21875 46.167969 26.003906 C 45.816406 25.398438 45.613281 24.695312 45.613281 23.945312 C 45.613281 22.441406 46.425781 21.125 47.640625 20.414062 C 48.246094 20.0625 48.949219 19.859375 49.699219 19.859375 C 51.203125 19.859375 52.519531 20.675781 53.226562 21.886719 C 53.582031 22.492188 53.785156 23.195312 53.785156 23.945312 M 52.589844 23.945312 C 52.589844 23.414062 52.449219 22.917969 52.199219 22.488281 C 51.695312 21.628906 50.765625 21.050781 49.699219 21.050781 C 49.167969 21.050781 48.667969 21.195312 48.242188 21.445312 C 47.382812 21.945312 46.804688 22.878906 46.804688 23.945312 C 46.804688 24.476562 46.949219 24.976562 47.199219 25.402344 C 47.699219 26.261719 48.632812 26.839844 49.699219 26.839844 C 50.230469 26.839844 50.726562 26.695312 51.15625 26.445312 C 52.015625 25.945312 52.589844 25.011719 52.589844 23.945312 M 43.734375 232.96875 C 43.40625 232.96875 43.140625 232.699219 43.140625 232.371094 C 43.140625 232.042969 43.40625 231.773438 43.734375 231.773438 L 51.824219 231.773438 C 52.152344 231.773438 52.421875 232.042969 52.421875 232.371094 C 52.421875 232.699219 52.152344 232.96875 51.824219 232.96875 Z M 52.421875 232.371094 C 52.421875 232.699219 52.152344 232.96875 51.824219 232.96875 C 51.496094 232.96875 51.226562 232.699219 51.226562 232.371094 L 51.226562 218.039062 C 51.226562 217.707031 51.496094 217.441406 51.824219 217.441406 C 52.152344 217.441406 52.421875 217.707031 52.421875 218.039062 Z M 51.824219 218.632812 C 51.496094 218.632812 51.226562 218.367188 51.226562 218.039062 C 51.226562 217.707031 51.496094 217.441406 51.824219 217.441406 L 65.921875 217.441406 C 66.25 217.441406 66.515625 217.707031 66.515625 218.039062 C 66.515625 218.367188 66.25 218.632812 65.921875 218.632812 Z M 65.324219 218.039062 C 65.324219 217.707031 65.589844 217.441406 65.921875 217.441406 C 66.25 217.441406 66.515625 217.707031 66.515625 218.039062 L 66.515625 233.023438 C 66.515625 233.355469 66.25 233.621094 65.921875 233.621094 C 65.589844 233.621094 65.324219 233.355469 65.324219 233.023438 Z M 124.894531 215.777344 C 124.5625 215.777344 124.296875 215.507812 124.296875 215.179688 C 124.296875 214.851562 124.5625 214.582031 124.894531 214.582031 L 152.15625 214.582031 C 152.488281 214.582031 152.753906 214.851562 152.753906 215.179688 C 152.753906 215.507812 152.488281 215.777344 152.15625 215.777344 Z M 147.078125 235.058594 C 146.75 235.058594 146.480469 234.792969 146.480469 234.464844 C 146.480469 234.132812 146.75 233.867188 147.078125 233.867188 L 152.15625 233.867188 C 152.488281 233.867188 152.753906 234.132812 152.753906 234.464844 C 152.753906 234.792969 152.488281 235.058594 152.15625 235.058594 Z M 66.707031 232.96875 C 66.375 232.96875 66.109375 232.699219 66.109375 232.371094 C 66.109375 232.042969 66.375 231.773438 66.707031 231.773438 L 92.402344 231.773438 C 92.730469 231.773438 93 232.042969 93 232.371094 C 93 232.699219 92.730469 232.96875 92.402344 232.96875 Z M 93 232.371094 C 93 232.699219 92.730469 232.96875 92.402344 232.96875 C 92.074219 232.96875 91.804688 232.699219 91.804688 232.371094 L 91.804688 218.039062 C 91.804688 217.707031 92.074219 217.441406 92.402344 217.441406 C 92.730469 217.441406 93 217.707031 93 218.039062 Z M 92.402344 218.632812 C 92.074219 218.632812 91.804688 218.367188 91.804688 218.039062 C 91.804688 217.707031 92.074219 217.441406 92.402344 217.441406 L 106.5 217.441406 C 106.828125 217.441406 107.097656 217.707031 107.097656 218.039062 C 107.097656 218.367188 106.828125 218.632812 106.5 218.632812 Z M 105.902344 218.039062 C 105.902344 217.707031 106.171875 217.441406 106.5 217.441406 C 106.828125 217.441406 107.097656 217.707031 107.097656 218.039062 L 107.097656 233.023438 C 107.097656 233.355469 106.828125 233.621094 106.5 233.621094 C 106.171875 233.621094 105.902344 233.355469 105.902344 233.023438 Z M 106.890625 234.011719 C 106.5625 234.011719 106.296875 233.746094 106.296875 233.417969 C 106.296875 233.085938 106.5625 232.820312 106.890625 232.820312 L 132.589844 232.820312 C 132.917969 232.820312 133.1875 233.085938 133.1875 233.417969 C 133.1875 233.746094 132.917969 234.011719 132.589844 234.011719 Z M 133.1875 233.417969 C 133.1875 233.746094 132.917969 234.011719 132.589844 234.011719 C 132.261719 234.011719 131.992188 233.746094 131.992188 233.417969 L 131.992188 219.085938 C 131.992188 218.753906 132.261719 218.488281 132.589844 218.488281 C 132.917969 218.488281 133.1875 218.753906 133.1875 219.085938 Z M 132.589844 219.679688 C 132.261719 219.679688 131.992188 219.414062 131.992188 219.085938 C 131.992188 218.753906 132.261719 218.488281 132.589844 218.488281 L 146.6875 218.488281 C 147.015625 218.488281 147.28125 218.753906 147.28125 219.085938 C 147.28125 219.414062 147.015625 219.679688 146.6875 219.679688 Z M 146.089844 219.085938 C 146.089844 218.753906 146.355469 218.488281 146.6875 218.488281 C 147.015625 218.488281 147.28125 218.753906 147.28125 219.085938 L 147.28125 234.070312 C 147.28125 234.398438 147.015625 234.667969 146.6875 234.667969 C 146.355469 234.667969 146.089844 234.398438 146.089844 234.070312 Z M 84.707031 214.730469 C 84.378906 214.730469 84.109375 214.460938 84.109375 214.132812 C 84.109375 213.804688 84.378906 213.535156 84.707031 213.535156 L 110.40625 213.535156 C 110.734375 213.535156 111 213.804688 111 214.132812 C 111 214.460938 110.734375 214.730469 110.40625 214.730469 Z M 111 214.132812 C 111 214.460938 110.734375 214.730469 110.40625 214.730469 C 110.074219 214.730469 109.808594 214.460938 109.808594 214.132812 L 109.808594 199.800781 C 109.808594 199.472656 110.074219 199.203125 110.40625 199.203125 C 110.734375 199.203125 111 199.472656 111 199.800781 Z M 110.40625 200.398438 C 110.074219 200.398438 109.808594 200.128906 109.808594 199.800781 C 109.808594 199.472656 110.074219 199.203125 110.40625 199.203125 L 124.5 199.203125 C 124.832031 199.203125 125.097656 199.472656 125.097656 199.800781 C 125.097656 200.128906 124.832031 200.398438 124.5 200.398438 Z M 123.90625 199.800781 C 123.90625 199.472656 124.171875 199.203125 124.5 199.203125 C 124.832031 199.203125 125.097656 199.472656 125.097656 199.800781 L 125.097656 214.789062 C 125.097656 215.117188 124.832031 215.382812 124.5 215.382812 C 124.171875 215.382812 123.90625 215.117188 123.90625 214.789062 Z M 44.128906 214.730469 C 43.796875 214.730469 43.53125 214.460938 43.53125 214.132812 C 43.53125 213.804688 43.796875 213.535156 44.128906 213.535156 L 69.824219 213.535156 C 70.15625 213.535156 70.421875 213.804688 70.421875 214.132812 C 70.421875 214.460938 70.15625 214.730469 69.824219 214.730469 Z M 70.421875 214.132812 C 70.421875 214.460938 70.15625 214.730469 69.824219 214.730469 C 69.496094 214.730469 69.230469 214.460938 69.230469 214.132812 L 69.230469 199.800781 C 69.230469 199.472656 69.496094 199.203125 69.824219 199.203125 C 70.15625 199.203125 70.421875 199.472656 70.421875 199.800781 Z M 69.824219 200.398438 C 69.496094 200.398438 69.230469 200.128906 69.230469 199.800781 C 69.230469 199.472656 69.496094 199.203125 69.824219 199.203125 L 83.921875 199.203125 C 84.25 199.203125 84.519531 199.472656 84.519531 199.800781 C 84.519531 200.128906 84.25 200.398438 83.921875 200.398438 Z M 83.324219 199.800781 C 83.324219 199.472656 83.59375 199.203125 83.921875 199.203125 C 84.25 199.203125 84.519531 199.472656 84.519531 199.800781 L 84.519531 214.789062 C 84.519531 215.117188 84.25 215.382812 83.921875 215.382812 C 83.59375 215.382812 83.324219 215.117188 83.324219 214.789062 Z M 86.136719 389.433594 C 85.804688 389.433594 85.539062 389.167969 85.539062 388.835938 C 85.539062 388.507812 85.804688 388.242188 86.136719 388.242188 L 115.660156 388.242188 C 115.992188 388.242188 116.257812 388.507812 116.257812 388.835938 C 116.257812 389.167969 115.992188 389.433594 115.660156 389.433594 Z M 122.890625 389.433594 C 122.558594 389.433594 122.292969 389.167969 122.292969 388.835938 C 122.292969 388.507812 122.558594 388.242188 122.890625 388.242188 L 154.332031 388.242188 C 154.660156 388.242188 154.925781 388.507812 154.925781 388.835938 C 154.925781 389.167969 154.660156 389.433594 154.332031 389.433594 Z M 116.257812 402.425781 C 116.257812 402.757812 115.992188 403.023438 115.660156 403.023438 C 115.332031 403.023438 115.066406 402.757812 115.066406 402.425781 L 115.066406 375.238281 C 115.066406 374.910156 115.332031 374.640625 115.660156 374.640625 C 115.992188 374.640625 116.257812 374.910156 116.257812 375.238281 Z M 123.484375 402.429688 C 123.484375 402.761719 123.21875 403.027344 122.890625 403.027344 C 122.558594 403.027344 122.292969 402.761719 122.292969 402.429688 L 122.292969 375.242188 C 122.292969 374.914062 122.558594 374.644531 122.890625 374.644531 C 123.21875 374.644531 123.484375 374.914062 123.484375 375.242188 Z M 143.25 351.1875 C 143.25 351.519531 142.984375 351.785156 142.65625 351.785156 C 142.324219 351.785156 142.058594 351.519531 142.058594 351.1875 L 142.058594 336.828125 C 142.058594 336.5 142.324219 336.230469 142.65625 336.230469 C 142.984375 336.230469 143.25 336.5 143.25 336.828125 Z M 142.65625 336.230469 C 142.984375 336.230469 143.25 336.5 143.25 336.828125 C 143.25 337.15625 142.984375 337.425781 142.65625 337.425781 L 117.796875 337.425781 C 117.46875 337.425781 117.199219 337.15625 117.199219 336.828125 C 117.199219 336.5 117.46875 336.230469 117.796875 336.230469 Z M 117.199219 336.828125 C 117.199219 336.5 117.46875 336.230469 117.796875 336.230469 C 118.125 336.230469 118.394531 336.5 118.394531 336.828125 L 118.394531 351.1875 C 118.394531 351.519531 118.125 351.785156 117.796875 351.785156 C 117.46875 351.785156 117.199219 351.519531 117.199219 351.1875 Z M 117.796875 350.59375 C 118.125 350.59375 118.394531 350.859375 118.394531 351.1875 C 118.394531 351.519531 118.125 351.785156 117.796875 351.785156 L 96.425781 351.785156 C 96.097656 351.785156 95.832031 351.519531 95.832031 351.1875 C 95.832031 350.859375 96.097656 350.59375 96.425781 350.59375 Z M 141.667969 332.578125 C 142 332.578125 142.265625 332.847656 142.265625 333.175781 C 142.265625 333.503906 142 333.773438 141.667969 333.773438 L 118.78125 333.773438 C 118.453125 333.773438 118.1875 333.503906 118.1875 333.175781 C 118.1875 332.847656 118.453125 332.578125 118.78125 332.578125 Z M 129.628906 313.53125 C 129.628906 313.203125 129.898438 312.933594 130.226562 312.933594 C 130.554688 312.933594 130.820312 313.203125 130.820312 313.53125 L 130.820312 333.175781 C 130.820312 333.503906 130.554688 333.773438 130.226562 333.773438 C 129.898438 333.773438 129.628906 333.503906 129.628906 333.175781 Z M 164.023438 350.59375 C 164.355469 350.59375 164.621094 350.859375 164.621094 351.1875 C 164.621094 351.519531 164.355469 351.785156 164.023438 351.785156 L 142.65625 351.785156 C 142.324219 351.785156 142.058594 351.519531 142.058594 351.1875 C 142.058594 350.859375 142.324219 350.59375 142.65625 350.59375 Z M 146.359375 345.046875 C 146.6875 345.046875 146.957031 345.316406 146.957031 345.644531 C 146.957031 345.972656 146.6875 346.242188 146.359375 346.242188 L 138.949219 346.242188 C 138.621094 346.242188 138.351562 345.972656 138.351562 345.644531 C 138.351562 345.316406 138.621094 345.046875 138.949219 345.046875 Z M 145.882812 345.289062 C 146.078125 345.023438 146.453125 344.96875 146.71875 345.167969 C 146.980469 345.363281 147.035156 345.738281 146.835938 346.003906 L 143.132812 350.949219 C 142.933594 351.214844 142.5625 351.269531 142.296875 351.070312 C 142.035156 350.875 141.980469 350.5 142.175781 350.234375 Z M 145.882812 345.289062 "/>
</g>
<path fill-rule="nonzero" fill="rgb(0%, 0%, 0%)" fill-opacity="1" d="M 23.15625 39.601562 C 22.828125 39.601562 22.5625 39.332031 22.5625 39.003906 C 22.5625 38.675781 22.828125 38.40625 23.15625 38.40625 L 49.222656 38.40625 C 49.550781 38.40625 49.820312 38.675781 49.820312 39.003906 C 49.820312 39.332031 49.550781 39.601562 49.222656 39.601562 Z M 49.222656 34.261719 L 60.132812 39.003906 L 49.222656 43.746094 Z M 23.574219 48.410156 C 23.71875 48.703125 23.597656 49.0625 23.304688 49.207031 C 23.007812 49.351562 22.652344 49.230469 22.503906 48.9375 C 22.472656 48.871094 22.25 48.566406 22.136719 48.179688 C 22.042969 47.875 22.144531 47.484375 22.351562 47.269531 C 22.921875 46.664062 23.773438 46.691406 24.742188 46.671875 C 25.6875 46.648438 26.808594 46.625 27.789062 46.773438 C 28.308594 46.851562 28.804688 46.929688 29.246094 47.210938 C 29.457031 47.34375 29.695312 47.511719 29.847656 47.816406 C 30.113281 48.328125 29.835938 48.773438 29.601562 49.089844 L 28.734375 49.980469 L 26.496094 51.792969 C 26.179688 52.078125 26.039062 52.292969 26.007812 52.472656 L 26.019531 52.765625 L 26.441406 53.023438 C 27.042969 53.316406 28.039062 53.398438 29.214844 53.386719 L 31.179688 53.21875 L 32.332031 52.992188 L 32.894531 52.890625 L 33.269531 54.023438 C 32.929688 54.136719 33.023438 54.058594 32.921875 54.0625 L 31.804688 54.050781 C 31.476562 54.023438 31.230469 53.734375 31.257812 53.40625 C 31.285156 53.078125 31.574219 52.835938 31.902344 52.863281 L 32.542969 52.871094 L 32.894531 52.867188 L 33 52.863281 L 33.015625 52.863281 L 33 52.867188 C 33.011719 52.863281 32.820312 52.914062 32.894531 52.890625 C 33.207031 52.785156 33.542969 52.957031 33.648438 53.269531 C 33.753906 53.582031 33.582031 53.917969 33.269531 54.023438 L 32.582031 54.15625 L 31.359375 54.398438 C 30.691406 54.5 29.949219 54.574219 29.226562 54.578125 C 27.988281 54.59375 26.84375 54.546875 25.914062 54.09375 C 25.636719 53.957031 25.273438 53.8125 25.015625 53.410156 C 24.761719 53.015625 24.773438 52.574219 24.832031 52.257812 C 24.933594 51.707031 25.285156 51.277344 25.703125 50.902344 L 27.953125 49.082031 L 28.644531 48.378906 L 28.757812 48.191406 L 28.753906 48.226562 L 28.785156 48.359375 L 28.609375 48.21875 C 28.445312 48.113281 28.085938 48.023438 27.609375 47.953125 C 26.777344 47.824219 25.699219 47.839844 24.769531 47.863281 C 24.175781 47.875 23.671875 47.933594 23.378906 48.023438 L 23.21875 48.089844 C 23.179688 48.125 23.261719 47.78125 23.277344 47.835938 Z M 25.503906 51.214844 C 25.78125 51.394531 25.863281 51.761719 25.6875 52.039062 C 25.507812 52.316406 25.140625 52.398438 24.863281 52.222656 L 24.277344 51.894531 L 23.996094 51.71875 C 23.886719 51.632812 23.617188 51.417969 23.730469 51 C 23.867188 50.492188 24.210938 50.488281 24.414062 50.445312 C 25.132812 50.28125 26.25 50.332031 27.550781 50.363281 C 28.871094 50.394531 30.242188 50.441406 31.222656 50.398438 C 31.554688 50.386719 31.832031 50.640625 31.847656 50.96875 C 31.859375 51.296875 31.605469 51.578125 31.277344 51.589844 C 30.058594 51.644531 28.429688 51.570312 26.972656 51.542969 L 25.160156 51.550781 L 24.679688 51.605469 L 24.65625 51.609375 C 24.636719 51.617188 24.792969 51.496094 24.75 51.539062 C 24.707031 51.582031 24.910156 51.207031 24.882812 51.3125 C 24.855469 51.402344 24.867188 50.964844 24.886719 51.042969 C 24.902344 51.113281 24.796875 50.84375 24.820312 50.882812 C 24.859375 50.945312 24.726562 50.777344 24.738281 50.785156 Z M 35.871094 53.128906 C 36.195312 53.191406 36.40625 53.507812 36.339844 53.828125 C 36.273438 54.152344 35.960938 54.363281 35.636719 54.296875 L 35.796875 54.230469 C 35.746094 54.332031 35.714844 54.738281 35.769531 55.113281 L 35.875 55.582031 L 35.917969 55.683594 L 35.902344 55.664062 C 35.917969 55.683594 35.722656 55.527344 35.789062 55.566406 C 36.070312 55.734375 36.160156 56.101562 35.992188 56.382812 C 35.824219 56.667969 35.457031 56.757812 35.175781 56.589844 C 34.722656 56.316406 34.761719 56.046875 34.683594 55.757812 C 34.566406 55.308594 34.496094 54.769531 34.570312 54.246094 C 34.605469 53.980469 34.675781 53.703125 34.886719 53.457031 C 35.105469 53.199219 35.519531 53.058594 35.871094 53.128906 M 37.050781 50.289062 C 37.195312 50.585938 37.070312 50.941406 36.773438 51.085938 C 36.476562 51.226562 36.121094 51.101562 35.976562 50.804688 C 35.757812 50.347656 35.582031 49.96875 35.609375 49.5 C 35.625 49.167969 35.90625 48.917969 36.234375 48.933594 C 36.5625 48.953125 36.816406 49.234375 36.796875 49.5625 C 36.789062 49.777344 36.828125 49.828125 37.050781 50.289062 M 44.164062 45.257812 C 44.421875 45.464844 44.457031 45.84375 44.25 46.097656 C 44.042969 46.351562 43.667969 46.390625 43.410156 46.183594 C 43.257812 46.058594 43.113281 45.917969 43.027344 45.699219 C 42.890625 45.347656 43.140625 44.871094 43.382812 44.726562 C 43.613281 44.59375 43.828125 44.5625 44.046875 44.542969 C 44.800781 44.472656 45.777344 44.644531 46.433594 45.363281 C 46.691406 45.644531 46.914062 46.050781 46.921875 46.535156 C 46.925781 46.925781 46.800781 47.292969 46.617188 47.640625 C 46.082031 48.664062 44.960938 49.320312 44.492188 49.808594 L 44.375 49.953125 C 44.363281 49.972656 44.386719 49.824219 44.382812 49.890625 C 44.378906 49.976562 44.28125 49.597656 44.320312 49.65625 L 44.257812 49.589844 L 44.464844 49.648438 C 44.984375 49.746094 45.921875 49.679688 46.753906 49.582031 L 47.796875 49.433594 L 48.109375 49.382812 L 48.203125 49.371094 L 48.292969 49.363281 C 48.339844 49.363281 48.960938 48.96875 48.890625 50 C 48.832031 50.824219 48.542969 50.503906 48.507812 50.519531 C 48.203125 50.636719 47.855469 50.484375 47.738281 50.175781 C 47.617188 49.871094 47.769531 49.523438 48.078125 49.40625 C 48.109375 49.394531 47.644531 50.738281 47.699219 49.917969 C 47.769531 48.902344 48.335938 50.554688 48.292969 50.554688 C 48.269531 50.554688 45.808594 51.113281 44.246094 50.820312 L 43.621094 50.597656 C 43.417969 50.46875 43.175781 50.1875 43.191406 49.839844 C 43.210938 49.453125 43.414062 49.210938 43.632812 48.984375 C 44.269531 48.316406 45.257812 47.667969 45.5625 47.085938 L 45.726562 46.550781 C 45.726562 46.410156 45.671875 46.300781 45.550781 46.164062 C 45.269531 45.855469 44.601562 45.6875 44.152344 45.730469 L 43.984375 45.757812 L 44.019531 45.734375 C 43.984375 45.761719 44.167969 45.476562 44.136719 45.566406 C 44.113281 45.632812 44.15625 45.296875 44.164062 45.359375 L 44.132812 45.25 C 44.164062 45.316406 44.105469 45.210938 44.164062 45.257812 M 44.617188 54.90625 C 44.496094 54.601562 44.648438 54.253906 44.953125 54.132812 C 45.257812 54.011719 45.605469 54.160156 45.726562 54.464844 C 45.753906 54.535156 45.875 54.707031 45.671875 55.015625 C 45.464844 55.335938 45.125 55.292969 45.023438 55.269531 C 44.75 55.199219 44.800781 55.160156 44.765625 55.136719 L 44.445312 54.851562 L 44.273438 54.679688 L 44.203125 54.578125 L 44.136719 54.375 C 44.117188 54.246094 44.171875 53.917969 44.425781 53.773438 C 44.808594 53.546875 44.917969 53.71875 44.972656 53.742188 L 45.105469 53.824219 C 45.367188 54.023438 45.417969 54.398438 45.21875 54.660156 C 45.015625 54.921875 44.640625 54.972656 44.382812 54.769531 L 44.394531 54.78125 L 44.457031 54.820312 C 44.433594 54.808594 44.664062 54.882812 44.585938 54.867188 C 44.5 54.847656 45.390625 54.460938 45.148438 54.707031 C 44.910156 54.949219 45.269531 54.019531 45.296875 54.113281 C 45.320312 54.191406 45.222656 53.957031 45.238281 53.980469 C 45.28125 54.054688 45.171875 53.894531 45.179688 53.898438 L 45.386719 54.097656 L 45.496094 54.191406 L 45.472656 54.179688 L 45.414062 54.148438 C 45.441406 54.160156 45.21875 54.09375 45.285156 54.105469 C 45.339844 54.117188 44.890625 54.148438 45.019531 54.113281 C 45.121094 54.085938 44.617188 54.433594 44.703125 54.324219 C 44.828125 54.160156 44.589844 54.835938 44.578125 54.742188 C 44.570312 54.660156 44.632812 54.941406 44.617188 54.90625 "/>
<path fill-rule="nonzero" fill="rgb(92.941284%, 21.176147%, 14.117432%)" fill-opacity="1" d="M 128.980469 56.742188 C 128.664062 56.640625 128.492188 56.304688 128.59375 55.992188 C 128.695312 55.675781 129.03125 55.503906 129.34375 55.605469 C 129.398438 55.621094 129.222656 55.59375 129.238281 55.59375 L 129.457031 55.449219 L 129.542969 55.371094 L 129.71875 55.132812 L 129.722656 55.164062 C 129.714844 55.132812 129.863281 55.347656 129.808594 55.300781 C 129.761719 55.261719 129.953125 55.375 129.929688 55.367188 L 129.636719 55.433594 L 128.820312 55.769531 C 128.167969 56.089844 127.382812 56.5625 126.683594 57.109375 C 126.019531 57.632812 125.515625 58.214844 125.296875 58.6875 C 124.949219 59.429688 125.320312 59.816406 125.980469 59.878906 C 126.785156 59.953125 128.539062 58.980469 130.007812 57.644531 C 130.550781 57.152344 131.035156 56.683594 131.386719 56.195312 C 131.777344 55.660156 131.984375 55.011719 132.109375 54.457031 L 132.210938 53.953125 L 132.230469 54.039062 C 132.210938 53.992188 132.367188 54.207031 132.324219 54.167969 L 132.433594 54.234375 L 132.484375 54.246094 L 131.921875 54.515625 C 131.398438 54.882812 130.828125 55.464844 130.328125 56.257812 L 129.589844 57.703125 L 128.296875 60.820312 C 127.980469 61.644531 127.804688 62.25 127.808594 62.441406 L 127.792969 62.410156 C 127.8125 62.453125 127.617188 62.234375 127.671875 62.273438 L 127.558594 62.222656 L 127.53125 62.214844 L 127.675781 62.175781 C 127.988281 62.0625 128.328125 62.226562 128.4375 62.535156 C 128.546875 62.847656 128.386719 63.1875 128.074219 63.296875 C 127.789062 63.402344 127.480469 63.488281 127.128906 63.328125 C 126.851562 63.207031 126.679688 62.910156 126.636719 62.671875 C 126.511719 62.007812 126.8125 61.351562 127.183594 60.390625 L 128.5 57.21875 L 129.320312 55.621094 C 129.898438 54.703125 130.566406 54.007812 131.234375 53.539062 C 131.597656 53.285156 131.964844 53.097656 132.371094 53.058594 C 132.582031 53.039062 132.839844 53.0625 133.066406 53.238281 C 133.304688 53.417969 133.410156 53.730469 133.402344 53.980469 L 133.273438 54.722656 C 133.128906 55.359375 132.882812 56.164062 132.355469 56.894531 C 131.917969 57.5 131.371094 58.015625 130.808594 58.527344 C 129.222656 59.96875 127.441406 61.210938 125.871094 61.066406 C 125.226562 61.003906 124.621094 60.699219 124.273438 60.164062 C 123.921875 59.625 123.894531 58.875 124.214844 58.183594 C 124.554688 57.460938 125.175781 56.78125 125.945312 56.171875 C 126.722656 55.5625 127.570312 55.054688 128.296875 54.699219 L 129.425781 54.253906 C 129.777344 54.164062 130.175781 54.050781 130.578125 54.390625 C 130.921875 54.679688 130.960938 55.121094 130.867188 55.457031 C 130.769531 55.796875 130.585938 55.964844 130.5 56.082031 L 130.234375 56.351562 C 129.945312 56.605469 129.5625 56.929688 128.980469 56.742188 M 133.457031 58.871094 C 133.726562 58.683594 134.097656 58.746094 134.289062 59.015625 C 134.480469 59.28125 134.417969 59.65625 134.148438 59.84375 C 133.660156 60.191406 132.332031 62.25 132.441406 63 C 132.492188 63.324219 132.265625 63.628906 131.941406 63.675781 C 131.613281 63.726562 131.3125 63.5 131.261719 63.175781 C 131.132812 62.300781 131.554688 61.429688 132.023438 60.640625 C 132.484375 59.863281 132.96875 59.21875 133.457031 58.871094 M 164.808594 140.867188 C 164.589844 141.117188 164.214844 141.140625 163.96875 140.921875 C 163.722656 140.703125 163.695312 140.328125 163.914062 140.078125 L 163.886719 140.117188 L 163.851562 140.214844 C 163.871094 140.128906 163.929688 140.625 163.882812 140.523438 C 163.84375 140.441406 164.054688 140.71875 164.015625 140.691406 C 163.957031 140.648438 164.089844 140.726562 164.066406 140.722656 C 163.949219 140.703125 163.59375 140.722656 163.152344 140.878906 C 162.734375 141.023438 162.222656 141.285156 161.652344 141.671875 C 160.894531 142.183594 160.074219 142.921875 159.40625 143.679688 C 158.984375 144.15625 158.667969 144.667969 158.429688 145.109375 L 158.179688 145.710938 C 158.167969 145.785156 158.140625 145.679688 158.160156 145.734375 C 158.179688 145.785156 157.992188 145.570312 158.039062 145.597656 L 157.992188 145.574219 L 158.5 145.460938 C 158.980469 145.285156 159.601562 144.925781 160.238281 144.519531 C 161.332031 143.824219 162.363281 143.003906 163.203125 142.097656 C 163.671875 141.59375 164.082031 141.074219 164.359375 140.613281 L 164.652344 140.046875 L 164.699219 139.867188 L 164.722656 139.949219 C 164.679688 139.839844 165.007812 140.234375 164.929688 140.191406 C 164.871094 140.15625 165.089844 140.242188 165.0625 140.238281 L 164.898438 140.285156 L 164.441406 140.476562 C 163.875 140.769531 163.222656 141.28125 162.488281 142.117188 L 161.394531 143.496094 L 159.835938 145.921875 L 158.835938 147.570312 C 158.476562 148.195312 158.289062 148.632812 158.210938 148.945312 L 158.113281 149.601562 L 157.847656 149.417969 C 158.171875 149.363281 158.476562 149.582031 158.53125 149.90625 C 158.585938 150.234375 158.363281 150.539062 158.039062 150.59375 C 157.808594 150.632812 157.519531 150.597656 157.296875 150.429688 C 156.964844 150.179688 156.917969 149.8125 156.917969 149.523438 L 157.054688 148.644531 C 157.175781 148.191406 157.40625 147.660156 157.800781 146.976562 L 158.820312 145.296875 L 160.421875 142.800781 L 161.59375 141.328125 C 162.402344 140.410156 163.167969 139.796875 163.890625 139.417969 L 164.746094 139.089844 L 165.207031 139.054688 C 165.394531 139.078125 165.707031 139.199219 165.832031 139.507812 C 165.984375 139.890625 165.871094 140.171875 165.78125 140.429688 L 165.378906 141.230469 C 165.042969 141.789062 164.585938 142.359375 164.078125 142.910156 C 163.152344 143.90625 162.042969 144.78125 160.878906 145.527344 C 160.214844 145.949219 159.546875 146.347656 158.910156 146.578125 C 158.320312 146.792969 157.644531 146.976562 157.191406 146.414062 C 156.738281 145.855469 157.019531 145.210938 157.382812 144.542969 C 157.644531 144.050781 158.007812 143.460938 158.511719 142.894531 C 159.246094 142.058594 160.121094 141.269531 160.984375 140.683594 C 161.621094 140.253906 162.214844 139.941406 162.757812 139.75 C 163.335938 139.550781 163.828125 139.472656 164.257812 139.542969 C 164.472656 139.582031 164.734375 139.640625 164.917969 139.941406 C 165.117188 140.257812 164.976562 140.679688 164.808594 140.867188 M 163.679688 145.636719 C 163.9375 145.839844 163.976562 146.214844 163.773438 146.472656 C 163.566406 146.730469 163.191406 146.769531 162.933594 146.566406 C 162.699219 146.375 162.472656 146.058594 162.535156 145.683594 C 162.625 145.132812 163.074219 144.976562 163.40625 144.898438 C 163.738281 144.824219 164.097656 144.824219 164.449219 144.953125 C 164.90625 145.121094 165.191406 145.589844 165.226562 146.054688 C 165.242188 146.265625 165.25 146.574219 165.140625 146.910156 C 164.808594 147.90625 163.871094 148.640625 163.597656 149.140625 L 163.53125 149.296875 L 163.519531 149.25 L 163.457031 149.136719 L 163.449219 149.121094 L 164.347656 149.273438 C 165.5 149.359375 167.003906 149.222656 167.324219 149.121094 C 167.636719 149.023438 167.972656 149.199219 168.070312 149.511719 C 168.167969 149.828125 167.992188 150.160156 167.679688 150.257812 C 166.972656 150.480469 165.558594 150.5625 164.257812 150.460938 L 163.253906 150.3125 C 162.945312 150.226562 162.546875 150.097656 162.390625 149.628906 C 162.253906 149.230469 162.386719 148.867188 162.550781 148.566406 C 163.003906 147.738281 163.855469 146.996094 164.007812 146.535156 L 164.039062 146.144531 L 164.035156 146.074219 L 163.597656 146.085938 L 163.621094 146.0625 C 163.597656 146.085938 163.714844 145.878906 163.695312 145.941406 C 163.660156 146.035156 163.65625 145.597656 163.6875 145.660156 C 163.710938 145.710938 163.648438 145.609375 163.679688 145.636719 "/>
<path fill-rule="nonzero" fill="rgb(92.941284%, 21.176147%, 14.117432%)" fill-opacity="1" d="M 43.546875 165.628906 C 43.597656 165.957031 43.375 166.261719 43.050781 166.3125 C 42.722656 166.363281 42.417969 166.140625 42.367188 165.816406 C 42.285156 165.296875 42.3125 165.34375 41.996094 165.410156 L 41.144531 165.804688 C 40.496094 166.207031 39.671875 166.816406 38.917969 167.496094 C 38.195312 168.148438 37.628906 168.832031 37.410156 169.328125 C 37.277344 169.621094 37.328125 169.671875 37.558594 169.820312 C 37.828125 169.988281 38.335938 170.089844 38.84375 170.027344 C 39.515625 169.945312 40.132812 169.5625 40.574219 169.066406 L 41.035156 168.421875 L 41.136719 168.128906 C 41.148438 168.050781 41.277344 168.4375 41.214844 168.363281 C 41.179688 168.324219 41.492188 168.515625 41.394531 168.480469 C 41.34375 168.464844 41.675781 168.5 41.59375 168.507812 C 41.511719 168.511719 41.941406 168.355469 41.859375 168.414062 C 41.796875 168.453125 42.015625 168.246094 41.988281 168.285156 C 41.941406 168.351562 42.054688 168.136719 42.050781 168.15625 L 42.109375 168.96875 C 42.203125 169.734375 42.648438 170.902344 42.90625 172.1875 C 43.050781 172.90625 43.148438 173.621094 43.101562 174.304688 C 42.988281 176.097656 41.320312 177.167969 39.980469 176.957031 C 39.058594 176.8125 38.488281 175.957031 38.25 175.035156 C 38.007812 174.089844 38.03125 172.972656 38.316406 171.871094 C 38.402344 171.550781 38.726562 171.359375 39.046875 171.441406 C 39.363281 171.527344 39.554688 171.851562 39.472656 172.171875 C 39.234375 173.089844 39.222656 174.03125 39.40625 174.734375 C 39.578125 175.398438 39.886719 175.734375 40.167969 175.78125 C 40.769531 175.875 41.84375 175.296875 41.914062 174.226562 C 41.945312 173.710938 41.867188 173.082031 41.734375 172.421875 C 41.5 171.253906 41.046875 170.117188 40.925781 169.109375 L 40.855469 168.339844 L 40.871094 167.972656 C 40.890625 167.839844 40.890625 167.632812 41.175781 167.433594 C 41.574219 167.15625 41.949219 167.394531 42.109375 167.578125 C 42.269531 167.757812 42.355469 168.015625 42.320312 168.285156 L 42.085938 168.984375 L 41.464844 169.863281 C 40.859375 170.539062 40.003906 171.085938 38.988281 171.210938 C 38.25 171.304688 37.503906 171.199219 36.917969 170.824219 C 36.332031 170.453125 35.984375 169.59375 36.320312 168.84375 C 36.65625 168.085938 37.316406 167.332031 38.117188 166.609375 C 38.929688 165.878906 39.796875 165.234375 40.519531 164.789062 C 40.96875 164.511719 41.359375 164.324219 41.75 164.242188 C 42.152344 164.160156 42.613281 164.203125 42.960938 164.480469 C 43.304688 164.753906 43.472656 165.175781 43.546875 165.628906 "/>
<path fill-rule="nonzero" fill="rgb(92.941284%, 21.176147%, 14.117432%)" fill-opacity="1" d="M 45.894531 166.320312 C 45.984375 166.636719 45.800781 166.96875 45.484375 167.058594 C 45.167969 167.148438 44.835938 166.964844 44.746094 166.648438 L 44.710938 166.542969 L 44.730469 166.570312 L 44.796875 166.65625 C 44.757812 166.617188 45.109375 166.832031 45 166.789062 C 44.945312 166.769531 45.257812 166.832031 45.1875 166.828125 C 45.117188 166.828125 45.453125 166.78125 45.390625 166.800781 C 45.269531 166.839844 45.691406 166.578125 45.644531 166.636719 C 45.597656 166.683594 45.738281 166.484375 45.722656 166.515625 C 45.699219 166.566406 45.761719 166.40625 45.761719 166.421875 L 45.75 166.839844 L 45.75 169.027344 L 45.765625 169.65625 C 45.773438 169.683594 45.605469 169.449219 45.671875 169.511719 C 45.722656 169.5625 45.367188 169.371094 45.453125 169.390625 C 45.515625 169.40625 45.226562 169.394531 45.277344 169.386719 C 45.347656 169.375 45.128906 169.445312 45.148438 169.429688 C 45.496094 169.0625 46.070312 167.808594 46.625 166.902344 C 46.808594 166.605469 46.933594 166.324219 47.222656 166.074219 C 47.363281 165.957031 47.621094 165.855469 47.855469 165.910156 C 48.25 165.996094 48.363281 166.257812 48.453125 166.441406 C 48.71875 166.980469 48.816406 167.703125 48.910156 168.390625 C 49.007812 169.105469 49.066406 169.726562 49.210938 170.054688 C 49.332031 170.328125 49.367188 170.398438 49.851562 170.339844 C 50.175781 170.296875 50.476562 170.53125 50.515625 170.855469 C 50.554688 171.183594 50.324219 171.480469 49.996094 171.523438 C 49.144531 171.628906 48.390625 171.160156 48.117188 170.535156 C 47.847656 169.917969 47.820312 169.234375 47.726562 168.550781 L 47.464844 167.191406 L 47.371094 166.941406 L 47.429688 166.996094 C 47.402344 166.976562 47.597656 167.078125 47.546875 167.058594 C 47.46875 167.03125 47.910156 167.050781 47.820312 167.070312 C 47.734375 167.09375 48.027344 166.957031 47.996094 166.984375 L 47.644531 167.527344 C 47.152344 168.332031 46.667969 169.5625 46.011719 170.25 C 45.855469 170.414062 45.648438 170.585938 45.3125 170.570312 C 44.960938 170.554688 44.703125 170.25 44.632812 170.023438 C 44.511719 169.660156 44.5625 169.375 44.558594 169.050781 L 44.558594 166.839844 C 44.558594 166.566406 44.53125 166.382812 44.609375 166.113281 C 44.628906 166.03125 44.617188 165.84375 44.960938 165.691406 C 45.246094 165.5625 45.558594 165.730469 45.65625 165.832031 C 45.878906 166.0625 45.847656 166.160156 45.894531 166.320312 "/>
<path fill-rule="nonzero" fill="rgb(0%, 45.097351%, 23.136902%)" fill-opacity="1" d="M 44.183594 125.789062 C 44.1875 126.121094 43.921875 126.386719 43.59375 126.390625 C 43.261719 126.394531 42.992188 126.128906 42.992188 125.800781 C 42.984375 124.953125 43.328125 124.054688 43.992188 123.257812 C 44.527344 122.609375 45.214844 122.113281 45.648438 121.59375 C 45.9375 121.246094 46.117188 120.847656 46.136719 120.679688 C 46.136719 120.664062 46.214844 120.796875 46.160156 120.773438 C 46.074219 120.742188 45.824219 120.722656 45.476562 120.824219 C 44.199219 121.195312 42.203125 122.703125 40.410156 124.742188 C 39.148438 126.179688 38.089844 127.84375 37.511719 129.503906 C 36.351562 132.839844 37.414062 136.089844 39.015625 137.230469 C 39.871094 137.839844 41 137.949219 42.289062 137.539062 C 43.648438 137.105469 45.15625 136.109375 46.644531 134.617188 C 46.875 134.382812 47.253906 134.382812 47.488281 134.613281 C 47.71875 134.847656 47.722656 135.222656 47.488281 135.457031 C 44.359375 138.597656 40.707031 139.898438 38.324219 138.203125 C 36.152344 136.652344 35.074219 132.882812 36.386719 129.109375 C 37.027344 127.265625 38.167969 125.488281 39.511719 123.957031 C 41.40625 121.804688 43.445312 120.175781 45.140625 119.679688 C 45.667969 119.523438 46.160156 119.496094 46.589844 119.660156 C 47.019531 119.828125 47.375 120.320312 47.320312 120.8125 C 47.261719 121.359375 46.964844 121.875 46.566406 122.351562 C 46.007812 123.027344 45.3125 123.53125 44.910156 124.015625 C 44.398438 124.632812 44.179688 125.265625 44.183594 125.789062 M 51.171875 135.496094 C 51.105469 135.820312 50.792969 136.03125 50.46875 135.964844 C 50.148438 135.902344 49.9375 135.589844 50 135.265625 L 49.988281 134.644531 L 49.980469 134.074219 L 49.976562 133.914062 L 49.992188 133.976562 C 49.980469 133.941406 50.152344 134.238281 50.085938 134.152344 C 49.882812 133.890625 49.929688 133.515625 50.191406 133.316406 C 50.453125 133.113281 50.828125 133.160156 51.027344 133.421875 C 51.25 133.707031 51.167969 133.855469 51.15625 133.949219 L 51.023438 134.523438 C 50.796875 135.785156 50.519531 138.078125 50.570312 138.214844 C 50.6875 138.523438 50.53125 138.867188 50.222656 138.984375 C 49.914062 139.097656 49.570312 138.941406 49.457031 138.632812 C 49.230469 138.035156 49.382812 137.402344 49.488281 136.597656 L 49.847656 134.316406 L 49.953125 133.878906 L 49.972656 133.796875 L 49.972656 133.863281 L 49.992188 133.96875 C 49.976562 133.917969 50.136719 134.21875 50.085938 134.152344 L 51.027344 133.421875 C 51.269531 133.730469 51.164062 133.765625 51.167969 133.839844 L 51.179688 134.605469 C 51.191406 134.945312 51.230469 135.195312 51.171875 135.496094 "/>
<path fill-rule="nonzero" fill="rgb(92.941284%, 21.176147%, 14.117432%)" fill-opacity="1" d="M 54.589844 167.636719 C 54.511719 167.957031 54.191406 168.15625 53.871094 168.078125 C 53.550781 168 53.351562 167.679688 53.429688 167.359375 L 53.457031 167.167969 C 53.457031 167.15625 53.511719 167.292969 53.484375 167.238281 C 53.453125 167.183594 53.714844 167.429688 53.644531 167.394531 C 53.585938 167.363281 53.816406 167.433594 53.785156 167.433594 L 53.757812 167.449219 C 53.570312 167.527344 53.207031 167.796875 52.863281 168.167969 C 52.429688 168.628906 52.046875 169.234375 51.8125 169.757812 L 51.652344 170.257812 L 51.636719 170.503906 L 51.628906 170.464844 C 51.640625 170.503906 51.488281 170.257812 51.539062 170.308594 L 51.441406 170.234375 L 51.382812 170.210938 L 51.746094 170.164062 C 51.878906 170.132812 52.308594 169.761719 52.75 169.289062 C 53.402344 168.59375 54.050781 167.835938 54.476562 166.820312 C 54.699219 166.292969 54.871094 165.679688 54.980469 165.015625 C 55.183594 163.757812 55.152344 162.351562 54.964844 161.503906 L 54.835938 161.230469 L 54.886719 161.25 C 54.835938 161.238281 55.210938 161.160156 55.117188 161.210938 C 55.015625 161.265625 55.339844 160.984375 55.308594 161.035156 L 55.34375 160.957031 L 55.339844 161.601562 C 55.347656 162.644531 55.328125 164.046875 55.742188 165.59375 C 56.125 167.035156 56.863281 168.472656 57.585938 169.5625 L 58.523438 170.769531 L 58.777344 170.988281 C 58.789062 170.996094 58.65625 170.960938 58.71875 170.972656 C 58.753906 170.976562 58.507812 170.984375 58.570312 170.972656 C 58.636719 170.960938 58.300781 171.105469 58.363281 171.058594 C 58.632812 170.867188 59.003906 170.929688 59.195312 171.195312 C 59.386719 171.464844 59.324219 171.835938 59.058594 172.027344 C 58.699219 172.285156 58.355469 172.125 58.171875 172.015625 C 57.546875 171.648438 56.964844 170.84375 56.304688 169.773438 C 55.621094 168.660156 54.964844 167.3125 54.589844 165.902344 C 54.125 164.175781 54.15625 162.636719 54.148438 161.613281 L 54.144531 160.980469 C 54.15625 160.769531 54.050781 160.425781 54.558594 160.160156 C 54.941406 159.953125 55.339844 160.097656 55.601562 160.316406 C 55.859375 160.53125 56.042969 160.855469 56.128906 161.246094 C 56.363281 162.308594 56.386719 163.792969 56.15625 165.207031 C 56.035156 165.957031 55.839844 166.65625 55.574219 167.285156 C 55.066406 168.496094 54.300781 169.375 53.617188 170.105469 C 53.167969 170.585938 52.738281 171.15625 52.019531 171.324219 L 51.441406 171.40625 C 51.222656 171.410156 50.925781 171.402344 50.667969 171.125 C 50.292969 170.722656 50.449219 170.367188 50.464844 170.179688 C 50.484375 169.863281 50.589844 169.566406 50.726562 169.265625 C 51.015625 168.625 51.449219 167.933594 51.988281 167.355469 C 52.46875 166.839844 52.941406 166.433594 53.492188 166.28125 C 53.777344 166.203125 54.261719 166.25 54.496094 166.609375 C 54.71875 166.949219 54.671875 167.292969 54.589844 167.636719 "/>
</svg>
