<?xml version="1.0" encoding="UTF-8"?>
<svg xmlns="http://www.w3.org/2000/svg" xmlns:xlink="http://www.w3.org/1999/xlink" width="259.17032" height="175.215" viewBox="0 0 259.17032 175.215">
<path fill-rule="nonzero" fill="rgb(7.058716%, 1.176453%, 46.665955%)" fill-opacity="1" d="M 141.03125 96.871094 L 141.03125 158.699219 L 199.714844 127.675781 Z M 140.710938 95.363281 L 201.269531 127.148438 C 201.691406 127.371094 201.691406 127.976562 201.269531 128.199219 L 140.714844 160.210938 C 140.316406 160.421875 139.839844 160.136719 139.839844 159.6875 L 139.839844 95.886719 C 139.839844 95.441406 140.316406 95.152344 140.710938 95.363281 "/>
<path fill-rule="nonzero" fill="rgb(7.058716%, 1.176453%, 46.665955%)" fill-opacity="1" d="M 151.9375 137.847656 C 151.9375 137.519531 152.203125 137.253906 152.53125 137.253906 C 152.859375 137.253906 153.128906 137.519531 153.128906 137.847656 L 153.128906 147.707031 C 153.128906 148.035156 152.859375 148.300781 152.53125 148.300781 C 152.203125 148.300781 151.9375 148.035156 151.9375 147.707031 Z M 151.9375 137.847656 "/>
<path fill-rule="nonzero" fill="rgb(7.058716%, 1.176453%, 46.665955%)" fill-opacity="1" d="M 147.5625 143.371094 C 147.234375 143.371094 146.96875 143.105469 146.96875 142.777344 C 146.96875 142.449219 147.234375 142.183594 147.5625 142.183594 L 157.503906 142.183594 C 157.832031 142.183594 158.097656 142.449219 158.097656 142.777344 C 158.097656 143.105469 157.832031 143.371094 157.503906 143.371094 Z M 147.5625 143.371094 "/>
<path fill-rule="nonzero" fill="rgb(7.058716%, 1.176453%, 46.665955%)" fill-opacity="1" d="M 147.5625 112.4375 C 147.234375 112.4375 146.96875 112.171875 146.96875 111.84375 C 146.96875 111.515625 147.234375 111.25 147.5625 111.25 L 157.503906 111.25 C 157.832031 111.25 158.097656 111.515625 158.097656 111.84375 C 158.097656 112.171875 157.832031 112.4375 157.503906 112.4375 Z M 147.5625 112.4375 "/>
<path fill-rule="nonzero" fill="rgb(7.058716%, 1.176453%, 46.665955%)" fill-opacity="1" d="M 140.710938 111.183594 C 141.039062 111.183594 141.308594 111.449219 141.308594 111.78125 C 141.308594 112.109375 141.039062 112.375 140.710938 112.375 L 108.917969 112.375 C 108.589844 112.375 108.324219 112.109375 108.324219 111.78125 C 108.324219 111.449219 108.589844 111.183594 108.917969 111.183594 Z M 140.710938 111.183594 "/>
<path fill-rule="nonzero" fill="rgb(7.058716%, 1.176453%, 46.665955%)" fill-opacity="1" d="M 140.710938 142.972656 C 141.039062 142.972656 141.308594 143.238281 141.308594 143.566406 C 141.308594 143.894531 141.039062 144.160156 140.710938 144.160156 L 108.917969 144.160156 C 108.589844 144.160156 108.324219 143.894531 108.324219 143.566406 C 108.324219 143.238281 108.589844 142.972656 108.917969 142.972656 Z M 140.710938 142.972656 "/>
<path fill-rule="nonzero" fill="rgb(7.058716%, 1.176453%, 46.665955%)" fill-opacity="1" d="M 200.992188 128.269531 C 200.664062 128.269531 200.394531 128.003906 200.394531 127.675781 C 200.394531 127.347656 200.664062 127.078125 200.992188 127.078125 L 232.78125 127.078125 C 233.113281 127.078125 233.378906 127.347656 233.378906 127.675781 C 233.378906 128.003906 233.113281 128.269531 232.78125 128.269531 Z M 200.992188 128.269531 "/>
<path fill-rule="nonzero" fill="rgb(7.058716%, 1.176453%, 46.665955%)" fill-opacity="1" d="M 136.828125 48.4375 C 136.5 48.4375 136.234375 48.171875 136.234375 47.84375 C 136.234375 47.511719 136.5 47.246094 136.828125 47.246094 L 166.289062 47.246094 C 166.617188 47.246094 166.886719 47.511719 166.886719 47.84375 C 166.886719 48.171875 166.617188 48.4375 166.289062 48.4375 Z M 136.828125 48.4375 "/>
<path fill-rule="nonzero" fill="rgb(7.058716%, 1.176453%, 46.665955%)" fill-opacity="1" d="M 173.503906 48.4375 C 173.171875 48.4375 172.90625 48.171875 172.90625 47.84375 C 172.90625 47.511719 173.171875 47.246094 173.503906 47.246094 L 204.875 47.246094 C 205.203125 47.246094 205.46875 47.511719 205.46875 47.84375 C 205.46875 48.171875 205.203125 48.4375 204.875 48.4375 Z M 173.503906 48.4375 "/>
<path fill-rule="nonzero" fill="rgb(7.058716%, 1.176453%, 46.665955%)" fill-opacity="1" d="M 166.886719 61.402344 C 166.886719 61.730469 166.617188 62 166.289062 62 C 165.960938 62 165.695312 61.730469 165.695312 61.402344 L 165.695312 34.273438 C 165.695312 33.945312 165.960938 33.679688 166.289062 33.679688 C 166.617188 33.679688 166.886719 33.945312 166.886719 34.273438 Z M 166.886719 61.402344 "/>
<path fill-rule="nonzero" fill="rgb(7.058716%, 1.176453%, 46.665955%)" fill-opacity="1" d="M 174.097656 61.40625 C 174.097656 61.734375 173.832031 62.003906 173.503906 62.003906 C 173.171875 62.003906 172.90625 61.734375 172.90625 61.40625 L 172.90625 34.277344 C 172.90625 33.949219 173.171875 33.683594 173.503906 33.683594 C 173.832031 33.683594 174.097656 33.949219 174.097656 34.277344 Z M 174.097656 61.40625 "/>
<path fill-rule="nonzero" fill="rgb(7.058716%, 1.176453%, 46.665955%)" fill-opacity="1" d="M 11.761719 110.050781 C 11.429688 110.050781 11.164062 109.785156 11.164062 109.457031 C 11.164062 109.128906 11.429688 108.863281 11.761719 108.863281 L 41.222656 108.863281 C 41.550781 108.863281 41.816406 109.128906 41.816406 109.457031 C 41.816406 109.785156 41.550781 110.050781 41.222656 110.050781 Z M 11.761719 110.050781 "/>
<path fill-rule="nonzero" fill="rgb(7.058716%, 1.176453%, 46.665955%)" fill-opacity="1" d="M 48.433594 110.050781 C 48.105469 110.050781 47.839844 109.785156 47.839844 109.457031 C 47.839844 109.128906 48.105469 108.863281 48.433594 108.863281 L 79.804688 108.863281 C 80.132812 108.863281 80.402344 109.128906 80.402344 109.457031 C 80.402344 109.785156 80.132812 110.050781 79.804688 110.050781 Z M 48.433594 110.050781 "/>
<path fill-rule="nonzero" fill="rgb(7.058716%, 1.176453%, 46.665955%)" fill-opacity="1" d="M 41.816406 123.019531 C 41.816406 123.347656 41.550781 123.613281 41.222656 123.613281 C 40.894531 123.613281 40.625 123.347656 40.625 123.019531 L 40.625 95.886719 C 40.625 95.558594 40.894531 95.292969 41.222656 95.292969 C 41.550781 95.292969 41.816406 95.558594 41.816406 95.886719 Z M 41.816406 123.019531 "/>
<path fill-rule="nonzero" fill="rgb(7.058716%, 1.176453%, 46.665955%)" fill-opacity="1" d="M 49.027344 123.023438 C 49.027344 123.351562 48.761719 123.617188 48.433594 123.617188 C 48.105469 123.617188 47.839844 123.351562 47.839844 123.023438 L 47.839844 95.890625 C 47.839844 95.5625 48.105469 95.296875 48.433594 95.296875 C 48.761719 95.296875 49.027344 95.5625 49.027344 95.890625 Z M 49.027344 123.023438 "/>
<path fill-rule="nonzero" fill="rgb(7.058716%, 1.176453%, 46.665955%)" fill-opacity="1" d="M 108.328125 144.160156 C 108.328125 143.832031 108.597656 143.566406 108.925781 143.566406 C 109.253906 143.566406 109.519531 143.832031 109.519531 144.160156 L 109.519531 155.082031 C 109.519531 155.410156 109.253906 155.675781 108.925781 155.675781 C 108.597656 155.675781 108.328125 155.410156 108.328125 155.082031 Z M 108.328125 144.160156 "/>
<path fill-rule="nonzero" fill="rgb(7.058716%, 1.176453%, 46.665955%)" fill-opacity="1" d="M 100.433594 156.410156 C 100.105469 156.410156 99.839844 156.144531 99.839844 155.816406 C 99.839844 155.488281 100.105469 155.21875 100.433594 155.21875 L 117.417969 155.21875 C 117.746094 155.21875 118.011719 155.488281 118.011719 155.816406 C 118.011719 156.144531 117.746094 156.410156 117.417969 156.410156 Z M 100.433594 156.410156 "/>
<path fill-rule="nonzero" fill="rgb(7.058716%, 1.176453%, 46.665955%)" fill-opacity="1" d="M 103.367188 160.304688 C 103.039062 160.304688 102.773438 160.039062 102.773438 159.710938 C 102.773438 159.382812 103.039062 159.113281 103.367188 159.113281 L 114.773438 159.113281 C 115.101562 159.113281 115.367188 159.382812 115.367188 159.710938 C 115.367188 160.039062 115.101562 160.304688 114.773438 160.304688 Z M 103.367188 160.304688 "/>
<path fill-rule="nonzero" fill="rgb(7.058716%, 1.176453%, 46.665955%)" fill-opacity="1" d="M 106.632812 163.957031 C 106.304688 163.957031 106.039062 163.691406 106.039062 163.363281 C 106.039062 163.035156 106.304688 162.769531 106.632812 162.769531 L 111.503906 162.769531 C 111.832031 162.769531 112.101562 163.035156 112.101562 163.363281 C 112.101562 163.691406 111.832031 163.957031 111.503906 163.957031 Z M 106.632812 163.957031 "/>
<path fill-rule="nonzero" fill="rgb(7.058716%, 1.176453%, 46.665955%)" fill-opacity="1" d="M 11.261719 109.457031 C 11.261719 109.128906 11.527344 108.863281 11.855469 108.863281 C 12.183594 108.863281 12.449219 109.128906 12.449219 109.457031 L 12.449219 143.664062 C 12.449219 143.992188 12.183594 144.257812 11.855469 144.257812 C 11.527344 144.257812 11.261719 143.992188 11.261719 143.664062 Z M 11.261719 109.457031 "/>
<path fill-rule="nonzero" fill="rgb(7.058716%, 1.176453%, 46.665955%)" fill-opacity="1" d="M 115.167969 142.972656 C 115.496094 142.972656 115.765625 143.238281 115.765625 143.566406 C 115.765625 143.894531 115.496094 144.160156 115.167969 144.160156 L 11.914062 144.160156 C 11.585938 144.160156 11.320312 143.894531 11.320312 143.566406 C 11.320312 143.238281 11.585938 142.972656 11.914062 142.972656 Z M 115.167969 142.972656 "/>
<path fill-rule="nonzero" fill="rgb(7.058716%, 1.176453%, 46.665955%)" fill-opacity="1" d="M 80.070312 109.988281 C 79.777344 110.136719 79.417969 110.015625 79.273438 109.722656 C 79.128906 109.425781 79.246094 109.070312 79.542969 108.925781 L 108.058594 94.761719 C 108.355469 94.613281 108.710938 94.734375 108.859375 95.027344 C 109.003906 95.324219 108.882812 95.679688 108.589844 95.824219 Z M 80.070312 109.988281 "/>
<path fill-rule="nonzero" fill="rgb(7.058716%, 1.176453%, 46.665955%)" fill-opacity="1" d="M 119.265625 111.78125 C 119.265625 112.109375 119 112.375 118.667969 112.375 C 118.339844 112.375 118.074219 112.109375 118.074219 111.78125 L 118.074219 47.839844 C 118.074219 47.511719 118.339844 47.246094 118.667969 47.246094 C 119 47.246094 119.265625 47.511719 119.265625 47.839844 Z M 119.265625 111.78125 "/>
<path fill-rule="nonzero" fill="rgb(7.058716%, 1.176453%, 46.665955%)" fill-opacity="1" d="M 141.785156 47.246094 C 142.117188 47.246094 142.382812 47.511719 142.382812 47.84375 C 142.382812 48.171875 142.117188 48.4375 141.785156 48.4375 L 118.667969 48.4375 C 118.339844 48.4375 118.074219 48.171875 118.074219 47.84375 C 118.074219 47.511719 118.339844 47.246094 118.667969 47.246094 Z M 141.785156 47.246094 "/>
<path fill-rule="nonzero" fill="rgb(7.058716%, 1.176453%, 46.665955%)" fill-opacity="1" d="M 203.519531 48.4375 C 203.191406 48.4375 202.925781 48.171875 202.925781 47.84375 C 202.925781 47.511719 203.191406 47.246094 203.519531 47.246094 L 222.652344 47.246094 C 222.980469 47.246094 223.25 47.511719 223.25 47.84375 C 223.25 48.171875 222.980469 48.4375 222.652344 48.4375 Z M 203.519531 48.4375 "/>
<path fill-rule="nonzero" fill="rgb(7.058716%, 1.176453%, 46.665955%)" fill-opacity="1" d="M 222.058594 47.84375 C 222.058594 47.511719 222.324219 47.246094 222.652344 47.246094 C 222.980469 47.246094 223.25 47.511719 223.25 47.84375 L 223.25 127.675781 C 223.25 128.003906 222.980469 128.269531 222.652344 128.269531 C 222.324219 128.269531 222.058594 128.003906 222.058594 127.675781 Z M 222.058594 47.84375 "/>
<path fill-rule="nonzero" fill="rgb(7.058716%, 1.176453%, 46.665955%)" fill-opacity="1" d="M 142.382812 47.84375 C 142.382812 48.171875 142.117188 48.4375 141.785156 48.4375 C 141.457031 48.4375 141.191406 48.171875 141.191406 47.84375 L 141.191406 21.113281 C 141.191406 20.785156 141.457031 20.519531 141.785156 20.519531 C 142.117188 20.519531 142.382812 20.785156 142.382812 21.113281 Z M 142.382812 47.84375 "/>
<path fill-rule="nonzero" fill="rgb(7.058716%, 1.176453%, 46.665955%)" fill-opacity="1" d="M 141.785156 21.707031 C 141.457031 21.707031 141.191406 21.441406 141.191406 21.113281 C 141.191406 20.785156 141.457031 20.519531 141.785156 20.519531 L 161.941406 20.519531 C 162.273438 20.519531 162.539062 20.785156 162.539062 21.113281 C 162.539062 21.441406 162.273438 21.707031 161.941406 21.707031 Z M 141.785156 21.707031 "/>
<path fill-rule="nonzero" fill="rgb(7.058716%, 1.176453%, 46.665955%)" fill-opacity="1" d="M 161.925781 21.707031 C 161.597656 21.699219 161.339844 21.421875 161.347656 21.09375 C 161.359375 20.765625 161.632812 20.507812 161.960938 20.519531 L 182.730469 21.128906 C 183.058594 21.140625 183.316406 21.414062 183.304688 21.742188 C 183.296875 22.070312 183.023438 22.328125 182.695312 22.320312 Z M 161.925781 21.707031 "/>
<path fill-rule="nonzero" fill="rgb(7.058716%, 1.176453%, 46.665955%)" fill-opacity="1" d="M 182.710938 22.320312 C 182.382812 22.320312 182.117188 22.054688 182.117188 21.726562 C 182.117188 21.394531 182.382812 21.128906 182.710938 21.128906 L 210.316406 21.128906 C 210.644531 21.128906 210.910156 21.394531 210.910156 21.726562 C 210.910156 22.054688 210.644531 22.320312 210.316406 22.320312 Z M 182.710938 22.320312 "/>
<path fill-rule="nonzero" fill="rgb(7.058716%, 1.176453%, 46.665955%)" fill-opacity="1" d="M 209.722656 21.726562 C 209.722656 21.394531 209.988281 21.128906 210.316406 21.128906 C 210.644531 21.128906 210.910156 21.394531 210.910156 21.726562 L 210.910156 47.84375 C 210.910156 48.171875 210.644531 48.4375 210.316406 48.4375 C 209.988281 48.4375 209.722656 48.171875 209.722656 47.84375 Z M 209.722656 21.726562 "/>
<path fill-rule="nonzero" fill="rgb(92.941284%, 21.176147%, 14.117432%)" fill-opacity="1" d="M 208.175781 53.226562 C 208.203125 53.550781 207.960938 53.839844 207.632812 53.867188 C 207.304688 53.894531 207.015625 53.652344 206.988281 53.324219 C 206.972656 53.097656 206.984375 52.832031 206.988281 52.640625 C 206.988281 52.640625 206.992188 52.691406 206.988281 52.667969 C 206.988281 52.65625 207.003906 52.769531 206.996094 52.734375 C 206.992188 52.714844 207.027344 52.847656 207.015625 52.8125 C 207.003906 52.773438 207.171875 53.070312 207.109375 52.988281 C 206.910156 52.726562 206.960938 52.355469 207.21875 52.152344 C 207.480469 51.953125 207.855469 52.003906 208.054688 52.265625 C 208.265625 52.542969 208.175781 52.566406 208.175781 52.601562 C 208.179688 52.636719 208.179688 52.65625 208.179688 52.675781 C 208.171875 52.859375 208.167969 53.132812 208.175781 53.226562 M 207.207031 52.164062 C 207.464844 51.957031 207.839844 51.996094 208.042969 52.253906 C 208.25 52.511719 208.210938 52.882812 207.953125 53.089844 C 207.886719 53.144531 208.09375 52.925781 208.074219 52.957031 C 208.054688 52.988281 208.121094 52.871094 208.113281 52.886719 C 208.089844 52.941406 208.152344 52.789062 208.148438 52.804688 C 208.136719 52.832031 208.152344 52.785156 208.148438 52.804688 C 208.136719 52.867188 208.117188 52.992188 208.097656 53.15625 C 208.050781 53.511719 208 54.015625 207.964844 54.574219 C 207.898438 55.601562 207.90625 56.84375 207.921875 57.808594 C 207.929688 58.375 207.941406 58.835938 207.96875 58.9375 C 207.96875 58.945312 207.957031 58.914062 207.964844 58.925781 C 207.972656 58.945312 207.878906 58.796875 207.910156 58.839844 C 207.945312 58.878906 207.640625 58.660156 207.726562 58.699219 C 207.8125 58.738281 207.378906 58.667969 207.457031 58.65625 C 207.523438 58.648438 207.265625 58.722656 207.296875 58.707031 C 207.335938 58.6875 207.253906 58.738281 207.265625 58.726562 C 207.28125 58.710938 207.308594 58.683594 207.339844 58.636719 C 207.542969 58.378906 207.914062 58.332031 208.175781 58.53125 C 208.433594 58.730469 208.484375 59.105469 208.28125 59.367188 C 208.132812 59.558594 208.019531 59.78125 207.613281 59.835938 C 207.375 59.867188 207.105469 59.734375 206.984375 59.585938 C 206.871094 59.445312 206.839844 59.328125 206.8125 59.226562 C 206.714844 58.824219 206.742188 58.386719 206.730469 57.828125 C 206.714844 56.847656 206.707031 55.589844 206.777344 54.5 C 206.816406 53.910156 206.867188 53.386719 206.917969 53.007812 C 206.9375 52.828125 206.960938 52.691406 206.976562 52.589844 C 206.988281 52.542969 206.957031 52.546875 207.042969 52.371094 C 207.0625 52.332031 207.078125 52.265625 207.207031 52.164062 "/>
<path fill-rule="nonzero" fill="rgb(92.941284%, 21.176147%, 14.117432%)" fill-opacity="1" d="M 205.421875 55.929688 C 205.601562 56.203125 205.519531 56.570312 205.246094 56.75 C 204.96875 56.929688 204.601562 56.851562 204.421875 56.574219 C 204.320312 56.417969 204.242188 56.230469 204.242188 56.007812 C 204.242188 55.78125 204.347656 55.558594 204.480469 55.417969 C 204.734375 55.140625 205.03125 55.058594 205.339844 54.984375 C 205.972656 54.828125 206.757812 54.78125 207.570312 54.707031 C 209.238281 54.554688 210.675781 54.347656 211.078125 54.269531 C 211.398438 54.207031 211.710938 54.417969 211.773438 54.742188 C 211.835938 55.0625 211.628906 55.375 211.304688 55.4375 C 210.800781 55.539062 209.382812 55.734375 207.675781 55.890625 C 206.855469 55.96875 206.09375 56.023438 205.621094 56.140625 C 205.414062 56.191406 205.394531 56.179688 205.351562 56.226562 C 205.324219 56.253906 205.433594 55.925781 205.429688 56.011719 C 205.429688 56.050781 205.414062 55.910156 205.417969 55.925781 C 205.421875 55.9375 205.414062 55.914062 205.421875 55.929688 "/>
<path fill-rule="nonzero" fill="rgb(92.941284%, 21.176147%, 14.117432%)" fill-opacity="1" d="M 137.535156 59.761719 C 137.277344 59.554688 137.234375 59.183594 137.441406 58.925781 C 137.644531 58.667969 138.019531 58.625 138.277344 58.832031 C 138.324219 58.871094 138.128906 58.746094 138.160156 58.757812 C 138.210938 58.785156 138.035156 58.71875 138.058594 58.722656 C 138.113281 58.738281 138.019531 58.71875 138.054688 58.71875 C 138.089844 58.71875 138.148438 58.71875 138.21875 58.71875 C 138.398438 58.714844 138.652344 58.699219 138.953125 58.675781 C 139.585938 58.628906 140.390625 58.550781 141.226562 58.453125 C 142.90625 58.253906 144.664062 57.910156 144.816406 57.808594 C 145.09375 57.628906 145.460938 57.703125 145.644531 57.976562 C 145.824219 58.25 145.75 58.617188 145.476562 58.800781 C 145.050781 59.082031 144.523438 59.152344 143.816406 59.28125 C 143.078125 59.417969 142.222656 59.535156 141.363281 59.636719 C 140.511719 59.734375 139.695312 59.816406 139.039062 59.863281 C 138.726562 59.886719 138.457031 59.902344 138.246094 59.90625 C 138.144531 59.910156 138.058594 59.910156 137.976562 59.90625 C 137.894531 59.902344 137.859375 60.023438 137.535156 59.761719 "/>
<path fill-rule="nonzero" fill="rgb(92.941284%, 21.176147%, 14.117432%)" fill-opacity="1" d="M 20.605469 114.535156 C 20.707031 114.847656 20.535156 115.183594 20.222656 115.285156 C 19.910156 115.386719 19.574219 115.214844 19.472656 114.902344 C 19.433594 114.785156 19.429688 114.761719 19.414062 114.742188 C 19.410156 114.734375 19.472656 114.8125 19.453125 114.789062 C 19.429688 114.765625 19.628906 114.917969 19.566406 114.882812 C 19.515625 114.851562 19.964844 114.953125 19.855469 114.957031 C 19.746094 114.957031 20.21875 114.824219 20.148438 114.871094 C 20.078125 114.914062 20.308594 114.707031 20.28125 114.742188 C 20.246094 114.789062 20.339844 114.640625 20.332031 114.65625 C 20.328125 114.664062 20.335938 114.644531 20.335938 114.65625 C 20.328125 114.6875 20.3125 114.757812 20.300781 114.851562 C 20.089844 116.523438 20.328125 120.574219 20.363281 121.949219 C 20.371094 122.277344 20.109375 122.550781 19.78125 122.558594 C 19.453125 122.566406 19.179688 122.304688 19.171875 121.976562 C 19.140625 120.644531 18.875 116.652344 19.121094 114.699219 C 19.136719 114.582031 19.152344 114.46875 19.183594 114.351562 C 19.214844 114.234375 19.195312 114.066406 19.503906 113.867188 C 19.679688 113.753906 19.984375 113.753906 20.152344 113.847656 C 20.3125 113.9375 20.371094 114.027344 20.417969 114.101562 C 20.507812 114.242188 20.550781 114.371094 20.605469 114.535156 "/>
<path fill-rule="nonzero" fill="rgb(92.941284%, 21.176147%, 14.117432%)" fill-opacity="1" d="M 17.019531 118.742188 C 17.300781 118.917969 17.382812 119.285156 17.210938 119.5625 C 17.035156 119.839844 16.667969 119.925781 16.390625 119.753906 C 16.222656 119.648438 16.078125 119.535156 15.957031 119.386719 C 15.835938 119.238281 15.738281 119.035156 15.734375 118.808594 C 15.726562 118.582031 15.8125 118.375 15.925781 118.230469 C 16.03125 118.085938 16.15625 117.984375 16.289062 117.898438 C 16.8125 117.554688 17.515625 117.371094 18.269531 117.203125 C 20.117188 116.789062 22.019531 116.304688 23.367188 116.984375 C 23.664062 117.128906 23.78125 117.488281 23.632812 117.78125 C 23.488281 118.074219 23.128906 118.195312 22.835938 118.046875 C 22.144531 117.699219 20.335938 117.960938 18.53125 118.363281 C 17.832031 118.519531 17.199219 118.722656 16.945312 118.890625 C 16.890625 118.925781 16.882812 118.933594 16.875 118.945312 C 16.863281 118.960938 16.921875 118.691406 16.921875 118.777344 C 16.921875 118.816406 16.890625 118.644531 16.902344 118.671875 C 16.910156 118.691406 16.882812 118.636719 16.882812 118.636719 C 16.890625 118.644531 16.933594 118.6875 17.019531 118.742188 "/>
<path fill-rule="nonzero" fill="rgb(92.941284%, 21.176147%, 14.117432%)" fill-opacity="1" d="M 68.917969 118.464844 C 69.203125 118.628906 69.300781 118.992188 69.132812 119.277344 C 68.96875 119.5625 68.605469 119.660156 68.320312 119.492188 C 68.070312 119.347656 67.84375 119.246094 67.648438 118.949219 C 67.542969 118.792969 67.511719 118.472656 67.632812 118.273438 C 67.742188 118.097656 67.859375 118.046875 67.941406 118.007812 C 68.082031 117.945312 68.1875 117.933594 68.300781 117.917969 C 68.523438 117.886719 68.777344 117.878906 69.039062 117.878906 C 71.230469 117.882812 73.867188 117.582031 75.378906 117.4375 C 75.703125 117.40625 75.996094 117.644531 76.027344 117.972656 C 76.058594 118.296875 75.820312 118.589844 75.492188 118.621094 C 73.996094 118.761719 71.332031 119.074219 69.035156 119.070312 C 68.804688 119.070312 68.585938 119.078125 68.457031 119.097656 C 68.402344 119.105469 68.492188 119.066406 68.433594 119.09375 C 68.410156 119.105469 68.546875 119.019531 68.511719 119.046875 C 68.46875 119.074219 68.699219 118.8125 68.652344 118.894531 C 68.597656 118.980469 68.726562 118.449219 68.730469 118.566406 C 68.738281 118.679688 68.597656 118.226562 68.640625 118.292969 C 68.679688 118.347656 68.621094 118.269531 68.675781 118.308594 C 68.730469 118.351562 68.816406 118.40625 68.917969 118.464844 "/>
<path fill-rule="nonzero" fill="rgb(92.941284%, 21.176147%, 14.117432%)" fill-opacity="1" d="M 38.679688 71.394531 C 38.980469 71.527344 39.117188 71.878906 38.984375 72.179688 C 38.851562 72.480469 38.503906 72.617188 38.203125 72.484375 C 38.082031 72.433594 38.054688 72.425781 38.035156 72.429688 C 37.996094 72.429688 38.265625 72.253906 38.222656 72.3125 C 38.1875 72.363281 38.238281 72.265625 38.238281 72.335938 C 38.234375 72.414062 38.25 72.542969 38.28125 72.703125 C 38.4375 73.410156 38.929688 74.488281 39.589844 75.558594 C 40.300781 76.710938 41.175781 77.753906 41.863281 78.460938 C 42.132812 78.738281 42.355469 78.941406 42.480469 79.015625 C 42.550781 79.058594 42.605469 79.089844 42.640625 79.105469 C 42.667969 79.121094 42.589844 79.101562 42.632812 79.109375 C 42.683594 79.117188 42.308594 79.199219 42.390625 79.15625 C 42.429688 79.132812 42.28125 79.242188 42.300781 79.222656 C 42.316406 79.207031 42.277344 79.25 42.277344 79.25 C 42.304688 79.207031 42.359375 78.714844 42.417969 78.136719 C 42.59375 76.308594 42.8125 73.667969 42.816406 71.136719 C 42.820312 69.980469 42.800781 68.902344 42.726562 68.03125 C 42.65625 67.191406 42.417969 66.585938 42.390625 65.984375 C 42.382812 65.832031 42.390625 65.664062 42.457031 65.480469 C 42.527344 65.292969 42.675781 65.109375 42.855469 65.003906 C 43.203125 64.796875 43.5625 64.808594 43.988281 64.847656 C 44.316406 64.878906 44.558594 65.167969 44.527344 65.496094 C 44.496094 65.824219 44.207031 66.0625 43.878906 66.035156 C 43.714844 66.019531 43.589844 66.015625 43.511719 66.023438 C 43.445312 66.03125 43.492188 66.007812 43.464844 66.027344 C 43.425781 66.050781 43.585938 65.855469 43.570312 65.894531 C 43.558594 65.929688 43.574219 65.875 43.578125 65.925781 C 43.59375 66.21875 43.828125 66.949219 43.910156 67.929688 C 43.992188 68.863281 44.011719 69.964844 44.007812 71.140625 C 44.003906 73.734375 43.78125 76.402344 43.601562 78.25 C 43.550781 78.773438 43.621094 79.316406 43.304688 79.855469 C 43.230469 79.976562 43.125 80.109375 42.960938 80.199219 C 42.796875 80.289062 42.597656 80.308594 42.445312 80.285156 C 42.167969 80.242188 42.019531 80.125 41.871094 80.039062 C 41.5625 79.855469 41.300781 79.59375 41.011719 79.292969 C 40.269531 78.527344 39.347656 77.429688 38.578125 76.183594 C 37.867188 75.035156 37.324219 73.894531 37.121094 72.957031 C 37.023438 72.503906 36.949219 72.058594 37.246094 71.632812 C 37.402344 71.40625 37.695312 71.257812 37.957031 71.242188 C 38.210938 71.222656 38.445312 71.292969 38.679688 71.394531 "/>
<path fill-rule="nonzero" fill="rgb(92.941284%, 21.176147%, 14.117432%)" fill-opacity="1" d="M 48.914062 72.640625 C 49.230469 72.726562 49.417969 73.054688 49.328125 73.371094 C 49.242188 73.691406 48.914062 73.875 48.597656 73.789062 C 48.578125 73.78125 48.703125 73.78125 48.648438 73.785156 C 48.617188 73.789062 48.828125 73.726562 48.777344 73.75 C 48.722656 73.773438 48.980469 73.585938 48.933594 73.636719 C 48.898438 73.675781 49.042969 73.441406 49.027344 73.484375 C 49.007812 73.527344 49.050781 73.363281 49.046875 73.386719 C 49.046875 73.425781 49.046875 73.34375 49.050781 73.367188 C 49.078125 73.488281 49.226562 73.828125 49.414062 74.222656 C 49.863281 75.148438 50.277344 76.273438 50.644531 77.242188 C 50.992188 78.167969 51.207031 79.019531 51.367188 79.390625 C 51.398438 79.464844 51.351562 79.414062 51.390625 79.457031 C 51.402344 79.46875 51.296875 79.378906 51.328125 79.402344 C 51.378906 79.4375 50.988281 79.304688 51.089844 79.316406 C 51.195312 79.324219 50.734375 79.410156 50.804688 79.371094 C 50.859375 79.347656 50.6875 79.460938 50.710938 79.441406 C 50.738281 79.414062 50.667969 79.492188 50.667969 79.488281 C 50.667969 79.488281 50.675781 79.476562 50.683594 79.457031 C 50.714844 79.394531 50.761719 79.265625 50.808594 79.085938 C 50.898438 78.769531 51.226562 78.585938 51.542969 78.675781 C 51.859375 78.761719 52.042969 79.09375 51.957031 79.410156 C 51.894531 79.621094 51.839844 79.796875 51.765625 79.953125 C 51.695312 80.109375 51.625 80.285156 51.359375 80.425781 C 51.078125 80.574219 50.660156 80.417969 50.515625 80.265625 C 50.386719 80.125 50.332031 79.996094 50.273438 79.863281 C 50.039062 79.3125 49.851562 78.515625 49.53125 77.660156 C 49.164062 76.695312 48.753906 75.589844 48.34375 74.738281 C 48.148438 74.335938 47.964844 73.984375 47.886719 73.613281 C 47.867188 73.515625 47.851562 73.414062 47.863281 73.289062 C 47.875 73.15625 47.921875 72.984375 48.046875 72.839844 C 48.1875 72.6875 48.382812 72.617188 48.535156 72.601562 C 48.675781 72.585938 48.800781 72.609375 48.914062 72.640625 "/>
<path fill-rule="nonzero" fill="rgb(0%, 45.097351%, 23.136902%)" fill-opacity="1" d="M 188.113281 35.347656 C 188.011719 35.773438 187.585938 36.035156 187.160156 35.933594 C 186.734375 35.832031 186.46875 35.40625 186.570312 34.980469 C 186.703125 34.421875 186.851562 33.984375 186.980469 33.546875 C 187.0625 33.28125 187.132812 32.976562 187.210938 32.675781 C 187.253906 32.503906 187.289062 32.390625 187.308594 32.296875 C 187.363281 32.050781 187.398438 31.890625 187.398438 31.882812 C 187.398438 31.824219 187.476562 31.90625 187.417969 31.851562 C 187.328125 31.769531 187.710938 31.980469 187.664062 31.972656 C 187.625 31.96875 187.691406 31.972656 187.65625 31.980469 C 187.5625 32 187.375 32.070312 187.148438 32.1875 C 186.664062 32.445312 186.058594 32.882812 185.476562 33.40625 C 184.792969 34.019531 184.109375 34.777344 183.570312 35.542969 C 182.707031 36.761719 182.410156 38.117188 182.515625 39.273438 C 182.597656 40.195312 183.058594 40.917969 183.527344 41.261719 C 183.988281 41.601562 184.457031 41.636719 185.109375 41.414062 C 185.808594 41.171875 186.648438 40.605469 187.542969 39.839844 C 187.875 39.554688 188.378906 39.59375 188.664062 39.925781 C 188.949219 40.257812 188.910156 40.757812 188.578125 41.042969 C 187.597656 41.878906 186.636719 42.566406 185.625 42.914062 C 184.628906 43.257812 183.484375 43.199219 182.589844 42.539062 C 181.71875 41.902344 181.058594 40.78125 180.933594 39.414062 C 180.796875 37.894531 181.1875 36.160156 182.273438 34.625 C 182.890625 33.753906 183.644531 32.921875 184.417969 32.222656 C 185.078125 31.632812 185.761719 31.128906 186.402344 30.789062 C 186.714844 30.621094 187.019531 30.492188 187.339844 30.425781 C 187.667969 30.359375 188.117188 30.339844 188.488281 30.679688 C 188.84375 31.003906 188.96875 31.425781 188.984375 31.828125 C 189 32.21875 188.894531 32.480469 188.859375 32.632812 C 188.820312 32.824219 188.773438 32.960938 188.75 33.058594 C 188.675781 33.355469 188.597656 33.679688 188.503906 34 C 188.363281 34.464844 188.230469 34.859375 188.113281 35.347656 "/>
<path fill-rule="nonzero" fill="rgb(0%, 45.097351%, 23.136902%)" fill-opacity="1" d="M 191.292969 40.691406 C 191.066406 41.066406 190.578125 41.1875 190.203125 40.957031 C 189.832031 40.730469 189.710938 40.242188 189.9375 39.867188 C 190.066406 39.660156 190.347656 39.101562 190.730469 38.601562 C 190.933594 38.332031 191.171875 38.046875 191.542969 37.847656 C 191.621094 37.800781 191.734375 37.726562 191.90625 37.652344 C 192.097656 37.570312 192.441406 37.472656 192.808594 37.640625 C 193.089844 37.769531 193.242188 37.992188 193.332031 38.179688 C 193.414062 38.355469 193.449219 38.523438 193.472656 38.6875 C 193.515625 39.011719 193.5 39.34375 193.445312 39.679688 C 193.265625 40.890625 192.4375 41.988281 191.773438 42.941406 C 191.433594 43.433594 191.105469 43.847656 190.851562 44.152344 C 190.683594 44.351562 190.523438 44.484375 190.394531 44.570312 C 190.328125 44.613281 190.269531 44.644531 190.226562 44.664062 C 189.828125 44.847656 189.359375 44.671875 189.175781 44.273438 C 188.992188 43.875 189.167969 43.402344 189.566406 43.222656 C 189.59375 43.210938 189.503906 43.257812 189.511719 43.25 C 189.515625 43.25 189.5625 43.21875 189.636719 43.128906 C 189.863281 42.855469 190.164062 42.476562 190.46875 42.039062 C 191.113281 41.109375 191.789062 40.039062 191.878906 39.441406 C 191.910156 39.226562 191.914062 39.015625 191.898438 38.898438 C 191.890625 38.847656 191.90625 38.878906 191.894531 38.851562 C 191.882812 38.832031 191.992188 38.984375 191.953125 38.941406 C 191.914062 38.898438 192.226562 39.121094 192.140625 39.082031 C 192.039062 39.03125 192.515625 39.125 192.441406 39.132812 C 192.375 39.140625 192.53125 39.113281 192.53125 39.113281 C 192.515625 39.117188 192.429688 39.167969 192.300781 39.238281 C 192.257812 39.265625 192.132812 39.375 191.992188 39.5625 C 191.726562 39.910156 191.480469 40.386719 191.292969 40.691406 M 190.273438 44.640625 C 189.890625 44.847656 189.40625 44.703125 189.199219 44.320312 C 188.992188 43.933594 189.136719 43.453125 189.519531 43.242188 C 189.535156 43.234375 189.546875 43.230469 189.558594 43.222656 C 189.582031 43.207031 189.613281 43.199219 189.644531 43.1875 C 189.875 43.097656 190.179688 43.015625 190.535156 42.941406 C 192.21875 42.59375 193.96875 43.085938 194.839844 42.871094 C 195.265625 42.765625 195.695312 43.023438 195.800781 43.449219 C 195.90625 43.875 195.648438 44.304688 195.222656 44.410156 C 193.691406 44.789062 192.003906 44.257812 190.859375 44.496094 C 190.570312 44.554688 190.292969 44.636719 190.21875 44.667969 C 190.199219 44.675781 190.382812 44.578125 190.304688 44.625 C 190.230469 44.664062 190.289062 44.632812 190.273438 44.640625 "/>
<path fill-rule="nonzero" fill="rgb(0%, 45.097351%, 23.136902%)" fill-opacity="1" d="M 56.3125 119.207031 C 56.238281 119.640625 55.828125 119.929688 55.394531 119.855469 C 54.964844 119.777344 54.675781 119.367188 54.75 118.9375 C 54.824219 118.523438 54.996094 118.039062 55.191406 117.535156 C 55.289062 117.289062 55.394531 117.078125 55.472656 116.90625 C 55.5625 116.703125 55.652344 116.539062 55.707031 116.417969 C 55.730469 116.359375 55.746094 116.320312 55.753906 116.300781 C 55.757812 116.289062 55.75 116.429688 55.75 116.367188 C 55.746094 116.308594 55.824219 116.660156 55.792969 116.582031 C 55.761719 116.5 55.996094 116.859375 55.9375 116.796875 C 55.878906 116.746094 56.175781 116.949219 56.121094 116.925781 C 56.070312 116.902344 56.273438 116.96875 56.242188 116.964844 C 56.1875 116.957031 56.308594 116.96875 56.296875 116.96875 C 56.277344 116.972656 56.234375 116.980469 56.175781 117 C 55.921875 117.089844 55.492188 117.328125 55.035156 117.722656 C 53.984375 118.636719 52.734375 120.140625 52.019531 121.453125 C 51.714844 122.007812 51.585938 122.511719 51.585938 122.882812 C 51.585938 123.257812 51.753906 123.53125 52.082031 123.789062 C 52.429688 124.058594 52.9375 124.265625 53.441406 124.375 C 54.539062 124.617188 55.78125 124.453125 56.824219 123.558594 C 57.15625 123.273438 57.65625 123.3125 57.941406 123.644531 C 58.226562 123.976562 58.1875 124.480469 57.855469 124.765625 C 56.40625 126.007812 54.597656 126.253906 53.097656 125.925781 C 52.425781 125.777344 51.710938 125.511719 51.105469 125.039062 C 50.492188 124.558594 50 123.792969 50 122.882812 C 50 122.183594 50.21875 121.4375 50.628906 120.691406 C 51.460938 119.164062 52.773438 117.585938 53.996094 116.523438 C 54.578125 116.019531 55.144531 115.675781 55.667969 115.5 C 55.925781 115.410156 56.175781 115.34375 56.5 115.398438 C 56.667969 115.425781 56.875 115.496094 57.050781 115.671875 C 57.234375 115.851562 57.332031 116.121094 57.335938 116.339844 C 57.347656 116.988281 57.050781 117.265625 56.917969 117.5625 C 56.824219 117.765625 56.734375 117.945312 56.671875 118.109375 C 56.496094 118.558594 56.34375 119.042969 56.3125 119.207031 "/>
<path fill-rule="nonzero" fill="rgb(0%, 45.097351%, 23.136902%)" fill-opacity="1" d="M 58.652344 122.625 C 58.691406 122.1875 59.082031 121.867188 59.515625 121.910156 C 59.953125 121.949219 60.273438 122.335938 60.230469 122.773438 C 60.167969 123.464844 60.953125 126.832031 61.25 128.117188 C 61.351562 128.542969 61.085938 128.972656 60.65625 129.070312 C 60.230469 129.167969 59.804688 128.902344 59.707031 128.476562 C 59.40625 127.1875 58.507812 124.171875 58.652344 122.625 "/>
<path fill-rule="nonzero" fill="rgb(92.941284%, 21.176147%, 14.117432%)" fill-opacity="1" d="M 55.082031 68.292969 C 55.324219 68.515625 55.339844 68.890625 55.117188 69.132812 C 54.894531 69.375 54.515625 69.390625 54.277344 69.167969 C 54.015625 68.925781 53.8125 68.574219 53.84375 68.199219 C 53.875 67.828125 54.09375 67.550781 54.320312 67.355469 C 54.777344 66.957031 55.402344 66.710938 56.085938 66.476562 C 57.480469 66 59.058594 65.6875 59.613281 65.476562 C 59.921875 65.363281 60.265625 65.519531 60.378906 65.824219 C 60.496094 66.132812 60.339844 66.476562 60.03125 66.59375 C 59.257812 66.882812 57.765625 67.160156 56.472656 67.605469 C 55.847656 67.816406 55.320312 68.0625 55.101562 68.253906 C 55.011719 68.332031 55.035156 68.234375 55.03125 68.292969 C 55.027344 68.328125 55.019531 68.214844 55.019531 68.222656 C 55.019531 68.222656 55.035156 68.25 55.082031 68.292969 "/>
<path fill-rule="nonzero" fill="rgb(92.941284%, 21.176147%, 14.117432%)" fill-opacity="1" d="M 56.316406 71.277344 C 55.992188 71.320312 55.691406 71.09375 55.648438 70.769531 C 55.601562 70.441406 55.832031 70.144531 56.15625 70.097656 C 56.273438 70.082031 57.117188 69.917969 58.171875 69.554688 C 59.277344 69.175781 60.546875 68.609375 61.539062 67.796875 C 61.792969 67.589844 62.167969 67.625 62.375 67.878906 C 62.585938 68.136719 62.546875 68.511719 62.292969 68.71875 C 61.132812 69.664062 59.746094 70.273438 58.554688 70.679688 C 57.425781 71.070312 56.59375 71.242188 56.316406 71.277344 "/>
<path fill-rule="nonzero" fill="rgb(92.941284%, 21.176147%, 14.117432%)" fill-opacity="1" d="M 68.5 59.433594 C 68.457031 59.105469 68.683594 58.804688 69.007812 58.761719 C 69.332031 58.714844 69.632812 58.941406 69.679688 59.265625 C 69.683594 59.285156 69.625 59.117188 69.648438 59.164062 C 69.671875 59.21875 69.425781 58.933594 69.5 58.988281 C 69.566406 59.035156 69.1875 58.886719 69.261719 58.894531 C 69.328125 58.902344 69.078125 58.914062 69.109375 58.902344 C 69.160156 58.890625 69.074219 58.917969 69.101562 58.898438 C 69.136719 58.878906 69.1875 58.835938 69.253906 58.78125 C 69.535156 58.535156 69.9375 58.082031 70.390625 57.539062 C 71.007812 56.789062 71.707031 55.964844 72.289062 55.121094 C 72.84375 54.308594 73.277344 53.480469 73.542969 52.757812 C 73.914062 51.757812 73.652344 50.992188 73.300781 50.605469 C 73.097656 50.378906 72.761719 50.292969 72.519531 50.324219 C 72.421875 50.335938 72.285156 50.410156 72.117188 50.609375 C 71.933594 50.824219 71.746094 51.15625 71.566406 51.5625 C 71.195312 52.414062 70.890625 53.523438 70.597656 54.644531 C 70.203125 56.171875 70.019531 58.011719 70.082031 59.765625 C 70.117188 60.824219 70.316406 61.671875 70.609375 62.261719 C 70.890625 62.816406 71.242188 63.125 71.609375 63.242188 C 71.976562 63.355469 72.441406 63.300781 72.984375 62.996094 C 73.5625 62.671875 74.210938 62.074219 74.851562 61.195312 C 75.042969 60.929688 75.414062 60.871094 75.679688 61.0625 C 75.945312 61.257812 76.003906 61.628906 75.8125 61.894531 C 75.097656 62.875 74.34375 63.601562 73.5625 64.035156 C 72.808594 64.457031 71.984375 64.605469 71.253906 64.378906 C 70.527344 64.152344 69.933594 63.566406 69.546875 62.796875 C 69.148438 62.003906 68.933594 60.996094 68.894531 59.804688 C 68.828125 57.941406 69.015625 56.007812 69.445312 54.347656 C 69.742188 53.207031 70.054688 52.054688 70.476562 51.085938 C 70.683594 50.613281 70.914062 50.1875 71.207031 49.839844 C 71.5 49.496094 71.890625 49.207031 72.363281 49.144531 C 72.96875 49.0625 73.679688 49.25 74.183594 49.804688 C 74.835938 50.527344 75.167969 51.796875 74.660156 53.171875 C 74.351562 54 73.878906 54.90625 73.269531 55.796875 C 72.640625 56.707031 71.921875 57.554688 71.308594 58.296875 C 70.839844 58.863281 70.417969 59.347656 70.035156 59.679688 C 69.851562 59.839844 69.691406 59.984375 69.410156 60.054688 C 69.253906 60.097656 69.003906 60.097656 68.800781 59.949219 C 68.589844 59.796875 68.523438 59.582031 68.5 59.433594 "/>
<path fill-rule="nonzero" fill="rgb(92.941284%, 21.176147%, 14.117432%)" fill-opacity="1" d="M 72.339844 58.71875 C 72.320312 59.046875 72.039062 59.300781 71.710938 59.28125 C 71.382812 59.261719 71.132812 58.980469 71.148438 58.652344 C 71.15625 58.53125 71.148438 58.453125 71.140625 58.417969 C 71.132812 58.398438 71.230469 58.515625 71.183594 58.472656 C 71.136719 58.429688 71.355469 58.542969 71.332031 58.542969 C 71.3125 58.539062 71.324219 58.542969 71.269531 58.558594 C 70.996094 58.648438 70.4375 59.050781 69.867188 59.574219 C 68.6875 60.660156 67.480469 62.171875 67.382812 62.40625 C 67.257812 62.710938 66.910156 62.855469 66.605469 62.730469 C 66.300781 62.605469 66.15625 62.257812 66.285156 61.953125 C 66.453125 61.539062 66.8125 61.121094 67.304688 60.542969 C 67.8125 59.941406 68.429688 59.28125 69.0625 58.699219 C 69.683594 58.125 70.269531 57.636719 70.898438 57.429688 C 71.214844 57.324219 71.664062 57.296875 71.992188 57.601562 C 72.316406 57.898438 72.359375 58.3125 72.339844 58.71875 "/>
<path fill-rule="nonzero" fill="rgb(92.941284%, 21.176147%, 14.117432%)" fill-opacity="1" d="M 157.6875 71.085938 C 157.929688 71.308594 157.949219 71.683594 157.726562 71.925781 C 157.503906 72.167969 157.125 72.183594 156.882812 71.960938 C 156.613281 71.710938 156.675781 71.640625 156.632812 71.535156 C 156.589844 71.429688 156.546875 71.320312 156.5 71.234375 C 156.46875 71.179688 156.554688 71.292969 156.546875 71.289062 C 156.546875 71.289062 156.566406 71.289062 156.558594 71.289062 C 156.542969 71.292969 156.671875 71.222656 156.632812 71.25 C 156.601562 71.277344 156.65625 71.222656 156.636719 71.269531 C 156.613281 71.320312 156.589844 71.414062 156.570312 71.53125 C 156.527344 71.785156 156.515625 72.136719 156.535156 72.539062 C 156.570312 73.371094 156.71875 74.355469 156.90625 75.257812 C 157.105469 76.226562 157.433594 77.101562 157.789062 77.652344 C 157.898438 77.828125 157.996094 77.972656 158.074219 78.058594 C 158.136719 78.136719 158.109375 78.125 158.136719 78.132812 C 158.191406 78.144531 158.042969 78.136719 158.074219 78.121094 C 158.117188 78.097656 158.207031 78.03125 158.3125 77.917969 C 158.539062 77.671875 158.804688 77.265625 159.074219 76.765625 C 159.632812 75.714844 160.167969 74.355469 160.570312 73.070312 C 161.136719 71.269531 161.230469 69.429688 161.300781 68.316406 C 161.316406 68.0625 161.328125 67.859375 161.359375 67.683594 C 161.371094 67.59375 161.363281 67.511719 161.480469 67.332031 C 161.546875 67.226562 161.738281 67.039062 162.019531 67.046875 C 162.289062 67.054688 162.417969 67.199219 162.484375 67.277344 C 162.691406 67.527344 162.6875 67.667969 162.757812 67.917969 C 162.835938 68.1875 162.929688 68.546875 163.046875 69.011719 C 163.125 69.332031 162.929688 69.652344 162.613281 69.734375 C 162.292969 69.8125 161.972656 69.617188 161.890625 69.300781 C 161.777344 68.839844 161.6875 68.492188 161.617188 68.25 C 161.582031 68.140625 161.558594 68.054688 161.539062 68.003906 C 161.53125 67.984375 161.523438 67.96875 161.523438 67.96875 C 161.523438 67.96875 161.609375 68.085938 161.570312 68.039062 C 161.546875 68.011719 161.746094 68.183594 161.6875 68.140625 C 161.628906 68.105469 162.042969 68.246094 161.933594 68.230469 C 161.839844 68.222656 162.3125 68.152344 162.226562 68.191406 C 162.152344 68.222656 162.4375 68.042969 162.394531 68.078125 C 162.332031 68.140625 162.523438 67.898438 162.507812 67.933594 C 162.484375 67.976562 162.535156 67.851562 162.535156 67.859375 C 162.535156 67.863281 162.535156 67.863281 162.53125 67.875 C 162.519531 67.953125 162.503906 68.144531 162.488281 68.390625 C 162.417969 69.503906 162.328125 71.445312 161.707031 73.425781 C 161.285156 74.773438 160.734375 76.183594 160.121094 77.324219 C 159.824219 77.878906 159.523438 78.359375 159.1875 78.726562 C 159.019531 78.90625 158.84375 79.0625 158.625 79.175781 C 158.40625 79.289062 158.121094 79.355469 157.835938 79.285156 C 157.246094 79.128906 157.019531 78.660156 156.785156 78.292969 C 156.316406 77.5625 155.964844 76.582031 155.738281 75.5 C 155.542969 74.546875 155.386719 73.515625 155.34375 72.589844 C 155.324219 72.136719 155.332031 71.71875 155.394531 71.339844 C 155.453125 70.972656 155.542969 70.601562 155.886719 70.324219 C 156.164062 70.101562 156.496094 70.066406 156.78125 70.125 C 157.074219 70.183594 157.371094 70.351562 157.546875 70.667969 C 157.632812 70.828125 157.691406 70.976562 157.734375 71.085938 C 157.757812 71.140625 157.773438 71.179688 157.78125 71.199219 C 157.785156 71.207031 157.773438 71.183594 157.78125 71.195312 C 157.789062 71.210938 157.621094 71.023438 157.6875 71.085938 "/>
<path fill-rule="nonzero" fill="rgb(92.941284%, 21.176147%, 14.117432%)" fill-opacity="1" d="M 163.804688 76.128906 C 163.535156 76.316406 163.164062 76.25 162.976562 75.980469 C 162.789062 75.710938 162.855469 75.339844 163.125 75.152344 C 163.277344 75.046875 163.476562 74.96875 163.6875 74.972656 C 163.898438 74.972656 164.09375 75.054688 164.242188 75.160156 C 164.523438 75.371094 164.671875 75.664062 164.777344 75.980469 C 165 76.632812 165.042969 77.484375 164.882812 78.433594 C 164.6875 79.578125 164.125 80.695312 163.574219 81.582031 C 163.296875 82.023438 163.011719 82.402344 162.691406 82.679688 C 162.4375 82.898438 162.058594 82.996094 161.742188 82.90625 C 161.429688 82.816406 161.203125 82.589844 161.074219 82.332031 C 160.753906 81.703125 160.925781 81.058594 161.058594 80.523438 C 161.230469 79.820312 161.777344 79.324219 162.382812 79.160156 C 162.769531 79.050781 163.15625 79.136719 163.476562 79.277344 C 163.800781 79.421875 164.09375 79.628906 164.375 79.855469 C 164.945312 80.3125 165.480469 80.859375 165.988281 81.261719 C 166.636719 81.773438 167.351562 82.042969 167.949219 82.050781 C 168.515625 82.058594 168.957031 81.847656 169.234375 81.394531 C 169.40625 81.113281 169.769531 81.023438 170.050781 81.191406 C 170.332031 81.363281 170.421875 81.730469 170.25 82.011719 C 169.75 82.835938 168.839844 83.253906 167.933594 83.242188 C 167.019531 83.230469 166.074219 82.847656 165.25 82.195312 C 164.664062 81.730469 164.128906 81.179688 163.628906 80.78125 C 163.390625 80.589844 163.171875 80.445312 162.996094 80.367188 C 162.835938 80.296875 162.746094 80.292969 162.695312 80.304688 C 162.484375 80.363281 162.28125 80.539062 162.214844 80.808594 C 162.105469 81.242188 162.109375 81.742188 162.136719 81.796875 C 162.140625 81.804688 162.007812 81.742188 162.070312 81.761719 C 162.136719 81.78125 161.914062 81.777344 161.917969 81.777344 C 162.085938 81.632812 162.324219 81.328125 162.5625 80.949219 C 163.0625 80.152344 163.558594 79.128906 163.710938 78.234375 C 163.84375 77.449219 163.789062 76.761719 163.652344 76.363281 C 163.59375 76.1875 163.554688 76.132812 163.535156 76.117188 C 163.515625 76.105469 163.738281 76.160156 163.675781 76.160156 C 163.613281 76.160156 163.8125 76.125 163.804688 76.128906 "/>
<path fill-rule="nonzero" fill="rgb(92.941284%, 21.176147%, 14.117432%)" fill-opacity="1" d="M 172.121094 73.226562 C 172.371094 73.441406 172.402344 73.816406 172.1875 74.066406 C 171.976562 74.316406 171.601562 74.347656 171.351562 74.136719 C 171.039062 73.871094 170.816406 73.667969 170.679688 73.371094 C 170.605469 73.21875 170.554688 72.992188 170.636719 72.757812 C 170.71875 72.523438 170.90625 72.382812 171.054688 72.3125 C 171.582031 72.070312 172.058594 72.195312 172.597656 72.226562 C 173.394531 72.273438 174.320312 72.234375 175.183594 72.226562 C 175.6875 72.21875 176.167969 72.148438 176.632812 72.175781 C 176.863281 72.1875 177.125 72.222656 177.375 72.414062 C 177.632812 72.613281 177.753906 72.980469 177.738281 73.28125 C 177.71875 73.609375 177.4375 73.859375 177.109375 73.839844 C 176.78125 73.820312 176.53125 73.539062 176.550781 73.210938 C 176.550781 73.191406 176.574219 73.277344 176.5625 73.242188 C 176.546875 73.199219 176.683594 73.382812 176.648438 73.359375 C 176.617188 73.332031 176.691406 73.382812 176.679688 73.378906 C 176.660156 73.375 176.621094 73.367188 176.5625 73.363281 C 176.28125 73.34375 175.78125 73.410156 175.195312 73.414062 C 174.355469 73.425781 173.40625 73.46875 172.527344 73.414062 C 171.988281 73.382812 171.605469 73.371094 171.550781 73.394531 C 171.53125 73.40625 171.683594 73.292969 171.644531 73.332031 C 171.601562 73.371094 171.785156 73.078125 171.757812 73.152344 C 171.730469 73.226562 171.773438 72.902344 171.78125 72.953125 C 171.785156 73.003906 171.75 72.855469 171.757812 72.867188 C 171.761719 72.882812 171.867188 73.011719 172.121094 73.226562 "/>
<path fill-rule="nonzero" fill="rgb(92.941284%, 21.176147%, 14.117432%)" fill-opacity="1" d="M 172.0625 76.21875 C 172.390625 76.21875 172.65625 76.484375 172.65625 76.8125 C 172.65625 77.140625 172.390625 77.40625 172.0625 77.40625 C 171.867188 77.40625 171.75 77.40625 171.691406 77.40625 C 171.675781 77.40625 171.664062 77.40625 171.660156 77.40625 C 171.332031 77.40625 171.066406 77.140625 171.066406 76.8125 C 171.066406 76.484375 171.332031 76.21875 171.660156 76.21875 C 171.664062 76.21875 171.675781 76.21875 171.691406 76.21875 C 171.75 76.21875 171.867188 76.21875 172.0625 76.21875 M 171.660156 77.40625 C 171.332031 77.40625 171.066406 77.140625 171.066406 76.8125 C 171.066406 76.484375 171.332031 76.21875 171.660156 76.21875 C 171.671875 76.21875 171.691406 76.21875 171.722656 76.21875 C 171.882812 76.21875 172.214844 76.21875 172.628906 76.21875 C 174.363281 76.21875 177.015625 76.210938 178.042969 75.851562 C 178.355469 75.742188 178.695312 75.90625 178.800781 76.214844 C 178.910156 76.527344 178.746094 76.867188 178.4375 76.972656 C 176.964844 77.488281 174.375 77.40625 172.628906 77.40625 C 172.214844 77.40625 171.882812 77.40625 171.722656 77.40625 C 171.691406 77.40625 171.671875 77.40625 171.660156 77.40625 "/>
</svg>
