<?xml version="1.0" encoding="UTF-8"?>
<svg xmlns="http://www.w3.org/2000/svg" xmlns:xlink="http://www.w3.org/1999/xlink" width="259.1703" height="175.2149" viewBox="0 0 259.1703 175.2149">
<path fill-rule="nonzero" fill="rgb(7.058716%, 1.176453%, 46.665955%)" fill-opacity="1" d="M 154.019531 96.996094 L 154.019531 158.820312 L 212.703125 127.800781 Z M 153.699219 95.484375 L 214.253906 127.269531 C 214.679688 127.492188 214.679688 128.101562 214.257812 128.324219 L 153.703125 160.335938 C 153.304688 160.546875 152.828125 160.257812 152.828125 159.808594 L 152.828125 96.011719 C 152.828125 95.5625 153.304688 95.277344 153.699219 95.484375 "/>
<path fill-rule="nonzero" fill="rgb(7.058716%, 1.176453%, 46.665955%)" fill-opacity="1" d="M 164.925781 137.972656 C 164.925781 137.640625 165.191406 137.375 165.519531 137.375 C 165.847656 137.375 166.117188 137.640625 166.117188 137.972656 L 166.117188 147.828125 C 166.117188 148.15625 165.847656 148.421875 165.519531 148.421875 C 165.191406 148.421875 164.925781 148.15625 164.925781 147.828125 Z M 164.925781 137.972656 "/>
<path fill-rule="nonzero" fill="rgb(7.058716%, 1.176453%, 46.665955%)" fill-opacity="1" d="M 160.550781 143.496094 C 160.222656 143.496094 159.953125 143.226562 159.953125 142.898438 C 159.953125 142.570312 160.222656 142.304688 160.550781 142.304688 L 170.492188 142.304688 C 170.820312 142.304688 171.085938 142.570312 171.085938 142.898438 C 171.085938 143.226562 170.820312 143.496094 170.492188 143.496094 Z M 160.550781 143.496094 "/>
<path fill-rule="nonzero" fill="rgb(7.058716%, 1.176453%, 46.665955%)" fill-opacity="1" d="M 160.550781 112.5625 C 160.222656 112.5625 159.953125 112.296875 159.953125 111.964844 C 159.953125 111.636719 160.222656 111.371094 160.550781 111.371094 L 170.492188 111.371094 C 170.820312 111.371094 171.085938 111.636719 171.085938 111.964844 C 171.085938 112.296875 170.820312 112.5625 170.492188 112.5625 Z M 160.550781 112.5625 "/>
<path fill-rule="nonzero" fill="rgb(7.058716%, 1.176453%, 46.665955%)" fill-opacity="1" d="M 153.699219 111.308594 C 154.027344 111.308594 154.296875 111.574219 154.296875 111.902344 C 154.296875 112.230469 154.027344 112.496094 153.699219 112.496094 L 121.90625 112.496094 C 121.578125 112.496094 121.3125 112.230469 121.3125 111.902344 C 121.3125 111.574219 121.578125 111.308594 121.90625 111.308594 Z M 153.699219 111.308594 "/>
<path fill-rule="nonzero" fill="rgb(7.058716%, 1.176453%, 46.665955%)" fill-opacity="1" d="M 153.699219 143.09375 C 154.027344 143.09375 154.296875 143.359375 154.296875 143.6875 C 154.296875 144.019531 154.027344 144.285156 153.699219 144.285156 L 121.90625 144.285156 C 121.578125 144.285156 121.3125 144.019531 121.3125 143.6875 C 121.3125 143.359375 121.578125 143.09375 121.90625 143.09375 Z M 153.699219 143.09375 "/>
<path fill-rule="nonzero" fill="rgb(7.058716%, 1.176453%, 46.665955%)" fill-opacity="1" d="M 213.980469 128.394531 C 213.652344 128.394531 213.382812 128.125 213.382812 127.796875 C 213.382812 127.46875 213.652344 127.203125 213.980469 127.203125 L 245.769531 127.203125 C 246.101562 127.203125 246.367188 127.46875 246.367188 127.796875 C 246.367188 128.125 246.101562 128.394531 245.769531 128.394531 Z M 213.980469 128.394531 "/>
<path fill-rule="nonzero" fill="rgb(7.058716%, 1.176453%, 46.665955%)" fill-opacity="1" d="M 149.816406 48.558594 C 149.488281 48.558594 149.222656 48.292969 149.222656 47.964844 C 149.222656 47.636719 149.488281 47.371094 149.816406 47.371094 L 179.277344 47.371094 C 179.605469 47.371094 179.871094 47.636719 179.871094 47.964844 C 179.871094 48.292969 179.605469 48.558594 179.277344 48.558594 Z M 149.816406 48.558594 "/>
<path fill-rule="nonzero" fill="rgb(7.058716%, 1.176453%, 46.665955%)" fill-opacity="1" d="M 186.492188 48.558594 C 186.160156 48.558594 185.894531 48.292969 185.894531 47.964844 C 185.894531 47.636719 186.160156 47.371094 186.492188 47.371094 L 217.863281 47.371094 C 218.191406 47.371094 218.457031 47.636719 218.457031 47.964844 C 218.457031 48.292969 218.191406 48.558594 217.863281 48.558594 Z M 186.492188 48.558594 "/>
<path fill-rule="nonzero" fill="rgb(7.058716%, 1.176453%, 46.665955%)" fill-opacity="1" d="M 179.871094 61.527344 C 179.871094 61.855469 179.605469 62.121094 179.277344 62.121094 C 178.949219 62.121094 178.683594 61.855469 178.683594 61.527344 L 178.683594 34.394531 C 178.683594 34.066406 178.949219 33.800781 179.277344 33.800781 C 179.605469 33.800781 179.871094 34.066406 179.871094 34.394531 Z M 179.871094 61.527344 "/>
<path fill-rule="nonzero" fill="rgb(7.058716%, 1.176453%, 46.665955%)" fill-opacity="1" d="M 187.085938 61.53125 C 187.085938 61.859375 186.820312 62.125 186.492188 62.125 C 186.160156 62.125 185.894531 61.859375 185.894531 61.53125 L 185.894531 34.398438 C 185.894531 34.070312 186.160156 33.804688 186.492188 33.804688 C 186.820312 33.804688 187.085938 34.070312 187.085938 34.398438 Z M 187.085938 61.53125 "/>
<path fill-rule="nonzero" fill="rgb(7.058716%, 1.176453%, 46.665955%)" fill-opacity="1" d="M 24.75 112.5 C 24.417969 112.5 24.152344 112.234375 24.152344 111.90625 C 24.152344 111.574219 24.417969 111.308594 24.75 111.308594 L 54.210938 111.308594 C 54.539062 111.308594 54.804688 111.574219 54.804688 111.90625 C 54.804688 112.234375 54.539062 112.5 54.210938 112.5 Z M 24.75 112.5 "/>
<path fill-rule="nonzero" fill="rgb(7.058716%, 1.176453%, 46.665955%)" fill-opacity="1" d="M 61.421875 112.5 C 61.09375 112.5 60.828125 112.234375 60.828125 111.90625 C 60.828125 111.574219 61.09375 111.308594 61.421875 111.308594 L 92.792969 111.308594 C 93.121094 111.308594 93.390625 111.574219 93.390625 111.90625 C 93.390625 112.234375 93.121094 112.5 92.792969 112.5 Z M 61.421875 112.5 "/>
<path fill-rule="nonzero" fill="rgb(7.058716%, 1.176453%, 46.665955%)" fill-opacity="1" d="M 54.804688 125.464844 C 54.804688 125.792969 54.539062 126.0625 54.210938 126.0625 C 53.882812 126.0625 53.613281 125.792969 53.613281 125.464844 L 53.613281 98.335938 C 53.613281 98.007812 53.882812 97.742188 54.210938 97.742188 C 54.539062 97.742188 54.804688 98.007812 54.804688 98.335938 Z M 54.804688 125.464844 "/>
<path fill-rule="nonzero" fill="rgb(7.058716%, 1.176453%, 46.665955%)" fill-opacity="1" d="M 62.015625 125.46875 C 62.015625 125.796875 61.75 126.0625 61.421875 126.0625 C 61.09375 126.0625 60.828125 125.796875 60.828125 125.46875 L 60.828125 98.339844 C 60.828125 98.011719 61.09375 97.746094 61.421875 97.746094 C 61.75 97.746094 62.015625 98.011719 62.015625 98.339844 Z M 62.015625 125.46875 "/>
<path fill-rule="nonzero" fill="rgb(7.058716%, 1.176453%, 46.665955%)" fill-opacity="1" d="M 121.316406 144.285156 C 121.316406 143.957031 121.585938 143.6875 121.914062 143.6875 C 122.242188 143.6875 122.507812 143.957031 122.507812 144.285156 L 122.507812 155.203125 C 122.507812 155.53125 122.242188 155.800781 121.914062 155.800781 C 121.585938 155.800781 121.316406 155.53125 121.316406 155.203125 Z M 121.316406 144.285156 "/>
<path fill-rule="nonzero" fill="rgb(7.058716%, 1.176453%, 46.665955%)" fill-opacity="1" d="M 113.421875 156.53125 C 113.09375 156.53125 112.828125 156.265625 112.828125 155.9375 C 112.828125 155.609375 113.09375 155.34375 113.421875 155.34375 L 130.402344 155.34375 C 130.734375 155.34375 131 155.609375 131 155.9375 C 131 156.265625 130.734375 156.53125 130.402344 156.53125 Z M 113.421875 156.53125 "/>
<path fill-rule="nonzero" fill="rgb(7.058716%, 1.176453%, 46.665955%)" fill-opacity="1" d="M 116.355469 160.425781 C 116.027344 160.425781 115.761719 160.160156 115.761719 159.832031 C 115.761719 159.503906 116.027344 159.238281 116.355469 159.238281 L 127.761719 159.238281 C 128.089844 159.238281 128.355469 159.503906 128.355469 159.832031 C 128.355469 160.160156 128.089844 160.425781 127.761719 160.425781 Z M 116.355469 160.425781 "/>
<path fill-rule="nonzero" fill="rgb(7.058716%, 1.176453%, 46.665955%)" fill-opacity="1" d="M 119.621094 164.082031 C 119.292969 164.082031 119.027344 163.8125 119.027344 163.484375 C 119.027344 163.15625 119.292969 162.890625 119.621094 162.890625 L 124.492188 162.890625 C 124.820312 162.890625 125.089844 163.15625 125.089844 163.484375 C 125.089844 163.8125 124.820312 164.082031 124.492188 164.082031 Z M 119.621094 164.082031 "/>
<path fill-rule="nonzero" fill="rgb(7.058716%, 1.176453%, 46.665955%)" fill-opacity="1" d="M 24.609375 111.90625 C 24.609375 111.574219 24.875 111.308594 25.203125 111.308594 C 25.53125 111.308594 25.800781 111.574219 25.800781 111.90625 L 25.800781 143.785156 C 25.800781 144.117188 25.53125 144.382812 25.203125 144.382812 C 24.875 144.382812 24.609375 144.117188 24.609375 143.785156 Z M 24.609375 111.90625 "/>
<path fill-rule="nonzero" fill="rgb(7.058716%, 1.176453%, 46.665955%)" fill-opacity="1" d="M 128.15625 143.09375 C 128.484375 143.09375 128.753906 143.359375 128.753906 143.6875 C 128.753906 144.019531 128.484375 144.285156 128.15625 144.285156 L 24.902344 144.285156 C 24.574219 144.285156 24.308594 144.019531 24.308594 143.6875 C 24.308594 143.359375 24.574219 143.09375 24.902344 143.09375 Z M 128.15625 143.09375 "/>
<path fill-rule="nonzero" fill="rgb(7.058716%, 1.176453%, 46.665955%)" fill-opacity="1" d="M 92.792969 112.5 C 92.464844 112.5 92.199219 112.234375 92.199219 111.90625 C 92.199219 111.574219 92.464844 111.308594 92.792969 111.308594 L 131.65625 111.308594 C 131.988281 111.308594 132.253906 111.574219 132.253906 111.90625 C 132.253906 112.234375 131.988281 112.5 131.65625 112.5 Z M 92.792969 112.5 "/>
<path fill-rule="nonzero" fill="rgb(7.058716%, 1.176453%, 46.665955%)" fill-opacity="1" d="M 132.253906 111.902344 C 132.253906 112.230469 131.988281 112.496094 131.65625 112.496094 C 131.328125 112.496094 131.0625 112.230469 131.0625 111.902344 L 131.0625 47.960938 C 131.0625 47.632812 131.328125 47.367188 131.65625 47.367188 C 131.988281 47.367188 132.253906 47.632812 132.253906 47.960938 Z M 132.253906 111.902344 "/>
<path fill-rule="nonzero" fill="rgb(7.058716%, 1.176453%, 46.665955%)" fill-opacity="1" d="M 154.773438 47.371094 C 155.101562 47.371094 155.371094 47.636719 155.371094 47.964844 C 155.371094 48.292969 155.101562 48.558594 154.773438 48.558594 L 131.65625 48.558594 C 131.328125 48.558594 131.0625 48.292969 131.0625 47.964844 C 131.0625 47.636719 131.328125 47.371094 131.65625 47.371094 Z M 154.773438 47.371094 "/>
<path fill-rule="nonzero" fill="rgb(7.058716%, 1.176453%, 46.665955%)" fill-opacity="1" d="M 216.507812 48.558594 C 216.179688 48.558594 215.910156 48.292969 215.910156 47.964844 C 215.910156 47.636719 216.179688 47.371094 216.507812 47.371094 L 235.640625 47.371094 C 235.96875 47.371094 236.238281 47.636719 236.238281 47.964844 C 236.238281 48.292969 235.96875 48.558594 235.640625 48.558594 Z M 216.507812 48.558594 "/>
<path fill-rule="nonzero" fill="rgb(7.058716%, 1.176453%, 46.665955%)" fill-opacity="1" d="M 235.046875 47.964844 C 235.046875 47.636719 235.3125 47.371094 235.640625 47.371094 C 235.96875 47.371094 236.238281 47.636719 236.238281 47.964844 L 236.238281 127.796875 C 236.238281 128.125 235.96875 128.394531 235.640625 128.394531 C 235.3125 128.394531 235.046875 128.125 235.046875 127.796875 Z M 235.046875 47.964844 "/>
<path fill-rule="nonzero" fill="rgb(7.058716%, 1.176453%, 46.665955%)" fill-opacity="1" d="M 155.371094 47.964844 C 155.371094 48.292969 155.101562 48.558594 154.773438 48.558594 C 154.445312 48.558594 154.179688 48.292969 154.179688 47.964844 L 154.179688 21.234375 C 154.179688 20.90625 154.445312 20.640625 154.773438 20.640625 C 155.101562 20.640625 155.371094 20.90625 155.371094 21.234375 Z M 155.371094 47.964844 "/>
<path fill-rule="nonzero" fill="rgb(7.058716%, 1.176453%, 46.665955%)" fill-opacity="1" d="M 154.773438 21.832031 C 154.445312 21.832031 154.179688 21.5625 154.179688 21.234375 C 154.179688 20.90625 154.445312 20.640625 154.773438 20.640625 L 174.929688 20.640625 C 175.261719 20.640625 175.527344 20.90625 175.527344 21.234375 C 175.527344 21.5625 175.261719 21.832031 174.929688 21.832031 Z M 154.773438 21.832031 "/>
<path fill-rule="nonzero" fill="rgb(7.058716%, 1.176453%, 46.665955%)" fill-opacity="1" d="M 175.195312 21.769531 C 174.902344 21.914062 174.546875 21.796875 174.398438 21.5 C 174.253906 21.207031 174.371094 20.847656 174.664062 20.703125 L 195.496094 10.332031 C 195.789062 10.1875 196.148438 10.304688 196.292969 10.601562 C 196.441406 10.894531 196.320312 11.25 196.027344 11.398438 Z M 175.195312 21.769531 "/>
<path fill-rule="nonzero" fill="rgb(7.058716%, 1.176453%, 46.665955%)" fill-opacity="1" d="M 195.699219 22.441406 C 195.371094 22.441406 195.105469 22.175781 195.105469 21.847656 C 195.105469 21.519531 195.371094 21.253906 195.699219 21.253906 L 223.304688 21.253906 C 223.632812 21.253906 223.898438 21.519531 223.898438 21.847656 C 223.898438 22.175781 223.632812 22.441406 223.304688 22.441406 Z M 195.699219 22.441406 "/>
<path fill-rule="nonzero" fill="rgb(7.058716%, 1.176453%, 46.665955%)" fill-opacity="1" d="M 222.710938 21.847656 C 222.710938 21.519531 222.976562 21.253906 223.304688 21.253906 C 223.632812 21.253906 223.898438 21.519531 223.898438 21.847656 L 223.898438 47.964844 C 223.898438 48.292969 223.632812 48.558594 223.304688 48.558594 C 222.976562 48.558594 222.710938 48.292969 222.710938 47.964844 Z M 222.710938 21.847656 "/>
<path fill-rule="nonzero" fill="rgb(92.941284%, 21.176147%, 14.117432%)" fill-opacity="1" d="M 221.164062 53.347656 C 221.191406 53.675781 220.949219 53.964844 220.621094 53.988281 C 220.292969 54.015625 220.003906 53.773438 219.976562 53.445312 C 219.960938 53.21875 219.972656 52.957031 219.976562 52.765625 C 219.976562 52.761719 219.976562 52.8125 219.976562 52.792969 C 219.976562 52.777344 219.992188 52.890625 219.984375 52.855469 C 219.980469 52.835938 220.015625 52.972656 220.003906 52.933594 C 219.992188 52.894531 220.15625 53.191406 220.097656 53.109375 C 219.898438 52.847656 219.949219 52.472656 220.210938 52.277344 C 220.472656 52.078125 220.84375 52.128906 221.042969 52.390625 C 221.253906 52.667969 221.164062 52.6875 221.164062 52.726562 C 221.167969 52.757812 221.167969 52.777344 221.164062 52.796875 C 221.160156 52.980469 221.15625 53.257812 221.164062 53.347656 M 220.195312 52.289062 C 220.449219 52.082031 220.824219 52.121094 221.03125 52.375 C 221.238281 52.628906 221.199219 53.003906 220.941406 53.210938 C 220.875 53.265625 221.085938 53.046875 221.0625 53.082031 C 221.042969 53.109375 221.113281 52.992188 221.101562 53.011719 C 221.078125 53.0625 221.140625 52.914062 221.136719 52.925781 C 221.125 52.957031 221.140625 52.910156 221.136719 52.925781 C 221.125 52.988281 221.105469 53.113281 221.085938 53.277344 C 221.039062 53.636719 220.988281 54.136719 220.953125 54.699219 C 220.886719 55.726562 220.894531 56.964844 220.910156 57.933594 C 220.917969 58.5 220.929688 58.957031 220.957031 59.0625 C 220.957031 59.066406 220.945312 59.035156 220.953125 59.050781 C 220.960938 59.066406 220.867188 58.921875 220.898438 58.960938 C 220.929688 59.003906 220.628906 58.785156 220.714844 58.820312 C 220.800781 58.859375 220.367188 58.789062 220.445312 58.78125 C 220.511719 58.769531 220.253906 58.847656 220.285156 58.832031 C 220.320312 58.808594 220.242188 58.859375 220.253906 58.847656 C 220.269531 58.835938 220.292969 58.804688 220.328125 58.761719 C 220.53125 58.5 220.902344 58.453125 221.164062 58.652344 C 221.421875 58.855469 221.472656 59.230469 221.269531 59.488281 C 221.121094 59.683594 221.007812 59.902344 220.601562 59.960938 C 220.363281 59.988281 220.09375 59.855469 219.972656 59.710938 C 219.859375 59.570312 219.828125 59.449219 219.800781 59.347656 C 219.703125 58.949219 219.730469 58.511719 219.71875 57.953125 C 219.703125 56.972656 219.695312 55.710938 219.765625 54.621094 C 219.804688 54.035156 219.855469 53.511719 219.90625 53.128906 C 219.925781 52.953125 219.949219 52.8125 219.964844 52.714844 C 219.976562 52.664062 219.945312 52.671875 220.03125 52.492188 C 220.050781 52.453125 220.066406 52.390625 220.195312 52.289062 "/>
<path fill-rule="nonzero" fill="rgb(92.941284%, 21.176147%, 14.117432%)" fill-opacity="1" d="M 218.410156 56.050781 C 218.585938 56.328125 218.507812 56.695312 218.234375 56.875 C 217.957031 57.050781 217.589844 56.972656 217.410156 56.695312 C 217.308594 56.542969 217.230469 56.351562 217.230469 56.128906 C 217.230469 55.902344 217.335938 55.683594 217.464844 55.539062 C 217.722656 55.265625 218.019531 55.183594 218.328125 55.105469 C 218.960938 54.953125 219.746094 54.902344 220.558594 54.828125 C 222.226562 54.675781 223.664062 54.472656 224.066406 54.394531 C 224.386719 54.332031 224.699219 54.542969 224.761719 54.863281 C 224.824219 55.1875 224.617188 55.5 224.292969 55.5625 C 223.789062 55.660156 222.371094 55.859375 220.664062 56.015625 C 219.84375 56.089844 219.082031 56.148438 218.609375 56.261719 C 218.402344 56.3125 218.382812 56.304688 218.339844 56.347656 C 218.3125 56.378906 218.417969 56.050781 218.417969 56.136719 C 218.417969 56.175781 218.402344 56.035156 218.40625 56.050781 C 218.410156 56.0625 218.402344 56.039062 218.410156 56.050781 "/>
<path fill-rule="nonzero" fill="rgb(92.941284%, 21.176147%, 14.117432%)" fill-opacity="1" d="M 150.523438 59.882812 C 150.265625 59.679688 150.222656 59.304688 150.429688 59.046875 C 150.632812 58.792969 151.007812 58.75 151.265625 58.953125 C 151.3125 58.992188 151.117188 58.867188 151.148438 58.882812 C 151.199219 58.90625 151.023438 58.84375 151.046875 58.847656 C 151.101562 58.859375 151.007812 58.839844 151.042969 58.84375 C 151.078125 58.84375 151.136719 58.84375 151.203125 58.839844 C 151.386719 58.835938 151.640625 58.820312 151.941406 58.800781 C 152.574219 58.753906 153.378906 58.675781 154.214844 58.578125 C 155.890625 58.378906 157.652344 58.03125 157.804688 57.933594 C 158.078125 57.75 158.449219 57.824219 158.632812 58.097656 C 158.8125 58.371094 158.738281 58.742188 158.464844 58.921875 C 158.039062 59.207031 157.511719 59.277344 156.804688 59.40625 C 156.066406 59.539062 155.210938 59.65625 154.351562 59.757812 C 153.5 59.859375 152.683594 59.9375 152.027344 59.984375 C 151.714844 60.007812 151.445312 60.023438 151.234375 60.03125 C 151.132812 60.03125 151.046875 60.035156 150.964844 60.03125 C 150.882812 60.027344 150.847656 60.144531 150.523438 59.882812 "/>
<path fill-rule="nonzero" fill="rgb(92.941284%, 21.176147%, 14.117432%)" fill-opacity="1" d="M 31.289062 99.902344 C 31.355469 100.222656 31.152344 100.539062 30.828125 100.605469 C 30.507812 100.675781 30.191406 100.46875 30.125 100.148438 C 30.097656 100.035156 30.078125 99.949219 30.066406 99.910156 C 30.058594 99.890625 30.070312 99.914062 30.0625 99.902344 C 30.058594 99.890625 30.105469 99.976562 30.089844 99.949219 C 30.074219 99.921875 30.253906 100.113281 30.195312 100.066406 C 30.167969 100.042969 30.382812 100.171875 30.328125 100.148438 C 30.277344 100.125 30.574219 100.199219 30.507812 100.195312 C 30.386719 100.183594 30.933594 100.074219 30.84375 100.125 C 30.78125 100.160156 31.019531 99.972656 30.988281 100.011719 C 30.941406 100.0625 31.085938 99.859375 31.070312 99.890625 C 31.058594 99.917969 31.101562 99.816406 31.097656 99.832031 C 31.078125 99.882812 31.097656 99.820312 31.09375 99.875 C 31.0625 100.160156 31.058594 100.78125 31.058594 101.53125 C 31.0625 102.78125 31.078125 104.261719 31.066406 105.609375 C 31.054688 106.917969 31.058594 107.960938 30.890625 108.59375 C 30.808594 108.914062 30.484375 109.105469 30.167969 109.019531 C 29.847656 108.9375 29.65625 108.613281 29.742188 108.296875 C 29.949219 107.488281 29.875 104.097656 29.871094 101.53125 C 29.867188 100.777344 29.867188 100.160156 29.910156 99.753906 C 29.921875 99.65625 29.925781 99.570312 29.96875 99.449219 C 29.992188 99.386719 30.007812 99.285156 30.171875 99.148438 C 30.359375 98.992188 30.796875 99.019531 30.949219 99.144531 C 31.375 99.5 31.230469 99.632812 31.289062 99.902344 "/>
<path fill-rule="nonzero" fill="rgb(92.941284%, 21.176147%, 14.117432%)" fill-opacity="1" d="M 26.832031 104.886719 C 27.148438 104.976562 27.332031 105.308594 27.238281 105.625 C 27.148438 105.9375 26.816406 106.121094 26.5 106.027344 C 26.332031 105.980469 26.1875 105.925781 26.039062 105.832031 C 25.882812 105.730469 25.660156 105.503906 25.679688 105.171875 C 25.699219 104.84375 25.894531 104.683594 26.027344 104.589844 C 26.15625 104.5 26.285156 104.441406 26.421875 104.386719 C 27.003906 104.164062 27.84375 104.003906 28.835938 103.851562 C 30.894531 103.527344 33.289062 103.304688 34.707031 103.289062 C 35.039062 103.289062 35.304688 103.550781 35.308594 103.878906 C 35.3125 104.207031 35.050781 104.476562 34.722656 104.480469 C 33.40625 104.492188 31.019531 104.714844 29.019531 105.027344 C 28.0625 105.175781 27.25 105.34375 26.851562 105.496094 C 26.765625 105.53125 26.714844 105.558594 26.714844 105.558594 C 26.710938 105.5625 26.804688 105.457031 26.773438 105.5 C 26.753906 105.523438 26.847656 105.359375 26.828125 105.402344 C 26.8125 105.445312 26.871094 105.179688 26.867188 105.238281 C 26.863281 105.300781 26.828125 105.003906 26.84375 105.058594 C 26.875 105.152344 26.699219 104.839844 26.734375 104.871094 C 26.777344 104.914062 26.679688 104.828125 26.695312 104.835938 C 26.71875 104.847656 26.765625 104.867188 26.832031 104.886719 "/>
<path fill-rule="nonzero" fill="rgb(92.941284%, 21.176147%, 14.117432%)" fill-opacity="1" d="M 85.839844 103.96875 C 86.011719 104.25 85.921875 104.617188 85.644531 104.789062 C 85.363281 104.960938 84.996094 104.871094 84.824219 104.589844 C 84.707031 104.394531 84.613281 104.207031 84.578125 103.988281 C 84.542969 103.761719 84.597656 103.460938 84.773438 103.265625 C 85.105469 102.894531 85.480469 102.929688 85.78125 102.929688 C 87.035156 102.921875 88.839844 103.125 90.636719 103.199219 C 92.414062 103.269531 94.066406 103.164062 94.644531 102.789062 C 94.917969 102.605469 95.289062 102.683594 95.46875 102.957031 C 95.648438 103.234375 95.570312 103.601562 95.296875 103.78125 C 94.179688 104.515625 92.425781 104.460938 90.589844 104.386719 C 88.742188 104.3125 86.917969 104.109375 85.789062 104.117188 C 85.683594 104.117188 85.601562 104.125 85.566406 104.132812 C 85.554688 104.136719 85.585938 104.125 85.570312 104.132812 C 85.550781 104.140625 85.699219 104.019531 85.664062 104.058594 C 85.625 104.101562 85.757812 103.84375 85.746094 103.898438 C 85.734375 103.953125 85.75 103.785156 85.753906 103.796875 C 85.753906 103.808594 85.769531 103.855469 85.839844 103.96875 "/>
<path fill-rule="nonzero" fill="rgb(92.941284%, 21.176147%, 14.117432%)" fill-opacity="1" d="M 43.070312 72.859375 C 43.140625 73.183594 42.9375 73.5 42.613281 73.570312 C 42.292969 73.640625 41.976562 73.4375 41.90625 73.113281 C 41.871094 72.949219 41.835938 72.835938 41.816406 72.789062 C 41.8125 72.773438 41.855469 72.84375 41.832031 72.8125 C 41.816406 72.789062 41.964844 72.9375 41.917969 72.902344 C 41.867188 72.859375 42.28125 73.03125 42.164062 73.011719 C 42.046875 72.992188 42.617188 72.90625 42.519531 72.957031 C 42.429688 73.007812 42.734375 72.765625 42.699219 72.808594 C 42.660156 72.863281 42.765625 72.699219 42.753906 72.71875 C 42.746094 72.738281 42.765625 72.683594 42.765625 72.6875 C 42.765625 72.691406 42.753906 72.746094 42.75 72.839844 C 42.707031 73.679688 43.515625 76.453125 44.597656 78.902344 C 45.214844 80.296875 45.90625 81.554688 46.492188 82.359375 C 46.710938 82.660156 46.898438 82.871094 47.023438 82.972656 C 47.078125 83.015625 47.113281 83.03125 47.117188 83.035156 C 47.121094 83.035156 47.027344 83.039062 47.054688 83.035156 C 47.082031 83.027344 47.160156 82.96875 47.3125 82.726562 C 47.480469 82.460938 47.652344 82.066406 47.808594 81.585938 C 48.136719 80.582031 48.390625 79.277344 48.523438 77.910156 C 48.652344 76.601562 48.679688 75.277344 48.554688 74.238281 C 48.492188 73.703125 48.320312 73.246094 48.195312 72.878906 C 48.148438 72.75 48.105469 72.640625 48.066406 72.546875 C 48.046875 72.496094 48.027344 72.453125 48.011719 72.394531 C 48 72.363281 47.988281 72.324219 47.980469 72.246094 C 47.96875 72.160156 47.925781 71.929688 48.199219 71.707031 C 48.519531 71.476562 48.757812 71.59375 48.84375 71.636719 C 48.921875 71.671875 48.957031 71.699219 48.988281 71.726562 C 49.042969 71.769531 49.082031 71.808594 49.132812 71.859375 C 49.238281 71.960938 49.375 72.101562 49.570312 72.296875 C 49.800781 72.53125 49.796875 72.910156 49.5625 73.140625 C 49.328125 73.371094 48.953125 73.367188 48.722656 73.132812 C 48.527344 72.9375 48.386719 72.792969 48.300781 72.710938 C 48.265625 72.675781 48.25 72.660156 48.246094 72.65625 C 48.238281 72.652344 48.394531 72.738281 48.332031 72.710938 C 48.296875 72.691406 48.601562 72.769531 48.507812 72.761719 C 48.460938 72.753906 48.761719 72.738281 48.691406 72.753906 C 48.617188 72.769531 48.992188 72.601562 48.921875 72.652344 C 48.878906 72.691406 49.132812 72.386719 49.097656 72.449219 C 49.042969 72.550781 49.167969 72.152344 49.164062 72.207031 C 49.160156 72.285156 49.148438 72.050781 49.15625 72.074219 C 49.160156 72.09375 49.144531 72.03125 49.144531 72.039062 C 49.148438 72.042969 49.152344 72.058594 49.167969 72.097656 C 49.203125 72.1875 49.261719 72.324219 49.320312 72.488281 C 49.441406 72.84375 49.652344 73.402344 49.734375 74.09375 C 49.878906 75.265625 49.84375 76.652344 49.707031 78.027344 C 49.566406 79.46875 49.304688 80.839844 48.941406 81.957031 C 48.761719 82.5 48.566406 82.972656 48.320312 83.359375 C 48.085938 83.738281 47.792969 84.085938 47.324219 84.191406 C 46.933594 84.285156 46.546875 84.117188 46.28125 83.902344 C 46.011719 83.683594 45.78125 83.402344 45.53125 83.058594 C 44.867188 82.148438 44.152344 80.839844 43.511719 79.382812 C 42.949219 78.113281 42.464844 76.769531 42.105469 75.570312 C 41.761719 74.410156 41.523438 73.46875 41.5625 72.773438 C 41.570312 72.628906 41.582031 72.496094 41.625 72.351562 C 41.644531 72.28125 41.667969 72.195312 41.761719 72.078125 C 41.847656 71.964844 42.101562 71.792969 42.371094 71.839844 C 42.628906 71.886719 42.734375 72.027344 42.800781 72.117188 C 42.859375 72.199219 42.890625 72.273438 42.921875 72.34375 C 42.980469 72.488281 43.023438 72.652344 43.070312 72.859375 "/>
<path fill-rule="nonzero" fill="rgb(92.941284%, 21.176147%, 14.117432%)" fill-opacity="1" d="M 53.421875 79.9375 C 53.652344 79.703125 54.027344 79.699219 54.261719 79.929688 C 54.496094 80.160156 54.503906 80.535156 54.273438 80.769531 C 54.261719 80.78125 54.242188 80.808594 54.230469 80.90625 C 54.21875 81.011719 54.230469 81.179688 54.273438 81.378906 C 54.371094 81.804688 54.589844 82.332031 54.863281 82.867188 C 55.417969 83.949219 56.113281 84.957031 56.398438 85.339844 C 56.597656 85.601562 56.542969 85.976562 56.28125 86.171875 C 56.015625 86.367188 55.644531 86.316406 55.445312 86.050781 C 55.121094 85.613281 54.402344 84.585938 53.804688 83.410156 C 53.503906 82.820312 53.242188 82.222656 53.113281 81.636719 C 53.050781 81.347656 53.015625 81.0625 53.046875 80.773438 C 53.082031 80.480469 53.191406 80.171875 53.421875 79.9375 "/>
<path fill-rule="nonzero" fill="rgb(92.941284%, 21.176147%, 14.117432%)" fill-opacity="1" d="M 59.925781 73.546875 C 60.097656 73.828125 60.007812 74.195312 59.730469 74.367188 C 59.449219 74.539062 59.082031 74.453125 58.910156 74.171875 C 58.71875 73.863281 58.621094 73.5 58.671875 73.148438 C 58.726562 72.804688 58.914062 72.511719 59.144531 72.289062 C 59.601562 71.847656 60.234375 71.582031 60.9375 71.34375 C 62.382812 70.851562 64.09375 70.550781 65.269531 70.1875 C 65.585938 70.09375 65.917969 70.269531 66.015625 70.582031 C 66.113281 70.894531 65.9375 71.230469 65.621094 71.324219 C 64.335938 71.722656 62.644531 72.019531 61.320312 72.46875 C 60.691406 72.683594 60.191406 72.929688 59.972656 73.144531 C 59.878906 73.238281 59.855469 73.296875 59.847656 73.328125 C 59.84375 73.359375 59.84375 73.417969 59.925781 73.546875 "/>
<path fill-rule="nonzero" fill="rgb(92.941284%, 21.176147%, 14.117432%)" fill-opacity="1" d="M 62.949219 74.808594 C 63.261719 74.910156 63.429688 75.246094 63.328125 75.558594 C 63.226562 75.871094 62.890625 76.042969 62.578125 75.941406 C 62.363281 75.867188 62.175781 75.820312 61.976562 75.601562 C 61.867188 75.480469 61.761719 75.238281 61.808594 75.003906 C 61.855469 74.78125 61.980469 74.65625 62.078125 74.582031 C 62.421875 74.304688 62.777344 74.257812 63.257812 74.140625 C 64.28125 73.886719 65.699219 73.617188 67.074219 73.179688 C 67.386719 73.078125 67.71875 73.25 67.820312 73.566406 C 67.921875 73.878906 67.746094 74.210938 67.433594 74.3125 C 65.980469 74.777344 64.519531 75.054688 63.542969 75.296875 C 63.097656 75.40625 62.875 75.464844 62.820312 75.507812 C 62.808594 75.519531 62.917969 75.398438 62.890625 75.4375 C 62.867188 75.46875 62.976562 75.246094 62.957031 75.304688 C 62.929688 75.394531 62.9375 74.902344 62.964844 75 C 62.992188 75.089844 62.828125 74.769531 62.863281 74.804688 C 62.890625 74.835938 62.796875 74.746094 62.804688 74.753906 C 62.824219 74.765625 62.84375 74.773438 62.949219 74.808594 "/>
<path fill-rule="nonzero" fill="rgb(0%, 45.097351%, 23.136902%)" fill-opacity="1" d="M 197.386719 32.976562 C 196.984375 33.148438 196.519531 32.957031 196.351562 32.550781 C 196.179688 32.148438 196.371094 31.683594 196.777344 31.515625 C 196.792969 31.507812 196.902344 31.34375 197.011719 30.972656 C 197.085938 30.714844 197.167969 30.539062 197.1875 30.457031 C 197.21875 30.335938 197.234375 30.253906 197.238281 30.230469 C 197.238281 30.222656 197.242188 30.28125 197.242188 30.257812 C 197.238281 30.226562 197.296875 30.414062 197.277344 30.371094 C 197.253906 30.324219 197.371094 30.472656 197.355469 30.464844 C 197.34375 30.457031 197.34375 30.457031 197.296875 30.449219 C 197.179688 30.425781 196.957031 30.421875 196.691406 30.472656 C 196.121094 30.578125 195.417969 30.875 194.851562 31.304688 C 193.917969 32.015625 193.347656 33.105469 193.109375 34.226562 C 192.878906 35.332031 192.992188 36.4375 193.308594 37.097656 C 193.664062 37.839844 194.292969 38.273438 195.113281 38.308594 C 195.980469 38.351562 197.140625 37.917969 198.347656 36.792969 C 198.671875 36.496094 199.171875 36.511719 199.46875 36.832031 C 199.769531 37.15625 199.75 37.65625 199.429688 37.957031 C 197.992188 39.292969 196.441406 39.960938 195.039062 39.894531 C 193.664062 39.832031 192.460938 39 191.875 37.78125 C 191.359375 36.703125 191.261719 35.304688 191.558594 33.898438 C 191.855469 32.476562 192.597656 31.03125 193.890625 30.042969 C 194.667969 29.449219 195.5625 29.066406 196.40625 28.910156 C 196.820312 28.835938 197.222656 28.8125 197.617188 28.894531 C 198.019531 28.976562 198.46875 29.207031 198.695312 29.660156 C 198.953125 30.175781 198.789062 30.59375 198.726562 30.84375 C 198.65625 31.117188 198.570312 31.296875 198.535156 31.414062 C 198.394531 31.902344 198.175781 32.648438 197.386719 32.976562 "/>
<path fill-rule="nonzero" fill="rgb(0%, 45.097351%, 23.136902%)" fill-opacity="1" d="M 201.707031 35.753906 C 201.601562 36.179688 201.171875 36.4375 200.746094 36.332031 C 200.320312 36.230469 200.0625 35.800781 200.167969 35.375 C 200.191406 35.265625 200.207031 34.84375 200.3125 34.386719 C 200.382812 34.089844 200.515625 33.773438 200.78125 33.519531 C 201.203125 33.109375 201.660156 33.125 201.976562 33.140625 C 202.277344 33.160156 202.566406 33.296875 202.765625 33.484375 C 202.960938 33.667969 203.089844 33.890625 203.179688 34.121094 C 203.355469 34.578125 203.386719 35.105469 203.320312 35.6875 C 203.25 36.320312 203.042969 36.984375 202.757812 37.675781 C 202.277344 38.839844 201.539062 39.910156 200.960938 40.648438 C 200.742188 40.925781 200.507812 41.125 200.292969 41.265625 C 200.085938 41.398438 200.070312 41.574219 199.5 41.511719 C 199.0625 41.464844 198.746094 41.074219 198.792969 40.640625 C 198.839844 40.207031 199.222656 39.890625 199.65625 39.933594 C 199.761719 39.945312 199.363281 39.960938 199.417969 39.949219 C 199.5 39.929688 199.226562 40.019531 199.257812 40.003906 C 199.289062 39.988281 199.1875 40.046875 199.199219 40.039062 C 199.238281 40.011719 199.191406 40.042969 199.210938 40.027344 C 199.257812 39.988281 199.335938 39.917969 199.429688 39.835938 C 199.636719 39.65625 199.890625 39.433594 200.21875 39.25 C 201.273438 38.65625 202.386719 39.054688 203.335938 39.289062 C 204.269531 39.519531 205.09375 39.652344 205.769531 39.320312 C 206.160156 39.128906 206.636719 39.289062 206.832031 39.679688 C 207.023438 40.074219 206.863281 40.550781 206.46875 40.742188 C 205.234375 41.351562 203.960938 41.078125 202.957031 40.828125 C 201.996094 40.589844 201.292969 40.46875 200.992188 40.632812 C 200.855469 40.710938 200.65625 40.871094 200.476562 41.03125 C 200.386719 41.109375 200.304688 41.183594 200.21875 41.25 C 200.171875 41.289062 200.128906 41.328125 200.054688 41.375 C 199.984375 41.417969 199.902344 41.550781 199.503906 41.511719 L 199.664062 39.933594 C 199.75 39.945312 199.457031 39.941406 199.496094 39.9375 C 199.550781 39.929688 199.375 39.964844 199.394531 39.957031 C 199.429688 39.945312 199.386719 39.960938 199.429688 39.933594 C 199.5 39.886719 199.605469 39.800781 199.714844 39.664062 C 200.226562 39.015625 200.898438 38.019531 201.289062 37.070312 C 201.535156 36.472656 201.695312 35.925781 201.746094 35.503906 C 201.789062 35.117188 201.746094 34.820312 201.695312 34.6875 C 201.675781 34.632812 201.710938 34.671875 201.683594 34.644531 C 201.652344 34.613281 201.972656 34.730469 201.886719 34.726562 C 201.839844 34.722656 201.792969 34.726562 201.777344 34.730469 C 201.769531 34.730469 201.953125 34.59375 201.882812 34.660156 C 201.859375 34.683594 201.878906 34.664062 201.859375 34.75 C 201.800781 34.984375 201.808594 35.34375 201.707031 35.753906 "/>
<path fill-rule="nonzero" fill="rgb(0%, 45.097351%, 23.136902%)" fill-opacity="1" d="M 73.03125 119.25 C 73.113281 119.679688 72.835938 120.09375 72.40625 120.179688 C 71.972656 120.261719 71.558594 119.980469 71.472656 119.550781 C 71.339844 118.871094 71.492188 118.128906 71.460938 117.503906 C 71.449219 117.292969 71.457031 117.125 71.453125 117.023438 C 71.453125 116.980469 71.449219 116.972656 71.449219 116.964844 C 71.445312 116.953125 71.554688 117.164062 71.507812 117.09375 C 71.460938 117.027344 71.753906 117.300781 71.6875 117.261719 C 71.625 117.226562 71.878906 117.324219 71.84375 117.320312 C 71.785156 117.308594 71.902344 117.320312 71.855469 117.332031 C 71.738281 117.363281 71.5 117.476562 71.230469 117.664062 C 70.632812 118.085938 69.820312 118.921875 69.03125 119.855469 C 68.375 120.628906 67.769531 121.425781 67.378906 122.136719 C 66.773438 123.230469 66.789062 123.960938 67.027344 124.410156 C 67.269531 124.859375 67.847656 125.222656 68.640625 125.378906 C 69.464844 125.542969 70.449219 125.484375 71.328125 125.207031 C 72.195312 124.933594 72.921875 124.453125 73.308594 123.859375 C 73.546875 123.492188 74.039062 123.386719 74.40625 123.625 C 74.773438 123.863281 74.878906 124.351562 74.640625 124.71875 C 73.996094 125.71875 72.933594 126.363281 71.804688 126.71875 C 70.671875 127.078125 69.449219 127.160156 68.332031 126.9375 C 67.226562 126.714844 66.164062 126.164062 65.628906 125.160156 C 65.085938 124.140625 65.21875 122.769531 65.984375 121.371094 C 66.464844 120.503906 67.128906 119.648438 67.820312 118.828125 C 68.65625 117.847656 69.5 116.941406 70.320312 116.363281 C 70.699219 116.101562 71.0625 115.902344 71.449219 115.796875 C 71.644531 115.746094 71.851562 115.714844 72.089844 115.75 C 72.34375 115.792969 72.648438 115.945312 72.824219 116.207031 C 73.214844 116.789062 73.03125 117.171875 73.042969 117.425781 C 73.085938 118.234375 73.011719 119.144531 73.03125 119.25 "/>
<path fill-rule="nonzero" fill="rgb(0%, 45.097351%, 23.136902%)" fill-opacity="1" d="M 74.875 122.261719 C 74.925781 121.828125 75.320312 121.515625 75.753906 121.566406 C 76.191406 121.617188 76.5 122.011719 76.449219 122.449219 C 76.414062 122.757812 76.472656 124.097656 76.574219 125.40625 C 76.679688 126.789062 76.707031 127.96875 76.972656 128.652344 C 77.132812 129.0625 76.929688 129.519531 76.519531 129.679688 C 76.109375 129.835938 75.652344 129.632812 75.492188 129.226562 C 75.070312 128.125 75.09375 126.859375 74.992188 125.527344 C 74.886719 124.1875 74.792969 122.957031 74.875 122.261719 "/>
<path fill-rule="nonzero" fill="rgb(92.941284%, 21.176147%, 14.117432%)" fill-opacity="1" d="M 168.660156 71.71875 C 168.648438 72.046875 168.371094 72.304688 168.042969 72.292969 C 167.714844 72.28125 167.460938 72.003906 167.472656 71.675781 C 167.484375 71.394531 167.460938 71.199219 167.4375 71.101562 C 167.425781 71.058594 167.429688 71.070312 167.421875 71.058594 C 167.410156 71.039062 167.621094 71.203125 167.542969 71.164062 C 167.460938 71.121094 167.898438 71.191406 167.816406 71.207031 C 167.753906 71.21875 167.980469 71.125 167.960938 71.144531 C 167.933594 71.167969 167.953125 71.152344 167.921875 71.226562 C 167.710938 71.757812 168.332031 73.855469 169.007812 75.449219 C 169.269531 76.074219 169.535156 76.640625 169.785156 77.050781 C 169.96875 77.347656 170.078125 77.503906 170.105469 77.523438 C 170.175781 77.566406 170.234375 77.582031 170.285156 77.582031 C 170.339844 77.582031 170.40625 77.566406 170.507812 77.484375 C 171.085938 77.023438 171.722656 75.160156 172.21875 73.449219 C 172.503906 72.453125 172.703125 71.445312 172.917969 70.648438 C 173.039062 70.199219 172.972656 69.8125 173.457031 69.421875 C 173.601562 69.304688 173.859375 69.234375 174.066406 69.28125 C 174.269531 69.335938 174.394531 69.441406 174.484375 69.535156 C 174.660156 69.722656 174.777344 69.9375 174.921875 70.230469 C 175.066406 70.527344 174.945312 70.882812 174.648438 71.027344 C 174.355469 71.171875 174 71.050781 173.851562 70.757812 C 173.734375 70.511719 173.636719 70.371094 173.621094 70.355469 C 173.617188 70.351562 173.675781 70.398438 173.652344 70.382812 C 173.625 70.363281 173.847656 70.453125 173.785156 70.4375 C 173.726562 70.425781 174.097656 70.417969 174.019531 70.4375 C 173.945312 70.457031 174.238281 70.320312 174.199219 70.351562 C 174.164062 70.378906 174.273438 70.269531 174.265625 70.285156 C 174.238281 70.320312 174.171875 70.558594 174.066406 70.957031 C 173.867188 71.695312 173.664062 72.722656 173.359375 73.78125 C 172.859375 75.515625 172.410156 77.488281 171.25 78.414062 C 170.972656 78.636719 170.640625 78.765625 170.316406 78.773438 C 170 78.78125 169.703125 78.679688 169.460938 78.523438 C 169.074219 78.277344 168.933594 77.933594 168.773438 77.675781 C 168.464844 77.171875 168.183594 76.5625 167.910156 75.914062 C 167.566406 75.097656 167.203125 74.164062 166.953125 73.253906 C 166.707031 72.363281 166.523438 71.519531 166.816406 70.785156 C 166.902344 70.574219 167.015625 70.378906 167.207031 70.222656 C 167.308594 70.140625 167.433594 70.070312 167.585938 70.039062 C 167.753906 70.003906 167.949219 70.03125 168.105469 70.113281 C 168.40625 70.273438 168.519531 70.546875 168.585938 70.800781 C 168.65625 71.0625 168.675781 71.359375 168.660156 71.71875 "/>
<path fill-rule="nonzero" fill="rgb(92.941284%, 21.176147%, 14.117432%)" fill-opacity="1" d="M 175.3125 75.644531 C 175.640625 75.679688 175.875 75.976562 175.835938 76.300781 C 175.800781 76.628906 175.503906 76.863281 175.179688 76.824219 C 174.867188 76.789062 174.703125 76.589844 174.617188 76.449219 C 174.53125 76.3125 174.488281 76.183594 174.453125 76.046875 C 174.386719 75.777344 174.367188 75.488281 174.425781 75.183594 C 174.492188 74.84375 174.730469 74.648438 174.921875 74.546875 C 175.109375 74.441406 175.292969 74.394531 175.484375 74.382812 C 175.78125 74.367188 176 74.527344 176.125 74.664062 C 176.242188 74.796875 176.316406 74.933594 176.375 75.078125 C 176.496094 75.367188 176.5625 75.695312 176.582031 76.046875 C 176.609375 76.636719 176.40625 77.210938 176.140625 77.832031 C 175.742188 78.769531 175.105469 79.710938 174.578125 80.539062 C 174.246094 81.058594 173.921875 81.476562 173.757812 81.738281 C 173.734375 81.777344 173.722656 81.800781 173.71875 81.8125 C 173.714844 81.816406 173.734375 81.671875 173.730469 81.738281 C 173.730469 81.773438 173.695312 81.511719 173.714844 81.578125 C 173.734375 81.652344 173.5 81.265625 173.574219 81.339844 C 173.648438 81.410156 173.207031 81.171875 173.292969 81.1875 C 173.375 81.203125 173.066406 81.195312 173.109375 81.1875 C 173.148438 81.179688 173.03125 81.210938 173.039062 81.207031 C 173.058594 81.199219 173.355469 80.914062 173.714844 80.640625 C 174.039062 80.390625 174.398438 80.136719 174.789062 79.949219 C 175.382812 79.660156 176.03125 79.722656 176.5625 79.917969 C 177.089844 80.113281 177.554688 80.417969 178.003906 80.695312 C 178.449219 80.96875 178.871094 81.210938 179.253906 81.320312 C 179.625 81.425781 179.949219 81.425781 180.316406 81.242188 C 180.609375 81.09375 180.964844 81.210938 181.113281 81.503906 C 181.261719 81.796875 181.144531 82.15625 180.851562 82.304688 C 180.203125 82.628906 179.511719 82.632812 178.925781 82.464844 C 178.347656 82.296875 177.847656 81.996094 177.382812 81.710938 C 176.925781 81.429688 176.511719 81.167969 176.152344 81.035156 C 175.8125 80.910156 175.5625 80.894531 175.304688 81.019531 C 175.039062 81.148438 174.730469 81.359375 174.4375 81.585938 C 174.148438 81.804688 173.988281 82.234375 173.328125 82.359375 C 173.183594 82.382812 172.933594 82.375 172.746094 82.191406 C 172.558594 82.007812 172.535156 81.785156 172.542969 81.652344 C 172.5625 81.410156 172.648438 81.265625 172.75 81.105469 C 172.964844 80.761719 173.273438 80.367188 173.574219 79.898438 C 174.109375 79.0625 174.710938 78.15625 175.046875 77.363281 C 175.28125 76.8125 175.402344 76.367188 175.390625 76.101562 C 175.382812 75.882812 175.332031 75.667969 175.277344 75.535156 C 175.253906 75.480469 175.253906 75.476562 175.242188 75.460938 C 175.230469 75.453125 175.371094 75.546875 175.320312 75.523438 C 175.269531 75.492188 175.648438 75.566406 175.554688 75.570312 C 175.550781 75.570312 175.503906 75.585938 175.492188 75.589844 C 175.488281 75.59375 175.539062 75.542969 175.519531 75.566406 C 175.492188 75.59375 175.609375 75.335938 175.59375 75.410156 C 175.574219 75.5 175.582031 75.65625 175.609375 75.757812 C 175.621094 75.804688 175.617188 75.804688 175.625 75.820312 C 175.632812 75.832031 175.515625 75.710938 175.558594 75.746094 C 175.605469 75.785156 175.199219 75.628906 175.3125 75.644531 "/>
<path fill-rule="nonzero" fill="rgb(92.941284%, 21.176147%, 14.117432%)" fill-opacity="1" d="M 183.867188 75.023438 C 183.90625 75.347656 183.675781 75.644531 183.347656 75.683594 C 183.023438 75.726562 182.726562 75.492188 182.6875 75.167969 C 182.632812 74.75 182.664062 74.355469 182.808594 74.011719 C 182.949219 73.671875 183.207031 73.398438 183.503906 73.226562 C 184.089844 72.886719 184.792969 72.875 185.5 72.953125 C 186.945312 73.113281 188.46875 73.691406 189.488281 74.070312 C 189.792969 74.183594 189.949219 74.527344 189.835938 74.835938 C 189.722656 75.140625 189.378906 75.296875 189.070312 75.183594 C 188.070312 74.8125 186.597656 74.273438 185.371094 74.136719 C 184.789062 74.074219 184.320312 74.128906 184.097656 74.253906 C 184 74.3125 183.949219 74.371094 183.90625 74.46875 C 183.863281 74.578125 183.832031 74.753906 183.867188 75.023438 "/>
<path fill-rule="nonzero" fill="rgb(92.941284%, 21.176147%, 14.117432%)" fill-opacity="1" d="M 184.792969 79.433594 C 184.722656 79.757812 184.40625 79.960938 184.085938 79.894531 C 183.765625 79.828125 183.558594 79.511719 183.625 79.191406 C 183.738281 78.664062 184.097656 78.238281 184.535156 77.976562 C 184.96875 77.71875 185.488281 77.582031 186.050781 77.5 C 187.210938 77.328125 188.585938 77.382812 190.019531 77.472656 C 190.347656 77.492188 190.597656 77.773438 190.574219 78.101562 C 190.554688 78.429688 190.273438 78.679688 189.945312 78.660156 C 188.539062 78.574219 187.21875 78.53125 186.226562 78.675781 C 185.757812 78.746094 185.378906 78.859375 185.140625 79 C 184.921875 79.132812 184.828125 79.257812 184.792969 79.433594 "/>
</svg>
