<svg xmlns="http://www.w3.org/2000/svg" xmlns:xlink="http://www.w3.org/1999/xlink" width="1587" height="1041" version="1.1">
<style type="text/css">
.l0{
 fill: #000000;
  stroke: #000000;
  stroke-linecap:round;
  stroke-linejoin:round;
  stroke-width: 0.966594;
}
.l1{
 fill: #00ccee;
  stroke: #00ccee;
  stroke-linecap:round;
  stroke-linejoin:round;
  stroke-width: 0.966594;
}
.l2{
  fill: none;
  stroke: #3f3f3f;
  stroke-linecap:round;
  stroke-linejoin:round;
  stroke-width: 0.966594;
}
.l3{
 fill: #cccccc; fill-opacity: 0.5;
  stroke: #cccccc;
  stroke-linecap:round;
  stroke-linejoin:round;
  stroke-width: 0.966594;
}
.l4{
 fill: #88dd00;
  stroke: #88dd00;
  stroke-linecap:round;
  stroke-linejoin:round;
  stroke-width: 0.966594;
}
.l5{
 fill: #bb2200;
  stroke: #bb2200;
  stroke-linecap:round;
  stroke-linejoin:round;
  stroke-width: 0.966594;
}
.l6{
 fill: #00ccee; fill-opacity: 0.5;
  stroke: #00ccee;
  stroke-linecap:round;
  stroke-linejoin:round;
  stroke-width: 0.966594;
}
.l7{
 fill: #ff0000; fill-opacity: 0.5;
  stroke: #ff0000;
  stroke-linecap:round;
  stroke-linejoin:round;
  stroke-width: 0.966594;
}
.l8{
 fill: #ffff00; fill-opacity: 0.5;
  stroke: #ffff00;
  stroke-linecap:round;
  stroke-linejoin:round;
  stroke-width: 0.966594;
}
.l9{
 fill: #ffffff; fill-opacity: 0.5;
  stroke: #ffffff;
  stroke-linecap:round;
  stroke-linejoin:round;
  stroke-width: 0.966594;
}
.l10{
 fill: #ff00ff;
  stroke: #ff00ff;
  stroke-linecap:round;
  stroke-linejoin:round;
  stroke-width: 0.966594;
}
.l11{
 fill: #00ff00; fill-opacity: 0.5;
  stroke: #00ff00;
  stroke-linecap:round;
  stroke-linejoin:round;
  stroke-width: 0.966594;
}
.l12{
 fill: #0044dd; fill-opacity: 0.5;
  stroke: #0044dd;
  stroke-linecap:round;
  stroke-linejoin:round;
  stroke-width: 0.966594;
}
.l13{
 fill: #aaaa00; fill-opacity: 0.5;
  stroke: #aaaa00;
  stroke-linecap:round;
  stroke-linejoin:round;
  stroke-width: 0.966594;
}
.l14{
  fill: none;
  stroke: #aaccaa;
  stroke-linecap:round;
  stroke-linejoin:round;
  stroke-width: 0.966594;
}
.l15{
 fill: #ff7777; fill-opacity: 0.5;
  stroke: #ff7777;
  stroke-linecap:round;
  stroke-linejoin:round;
  stroke-width: 0.966594;
}
.l16{
 fill: #bfff81; fill-opacity: 0.5;
  stroke: #bfff81;
  stroke-linecap:round;
  stroke-linejoin:round;
  stroke-width: 0.966594;
}
.l17{
  fill: none;
  stroke: #00ffcc;
  stroke-linecap:round;
  stroke-linejoin:round;
  stroke-width: 0.966594;
}
.l18{
 fill: #ce0097; fill-opacity: 0.5;
  stroke: #ce0097;
  stroke-linecap:round;
  stroke-linejoin:round;
  stroke-width: 0.966594;
}
.l19{
  fill: none;
  stroke: #d2d46b;
  stroke-linecap:round;
  stroke-linejoin:round;
  stroke-width: 0.966594;
}
.l20{
  fill: none;
  stroke: #ef6158;
  stroke-linecap:round;
  stroke-linejoin:round;
  stroke-width: 0.966594;
}
.l21{
  fill: none;
  stroke: #fdb200;
  stroke-linecap:round;
  stroke-linejoin:round;
  stroke-width: 0.966594;
}
text {font-family: Sans-Serif;}
</style>
<rect class="l0" x="0" y="0" width="1587" height="1041"/>
<text fill="#cccccc"  xml:space="preserve" font-size="37.2318" transform="translate(77.5047, 102.334)" >8-bit successive approximation register analog-to-digital-converter</text>
<text fill="#cccccc"  xml:space="preserve" font-size="18.6159" transform="translate(337.053, 380.779)" >Power decoupling</text>
<text fill="#cccccc"  xml:space="preserve" font-size="18.6159" transform="translate(77.5047, 148.081)" ># Signal interface</text>
<text fill="#cccccc"  xml:space="preserve" font-size="18.6159" transform="translate(77.5047, 169.433)" >uio_out[0]  : When the output DFFs sample SAR output. If it does not come, then clock is too fast</text>
<text fill="#cccccc"  xml:space="preserve" font-size="18.6159" transform="translate(77.5047, 190.786)" >uo_out[7:0] : Digital output. Two's complement</text>
<text fill="#cccccc"  xml:space="preserve" font-size="18.6159" transform="translate(77.5047, 212.138)" >ui_in[0]    : Enable ADC. Useful to measure current consumption  </text>
<text fill="#cccccc"  xml:space="preserve" font-size="18.6159" transform="translate(77.5047, 233.49)" >clk         : Clock, ~ 4 MHz</text>
<text fill="#cccccc"  xml:space="preserve" font-size="18.6159" transform="translate(623.451, 461.329)" >Output capture</text>
<text fill="#cccccc"  xml:space="preserve" font-size="18.6159" transform="translate(1079.9, 479.229)" >SAR core</text>
<text fill="#00ccee"  xml:space="preserve" font-size="15.3581" transform="translate(68.4232, 378.94)" >VPWR</text>
<text fill="#00ccee"  xml:space="preserve" font-size="15.3581" transform="translate(59.4732, 915.936)" >VGND</text>
<text fill="#00ccee"  xml:space="preserve" font-size="15.3581" transform="translate(41.4232, 781.687)" >ui_in[7:0]</text>
<text fill="#00ccee"  xml:space="preserve" font-size="15.3581" transform="translate(1384.2, 405.79)" >uo_out[7:0]</text>
<text fill="#00ccee"  xml:space="preserve" font-size="15.3581" transform="translate(1437.56, 208.891)" >uio_in[7:0]</text>
<text fill="#00ccee"  xml:space="preserve" font-size="15.3581" transform="translate(1375.25, 173.091)" >uio_out[7:0]</text>
<text fill="#00ccee"  xml:space="preserve" font-size="15.3581" transform="translate(1375.25, 262.591)" >uio_oe[7:0]</text>
<text fill="#00ccee"  xml:space="preserve" font-size="15.3581" transform="translate(57.4442, 458.095)" >ua[7:0]</text>
<text fill="#00ccee"  xml:space="preserve" font-size="15.3581" transform="translate(86.4232, 495.289)" >ena</text>
<text fill="#00ccee"  xml:space="preserve" font-size="15.3581" transform="translate(93.4232, 531.089)" >clk</text>
<text fill="#00ccee"  xml:space="preserve" font-size="15.3581" transform="translate(76.4232, 566.889)" >rst_n</text>
<text fill="#00ccee"  xml:space="preserve" font-size="12.5657" transform="translate(509.614, 574.553)" >D&lt;7&gt;</text>
<text fill="#00ccee"  xml:space="preserve" font-size="12.5657" transform="translate(509.614, 592.453)" >D&lt;6&gt;</text>
<text fill="#00ccee"  xml:space="preserve" font-size="12.5657" transform="translate(509.614, 610.352)" >D&lt;5&gt;</text>
<text fill="#00ccee"  xml:space="preserve" font-size="12.5657" transform="translate(509.614, 628.252)" >D&lt;4&gt;</text>
<text fill="#00ccee"  xml:space="preserve" font-size="12.5657" transform="translate(509.614, 646.152)" >D&lt;3&gt;</text>
<text fill="#00ccee"  xml:space="preserve" font-size="12.5657" transform="translate(509.614, 664.052)" >D&lt;2&gt;</text>
<text fill="#00ccee"  xml:space="preserve" font-size="12.5657" transform="translate(509.614, 681.952)" >D&lt;1&gt;</text>
<text fill="#00ccee"  xml:space="preserve" font-size="12.5657" transform="translate(509.614, 699.852)" >D&lt;0&gt;</text>
<text fill="#00ccee"  xml:space="preserve" font-size="12.5657" transform="translate(532.614, 556.653)" >EN</text>
<text fill="#00ccee"  xml:space="preserve" font-size="12.5657" transform="translate(431.614, 538.753)" >CK_SAMPLE_BSSW</text>
<text fill="#00ccee"  xml:space="preserve" font-size="12.5657" transform="translate(475.614, 520.853)" >CK_SAMPLE</text>
<text fill="#00ccee"  xml:space="preserve" font-size="12.5657" transform="translate(503.614, 502.953)" >ui_in[0]</text>
<text fill="#00ccee"  xml:space="preserve" font-size="12.5657" transform="translate(531.614, 485.053)" >clk</text>
<text fill="#00ccee"  xml:space="preserve" font-size="12.5657" transform="translate(488.614, 717.752)" >uo_out[7]</text>
<text fill="#00ccee"  xml:space="preserve" font-size="12.5657" transform="translate(488.614, 735.652)" >uo_out[6]</text>
<text fill="#00ccee"  xml:space="preserve" font-size="12.5657" transform="translate(488.614, 753.552)" >uo_out[5]</text>
<text fill="#00ccee"  xml:space="preserve" font-size="12.5657" transform="translate(488.614, 771.451)" >uo_out[4]</text>
<text fill="#00ccee"  xml:space="preserve" font-size="12.5657" transform="translate(488.614, 789.351)" >uo_out[3]</text>
<text fill="#00ccee"  xml:space="preserve" font-size="12.5657" transform="translate(488.614, 807.251)" >uo_out[2]</text>
<text fill="#00ccee"  xml:space="preserve" font-size="12.5657" transform="translate(488.614, 825.151)" >uo_out[1]</text>
<text fill="#00ccee"  xml:space="preserve" font-size="12.5657" transform="translate(488.614, 843.051)" >uo_out[0]</text>
<text fill="#00ccee"  xml:space="preserve" font-size="12.5657" transform="translate(512.614, 860.951)" >DONE</text>
<text fill="#00ccee"  xml:space="preserve" font-size="12.5657" transform="translate(511.614, 878.851)" >VPWR</text>
<text fill="#00ccee"  xml:space="preserve" font-size="12.5657" transform="translate(511.614, 896.751)" >VGND</text>
<text fill="#00ccee"  xml:space="preserve" font-size="12.5657" transform="translate(948.161, 583.503)" >D&lt;7&gt;</text>
<text fill="#00ccee"  xml:space="preserve" font-size="12.5657" transform="translate(948.161, 601.402)" >D&lt;6&gt;</text>
<text fill="#00ccee"  xml:space="preserve" font-size="12.5657" transform="translate(948.161, 619.302)" >D&lt;5&gt;</text>
<text fill="#00ccee"  xml:space="preserve" font-size="12.5657" transform="translate(948.161, 637.202)" >D&lt;4&gt;</text>
<text fill="#00ccee"  xml:space="preserve" font-size="12.5657" transform="translate(948.161, 655.102)" >D&lt;3&gt;</text>
<text fill="#00ccee"  xml:space="preserve" font-size="12.5657" transform="translate(948.161, 673.002)" >D&lt;2&gt;</text>
<text fill="#00ccee"  xml:space="preserve" font-size="12.5657" transform="translate(948.161, 690.902)" >D&lt;1&gt;</text>
<text fill="#00ccee"  xml:space="preserve" font-size="12.5657" transform="translate(948.161, 708.802)" >D&lt;0&gt;</text>
<text fill="#00ccee"  xml:space="preserve" font-size="12.5657" transform="translate(951.161, 565.603)" >DONE</text>
<text fill="#00ccee"  xml:space="preserve" font-size="12.5657" transform="translate(971.161, 726.702)" >EN</text>
<text fill="#00ccee"  xml:space="preserve" font-size="12.5657" transform="translate(870.161, 762.501)" >CK_SAMPLE_BSSW</text>
<text fill="#00ccee"  xml:space="preserve" font-size="12.5657" transform="translate(914.161, 744.602)" >CK_SAMPLE</text>
<text fill="#00ccee"  xml:space="preserve" font-size="12.5657" transform="translate(950.161, 780.401)" >VPWR</text>
<text fill="#00ccee"  xml:space="preserve" font-size="12.5657" transform="translate(950.161, 798.301)" >VPWR</text>
<text fill="#00ccee"  xml:space="preserve" font-size="12.5657" transform="translate(950.161, 816.201)" >VGND</text>
<text fill="#00ccee"  xml:space="preserve" font-size="12.5657" transform="translate(954.161, 494.003)" >ua[1]</text>
<text fill="#00ccee"  xml:space="preserve" font-size="12.5657" transform="translate(954.161, 511.903)" >ua[0]</text>
<text fill="#00ccee"  xml:space="preserve" font-size="12.5657" transform="translate(953.161, 529.803)" >SARN</text>
<text fill="#00ccee"  xml:space="preserve" font-size="12.5657" transform="translate(954.161, 547.703)" >SARP</text>
<text fill="#00ccee"  xml:space="preserve" font-size="12.5657" transform="translate(515.614, 914.65)" >TIE_L</text>
<text fill="#00ccee"  xml:space="preserve" font-size="12.5657" transform="translate(1043.66, 212.08)" >TIE_L</text>
<text fill="#00ccee"  xml:space="preserve" font-size="12.5657" transform="translate(1126.16, 162.855)" >TIE_L1</text>
<text fill="#00ccee"  xml:space="preserve" font-size="12.5657" transform="translate(1130.64, 252.355)" >TIE_L2</text>
<text fill="#00ccee"  xml:space="preserve" font-size="12.5657" transform="translate(502.664, 288.155)" >VPWR</text>
<text fill="#00ccee"  xml:space="preserve" font-size="12.5657" transform="translate(807.962, 323.954)" >DONE</text>
<text fill="#00ccee"  xml:space="preserve" font-size="12.5657" transform="translate(1189.61, 162.855)" >uio_out[7:1]</text>
<text fill="#00ccee"  xml:space="preserve" font-size="12.5657" transform="translate(1203.56, 252.355)" >uio_oe[7:1]</text>
<text fill="#00ccee"  xml:space="preserve" font-size="12.5657" transform="translate(696.463, 323.954)" >uio_oe[0]</text>
<text fill="#00ccee"  xml:space="preserve" font-size="12.5657" transform="translate(924.161, 323.954)" >uio_out[0]</text>
<text fill="#00ccee"  xml:space="preserve" font-size="12.5657" transform="translate(806.962, 359.754)" >VGND</text>
<text fill="#00ccee"  xml:space="preserve" font-size="12.5657" transform="translate(858.387, 878.851)" >VGND</text>
<text fill="#00ccee"  xml:space="preserve" font-size="12.5657" transform="translate(222.941, 619.302)" >VGND</text>
<text fill="#00ccee"  xml:space="preserve" font-size="12.5657" transform="translate(231.891, 843.051)" >VGND</text>
<text fill="#00ccee"  xml:space="preserve" font-size="12.5657" transform="translate(231.891, 717.752)" >ui_in[0]</text>
<text fill="#cccccc"  xml:space="preserve" font-size="9.30794" transform="translate(1048.57, 502.102)" >SAR_IP</text>
<text fill="#cccccc"  xml:space="preserve" font-size="9.30794" transform="translate(1048.57, 520.002)" >SAR_IN</text>
<text fill="#cccccc"  xml:space="preserve" font-size="9.30794" transform="translate(1048.57, 537.902)" >SARN</text>
<text fill="#cccccc"  xml:space="preserve" font-size="9.30794" transform="translate(1048.57, 555.801)" >SARP</text>
<text fill="#cccccc"  xml:space="preserve" font-size="9.30794" transform="translate(1048.57, 573.701)" >DONE</text>
<text fill="#cccccc"  xml:space="preserve" font-size="9.30794" transform="translate(1048.57, 591.601)" >D&lt;7&gt;</text>
<text fill="#cccccc"  xml:space="preserve" font-size="9.30794" transform="translate(1048.57, 609.501)" >D&lt;6&gt;</text>
<text fill="#cccccc"  xml:space="preserve" font-size="9.30794" transform="translate(1048.57, 627.401)" >D&lt;5&gt;</text>
<text fill="#cccccc"  xml:space="preserve" font-size="9.30794" transform="translate(1048.57, 645.301)" >D&lt;4&gt;</text>
<text fill="#cccccc"  xml:space="preserve" font-size="9.30794" transform="translate(1048.57, 663.201)" >D&lt;3&gt;</text>
<text fill="#cccccc"  xml:space="preserve" font-size="9.30794" transform="translate(1048.57, 681.101)" >D&lt;2&gt;</text>
<text fill="#cccccc"  xml:space="preserve" font-size="9.30794" transform="translate(1048.57, 699.001)" >D&lt;1&gt;</text>
<text fill="#cccccc"  xml:space="preserve" font-size="9.30794" transform="translate(1048.57, 716.9)" >D&lt;0&gt;</text>
<text fill="#cccccc"  xml:space="preserve" font-size="9.30794" transform="translate(1048.57, 734.8)" >EN</text>
<text fill="#cccccc"  xml:space="preserve" font-size="9.30794" transform="translate(1048.57, 752.7)" >CK_SAMPLE</text>
<text fill="#cccccc"  xml:space="preserve" font-size="9.30794" transform="translate(1048.57, 770.6)" >CK_SAMPLE_BSSW</text>
<text fill="#cccccc"  xml:space="preserve" font-size="9.30794" transform="translate(1048.57, 788.5)" >VREF</text>
<text fill="#cccccc"  xml:space="preserve" font-size="9.30794" transform="translate(1048.57, 806.4)" >AVDD</text>
<text fill="#cccccc"  xml:space="preserve" font-size="9.30794" transform="translate(1048.57, 824.3)" >AVSS</text>
<text fill="#cccccc"  xml:space="preserve" font-size="11.6349" transform="translate(1088.85, 660.839)" >SUNSAR_SAR8B_CV</text>
<text fill="#cccccc"  xml:space="preserve" font-size="9.30794" transform="translate(1044.1, 484.202)" >x1</text>
<text fill="#cccccc"  xml:space="preserve" font-size="11.6349" transform="translate(1312.6, 940.237)" >Updated</text>
<text fill="#cccccc"  xml:space="preserve" font-size="11.6349" transform="translate(46.1799, 993.936)" >Library/Cell</text>
<text fill="#cccccc"  xml:space="preserve" font-size="11.6349" transform="translate(1312.6, 922.337)" >Designer</text>
<text fill="#cccccc"  xml:space="preserve" font-size="11.6349" transform="translate(1312.6, 958.137)" >Modified</text>
<text fill="#cccccc"  xml:space="preserve" font-size="11.6349" transform="translate(1317.07, 976.037)" >Copyright</text>
<text fill="#cccccc"  xml:space="preserve" font-size="11.6349" transform="translate(1384.2, 940.237)" >wulff</text>
<text fill="#cccccc"  xml:space="preserve" font-size="11.6349" transform="translate(1384.2, 958.137)" >2024-04-12  15:40:24</text>
<text fill="#cccccc"  xml:space="preserve" font-size="11.6349" transform="translate(1384.2, 976.037)" >Carsten Wulff Software</text>
<text fill="#cccccc"  xml:space="preserve" font-size="11.6349" transform="translate(149.104, 993.936)" >tt_um_TT06_SAR_wulffern</text>
<text fill="#cccccc"  xml:space="preserve" font-size="11.6349" transform="translate(1384.2, 922.337)" >Carsten Wulff</text>
<text fill="#cccccc"  xml:space="preserve" font-size="9.30794" transform="translate(610.026, 493.152)" >CKS</text>
<text fill="#cccccc"  xml:space="preserve" font-size="9.30794" transform="translate(610.026, 511.052)" >ENABLE</text>
<text fill="#cccccc"  xml:space="preserve" font-size="9.30794" transform="translate(610.026, 528.952)" >CK_SAMPLE</text>
<text fill="#cccccc"  xml:space="preserve" font-size="9.30794" transform="translate(610.026, 546.851)" >CK_SAMPLE_BSSW</text>
<text fill="#cccccc"  xml:space="preserve" font-size="9.30794" transform="translate(610.026, 564.751)" >EN</text>
<text fill="#cccccc"  xml:space="preserve" font-size="9.30794" transform="translate(610.026, 582.651)" >D&lt;7&gt;</text>
<text fill="#cccccc"  xml:space="preserve" font-size="9.30794" transform="translate(610.026, 600.551)" >D&lt;6&gt;</text>
<text fill="#cccccc"  xml:space="preserve" font-size="9.30794" transform="translate(610.026, 618.451)" >D&lt;5&gt;</text>
<text fill="#cccccc"  xml:space="preserve" font-size="9.30794" transform="translate(610.026, 636.351)" >D&lt;4&gt;</text>
<text fill="#cccccc"  xml:space="preserve" font-size="9.30794" transform="translate(610.026, 654.251)" >D&lt;3&gt;</text>
<text fill="#cccccc"  xml:space="preserve" font-size="9.30794" transform="translate(610.026, 672.151)" >D&lt;2&gt;</text>
<text fill="#cccccc"  xml:space="preserve" font-size="9.30794" transform="translate(610.026, 690.051)" >D&lt;1&gt;</text>
<text fill="#cccccc"  xml:space="preserve" font-size="9.30794" transform="translate(610.026, 707.95)" >D&lt;0&gt;</text>
<text fill="#cccccc"  xml:space="preserve" font-size="9.30794" transform="translate(610.026, 725.85)" >DO&lt;7&gt;</text>
<text fill="#cccccc"  xml:space="preserve" font-size="9.30794" transform="translate(610.026, 743.75)" >DO&lt;6&gt;</text>
<text fill="#cccccc"  xml:space="preserve" font-size="9.30794" transform="translate(610.026, 761.65)" >DO&lt;5&gt;</text>
<text fill="#cccccc"  xml:space="preserve" font-size="9.30794" transform="translate(610.026, 779.55)" >DO&lt;4&gt;</text>
<text fill="#cccccc"  xml:space="preserve" font-size="9.30794" transform="translate(610.026, 797.45)" >DO&lt;3&gt;</text>
<text fill="#cccccc"  xml:space="preserve" font-size="9.30794" transform="translate(610.026, 815.35)" >DO&lt;2&gt;</text>
<text fill="#cccccc"  xml:space="preserve" font-size="9.30794" transform="translate(610.026, 833.25)" >DO&lt;1&gt;</text>
<text fill="#cccccc"  xml:space="preserve" font-size="9.30794" transform="translate(610.026, 851.15)" >DO&lt;0&gt;</text>
<text fill="#cccccc"  xml:space="preserve" font-size="9.30794" transform="translate(610.026, 869.049)" >DONE</text>
<text fill="#cccccc"  xml:space="preserve" font-size="9.30794" transform="translate(610.026, 886.949)" >AVDD</text>
<text fill="#cccccc"  xml:space="preserve" font-size="9.30794" transform="translate(610.026, 904.849)" >AVSS</text>
<text fill="#cccccc"  xml:space="preserve" font-size="9.30794" transform="translate(610.026, 922.749)" >TIE_L</text>
<text fill="#cccccc"  xml:space="preserve" font-size="11.6349" transform="translate(650.301, 705.588)" >SUNSAR_CAPT8B_CV</text>
<text fill="#cccccc"  xml:space="preserve" font-size="9.30794" transform="translate(605.551, 475.252)" >x2</text>
<text fill="#cccccc"  xml:space="preserve" font-size="9.30794" transform="translate(1227.59, 304.902) rotate(270)" >R1[7:1]</text>
<text fill="#aaaa00"  xml:space="preserve" font-size="9.30794" transform="translate(1190.67, 325.902) rotate(270)" >1 * 0.3 / 0.3</text>
<text fill="#cccccc"  xml:space="preserve" font-size="9.30794" transform="translate(1215.28, 345.902) rotate(270)" >res_generic_m4</text>
<text fill="#aaaa00"  xml:space="preserve" font-size="9.30794" transform="translate(1202.97, 310.902) rotate(270)" >R=0.047</text>
<text fill="#cccccc"  xml:space="preserve" font-size="9.30794" transform="translate(1227.59, 215.402) rotate(270)" >R2[7:1]</text>
<text fill="#aaaa00"  xml:space="preserve" font-size="9.30794" transform="translate(1190.67, 236.402) rotate(270)" >1 * 0.3 / 0.3</text>
<text fill="#cccccc"  xml:space="preserve" font-size="9.30794" transform="translate(1215.28, 256.402) rotate(270)" >res_generic_m4</text>
<text fill="#aaaa00"  xml:space="preserve" font-size="9.30794" transform="translate(1202.97, 221.402) rotate(270)" >R=0.047</text>
<text fill="#cccccc"  xml:space="preserve" font-size="9.30794" transform="translate(1147.04, 192.402) rotate(270)" >R3</text>
<text fill="#aaaa00"  xml:space="preserve" font-size="9.30794" transform="translate(1110.12, 236.402) rotate(270)" >1 * 0.3 / 0.3</text>
<text fill="#cccccc"  xml:space="preserve" font-size="9.30794" transform="translate(1134.73, 256.402) rotate(270)" >res_generic_m4</text>
<text fill="#aaaa00"  xml:space="preserve" font-size="9.30794" transform="translate(1122.42, 221.402) rotate(270)" >R=0.047</text>
<text fill="#cccccc"  xml:space="preserve" font-size="9.30794" transform="translate(1147.04, 281.902) rotate(270)" >R4</text>
<text fill="#aaaa00"  xml:space="preserve" font-size="9.30794" transform="translate(1110.12, 325.902) rotate(270)" >1 * 0.3 / 0.3</text>
<text fill="#cccccc"  xml:space="preserve" font-size="9.30794" transform="translate(1134.73, 345.902) rotate(270)" >res_generic_m4</text>
<text fill="#aaaa00"  xml:space="preserve" font-size="9.30794" transform="translate(1122.42, 310.902) rotate(270)" >R=0.047</text>
<text fill="#ff0000"  xml:space="preserve" font-size="6.98095" transform="translate(323.628, 399.302)" >c0</text>
<text fill="#ff0000"  xml:space="preserve" font-size="6.98095" transform="translate(323.628, 440.696)" >c1</text>
<text fill="#aaaa00"  xml:space="preserve" font-size="9.30794" transform="translate(334.815, 442.808)" >MF=1</text>
<text fill="#cccccc"  xml:space="preserve" font-size="9.30794" transform="translate(332.578, 400.296)" >C2[8:0]</text>
<text fill="#aaaa00"  xml:space="preserve" font-size="9.30794" transform="translate(332.578, 431.621)" >18 / 18</text>
<text fill="#cccccc"  xml:space="preserve" font-size="9.30794" transform="translate(332.578, 415.959)" >cap_mim_m3_1</text>
<text fill="#aaaa00"  xml:space="preserve" font-size="9.30794" transform="translate(249.441, 433.858)" >C=6.617e-13</text>
<text fill="#cccccc"  xml:space="preserve" font-size="6.98095" transform="translate(926.854, 330.415)" >Y</text>
<text fill="#cccccc"  xml:space="preserve" font-size="6.98095" transform="translate(901.794, 330.415)" >A</text>
<text fill="#cccccc"  xml:space="preserve" font-size="4.65397" transform="translate(911.575, 297.646) rotate(270)" >AVDD</text>
<text fill="#cccccc"  xml:space="preserve" font-size="4.65397" transform="translate(911.237, 370.506) rotate(270)" >AVSS</text>
<text fill="#cccccc"  xml:space="preserve" font-size="6.98095" transform="translate(927.749, 348.315)" >SUNTR_BFX1_CV</text>
<text fill="#cccccc"  xml:space="preserve" font-size="6.98095" transform="translate(927.749, 339.365)" >x3</text>
<text fill="#cccccc"  xml:space="preserve" font-size="6.98095" transform="translate(695.051, 339.365)" >x4</text>
<text fill="#cccccc"  xml:space="preserve" font-size="6.98095" transform="translate(695.051, 348.315)" >SUNTR_TIEH_CV</text>
<text fill="#cccccc"  xml:space="preserve" font-size="6.98095" transform="translate(712.056, 330.415)" >Y</text>
<text fill="#cccccc"  xml:space="preserve" font-size="4.65397" transform="translate(678.877, 297.646) rotate(270)" >AVDD</text>
<text fill="#cccccc"  xml:space="preserve" font-size="4.65397" transform="translate(678.538, 370.506) rotate(270)" >AVSS</text>
<text fill="#cccccc"  xml:space="preserve" font-size="6.98095" transform="translate(605.551, 339.365)" >x5</text>
<text fill="#cccccc"  xml:space="preserve" font-size="6.98095" transform="translate(605.551, 348.315)" >SUNTR_TAPCELLB_CV</text>
<text fill="#cccccc"  xml:space="preserve" font-size="4.65397" transform="translate(580.427, 324.496) rotate(270)" >AVDD</text>
<text fill="#cccccc"  xml:space="preserve" font-size="4.65397" transform="translate(580.089, 343.656) rotate(270)" >AVSS</text>
<text fill="#cccccc"  xml:space="preserve" font-size="9.30794" transform="translate(869.575, 838.236)" >D1</text>
<text fill="#cccccc"  xml:space="preserve" font-size="9.30794" transform="translate(869.575, 806.911)" >diode_pw2nd_05v5</text>
<text fill="#cccccc"  xml:space="preserve" font-size="9.30794" transform="translate(869.575, 822.573)" >diode</text>
<text fill="#ff0000"  xml:space="preserve" font-size="6.98095" transform="translate(843.675, 842.148)" >d0</text>
<text fill="#ff0000"  xml:space="preserve" font-size="6.98095" transform="translate(843.675, 802.992)" >d1</text>
<text fill="#cccccc"  xml:space="preserve" font-size="9.30794" transform="translate(767.725, 818.098)" >area=2.025e11</text>
<text fill="#cccccc"  xml:space="preserve" font-size="9.30794" transform="translate(798.725, 829.286)" >pj=1.8e6</text>
<text fill="#cccccc"  xml:space="preserve" font-size="9.30794" transform="translate(234.129, 578.688)" >D2</text>
<text fill="#cccccc"  xml:space="preserve" font-size="9.30794" transform="translate(234.129, 547.363)" >diode_pw2nd_05v5</text>
<text fill="#cccccc"  xml:space="preserve" font-size="9.30794" transform="translate(234.129, 563.025)" >diode</text>
<text fill="#ff0000"  xml:space="preserve" font-size="6.98095" transform="translate(208.229, 582.6)" >d0</text>
<text fill="#ff0000"  xml:space="preserve" font-size="6.98095" transform="translate(208.229, 543.444)" >d1</text>
<text fill="#cccccc"  xml:space="preserve" font-size="9.30794" transform="translate(132.279, 558.55)" >area=2.025e11</text>
<text fill="#cccccc"  xml:space="preserve" font-size="9.30794" transform="translate(163.279, 569.738)" >pj=1.8e6</text>
<text fill="#cccccc"  xml:space="preserve" font-size="9.30794" transform="translate(243.079, 802.436)" >D3</text>
<text fill="#cccccc"  xml:space="preserve" font-size="9.30794" transform="translate(243.079, 771.111)" >diode_pw2nd_05v5</text>
<text fill="#cccccc"  xml:space="preserve" font-size="9.30794" transform="translate(243.079, 786.774)" >diode</text>
<text fill="#ff0000"  xml:space="preserve" font-size="6.98095" transform="translate(217.179, 806.348)" >d0</text>
<text fill="#ff0000"  xml:space="preserve" font-size="6.98095" transform="translate(217.179, 767.192)" >d1</text>
<text fill="#cccccc"  xml:space="preserve" font-size="9.30794" transform="translate(141.229, 782.299)" >area=2.025e11</text>
<text fill="#cccccc"  xml:space="preserve" font-size="9.30794" transform="translate(172.229, 793.486)" >pj=1.8e6</text>
<path class="l4" d="M1026.2 498.125L1044.1 498.125"/>
<path class="l4" d="M1026.2 516.025L1044.1 516.025"/>
<path class="l4" d="M1026.2 533.925L1044.1 533.925"/>
<path class="l4" d="M1026.2 551.825L1044.1 551.825"/>
<path class="l4" d="M1026.2 569.725L1044.1 569.725"/>
<path class="l4" d="M1026.2 587.625L1044.1 587.625"/>
<path class="l4" d="M1026.2 605.524L1044.1 605.524"/>
<path class="l4" d="M1026.2 623.424L1044.1 623.424"/>
<path class="l4" d="M1026.2 641.324L1044.1 641.324"/>
<path class="l4" d="M1026.2 659.224L1044.1 659.224"/>
<path class="l4" d="M1026.2 677.124L1044.1 677.124"/>
<path class="l4" d="M1026.2 695.024L1044.1 695.024"/>
<path class="l4" d="M1026.2 712.924L1044.1 712.924"/>
<path class="l4" d="M1026.2 730.824L1044.1 730.824"/>
<path class="l4" d="M1026.2 748.724L1044.1 748.724"/>
<path class="l4" d="M1026.2 766.623L1044.1 766.623"/>
<path class="l4" d="M1026.2 784.523L1044.1 784.523"/>
<path class="l4" d="M1026.2 802.423L1044.1 802.423"/>
<path class="l4" d="M1026.2 820.323L1044.1 820.323"/>
<path class="l4" style="fill:none;" d="M1044.1 489.175L1205.2 489.175L1205.2 829.273L1044.1 829.273L1044.1 489.175"/>
<path class="l4" d="M1375.25 927.722L1375.25 945.622"/>
<path class="l4" d="M1258.9 981.422L1258.9 999.322"/>
<path class="l4" d="M1437.9 981.422L1437.9 999.322"/>
<path class="l4" d="M1079.9 981.422L1079.9 999.322"/>
<path class="l4" d="M144.629 981.422L144.629 999.322"/>
<path class="l4" d="M23.805 981.422L41.7049 981.422"/>
<path class="l4" d="M41.7049 981.422L41.7049 999.322"/>
<path class="l4" d="M1545.3 981.422L1563.19 981.422"/>
<path class="l4" d="M1545.3 981.422L1545.3 999.322"/>
<path class="l4" d="M1375.25 909.822L1375.25 927.722"/>
<path class="l4" d="M1375.25 945.622L1375.25 963.522"/>
<path class="l4" style="fill:none;" d="M1308.12 981.422L1563.19 981.422L1563.19 909.822L1308.12 909.822L1308.12 981.422"/>
<path class="l4" style="fill:none;" d="M23.805 999.322L1563.19 999.322L1563.19 41.6781L23.805 41.6781L23.805 999.322"/>
<path class="l4" style="fill:none;" d="M1308.12 927.722L1545.3 927.722L1545.3 909.822L1308.12 909.822L1308.12 927.722"/>
<path class="l4" style="fill:none;" d="M23.805 999.322L1563.19 999.322L1563.19 981.422L23.805 981.422L23.805 999.322"/>
<path class="l4" style="fill:none;" d="M1308.12 981.422L1545.3 981.422L1545.3 963.522L1308.12 963.522L1308.12 981.422"/>
<path class="l4" style="fill:none;" d="M1308.12 963.522L1545.3 963.522L1545.3 945.622L1308.12 945.622L1308.12 963.522"/>
<path class="l4" style="fill:none;" d="M1308.12 945.622L1545.3 945.622L1545.3 927.722L1308.12 927.722L1308.12 945.622"/>
<path class="l4" d="M587.651 489.175L605.551 489.175"/>
<path class="l4" d="M587.651 507.075L605.551 507.075"/>
<path class="l4" d="M587.651 524.975L605.551 524.975"/>
<path class="l4" d="M587.651 542.875L605.551 542.875"/>
<path class="l4" d="M587.651 560.775L605.551 560.775"/>
<path class="l4" d="M587.651 578.675L605.551 578.675"/>
<path class="l4" d="M587.651 596.575L605.551 596.575"/>
<path class="l4" d="M587.651 614.474L605.551 614.474"/>
<path class="l4" d="M587.651 632.374L605.551 632.374"/>
<path class="l4" d="M587.651 650.274L605.551 650.274"/>
<path class="l4" d="M587.651 668.174L605.551 668.174"/>
<path class="l4" d="M587.651 686.074L605.551 686.074"/>
<path class="l4" d="M587.651 703.974L605.551 703.974"/>
<path class="l4" d="M587.651 721.874L605.551 721.874"/>
<path class="l4" d="M587.651 739.774L605.551 739.774"/>
<path class="l4" d="M587.651 757.673L605.551 757.673"/>
<path class="l4" d="M587.651 775.573L605.551 775.573"/>
<path class="l4" d="M587.651 793.473L605.551 793.473"/>
<path class="l4" d="M587.651 811.373L605.551 811.373"/>
<path class="l4" d="M587.651 829.273L605.551 829.273"/>
<path class="l4" d="M587.651 847.173L605.551 847.173"/>
<path class="l4" d="M587.651 865.073L605.551 865.073"/>
<path class="l4" d="M587.651 882.973L605.551 882.973"/>
<path class="l4" d="M587.651 900.873L605.551 900.873"/>
<path class="l4" d="M587.651 918.772L605.551 918.772"/>
<path class="l4" style="fill:none;" d="M605.551 480.225L766.65 480.225L766.65 927.722L605.551 927.722L605.551 480.225"/>
<path class="l4" d="M1178.35 256.477L1187.3 256.477"/>
<path class="l4" d="M1187.3 256.477L1189.53 263.189"/>
<path class="l4" d="M1189.53 263.189L1194.01 249.764"/>
<path class="l4" d="M1194.01 249.764L1198.48 263.189"/>
<path class="l4" d="M1198.48 263.189L1202.96 249.764"/>
<path class="l4" d="M1202.96 249.764L1207.43 263.189"/>
<path class="l4" d="M1207.43 263.189L1211.91 249.764"/>
<path class="l4" d="M1211.91 249.764L1216.38 263.189"/>
<path class="l4" d="M1216.38 263.189L1220.86 249.764"/>
<path class="l4" d="M1220.86 249.764L1223.1 256.477"/>
<path class="l4" d="M1223.1 256.477L1232.05 256.477"/>
<path class="l4" d="M1178.35 166.977L1187.3 166.977"/>
<path class="l4" d="M1187.3 166.977L1189.53 173.69"/>
<path class="l4" d="M1189.53 173.69L1194.01 160.265"/>
<path class="l4" d="M1194.01 160.265L1198.48 173.69"/>
<path class="l4" d="M1198.48 173.69L1202.96 160.265"/>
<path class="l4" d="M1202.96 160.265L1207.43 173.69"/>
<path class="l4" d="M1207.43 173.69L1211.91 160.265"/>
<path class="l4" d="M1211.91 160.265L1216.38 173.69"/>
<path class="l4" d="M1216.38 173.69L1220.86 160.265"/>
<path class="l4" d="M1220.86 160.265L1223.1 166.977"/>
<path class="l4" d="M1223.1 166.977L1232.05 166.977"/>
<path class="l4" d="M1097.8 166.977L1106.75 166.977"/>
<path class="l4" d="M1106.75 166.977L1108.99 173.69"/>
<path class="l4" d="M1108.99 173.69L1113.46 160.265"/>
<path class="l4" d="M1113.46 160.265L1117.94 173.69"/>
<path class="l4" d="M1117.94 173.69L1122.41 160.265"/>
<path class="l4" d="M1122.41 160.265L1126.89 173.69"/>
<path class="l4" d="M1126.89 173.69L1131.36 160.265"/>
<path class="l4" d="M1131.36 160.265L1135.84 173.69"/>
<path class="l4" d="M1135.84 173.69L1140.31 160.265"/>
<path class="l4" d="M1140.31 160.265L1142.55 166.977"/>
<path class="l4" d="M1142.55 166.977L1151.5 166.977"/>
<path class="l4" d="M1097.8 256.477L1106.75 256.477"/>
<path class="l4" d="M1106.75 256.477L1108.99 263.189"/>
<path class="l4" d="M1108.99 263.189L1113.46 249.764"/>
<path class="l4" d="M1113.46 249.764L1117.94 263.189"/>
<path class="l4" d="M1117.94 263.189L1122.41 249.764"/>
<path class="l4" d="M1122.41 249.764L1126.89 263.189"/>
<path class="l4" d="M1126.89 263.189L1131.36 249.764"/>
<path class="l4" d="M1131.36 249.764L1135.84 263.189"/>
<path class="l4" d="M1135.84 263.189L1140.31 249.764"/>
<path class="l4" d="M1140.31 249.764L1142.55 256.477"/>
<path class="l4" d="M1142.55 256.477L1151.5 256.477"/>
<path class="l4" d="M319.153 419.813L319.153 444.425"/>
<path class="l4" d="M319.153 390.726L319.153 413.101"/>
<path class="l4" d="M310.203 413.101L328.103 413.101"/>
<path class="l4" style="fill:none;" d="M328.103 422.051 A19.0186 19.0186 0 0 0 310.203 422.051"/>
<path class="l4" d="M918.799 337.026L918.799 354.926"/>
<path class="l4" d="M918.799 292.276L918.799 301.226"/>
<path class="l4" d="M900.899 310.176L900.899 345.976"/>
<path class="l4" d="M900.899 345.976L936.699 328.076"/>
<path class="l4" d="M900.899 310.176L936.699 328.076"/>
<path class="l4" d="M945.649 328.076L954.599 328.076"/>
<path class="l4" d="M882.999 328.076L900.899 328.076"/>
<path class="l4" d="M918.799 301.226L918.799 319.126"/>
<path class="l4" d="M918.799 354.926L918.799 363.876"/>
<path class="l4" d="M936.699 328.076L945.649 328.076"/>
<path class="l4" d="M712.951 328.076L721.9 328.076"/>
<path class="l4" d="M686.101 292.276L686.101 301.226"/>
<path class="l4" d="M686.101 354.926L686.101 363.876"/>
<path class="l4" d="M686.101 337.026L686.101 354.926"/>
<path class="l4" d="M686.101 301.226L686.101 319.126"/>
<path class="l4" d="M686.101 319.126L695.051 319.126"/>
<path class="l4" d="M695.051 319.126L695.051 328.076"/>
<path class="l4" d="M695.051 328.076L704.001 319.126"/>
<path class="l4" d="M704.001 319.126L704.001 328.076"/>
<path class="l4" d="M704.001 328.076L712.951 328.076"/>
<path class="l4" d="M596.601 337.026L596.601 345.976"/>
<path class="l4" d="M596.601 310.176L596.601 319.126"/>
<path class="l4" d="M587.651 319.126L605.551 319.126"/>
<path class="l4" d="M605.551 319.126L605.551 337.026"/>
<path class="l4" d="M587.651 337.026L605.551 337.026"/>
<path class="l4" d="M587.651 319.126L587.651 337.026"/>
<path class="l4" d="M587.651 319.126L605.551 337.026"/>
<path class="l4" d="M587.651 337.026L605.551 319.126"/>
<path class="l4" d="M856.15 793.473L856.15 815.848"/>
<path class="l4" d="M856.15 824.798L856.15 847.173"/>
<path class="l4" d="M847.2 815.848L865.1 815.848"/>
<path class="l4" d="M856.15 815.848L847.2 824.798L865.1 824.798L856.15 815.848"/>
<path class="l4" d="M220.704 533.925L220.704 556.3"/>
<path class="l4" d="M220.704 565.25L220.704 587.625"/>
<path class="l4" d="M211.754 556.3L229.654 556.3"/>
<path class="l4" d="M220.704 556.3L211.754 565.25L229.654 565.25L220.704 556.3"/>
<path class="l4" d="M229.654 757.673L229.654 780.048"/>
<path class="l4" d="M229.654 788.998L229.654 811.373"/>
<path class="l4" d="M220.704 780.048L238.604 780.048"/>
<path class="l4" d="M229.654 780.048L220.704 788.998L238.604 788.998L229.654 780.048"/>
<path class="l5" d="M126.729 372.826L131.204 372.826"/>
<path class="l5" d="M126.729 372.826L123.373 368.351L115.542 368.351L118.898 372.826L115.542 377.301L123.373 377.301L126.729 372.826"/>
<path class="l5" d="M130.086 371.707L132.323 371.707L132.323 373.945L130.086 373.945L130.086 371.707z"/>
<path class="l5" d="M117.779 909.822L122.254 909.822"/>
<path class="l5" d="M117.779 909.822L114.423 905.347L106.592 905.347L109.948 909.822L106.592 914.297L114.423 914.297L117.779 909.822"/>
<path class="l5" d="M121.136 908.704L123.373 908.704L123.373 910.941L121.136 910.941L121.136 908.704z"/>
<path class="l5" d="M126.729 775.573L131.204 775.573"/>
<path class="l5" d="M126.729 775.573L123.373 771.098L115.542 771.098L118.898 775.573L115.542 780.048L123.373 780.048L126.729 775.573"/>
<path class="l5" d="M130.086 774.455L132.323 774.455L132.323 776.692L130.086 776.692L130.086 774.455z"/>
<path class="l5" d="M1366.3 399.676L1374.13 399.676"/>
<path class="l5" d="M1381.96 399.676L1378.6 395.201L1370.77 395.201L1374.13 399.676L1370.77 404.151L1378.6 404.151L1381.96 399.676"/>
<path class="l5" d="M1365.18 398.557L1367.42 398.557L1367.42 400.795L1365.18 400.795L1365.18 398.557z"/>
<path class="l5" d="M1531.87 202.777L1536.35 202.777"/>
<path class="l5" d="M1531.87 202.777L1528.51 198.302L1520.68 198.302L1524.04 202.777L1520.68 207.252L1528.51 207.252L1531.87 202.777"/>
<path class="l5" d="M1535.23 201.658L1537.46 201.658L1537.46 203.896L1535.23 203.896L1535.23 201.658z"/>
<path class="l5" d="M1357.35 166.977L1365.18 166.977"/>
<path class="l5" d="M1373.01 166.977L1369.65 162.502L1361.82 162.502L1365.18 166.977L1361.82 171.452L1369.65 171.452L1373.01 166.977"/>
<path class="l5" d="M1356.23 165.859L1358.47 165.859L1358.47 168.096L1356.23 168.096L1356.23 165.859z"/>
<path class="l5" d="M1357.35 256.477L1365.18 256.477"/>
<path class="l5" d="M1373.01 256.477L1369.65 252.002L1361.82 252.002L1365.18 256.477L1361.82 260.952L1369.65 260.952L1373.01 256.477"/>
<path class="l5" d="M1356.23 255.358L1358.47 255.358L1358.47 257.595L1356.23 257.595L1356.23 255.358z"/>
<path class="l5" d="M128.407 453.375L131.204 453.375"/>
<path class="l5" d="M118.898 448.9L115.542 453.375L118.898 457.85L125.051 457.85L128.407 453.375L125.051 448.9L118.898 448.9"/>
<path class="l5" d="M130.086 452.257L132.323 452.257L132.323 454.494L130.086 454.494L130.086 452.257z"/>
<path class="l5" d="M126.729 489.175L131.204 489.175"/>
<path class="l5" d="M126.729 489.175L123.373 484.7L115.542 484.7L118.898 489.175L115.542 493.65L123.373 493.65L126.729 489.175"/>
<path class="l5" d="M130.086 488.056L132.323 488.056L132.323 490.294L130.086 490.294L130.086 488.056z"/>
<path class="l5" d="M126.729 524.975L131.204 524.975"/>
<path class="l5" d="M126.729 524.975L123.373 520.5L115.542 520.5L118.898 524.975L115.542 529.45L123.373 529.45L126.729 524.975"/>
<path class="l5" d="M130.086 523.856L132.323 523.856L132.323 526.094L130.086 526.094L130.086 523.856z"/>
<path class="l5" d="M126.729 560.775L131.204 560.775"/>
<path class="l5" d="M126.729 560.775L123.373 556.3L115.542 556.3L118.898 560.775L115.542 565.25L123.373 565.25L126.729 560.775"/>
<path class="l5" d="M130.086 559.656L132.323 559.656L132.323 561.893L130.086 561.893L130.086 559.656z"/>
<path class="l5" d="M1023.96 495.888L1028.44 495.888L1028.44 500.363L1023.96 500.363L1023.96 495.888z"/>
<path class="l5" d="M1023.96 513.788L1028.44 513.788L1028.44 518.263L1023.96 518.263L1023.96 513.788z"/>
<path class="l5" d="M1023.96 531.687L1028.44 531.687L1028.44 536.162L1023.96 536.162L1023.96 531.687z"/>
<path class="l5" d="M1023.96 549.587L1028.44 549.587L1028.44 554.062L1023.96 554.062L1023.96 549.587z"/>
<path class="l5" d="M1023.96 567.487L1028.44 567.487L1028.44 571.962L1023.96 571.962L1023.96 567.487z"/>
<path class="l5" d="M1023.96 585.387L1028.44 585.387L1028.44 589.862L1023.96 589.862L1023.96 585.387z"/>
<path class="l5" d="M1023.96 603.287L1028.44 603.287L1028.44 607.762L1023.96 607.762L1023.96 603.287z"/>
<path class="l5" d="M1023.96 621.187L1028.44 621.187L1028.44 625.662L1023.96 625.662L1023.96 621.187z"/>
<path class="l5" d="M1023.96 639.087L1028.44 639.087L1028.44 643.562L1023.96 643.562L1023.96 639.087z"/>
<path class="l5" d="M1023.96 656.987L1028.44 656.987L1028.44 661.462L1023.96 661.462L1023.96 656.987z"/>
<path class="l5" d="M1023.96 674.886L1028.44 674.886L1028.44 679.361L1023.96 679.361L1023.96 674.886z"/>
<path class="l5" d="M1023.96 692.786L1028.44 692.786L1028.44 697.261L1023.96 697.261L1023.96 692.786z"/>
<path class="l5" d="M1023.96 710.686L1028.44 710.686L1028.44 715.161L1023.96 715.161L1023.96 710.686z"/>
<path class="l5" d="M1023.96 728.586L1028.44 728.586L1028.44 733.061L1023.96 733.061L1023.96 728.586z"/>
<path class="l5" d="M1023.96 746.486L1028.44 746.486L1028.44 750.961L1023.96 750.961L1023.96 746.486z"/>
<path class="l5" d="M1023.96 764.386L1028.44 764.386L1028.44 768.861L1023.96 768.861L1023.96 764.386z"/>
<path class="l5" d="M1023.96 782.286L1028.44 782.286L1028.44 786.761L1023.96 786.761L1023.96 782.286z"/>
<path class="l5" d="M1023.96 800.186L1028.44 800.186L1028.44 804.661L1023.96 804.661L1023.96 800.186z"/>
<path class="l5" d="M1023.96 818.086L1028.44 818.086L1028.44 822.561L1023.96 822.561L1023.96 818.086z"/>
<path class="l5" d="M550.733 577.556L552.97 577.556L552.97 579.793L550.733 579.793L550.733 577.556z"/>
<path class="l5" d="M550.733 595.456L552.97 595.456L552.97 597.693L550.733 597.693L550.733 595.456z"/>
<path class="l5" d="M550.733 613.356L552.97 613.356L552.97 615.593L550.733 615.593L550.733 613.356z"/>
<path class="l5" d="M550.733 631.256L552.97 631.256L552.97 633.493L550.733 633.493L550.733 631.256z"/>
<path class="l5" d="M550.733 649.155L552.97 649.155L552.97 651.393L550.733 651.393L550.733 649.155z"/>
<path class="l5" d="M550.733 667.055L552.97 667.055L552.97 669.293L550.733 669.293L550.733 667.055z"/>
<path class="l5" d="M550.733 684.955L552.97 684.955L552.97 687.193L550.733 687.193L550.733 684.955z"/>
<path class="l5" d="M550.733 702.855L552.97 702.855L552.97 705.093L550.733 705.093L550.733 702.855z"/>
<path class="l5" d="M550.733 559.656L552.97 559.656L552.97 561.893L550.733 561.893L550.733 559.656z"/>
<path class="l5" d="M550.733 541.756L552.97 541.756L552.97 543.994L550.733 543.994L550.733 541.756z"/>
<path class="l5" d="M550.733 523.856L552.97 523.856L552.97 526.094L550.733 526.094L550.733 523.856z"/>
<path class="l5" d="M550.733 505.956L552.97 505.956L552.97 508.194L550.733 508.194L550.733 505.956z"/>
<path class="l5" d="M550.733 488.056L552.97 488.056L552.97 490.294L550.733 490.294L550.733 488.056z"/>
<path class="l5" d="M550.733 720.755L552.97 720.755L552.97 722.992L550.733 722.992L550.733 720.755z"/>
<path class="l5" d="M550.733 738.655L552.97 738.655L552.97 740.892L550.733 740.892L550.733 738.655z"/>
<path class="l5" d="M550.733 756.555L552.97 756.555L552.97 758.792L550.733 758.792L550.733 756.555z"/>
<path class="l5" d="M550.733 774.455L552.97 774.455L552.97 776.692L550.733 776.692L550.733 774.455z"/>
<path class="l5" d="M550.733 792.354L552.97 792.354L552.97 794.592L550.733 794.592L550.733 792.354z"/>
<path class="l5" d="M550.733 810.254L552.97 810.254L552.97 812.492L550.733 812.492L550.733 810.254z"/>
<path class="l5" d="M550.733 828.154L552.97 828.154L552.97 830.392L550.733 830.392L550.733 828.154z"/>
<path class="l5" d="M550.733 846.054L552.97 846.054L552.97 848.292L550.733 848.292L550.733 846.054z"/>
<path class="l5" d="M550.733 863.954L552.97 863.954L552.97 866.192L550.733 866.192L550.733 863.954z"/>
<path class="l5" d="M550.733 881.854L552.97 881.854L552.97 884.091L550.733 884.091L550.733 881.854z"/>
<path class="l5" d="M550.733 899.754L552.97 899.754L552.97 901.991L550.733 901.991L550.733 899.754z"/>
<path class="l5" d="M989.28 586.506L991.517 586.506L991.517 588.743L989.28 588.743L989.28 586.506z"/>
<path class="l5" d="M989.28 604.406L991.517 604.406L991.517 606.643L989.28 606.643L989.28 604.406z"/>
<path class="l5" d="M989.28 622.306L991.517 622.306L991.517 624.543L989.28 624.543L989.28 622.306z"/>
<path class="l5" d="M989.28 640.205L991.517 640.205L991.517 642.443L989.28 642.443L989.28 640.205z"/>
<path class="l5" d="M989.28 658.105L991.517 658.105L991.517 660.343L989.28 660.343L989.28 658.105z"/>
<path class="l5" d="M989.28 676.005L991.517 676.005L991.517 678.243L989.28 678.243L989.28 676.005z"/>
<path class="l5" d="M989.28 693.905L991.517 693.905L991.517 696.143L989.28 696.143L989.28 693.905z"/>
<path class="l5" d="M989.28 711.805L991.517 711.805L991.517 714.042L989.28 714.042L989.28 711.805z"/>
<path class="l5" d="M989.28 568.606L991.517 568.606L991.517 570.843L989.28 570.843L989.28 568.606z"/>
<path class="l5" d="M989.28 729.705L991.517 729.705L991.517 731.942L989.28 731.942L989.28 729.705z"/>
<path class="l5" d="M989.28 765.505L991.517 765.505L991.517 767.742L989.28 767.742L989.28 765.505z"/>
<path class="l5" d="M989.28 747.605L991.517 747.605L991.517 749.842L989.28 749.842L989.28 747.605z"/>
<path class="l5" d="M989.28 783.405L991.517 783.405L991.517 785.642L989.28 785.642L989.28 783.405z"/>
<path class="l5" d="M989.28 801.304L991.517 801.304L991.517 803.542L989.28 803.542L989.28 801.304z"/>
<path class="l5" d="M989.28 819.204L991.517 819.204L991.517 821.442L989.28 821.442L989.28 819.204z"/>
<path class="l5" d="M989.28 497.006L991.517 497.006L991.517 499.244L989.28 499.244L989.28 497.006z"/>
<path class="l5" d="M989.28 514.906L991.517 514.906L991.517 517.144L989.28 517.144L989.28 514.906z"/>
<path class="l5" d="M989.28 532.806L991.517 532.806L991.517 535.044L989.28 535.044L989.28 532.806z"/>
<path class="l5" d="M989.28 550.706L991.517 550.706L991.517 552.944L989.28 552.944L989.28 550.706z"/>
<path class="l5" d="M585.414 486.938L589.889 486.938L589.889 491.413L585.414 491.413L585.414 486.938z"/>
<path class="l5" d="M585.414 504.838L589.889 504.838L589.889 509.313L585.414 509.313L585.414 504.838z"/>
<path class="l5" d="M585.414 522.737L589.889 522.737L589.889 527.212L585.414 527.212L585.414 522.737z"/>
<path class="l5" d="M585.414 540.637L589.889 540.637L589.889 545.112L585.414 545.112L585.414 540.637z"/>
<path class="l5" d="M585.414 558.537L589.889 558.537L589.889 563.012L585.414 563.012L585.414 558.537z"/>
<path class="l5" d="M585.414 576.437L589.889 576.437L589.889 580.912L585.414 580.912L585.414 576.437z"/>
<path class="l5" d="M585.414 594.337L589.889 594.337L589.889 598.812L585.414 598.812L585.414 594.337z"/>
<path class="l5" d="M585.414 612.237L589.889 612.237L589.889 616.712L585.414 616.712L585.414 612.237z"/>
<path class="l5" d="M585.414 630.137L589.889 630.137L589.889 634.612L585.414 634.612L585.414 630.137z"/>
<path class="l5" d="M585.414 648.037L589.889 648.037L589.889 652.512L585.414 652.512L585.414 648.037z"/>
<path class="l5" d="M585.414 665.937L589.889 665.937L589.889 670.412L585.414 670.412L585.414 665.937z"/>
<path class="l5" d="M585.414 683.836L589.889 683.836L589.889 688.311L585.414 688.311L585.414 683.836z"/>
<path class="l5" d="M585.414 701.736L589.889 701.736L589.889 706.211L585.414 706.211L585.414 701.736z"/>
<path class="l5" d="M585.414 719.636L589.889 719.636L589.889 724.111L585.414 724.111L585.414 719.636z"/>
<path class="l5" d="M585.414 737.536L589.889 737.536L589.889 742.011L585.414 742.011L585.414 737.536z"/>
<path class="l5" d="M585.414 755.436L589.889 755.436L589.889 759.911L585.414 759.911L585.414 755.436z"/>
<path class="l5" d="M585.414 773.336L589.889 773.336L589.889 777.811L585.414 777.811L585.414 773.336z"/>
<path class="l5" d="M585.414 791.236L589.889 791.236L589.889 795.711L585.414 795.711L585.414 791.236z"/>
<path class="l5" d="M585.414 809.136L589.889 809.136L589.889 813.611L585.414 813.611L585.414 809.136z"/>
<path class="l5" d="M585.414 827.036L589.889 827.036L589.889 831.51L585.414 831.51L585.414 827.036z"/>
<path class="l5" d="M585.414 844.935L589.889 844.935L589.889 849.41L585.414 849.41L585.414 844.935z"/>
<path class="l5" d="M585.414 862.835L589.889 862.835L589.889 867.31L585.414 867.31L585.414 862.835z"/>
<path class="l5" d="M585.414 880.735L589.889 880.735L589.889 885.21L585.414 885.21L585.414 880.735z"/>
<path class="l5" d="M585.414 898.635L589.889 898.635L589.889 903.11L585.414 903.11L585.414 898.635z"/>
<path class="l5" d="M585.414 916.535L589.889 916.535L589.889 921.01L585.414 921.01L585.414 916.535z"/>
<path class="l5" d="M1176.11 254.239L1180.58 254.239L1180.58 258.714L1176.11 258.714L1176.11 254.239z"/>
<path class="l5" d="M1229.81 254.239L1234.28 254.239L1234.28 258.714L1229.81 258.714L1229.81 254.239z"/>
<path class="l5" d="M1176.11 164.74L1180.58 164.74L1180.58 169.215L1176.11 169.215L1176.11 164.74z"/>
<path class="l5" d="M1229.81 164.74L1234.28 164.74L1234.28 169.215L1229.81 169.215L1229.81 164.74z"/>
<path class="l5" d="M550.733 917.654L552.97 917.654L552.97 919.891L550.733 919.891L550.733 917.654z"/>
<path class="l5" d="M1095.56 164.74L1100.04 164.74L1100.04 169.215L1095.56 169.215L1095.56 164.74z"/>
<path class="l5" d="M1149.26 164.74L1153.74 164.74L1153.74 169.215L1149.26 169.215L1149.26 164.74z"/>
<path class="l5" d="M1095.56 254.239L1100.04 254.239L1100.04 258.714L1095.56 258.714L1095.56 254.239z"/>
<path class="l5" d="M1149.26 254.239L1153.74 254.239L1153.74 258.714L1149.26 258.714L1149.26 254.239z"/>
<path class="l5" d="M1078.78 215.083L1081.02 215.083L1081.02 217.321L1078.78 217.321L1078.78 215.083z"/>
<path class="l5" d="M1168.28 165.859L1170.52 165.859L1170.52 168.096L1168.28 168.096L1168.28 165.859z"/>
<path class="l5" d="M1172.75 255.358L1174.99 255.358L1174.99 257.595L1172.75 257.595L1172.75 255.358z"/>
<path class="l5" d="M316.916 388.488L321.391 388.488L321.391 392.963L316.916 392.963L316.916 388.488z"/>
<path class="l5" d="M316.916 442.188L321.391 442.188L321.391 446.663L316.916 446.663L316.916 442.188z"/>
<path class="l5" d="M879.419 324.496L886.579 324.496L886.579 331.656L879.419 331.656L879.419 324.496z"/>
<path class="l5" d="M951.019 324.496L958.179 324.496L958.179 331.656L951.019 331.656L951.019 324.496z"/>
<path class="l5" d="M915.219 288.697L922.379 288.697L922.379 295.856L915.219 295.856L915.219 288.697z"/>
<path class="l5" d="M915.219 360.296L922.379 360.296L922.379 367.456L915.219 367.456L915.219 360.296z"/>
<path class="l5" d="M718.32 324.496L725.48 324.496L725.48 331.656L718.32 331.656L718.32 324.496z"/>
<path class="l5" d="M682.521 288.697L689.681 288.697L689.681 295.856L682.521 295.856L682.521 288.697z"/>
<path class="l5" d="M682.521 360.296L689.681 360.296L689.681 367.456L682.521 367.456L682.521 360.296z"/>
<path class="l5" d="M593.021 306.596L600.181 306.596L600.181 313.756L593.021 313.756L593.021 306.596z"/>
<path class="l5" d="M593.021 342.396L600.181 342.396L600.181 349.556L593.021 349.556L593.021 342.396z"/>
<path class="l5" d="M541.783 291.158L544.02 291.158L544.02 293.395L541.783 293.395L541.783 291.158z"/>
<path class="l5" d="M846.081 326.958L848.318 326.958L848.318 329.195L846.081 329.195L846.081 326.958z"/>
<path class="l5" d="M1266.73 165.859L1268.97 165.859L1268.97 168.096L1266.73 168.096L1266.73 165.859z"/>
<path class="l5" d="M1275.68 255.358L1277.92 255.358L1277.92 257.595L1275.68 257.595L1275.68 255.358z"/>
<path class="l5" d="M756.581 326.958L758.819 326.958L758.819 329.195L756.581 329.195L756.581 326.958z"/>
<path class="l5" d="M989.28 326.958L991.517 326.958L991.517 329.195L989.28 329.195L989.28 326.958z"/>
<path class="l5" d="M846.081 362.757L848.318 362.757L848.318 364.995L846.081 364.995L846.081 362.757z"/>
<path class="l5" d="M853.912 844.935L858.387 844.935L858.387 849.41L853.912 849.41L853.912 844.935z"/>
<path class="l5" d="M853.912 791.236L858.387 791.236L858.387 795.711L853.912 795.711L853.912 791.236z"/>
<path class="l5" d="M855.031 881.854L857.268 881.854L857.268 884.091L855.031 884.091L855.031 881.854z"/>
<path class="l5" d="M218.466 585.387L222.941 585.387L222.941 589.862L218.466 589.862L218.466 585.387z"/>
<path class="l5" d="M218.466 531.687L222.941 531.687L222.941 536.162L218.466 536.162L218.466 531.687z"/>
<path class="l5" d="M219.585 622.306L221.822 622.306L221.822 624.543L219.585 624.543L219.585 622.306z"/>
<path class="l5" d="M227.416 809.136L231.891 809.136L231.891 813.611L227.416 813.611L227.416 809.136z"/>
<path class="l5" d="M227.416 755.436L231.891 755.436L231.891 759.911L227.416 759.911L227.416 755.436z"/>
<path class="l5" d="M228.535 846.054L230.772 846.054L230.772 848.292L228.535 848.292L228.535 846.054z"/>
<path class="l5" d="M228.535 720.755L230.772 720.755L230.772 722.992L228.535 722.992L228.535 720.755z"/>
<path class="l1" d="M990.399 498.125L1026.2 498.125"/>
<path class="l1" d="M990.399 516.025L1026.2 516.025"/>
<path class="l1" d="M551.852 578.675L587.651 578.675"/>
<path class="l1" d="M551.852 596.575L587.651 596.575"/>
<path class="l1" d="M551.852 614.474L587.651 614.474"/>
<path class="l1" d="M551.852 632.374L587.651 632.374"/>
<path class="l1" d="M551.852 650.274L587.651 650.274"/>
<path class="l1" d="M551.852 668.174L587.651 668.174"/>
<path class="l1" d="M551.852 686.074L587.651 686.074"/>
<path class="l1" d="M551.852 703.974L587.651 703.974"/>
<path class="l1" d="M551.852 560.775L587.651 560.775"/>
<path class="l1" d="M551.852 542.875L587.651 542.875"/>
<path class="l1" d="M551.852 524.975L587.651 524.975"/>
<path class="l1" d="M551.852 507.075L587.651 507.075"/>
<path class="l1" d="M551.852 489.175L587.651 489.175"/>
<path class="l1" d="M551.852 721.874L587.651 721.874"/>
<path class="l1" d="M551.852 739.774L587.651 739.774"/>
<path class="l1" d="M551.852 757.673L587.651 757.673"/>
<path class="l1" d="M551.852 775.573L587.651 775.573"/>
<path class="l1" d="M551.852 793.473L587.651 793.473"/>
<path class="l1" d="M551.852 811.373L587.651 811.373"/>
<path class="l1" d="M551.852 829.273L587.651 829.273"/>
<path class="l1" d="M551.852 847.173L587.651 847.173"/>
<path class="l1" d="M551.852 865.073L587.651 865.073"/>
<path class="l1" d="M551.852 882.973L587.651 882.973"/>
<path class="l1" d="M551.852 900.873L587.651 900.873"/>
<path class="l1" d="M990.399 587.625L1026.2 587.625"/>
<path class="l1" d="M990.399 605.524L1026.2 605.524"/>
<path class="l1" d="M990.399 623.424L1026.2 623.424"/>
<path class="l1" d="M990.399 641.324L1026.2 641.324"/>
<path class="l1" d="M990.399 659.224L1026.2 659.224"/>
<path class="l1" d="M990.399 677.124L1026.2 677.124"/>
<path class="l1" d="M990.399 695.024L1026.2 695.024"/>
<path class="l1" d="M990.399 712.924L1026.2 712.924"/>
<path class="l1" d="M990.399 569.725L1026.2 569.725"/>
<path class="l1" d="M990.399 730.824L1026.2 730.824"/>
<path class="l1" d="M990.399 766.623L1026.2 766.623"/>
<path class="l1" d="M990.399 748.724L1026.2 748.724"/>
<path class="l1" d="M990.399 784.523L1026.2 784.523"/>
<path class="l1" d="M990.399 802.423L1026.2 802.423"/>
<path class="l1" d="M990.399 820.323L1026.2 820.323"/>
<path class="l1" d="M990.399 533.925L1026.2 533.925"/>
<path class="l1" d="M990.399 551.825L1026.2 551.825"/>
<path class="l1" d="M551.852 918.772L587.651 918.772"/>
<path class="l1" d="M1232.05 166.977L1267.85 166.977"/>
<path class="l1" d="M1232.05 256.477L1276.8 256.477"/>
<path class="l1" d="M1151.5 256.477L1178.35 256.477"/>
<path class="l1" d="M1151.5 166.977L1178.35 166.977"/>
<path class="l1" d="M1079.9 256.477L1097.8 256.477"/>
<path class="l1" d="M1079.9 166.977L1079.9 256.477"/>
<path class="l1" d="M1079.9 166.977L1097.8 166.977"/>
<path class="l1" d="M131.204 372.826L319.153 372.826"/>
<path class="l1" d="M319.153 372.826L319.153 390.726"/>
<path class="l1" d="M319.153 444.425L319.153 909.822"/>
<path class="l1" d="M122.254 909.822L319.153 909.822"/>
<path class="l1" d="M542.902 292.276L578.701 292.276"/>
<path class="l1" d="M578.701 292.276L596.601 292.276"/>
<path class="l1" d="M596.601 292.276L596.601 310.176"/>
<path class="l1" d="M596.601 292.276L686.101 292.276"/>
<path class="l1" d="M686.101 292.276L918.799 292.276"/>
<path class="l1" d="M686.101 363.876L918.799 363.876"/>
<path class="l1" d="M596.601 363.876L686.101 363.876"/>
<path class="l1" d="M596.601 345.976L596.601 363.876"/>
<path class="l1" d="M847.2 328.076L882.999 328.076"/>
<path class="l1" d="M954.599 328.076L990.399 328.076"/>
<path class="l1" d="M721.9 328.076L757.7 328.076"/>
<path class="l1" d="M220.704 524.975L220.704 533.925"/>
<path class="l1" d="M131.204 524.975L220.704 524.975"/>
<path class="l1" d="M856.15 847.173L856.15 882.973"/>
<path class="l1" d="M856.15 766.623L856.15 793.473"/>
<path class="l1" d="M856.15 766.623L990.399 766.623"/>
<path class="l1" d="M220.704 587.625L220.704 623.424"/>
<path class="l1" d="M229.654 811.373L229.654 847.173"/>
<path class="l1" d="M229.654 721.874L229.654 757.673"/>
<circle class="l1" cx="596.601" cy="292.276" r="3.57998"/>
<circle class="l1" cx="596.601" cy="292.276" r="3.57998"/>
<circle class="l1" cx="596.601" cy="292.276" r="3.57998"/>
</svg>
