<?xml version="1.0" encoding="utf-8" standalone="no"?>
<!DOCTYPE svg PUBLIC "-//W3C//DTD SVG 1.1//EN"
  "http://www.w3.org/Graphics/SVG/1.1/DTD/svg11.dtd">
<svg xmlns:xlink="http://www.w3.org/1999/xlink" width="720pt" height="432pt" viewBox="0 0 720 432" xmlns="http://www.w3.org/2000/svg" version="1.1">
 <metadata>
  <rdf:RDF xmlns:dc="http://purl.org/dc/elements/1.1/" xmlns:cc="http://creativecommons.org/ns#" xmlns:rdf="http://www.w3.org/1999/02/22-rdf-syntax-ns#">
   <cc:Work>
    <dc:type rdf:resource="http://purl.org/dc/dcmitype/StillImage"/>
    <dc:date>2024-03-07T12:44:50.718975</dc:date>
    <dc:format>image/svg+xml</dc:format>
    <dc:creator>
     <cc:Agent>
      <dc:title>Matplotlib v3.7.1, https://matplotlib.org/</dc:title>
     </cc:Agent>
    </dc:creator>
   </cc:Work>
  </rdf:RDF>
 </metadata>
 <defs>
  <style type="text/css">*{stroke-linejoin: round; stroke-linecap: butt}</style>
 </defs>
 <g id="figure_1">
  <g id="patch_1">
   <path d="M 0 432 
L 720 432 
L 720 0 
L 0 0 
z
" style="fill: #ffffff"/>
  </g>
  <g id="axes_1">
   <g id="patch_2">
    <path d="M 59.24 193.164 
L 705.116085 193.164 
L 705.116085 10.8 
L 59.24 10.8 
z
" style="fill: #ffffff"/>
   </g>
   <g id="matplotlib.axis_1">
    <g id="xtick_1">
     <g id="line2d_1">
      <defs>
       <path id="mc2b9eba336" d="M 0 0 
L 0 2 
" style="stroke: #000000; stroke-width: 0.6"/>
      </defs>
      <g>
       <use xlink:href="#mc2b9eba336" x="88.598004" y="193.164" style="stroke: #000000; stroke-width: 0.6"/>
      </g>
     </g>
    </g>
    <g id="xtick_2">
     <g id="line2d_2">
      <g>
       <use xlink:href="#mc2b9eba336" x="186.579632" y="193.164" style="stroke: #000000; stroke-width: 0.6"/>
      </g>
     </g>
    </g>
    <g id="xtick_3">
     <g id="line2d_3">
      <g>
       <use xlink:href="#mc2b9eba336" x="284.51255" y="193.164" style="stroke: #000000; stroke-width: 0.6"/>
      </g>
     </g>
    </g>
    <g id="xtick_4">
     <g id="line2d_4">
      <g>
       <use xlink:href="#mc2b9eba336" x="382.396806" y="193.164" style="stroke: #000000; stroke-width: 0.6"/>
      </g>
     </g>
    </g>
    <g id="xtick_5">
     <g id="line2d_5">
      <g>
       <use xlink:href="#mc2b9eba336" x="480.232447" y="193.164" style="stroke: #000000; stroke-width: 0.6"/>
      </g>
     </g>
    </g>
    <g id="xtick_6">
     <g id="line2d_6">
      <g>
       <use xlink:href="#mc2b9eba336" x="578.019523" y="193.164" style="stroke: #000000; stroke-width: 0.6"/>
      </g>
     </g>
    </g>
    <g id="xtick_7">
     <g id="line2d_7">
      <g>
       <use xlink:href="#mc2b9eba336" x="675.758082" y="193.164" style="stroke: #000000; stroke-width: 0.6"/>
      </g>
     </g>
    </g>
   </g>
   <g id="matplotlib.axis_2">
    <g id="ytick_1">
     <g id="line2d_8">
      <path d="M 59.24 171.320637 
L 705.116085 171.320637 
" clip-path="url(#pebc779cfdc)" style="fill: none; stroke: #b0b0b0; stroke-width: 0.8; stroke-linecap: square"/>
     </g>
     <g id="line2d_9">
      <defs>
       <path id="mb56a18c272" d="M 0 0 
L -3.5 0 
" style="stroke: #000000; stroke-width: 0.8"/>
      </defs>
      <g>
       <use xlink:href="#mb56a18c272" x="59.24" y="171.320637" style="stroke: #000000; stroke-width: 0.8"/>
      </g>
     </g>
     <g id="text_1">
      <!-- 40 -->
      <g transform="translate(39.515 175.119856) scale(0.1 -0.1)">
       <defs>
        <path id="DejaVuSans-34" d="M 2419 4116 
L 825 1625 
L 2419 1625 
L 2419 4116 
z
M 2253 4666 
L 3047 4666 
L 3047 1625 
L 3713 1625 
L 3713 1100 
L 3047 1100 
L 3047 0 
L 2419 0 
L 2419 1100 
L 313 1100 
L 313 1709 
L 2253 4666 
z
" transform="scale(0.015625)"/>
        <path id="DejaVuSans-30" d="M 2034 4250 
Q 1547 4250 1301 3770 
Q 1056 3291 1056 2328 
Q 1056 1369 1301 889 
Q 1547 409 2034 409 
Q 2525 409 2770 889 
Q 3016 1369 3016 2328 
Q 3016 3291 2770 3770 
Q 2525 4250 2034 4250 
z
M 2034 4750 
Q 2819 4750 3233 4129 
Q 3647 3509 3647 2328 
Q 3647 1150 3233 529 
Q 2819 -91 2034 -91 
Q 1250 -91 836 529 
Q 422 1150 422 2328 
Q 422 3509 836 4129 
Q 1250 4750 2034 4750 
z
" transform="scale(0.015625)"/>
       </defs>
       <use xlink:href="#DejaVuSans-34"/>
       <use xlink:href="#DejaVuSans-30" x="63.623047"/>
      </g>
     </g>
    </g>
    <g id="ytick_2">
     <g id="line2d_10">
      <path d="M 59.24 148.255413 
L 705.116085 148.255413 
" clip-path="url(#pebc779cfdc)" style="fill: none; stroke: #b0b0b0; stroke-width: 0.8; stroke-linecap: square"/>
     </g>
     <g id="line2d_11">
      <g>
       <use xlink:href="#mb56a18c272" x="59.24" y="148.255413" style="stroke: #000000; stroke-width: 0.8"/>
      </g>
     </g>
     <g id="text_2">
      <!-- 50 -->
      <g transform="translate(39.515 152.054632) scale(0.1 -0.1)">
       <defs>
        <path id="DejaVuSans-35" d="M 691 4666 
L 3169 4666 
L 3169 4134 
L 1269 4134 
L 1269 2991 
Q 1406 3038 1543 3061 
Q 1681 3084 1819 3084 
Q 2600 3084 3056 2656 
Q 3513 2228 3513 1497 
Q 3513 744 3044 326 
Q 2575 -91 1722 -91 
Q 1428 -91 1123 -41 
Q 819 9 494 109 
L 494 744 
Q 775 591 1075 516 
Q 1375 441 1709 441 
Q 2250 441 2565 725 
Q 2881 1009 2881 1497 
Q 2881 1984 2565 2268 
Q 2250 2553 1709 2553 
Q 1456 2553 1204 2497 
Q 953 2441 691 2322 
L 691 4666 
z
" transform="scale(0.015625)"/>
       </defs>
       <use xlink:href="#DejaVuSans-35"/>
       <use xlink:href="#DejaVuSans-30" x="63.623047"/>
      </g>
     </g>
    </g>
    <g id="ytick_3">
     <g id="line2d_12">
      <path d="M 59.24 125.190189 
L 705.116085 125.190189 
" clip-path="url(#pebc779cfdc)" style="fill: none; stroke: #b0b0b0; stroke-width: 0.8; stroke-linecap: square"/>
     </g>
     <g id="line2d_13">
      <g>
       <use xlink:href="#mb56a18c272" x="59.24" y="125.190189" style="stroke: #000000; stroke-width: 0.8"/>
      </g>
     </g>
     <g id="text_3">
      <!-- 60 -->
      <g transform="translate(39.515 128.989408) scale(0.1 -0.1)">
       <defs>
        <path id="DejaVuSans-36" d="M 2113 2584 
Q 1688 2584 1439 2293 
Q 1191 2003 1191 1497 
Q 1191 994 1439 701 
Q 1688 409 2113 409 
Q 2538 409 2786 701 
Q 3034 994 3034 1497 
Q 3034 2003 2786 2293 
Q 2538 2584 2113 2584 
z
M 3366 4563 
L 3366 3988 
Q 3128 4100 2886 4159 
Q 2644 4219 2406 4219 
Q 1781 4219 1451 3797 
Q 1122 3375 1075 2522 
Q 1259 2794 1537 2939 
Q 1816 3084 2150 3084 
Q 2853 3084 3261 2657 
Q 3669 2231 3669 1497 
Q 3669 778 3244 343 
Q 2819 -91 2113 -91 
Q 1303 -91 875 529 
Q 447 1150 447 2328 
Q 447 3434 972 4092 
Q 1497 4750 2381 4750 
Q 2619 4750 2861 4703 
Q 3103 4656 3366 4563 
z
" transform="scale(0.015625)"/>
       </defs>
       <use xlink:href="#DejaVuSans-36"/>
       <use xlink:href="#DejaVuSans-30" x="63.623047"/>
      </g>
     </g>
    </g>
    <g id="ytick_4">
     <g id="line2d_14">
      <path d="M 59.24 102.124966 
L 705.116085 102.124966 
" clip-path="url(#pebc779cfdc)" style="fill: none; stroke: #b0b0b0; stroke-width: 0.8; stroke-linecap: square"/>
     </g>
     <g id="line2d_15">
      <g>
       <use xlink:href="#mb56a18c272" x="59.24" y="102.124966" style="stroke: #000000; stroke-width: 0.8"/>
      </g>
     </g>
     <g id="text_4">
      <!-- 70 -->
      <g transform="translate(39.515 105.924184) scale(0.1 -0.1)">
       <defs>
        <path id="DejaVuSans-37" d="M 525 4666 
L 3525 4666 
L 3525 4397 
L 1831 0 
L 1172 0 
L 2766 4134 
L 525 4134 
L 525 4666 
z
" transform="scale(0.015625)"/>
       </defs>
       <use xlink:href="#DejaVuSans-37"/>
       <use xlink:href="#DejaVuSans-30" x="63.623047"/>
      </g>
     </g>
    </g>
    <g id="ytick_5">
     <g id="line2d_16">
      <path d="M 59.24 79.059742 
L 705.116085 79.059742 
" clip-path="url(#pebc779cfdc)" style="fill: none; stroke: #b0b0b0; stroke-width: 0.8; stroke-linecap: square"/>
     </g>
     <g id="line2d_17">
      <g>
       <use xlink:href="#mb56a18c272" x="59.24" y="79.059742" style="stroke: #000000; stroke-width: 0.8"/>
      </g>
     </g>
     <g id="text_5">
      <!-- 80 -->
      <g transform="translate(39.515 82.85896) scale(0.1 -0.1)">
       <defs>
        <path id="DejaVuSans-38" d="M 2034 2216 
Q 1584 2216 1326 1975 
Q 1069 1734 1069 1313 
Q 1069 891 1326 650 
Q 1584 409 2034 409 
Q 2484 409 2743 651 
Q 3003 894 3003 1313 
Q 3003 1734 2745 1975 
Q 2488 2216 2034 2216 
z
M 1403 2484 
Q 997 2584 770 2862 
Q 544 3141 544 3541 
Q 544 4100 942 4425 
Q 1341 4750 2034 4750 
Q 2731 4750 3128 4425 
Q 3525 4100 3525 3541 
Q 3525 3141 3298 2862 
Q 3072 2584 2669 2484 
Q 3125 2378 3379 2068 
Q 3634 1759 3634 1313 
Q 3634 634 3220 271 
Q 2806 -91 2034 -91 
Q 1263 -91 848 271 
Q 434 634 434 1313 
Q 434 1759 690 2068 
Q 947 2378 1403 2484 
z
M 1172 3481 
Q 1172 3119 1398 2916 
Q 1625 2713 2034 2713 
Q 2441 2713 2670 2916 
Q 2900 3119 2900 3481 
Q 2900 3844 2670 4047 
Q 2441 4250 2034 4250 
Q 1625 4250 1398 4047 
Q 1172 3844 1172 3481 
z
" transform="scale(0.015625)"/>
       </defs>
       <use xlink:href="#DejaVuSans-38"/>
       <use xlink:href="#DejaVuSans-30" x="63.623047"/>
      </g>
     </g>
    </g>
    <g id="ytick_6">
     <g id="line2d_18">
      <path d="M 59.24 55.994518 
L 705.116085 55.994518 
" clip-path="url(#pebc779cfdc)" style="fill: none; stroke: #b0b0b0; stroke-width: 0.8; stroke-linecap: square"/>
     </g>
     <g id="line2d_19">
      <g>
       <use xlink:href="#mb56a18c272" x="59.24" y="55.994518" style="stroke: #000000; stroke-width: 0.8"/>
      </g>
     </g>
     <g id="text_6">
      <!-- 90 -->
      <g transform="translate(39.515 59.793736) scale(0.1 -0.1)">
       <defs>
        <path id="DejaVuSans-39" d="M 703 97 
L 703 672 
Q 941 559 1184 500 
Q 1428 441 1663 441 
Q 2288 441 2617 861 
Q 2947 1281 2994 2138 
Q 2813 1869 2534 1725 
Q 2256 1581 1919 1581 
Q 1219 1581 811 2004 
Q 403 2428 403 3163 
Q 403 3881 828 4315 
Q 1253 4750 1959 4750 
Q 2769 4750 3195 4129 
Q 3622 3509 3622 2328 
Q 3622 1225 3098 567 
Q 2575 -91 1691 -91 
Q 1453 -91 1209 -44 
Q 966 3 703 97 
z
M 1959 2075 
Q 2384 2075 2632 2365 
Q 2881 2656 2881 3163 
Q 2881 3666 2632 3958 
Q 2384 4250 1959 4250 
Q 1534 4250 1286 3958 
Q 1038 3666 1038 3163 
Q 1038 2656 1286 2365 
Q 1534 2075 1959 2075 
z
" transform="scale(0.015625)"/>
       </defs>
       <use xlink:href="#DejaVuSans-39"/>
       <use xlink:href="#DejaVuSans-30" x="63.623047"/>
      </g>
     </g>
    </g>
    <g id="ytick_7">
     <g id="line2d_20">
      <path d="M 59.24 32.929294 
L 705.116085 32.929294 
" clip-path="url(#pebc779cfdc)" style="fill: none; stroke: #b0b0b0; stroke-width: 0.8; stroke-linecap: square"/>
     </g>
     <g id="line2d_21">
      <g>
       <use xlink:href="#mb56a18c272" x="59.24" y="32.929294" style="stroke: #000000; stroke-width: 0.8"/>
      </g>
     </g>
     <g id="text_7">
      <!-- 100 -->
      <g transform="translate(33.1525 36.728512) scale(0.1 -0.1)">
       <defs>
        <path id="DejaVuSans-31" d="M 794 531 
L 1825 531 
L 1825 4091 
L 703 3866 
L 703 4441 
L 1819 4666 
L 2450 4666 
L 2450 531 
L 3481 531 
L 3481 0 
L 794 0 
L 794 531 
z
" transform="scale(0.015625)"/>
       </defs>
       <use xlink:href="#DejaVuSans-31"/>
       <use xlink:href="#DejaVuSans-30" x="63.623047"/>
       <use xlink:href="#DejaVuSans-30" x="127.246094"/>
      </g>
     </g>
    </g>
    <g id="text_8">
     <!-- Magnitude -->
     <g transform="translate(27.072813 128.471844) rotate(-90) scale(0.1 -0.1)">
      <defs>
       <path id="DejaVuSans-4d" d="M 628 4666 
L 1569 4666 
L 2759 1491 
L 3956 4666 
L 4897 4666 
L 4897 0 
L 4281 0 
L 4281 4097 
L 3078 897 
L 2444 897 
L 1241 4097 
L 1241 0 
L 628 0 
L 628 4666 
z
" transform="scale(0.015625)"/>
       <path id="DejaVuSans-61" d="M 2194 1759 
Q 1497 1759 1228 1600 
Q 959 1441 959 1056 
Q 959 750 1161 570 
Q 1363 391 1709 391 
Q 2188 391 2477 730 
Q 2766 1069 2766 1631 
L 2766 1759 
L 2194 1759 
z
M 3341 1997 
L 3341 0 
L 2766 0 
L 2766 531 
Q 2569 213 2275 61 
Q 1981 -91 1556 -91 
Q 1019 -91 701 211 
Q 384 513 384 1019 
Q 384 1609 779 1909 
Q 1175 2209 1959 2209 
L 2766 2209 
L 2766 2266 
Q 2766 2663 2505 2880 
Q 2244 3097 1772 3097 
Q 1472 3097 1187 3025 
Q 903 2953 641 2809 
L 641 3341 
Q 956 3463 1253 3523 
Q 1550 3584 1831 3584 
Q 2591 3584 2966 3190 
Q 3341 2797 3341 1997 
z
" transform="scale(0.015625)"/>
       <path id="DejaVuSans-67" d="M 2906 1791 
Q 2906 2416 2648 2759 
Q 2391 3103 1925 3103 
Q 1463 3103 1205 2759 
Q 947 2416 947 1791 
Q 947 1169 1205 825 
Q 1463 481 1925 481 
Q 2391 481 2648 825 
Q 2906 1169 2906 1791 
z
M 3481 434 
Q 3481 -459 3084 -895 
Q 2688 -1331 1869 -1331 
Q 1566 -1331 1297 -1286 
Q 1028 -1241 775 -1147 
L 775 -588 
Q 1028 -725 1275 -790 
Q 1522 -856 1778 -856 
Q 2344 -856 2625 -561 
Q 2906 -266 2906 331 
L 2906 616 
Q 2728 306 2450 153 
Q 2172 0 1784 0 
Q 1141 0 747 490 
Q 353 981 353 1791 
Q 353 2603 747 3093 
Q 1141 3584 1784 3584 
Q 2172 3584 2450 3431 
Q 2728 3278 2906 2969 
L 2906 3500 
L 3481 3500 
L 3481 434 
z
" transform="scale(0.015625)"/>
       <path id="DejaVuSans-6e" d="M 3513 2113 
L 3513 0 
L 2938 0 
L 2938 2094 
Q 2938 2591 2744 2837 
Q 2550 3084 2163 3084 
Q 1697 3084 1428 2787 
Q 1159 2491 1159 1978 
L 1159 0 
L 581 0 
L 581 3500 
L 1159 3500 
L 1159 2956 
Q 1366 3272 1645 3428 
Q 1925 3584 2291 3584 
Q 2894 3584 3203 3211 
Q 3513 2838 3513 2113 
z
" transform="scale(0.015625)"/>
       <path id="DejaVuSans-69" d="M 603 3500 
L 1178 3500 
L 1178 0 
L 603 0 
L 603 3500 
z
M 603 4863 
L 1178 4863 
L 1178 4134 
L 603 4134 
L 603 4863 
z
" transform="scale(0.015625)"/>
       <path id="DejaVuSans-74" d="M 1172 4494 
L 1172 3500 
L 2356 3500 
L 2356 3053 
L 1172 3053 
L 1172 1153 
Q 1172 725 1289 603 
Q 1406 481 1766 481 
L 2356 481 
L 2356 0 
L 1766 0 
Q 1100 0 847 248 
Q 594 497 594 1153 
L 594 3053 
L 172 3053 
L 172 3500 
L 594 3500 
L 594 4494 
L 1172 4494 
z
" transform="scale(0.015625)"/>
       <path id="DejaVuSans-75" d="M 544 1381 
L 544 3500 
L 1119 3500 
L 1119 1403 
Q 1119 906 1312 657 
Q 1506 409 1894 409 
Q 2359 409 2629 706 
Q 2900 1003 2900 1516 
L 2900 3500 
L 3475 3500 
L 3475 0 
L 2900 0 
L 2900 538 
Q 2691 219 2414 64 
Q 2138 -91 1772 -91 
Q 1169 -91 856 284 
Q 544 659 544 1381 
z
M 1991 3584 
L 1991 3584 
z
" transform="scale(0.015625)"/>
       <path id="DejaVuSans-64" d="M 2906 2969 
L 2906 4863 
L 3481 4863 
L 3481 0 
L 2906 0 
L 2906 525 
Q 2725 213 2448 61 
Q 2172 -91 1784 -91 
Q 1150 -91 751 415 
Q 353 922 353 1747 
Q 353 2572 751 3078 
Q 1150 3584 1784 3584 
Q 2172 3584 2448 3432 
Q 2725 3281 2906 2969 
z
M 947 1747 
Q 947 1113 1208 752 
Q 1469 391 1925 391 
Q 2381 391 2643 752 
Q 2906 1113 2906 1747 
Q 2906 2381 2643 2742 
Q 2381 3103 1925 3103 
Q 1469 3103 1208 2742 
Q 947 2381 947 1747 
z
" transform="scale(0.015625)"/>
       <path id="DejaVuSans-65" d="M 3597 1894 
L 3597 1613 
L 953 1613 
Q 991 1019 1311 708 
Q 1631 397 2203 397 
Q 2534 397 2845 478 
Q 3156 559 3463 722 
L 3463 178 
Q 3153 47 2828 -22 
Q 2503 -91 2169 -91 
Q 1331 -91 842 396 
Q 353 884 353 1716 
Q 353 2575 817 3079 
Q 1281 3584 2069 3584 
Q 2775 3584 3186 3129 
Q 3597 2675 3597 1894 
z
M 3022 2063 
Q 3016 2534 2758 2815 
Q 2500 3097 2075 3097 
Q 1594 3097 1305 2825 
Q 1016 2553 972 2059 
L 3022 2063 
z
" transform="scale(0.015625)"/>
      </defs>
      <use xlink:href="#DejaVuSans-4d"/>
      <use xlink:href="#DejaVuSans-61" x="86.279297"/>
      <use xlink:href="#DejaVuSans-67" x="147.558594"/>
      <use xlink:href="#DejaVuSans-6e" x="211.035156"/>
      <use xlink:href="#DejaVuSans-69" x="274.414062"/>
      <use xlink:href="#DejaVuSans-74" x="302.197266"/>
      <use xlink:href="#DejaVuSans-75" x="341.40625"/>
      <use xlink:href="#DejaVuSans-64" x="404.785156"/>
      <use xlink:href="#DejaVuSans-65" x="468.261719"/>
     </g>
    </g>
   </g>
   <g id="line2d_22">
    <path d="M 88.598004 107.62409 
L 135.093862 108.461732 
L 172.753347 109.352327 
L 203.93466 110.30446 
L 229.817283 111.310506 
L 251.579585 112.373157 
L 269.811014 113.477438 
L 285.688626 114.659153 
L 299.21299 115.886255 
L 310.972551 117.176112 
L 320.967627 118.489963 
L 329.78639 119.868594 
L 337.428998 121.281052 
L 344.483451 122.818928 
L 350.361969 124.322816 
L 355.652484 125.899194 
L 360.355046 127.527272 
L 364.469695 129.175213 
L 367.996469 130.797812 
L 371.523179 132.666361 
L 374.462056 134.46142 
L 377.40089 136.533624 
L 379.751925 138.445624 
L 382.102932 140.648326 
L 384.453911 143.229446 
L 386.217127 145.490954 
L 387.980327 148.121673 
L 389.743511 151.245655 
L 390.918959 153.694321 
L 392.094399 156.533013 
L 393.269833 159.887681 
L 394.445259 163.946457 
L 395.620678 168.98706 
L 396.796091 175.32561 
L 397.971496 182.438221 
L 398.559196 184.849297 
L 399.146894 184.874727 
L 399.734591 182.420811 
L 402.08536 167.983774 
L 403.260733 162.403496 
L 404.4361 157.821725 
L 405.61146 153.955594 
L 407.374486 149.095569 
L 409.137497 145.022451 
L 410.900492 141.501179 
L 413.251127 137.419673 
L 415.601735 133.846778 
L 417.952314 130.646896 
L 420.890499 127.037322 
L 424.416263 123.1277 
L 427.941963 119.55265 
L 432.055201 115.683841 
L 437.343523 111.034923 
L 444.394399 105.164696 
L 459.67043 92.560127 
L 464.958011 87.865701 
L 469.070476 83.942461 
L 472.595377 80.301812 
L 475.532747 76.998309 
L 478.470073 73.362823 
L 480.819902 70.135185 
L 483.169703 66.525126 
L 484.932036 63.48463 
L 486.694353 60.062937 
L 488.456654 56.127344 
L 490.218939 51.467335 
L 491.393787 47.791343 
L 492.568628 43.471998 
L 493.743462 38.258113 
L 494.918289 31.821686 
L 496.680516 20.804158 
L 497.267922 19.089273 
L 497.855326 20.031226 
L 498.442728 22.965434 
L 500.204924 33.346741 
L 501.379712 38.785999 
L 502.554494 43.133043 
L 503.729268 46.695255 
L 504.904036 49.687714 
L 506.666174 53.408884 
L 508.428296 56.468789 
L 510.190403 59.052332 
L 511.952494 61.277776 
L 514.301924 63.822333 
L 516.651325 65.997351 
L 519.000699 67.887713 
L 521.937377 69.938765 
L 524.874011 71.71728 
L 528.397915 73.570228 
L 531.921755 75.18052 
L 536.032822 76.817064 
L 540.731079 78.4349 
L 546.016485 80.002264 
L 551.888991 81.498332 
L 558.348547 82.910766 
L 565.982293 84.335041 
L 574.20292 85.638657 
L 583.597502 86.903026 
L 594.165872 88.104103 
L 606.49492 89.279312 
L 620.584316 90.396883 
L 637.020671 91.473366 
L 656.390328 92.509964 
L 675.758082 93.360917 
L 675.758082 93.360917 
" clip-path="url(#pebc779cfdc)" style="fill: none; stroke: #1f77b4; stroke-width: 1.5; stroke-linecap: square"/>
   </g>
   <g id="patch_3">
    <path d="M 59.24 193.164 
L 59.24 10.8 
" style="fill: none; stroke: #000000; stroke-width: 0.8; stroke-linejoin: miter; stroke-linecap: square"/>
   </g>
   <g id="patch_4">
    <path d="M 705.116085 193.164 
L 705.116085 10.8 
" style="fill: none; stroke: #000000; stroke-width: 0.8; stroke-linejoin: miter; stroke-linecap: square"/>
   </g>
   <g id="patch_5">
    <path d="M 59.24 193.164 
L 705.116085 193.164 
" style="fill: none; stroke: #000000; stroke-width: 0.8; stroke-linejoin: miter; stroke-linecap: square"/>
   </g>
   <g id="patch_6">
    <path d="M 59.24 10.8 
L 705.116085 10.8 
" style="fill: none; stroke: #000000; stroke-width: 0.8; stroke-linejoin: miter; stroke-linecap: square"/>
   </g>
  </g>
  <g id="axes_2">
   <g id="patch_7">
    <path d="M 59.24 388.328 
L 705.116085 388.328 
L 705.116085 205.964 
L 59.24 205.964 
z
" style="fill: #ffffff"/>
   </g>
   <g id="matplotlib.axis_3">
    <g id="xtick_8">
     <g id="line2d_23">
      <g>
       <use xlink:href="#mc2b9eba336" x="88.598004" y="388.328" style="stroke: #000000; stroke-width: 0.6"/>
      </g>
     </g>
     <g id="text_9">
      <!-- $\mathdefault{1.005\times10^{1}}$ -->
      <g transform="translate(59.348004 401.326438) scale(0.1 -0.1)">
       <defs>
        <path id="DejaVuSans-2e" d="M 684 794 
L 1344 794 
L 1344 0 
L 684 0 
L 684 794 
z
" transform="scale(0.015625)"/>
        <path id="DejaVuSans-d7" d="M 4488 3438 
L 3059 2003 
L 4488 575 
L 4116 197 
L 2681 1631 
L 1247 197 
L 878 575 
L 2303 2003 
L 878 3438 
L 1247 3816 
L 2681 2381 
L 4116 3816 
L 4488 3438 
z
" transform="scale(0.015625)"/>
       </defs>
       <use xlink:href="#DejaVuSans-31" transform="translate(0 0.684375)"/>
       <use xlink:href="#DejaVuSans-2e" transform="translate(63.623047 0.684375)"/>
       <use xlink:href="#DejaVuSans-30" transform="translate(95.410156 0.684375)"/>
       <use xlink:href="#DejaVuSans-30" transform="translate(159.033203 0.684375)"/>
       <use xlink:href="#DejaVuSans-35" transform="translate(222.65625 0.684375)"/>
       <use xlink:href="#DejaVuSans-d7" transform="translate(305.761719 0.684375)"/>
       <use xlink:href="#DejaVuSans-31" transform="translate(409.033203 0.684375)"/>
       <use xlink:href="#DejaVuSans-30" transform="translate(472.65625 0.684375)"/>
       <use xlink:href="#DejaVuSans-31" transform="translate(537.236328 38.965625) scale(0.7)"/>
      </g>
     </g>
    </g>
    <g id="xtick_9">
     <g id="line2d_24">
      <g>
       <use xlink:href="#mc2b9eba336" x="186.579632" y="388.328" style="stroke: #000000; stroke-width: 0.6"/>
      </g>
     </g>
     <g id="text_10">
      <!-- $\mathdefault{1.0055\times10^{1}}$ -->
      <g transform="translate(154.129632 401.326438) scale(0.1 -0.1)">
       <use xlink:href="#DejaVuSans-31" transform="translate(0 0.684375)"/>
       <use xlink:href="#DejaVuSans-2e" transform="translate(63.623047 0.684375)"/>
       <use xlink:href="#DejaVuSans-30" transform="translate(95.410156 0.684375)"/>
       <use xlink:href="#DejaVuSans-30" transform="translate(159.033203 0.684375)"/>
       <use xlink:href="#DejaVuSans-35" transform="translate(222.65625 0.684375)"/>
       <use xlink:href="#DejaVuSans-35" transform="translate(286.279297 0.684375)"/>
       <use xlink:href="#DejaVuSans-d7" transform="translate(369.384766 0.684375)"/>
       <use xlink:href="#DejaVuSans-31" transform="translate(472.65625 0.684375)"/>
       <use xlink:href="#DejaVuSans-30" transform="translate(536.279297 0.684375)"/>
       <use xlink:href="#DejaVuSans-31" transform="translate(600.859375 38.965625) scale(0.7)"/>
      </g>
     </g>
    </g>
    <g id="xtick_10">
     <g id="line2d_25">
      <g>
       <use xlink:href="#mc2b9eba336" x="284.51255" y="388.328" style="stroke: #000000; stroke-width: 0.6"/>
      </g>
     </g>
     <g id="text_11">
      <!-- $\mathdefault{1.006\times10^{1}}$ -->
      <g transform="translate(255.26255 401.326438) scale(0.1 -0.1)">
       <use xlink:href="#DejaVuSans-31" transform="translate(0 0.684375)"/>
       <use xlink:href="#DejaVuSans-2e" transform="translate(63.623047 0.684375)"/>
       <use xlink:href="#DejaVuSans-30" transform="translate(95.410156 0.684375)"/>
       <use xlink:href="#DejaVuSans-30" transform="translate(159.033203 0.684375)"/>
       <use xlink:href="#DejaVuSans-36" transform="translate(222.65625 0.684375)"/>
       <use xlink:href="#DejaVuSans-d7" transform="translate(305.761719 0.684375)"/>
       <use xlink:href="#DejaVuSans-31" transform="translate(409.033203 0.684375)"/>
       <use xlink:href="#DejaVuSans-30" transform="translate(472.65625 0.684375)"/>
       <use xlink:href="#DejaVuSans-31" transform="translate(537.236328 38.965625) scale(0.7)"/>
      </g>
     </g>
    </g>
    <g id="xtick_11">
     <g id="line2d_26">
      <g>
       <use xlink:href="#mc2b9eba336" x="382.396806" y="388.328" style="stroke: #000000; stroke-width: 0.6"/>
      </g>
     </g>
     <g id="text_12">
      <!-- $\mathdefault{1.0065\times10^{1}}$ -->
      <g transform="translate(349.946806 401.326438) scale(0.1 -0.1)">
       <use xlink:href="#DejaVuSans-31" transform="translate(0 0.684375)"/>
       <use xlink:href="#DejaVuSans-2e" transform="translate(63.623047 0.684375)"/>
       <use xlink:href="#DejaVuSans-30" transform="translate(95.410156 0.684375)"/>
       <use xlink:href="#DejaVuSans-30" transform="translate(159.033203 0.684375)"/>
       <use xlink:href="#DejaVuSans-36" transform="translate(222.65625 0.684375)"/>
       <use xlink:href="#DejaVuSans-35" transform="translate(286.279297 0.684375)"/>
       <use xlink:href="#DejaVuSans-d7" transform="translate(369.384766 0.684375)"/>
       <use xlink:href="#DejaVuSans-31" transform="translate(472.65625 0.684375)"/>
       <use xlink:href="#DejaVuSans-30" transform="translate(536.279297 0.684375)"/>
       <use xlink:href="#DejaVuSans-31" transform="translate(600.859375 38.965625) scale(0.7)"/>
      </g>
     </g>
    </g>
    <g id="xtick_12">
     <g id="line2d_27">
      <g>
       <use xlink:href="#mc2b9eba336" x="480.232447" y="388.328" style="stroke: #000000; stroke-width: 0.6"/>
      </g>
     </g>
     <g id="text_13">
      <!-- $\mathdefault{1.007\times10^{1}}$ -->
      <g transform="translate(450.982447 401.326438) scale(0.1 -0.1)">
       <use xlink:href="#DejaVuSans-31" transform="translate(0 0.684375)"/>
       <use xlink:href="#DejaVuSans-2e" transform="translate(63.623047 0.684375)"/>
       <use xlink:href="#DejaVuSans-30" transform="translate(95.410156 0.684375)"/>
       <use xlink:href="#DejaVuSans-30" transform="translate(159.033203 0.684375)"/>
       <use xlink:href="#DejaVuSans-37" transform="translate(222.65625 0.684375)"/>
       <use xlink:href="#DejaVuSans-d7" transform="translate(305.761719 0.684375)"/>
       <use xlink:href="#DejaVuSans-31" transform="translate(409.033203 0.684375)"/>
       <use xlink:href="#DejaVuSans-30" transform="translate(472.65625 0.684375)"/>
       <use xlink:href="#DejaVuSans-31" transform="translate(537.236328 38.965625) scale(0.7)"/>
      </g>
     </g>
    </g>
    <g id="xtick_13">
     <g id="line2d_28">
      <g>
       <use xlink:href="#mc2b9eba336" x="578.019523" y="388.328" style="stroke: #000000; stroke-width: 0.6"/>
      </g>
     </g>
     <g id="text_14">
      <!-- $\mathdefault{1.0075\times10^{1}}$ -->
      <g transform="translate(545.569523 401.326438) scale(0.1 -0.1)">
       <use xlink:href="#DejaVuSans-31" transform="translate(0 0.684375)"/>
       <use xlink:href="#DejaVuSans-2e" transform="translate(63.623047 0.684375)"/>
       <use xlink:href="#DejaVuSans-30" transform="translate(95.410156 0.684375)"/>
       <use xlink:href="#DejaVuSans-30" transform="translate(159.033203 0.684375)"/>
       <use xlink:href="#DejaVuSans-37" transform="translate(222.65625 0.684375)"/>
       <use xlink:href="#DejaVuSans-35" transform="translate(286.279297 0.684375)"/>
       <use xlink:href="#DejaVuSans-d7" transform="translate(369.384766 0.684375)"/>
       <use xlink:href="#DejaVuSans-31" transform="translate(472.65625 0.684375)"/>
       <use xlink:href="#DejaVuSans-30" transform="translate(536.279297 0.684375)"/>
       <use xlink:href="#DejaVuSans-31" transform="translate(600.859375 38.965625) scale(0.7)"/>
      </g>
     </g>
    </g>
    <g id="xtick_14">
     <g id="line2d_29">
      <g>
       <use xlink:href="#mc2b9eba336" x="675.758082" y="388.328" style="stroke: #000000; stroke-width: 0.6"/>
      </g>
     </g>
     <g id="text_15">
      <!-- $\mathdefault{1.008\times10^{1}}$ -->
      <g transform="translate(646.508082 401.326438) scale(0.1 -0.1)">
       <use xlink:href="#DejaVuSans-31" transform="translate(0 0.684375)"/>
       <use xlink:href="#DejaVuSans-2e" transform="translate(63.623047 0.684375)"/>
       <use xlink:href="#DejaVuSans-30" transform="translate(95.410156 0.684375)"/>
       <use xlink:href="#DejaVuSans-30" transform="translate(159.033203 0.684375)"/>
       <use xlink:href="#DejaVuSans-38" transform="translate(222.65625 0.684375)"/>
       <use xlink:href="#DejaVuSans-d7" transform="translate(305.761719 0.684375)"/>
       <use xlink:href="#DejaVuSans-31" transform="translate(409.033203 0.684375)"/>
       <use xlink:href="#DejaVuSans-30" transform="translate(472.65625 0.684375)"/>
       <use xlink:href="#DejaVuSans-31" transform="translate(537.236328 38.965625) scale(0.7)"/>
      </g>
     </g>
    </g>
    <g id="text_16">
     <!-- Frequency [MHz] -->
     <g transform="translate(340.159293 415.004563) scale(0.1 -0.1)">
      <defs>
       <path id="DejaVuSans-46" d="M 628 4666 
L 3309 4666 
L 3309 4134 
L 1259 4134 
L 1259 2759 
L 3109 2759 
L 3109 2228 
L 1259 2228 
L 1259 0 
L 628 0 
L 628 4666 
z
" transform="scale(0.015625)"/>
       <path id="DejaVuSans-72" d="M 2631 2963 
Q 2534 3019 2420 3045 
Q 2306 3072 2169 3072 
Q 1681 3072 1420 2755 
Q 1159 2438 1159 1844 
L 1159 0 
L 581 0 
L 581 3500 
L 1159 3500 
L 1159 2956 
Q 1341 3275 1631 3429 
Q 1922 3584 2338 3584 
Q 2397 3584 2469 3576 
Q 2541 3569 2628 3553 
L 2631 2963 
z
" transform="scale(0.015625)"/>
       <path id="DejaVuSans-71" d="M 947 1747 
Q 947 1113 1208 752 
Q 1469 391 1925 391 
Q 2381 391 2643 752 
Q 2906 1113 2906 1747 
Q 2906 2381 2643 2742 
Q 2381 3103 1925 3103 
Q 1469 3103 1208 2742 
Q 947 2381 947 1747 
z
M 2906 525 
Q 2725 213 2448 61 
Q 2172 -91 1784 -91 
Q 1150 -91 751 415 
Q 353 922 353 1747 
Q 353 2572 751 3078 
Q 1150 3584 1784 3584 
Q 2172 3584 2448 3432 
Q 2725 3281 2906 2969 
L 2906 3500 
L 3481 3500 
L 3481 -1331 
L 2906 -1331 
L 2906 525 
z
" transform="scale(0.015625)"/>
       <path id="DejaVuSans-63" d="M 3122 3366 
L 3122 2828 
Q 2878 2963 2633 3030 
Q 2388 3097 2138 3097 
Q 1578 3097 1268 2742 
Q 959 2388 959 1747 
Q 959 1106 1268 751 
Q 1578 397 2138 397 
Q 2388 397 2633 464 
Q 2878 531 3122 666 
L 3122 134 
Q 2881 22 2623 -34 
Q 2366 -91 2075 -91 
Q 1284 -91 818 406 
Q 353 903 353 1747 
Q 353 2603 823 3093 
Q 1294 3584 2113 3584 
Q 2378 3584 2631 3529 
Q 2884 3475 3122 3366 
z
" transform="scale(0.015625)"/>
       <path id="DejaVuSans-79" d="M 2059 -325 
Q 1816 -950 1584 -1140 
Q 1353 -1331 966 -1331 
L 506 -1331 
L 506 -850 
L 844 -850 
Q 1081 -850 1212 -737 
Q 1344 -625 1503 -206 
L 1606 56 
L 191 3500 
L 800 3500 
L 1894 763 
L 2988 3500 
L 3597 3500 
L 2059 -325 
z
" transform="scale(0.015625)"/>
       <path id="DejaVuSans-20" transform="scale(0.015625)"/>
       <path id="DejaVuSans-5b" d="M 550 4863 
L 1875 4863 
L 1875 4416 
L 1125 4416 
L 1125 -397 
L 1875 -397 
L 1875 -844 
L 550 -844 
L 550 4863 
z
" transform="scale(0.015625)"/>
       <path id="DejaVuSans-48" d="M 628 4666 
L 1259 4666 
L 1259 2753 
L 3553 2753 
L 3553 4666 
L 4184 4666 
L 4184 0 
L 3553 0 
L 3553 2222 
L 1259 2222 
L 1259 0 
L 628 0 
L 628 4666 
z
" transform="scale(0.015625)"/>
       <path id="DejaVuSans-7a" d="M 353 3500 
L 3084 3500 
L 3084 2975 
L 922 459 
L 3084 459 
L 3084 0 
L 275 0 
L 275 525 
L 2438 3041 
L 353 3041 
L 353 3500 
z
" transform="scale(0.015625)"/>
       <path id="DejaVuSans-5d" d="M 1947 4863 
L 1947 -844 
L 622 -844 
L 622 -397 
L 1369 -397 
L 1369 4416 
L 622 4416 
L 622 4863 
L 1947 4863 
z
" transform="scale(0.015625)"/>
      </defs>
      <use xlink:href="#DejaVuSans-46"/>
      <use xlink:href="#DejaVuSans-72" x="50.269531"/>
      <use xlink:href="#DejaVuSans-65" x="89.132812"/>
      <use xlink:href="#DejaVuSans-71" x="150.65625"/>
      <use xlink:href="#DejaVuSans-75" x="214.132812"/>
      <use xlink:href="#DejaVuSans-65" x="277.511719"/>
      <use xlink:href="#DejaVuSans-6e" x="339.035156"/>
      <use xlink:href="#DejaVuSans-63" x="402.414062"/>
      <use xlink:href="#DejaVuSans-79" x="457.394531"/>
      <use xlink:href="#DejaVuSans-20" x="516.574219"/>
      <use xlink:href="#DejaVuSans-5b" x="548.361328"/>
      <use xlink:href="#DejaVuSans-4d" x="587.375"/>
      <use xlink:href="#DejaVuSans-48" x="673.654297"/>
      <use xlink:href="#DejaVuSans-7a" x="748.849609"/>
      <use xlink:href="#DejaVuSans-5d" x="801.339844"/>
     </g>
    </g>
   </g>
   <g id="matplotlib.axis_4">
    <g id="ytick_8">
     <g id="line2d_30">
      <path d="M 59.24 378.809566 
L 705.116085 378.809566 
" clip-path="url(#p1760b3036a)" style="fill: none; stroke: #b0b0b0; stroke-width: 0.8; stroke-linecap: square"/>
     </g>
     <g id="line2d_31">
      <g>
       <use xlink:href="#mb56a18c272" x="59.24" y="378.809566" style="stroke: #000000; stroke-width: 0.8"/>
      </g>
     </g>
     <g id="text_17">
      <!-- −175 -->
      <g transform="translate(24.772813 382.608785) scale(0.1 -0.1)">
       <defs>
        <path id="DejaVuSans-2212" d="M 678 2272 
L 4684 2272 
L 4684 1741 
L 678 1741 
L 678 2272 
z
" transform="scale(0.015625)"/>
       </defs>
       <use xlink:href="#DejaVuSans-2212"/>
       <use xlink:href="#DejaVuSans-31" x="83.789062"/>
       <use xlink:href="#DejaVuSans-37" x="147.412109"/>
       <use xlink:href="#DejaVuSans-35" x="211.035156"/>
      </g>
     </g>
    </g>
    <g id="ytick_9">
     <g id="line2d_32">
      <path d="M 59.24 355.301524 
L 705.116085 355.301524 
" clip-path="url(#p1760b3036a)" style="fill: none; stroke: #b0b0b0; stroke-width: 0.8; stroke-linecap: square"/>
     </g>
     <g id="line2d_33">
      <g>
       <use xlink:href="#mb56a18c272" x="59.24" y="355.301524" style="stroke: #000000; stroke-width: 0.8"/>
      </g>
     </g>
     <g id="text_18">
      <!-- −150 -->
      <g transform="translate(24.772813 359.100743) scale(0.1 -0.1)">
       <use xlink:href="#DejaVuSans-2212"/>
       <use xlink:href="#DejaVuSans-31" x="83.789062"/>
       <use xlink:href="#DejaVuSans-35" x="147.412109"/>
       <use xlink:href="#DejaVuSans-30" x="211.035156"/>
      </g>
     </g>
    </g>
    <g id="ytick_10">
     <g id="line2d_34">
      <path d="M 59.24 331.793482 
L 705.116085 331.793482 
" clip-path="url(#p1760b3036a)" style="fill: none; stroke: #b0b0b0; stroke-width: 0.8; stroke-linecap: square"/>
     </g>
     <g id="line2d_35">
      <g>
       <use xlink:href="#mb56a18c272" x="59.24" y="331.793482" style="stroke: #000000; stroke-width: 0.8"/>
      </g>
     </g>
     <g id="text_19">
      <!-- −125 -->
      <g transform="translate(24.772813 335.592701) scale(0.1 -0.1)">
       <defs>
        <path id="DejaVuSans-32" d="M 1228 531 
L 3431 531 
L 3431 0 
L 469 0 
L 469 531 
Q 828 903 1448 1529 
Q 2069 2156 2228 2338 
Q 2531 2678 2651 2914 
Q 2772 3150 2772 3378 
Q 2772 3750 2511 3984 
Q 2250 4219 1831 4219 
Q 1534 4219 1204 4116 
Q 875 4013 500 3803 
L 500 4441 
Q 881 4594 1212 4672 
Q 1544 4750 1819 4750 
Q 2544 4750 2975 4387 
Q 3406 4025 3406 3419 
Q 3406 3131 3298 2873 
Q 3191 2616 2906 2266 
Q 2828 2175 2409 1742 
Q 1991 1309 1228 531 
z
" transform="scale(0.015625)"/>
       </defs>
       <use xlink:href="#DejaVuSans-2212"/>
       <use xlink:href="#DejaVuSans-31" x="83.789062"/>
       <use xlink:href="#DejaVuSans-32" x="147.412109"/>
       <use xlink:href="#DejaVuSans-35" x="211.035156"/>
      </g>
     </g>
    </g>
    <g id="ytick_11">
     <g id="line2d_36">
      <path d="M 59.24 308.285441 
L 705.116085 308.285441 
" clip-path="url(#p1760b3036a)" style="fill: none; stroke: #b0b0b0; stroke-width: 0.8; stroke-linecap: square"/>
     </g>
     <g id="line2d_37">
      <g>
       <use xlink:href="#mb56a18c272" x="59.24" y="308.285441" style="stroke: #000000; stroke-width: 0.8"/>
      </g>
     </g>
     <g id="text_20">
      <!-- −100 -->
      <g transform="translate(24.772813 312.084659) scale(0.1 -0.1)">
       <use xlink:href="#DejaVuSans-2212"/>
       <use xlink:href="#DejaVuSans-31" x="83.789062"/>
       <use xlink:href="#DejaVuSans-30" x="147.412109"/>
       <use xlink:href="#DejaVuSans-30" x="211.035156"/>
      </g>
     </g>
    </g>
    <g id="ytick_12">
     <g id="line2d_38">
      <path d="M 59.24 284.777399 
L 705.116085 284.777399 
" clip-path="url(#p1760b3036a)" style="fill: none; stroke: #b0b0b0; stroke-width: 0.8; stroke-linecap: square"/>
     </g>
     <g id="line2d_39">
      <g>
       <use xlink:href="#mb56a18c272" x="59.24" y="284.777399" style="stroke: #000000; stroke-width: 0.8"/>
      </g>
     </g>
     <g id="text_21">
      <!-- −75 -->
      <g transform="translate(31.135313 288.576617) scale(0.1 -0.1)">
       <use xlink:href="#DejaVuSans-2212"/>
       <use xlink:href="#DejaVuSans-37" x="83.789062"/>
       <use xlink:href="#DejaVuSans-35" x="147.412109"/>
      </g>
     </g>
    </g>
    <g id="ytick_13">
     <g id="line2d_40">
      <path d="M 59.24 261.269357 
L 705.116085 261.269357 
" clip-path="url(#p1760b3036a)" style="fill: none; stroke: #b0b0b0; stroke-width: 0.8; stroke-linecap: square"/>
     </g>
     <g id="line2d_41">
      <g>
       <use xlink:href="#mb56a18c272" x="59.24" y="261.269357" style="stroke: #000000; stroke-width: 0.8"/>
      </g>
     </g>
     <g id="text_22">
      <!-- −50 -->
      <g transform="translate(31.135313 265.068575) scale(0.1 -0.1)">
       <use xlink:href="#DejaVuSans-2212"/>
       <use xlink:href="#DejaVuSans-35" x="83.789062"/>
       <use xlink:href="#DejaVuSans-30" x="147.412109"/>
      </g>
     </g>
    </g>
    <g id="ytick_14">
     <g id="line2d_42">
      <path d="M 59.24 237.761315 
L 705.116085 237.761315 
" clip-path="url(#p1760b3036a)" style="fill: none; stroke: #b0b0b0; stroke-width: 0.8; stroke-linecap: square"/>
     </g>
     <g id="line2d_43">
      <g>
       <use xlink:href="#mb56a18c272" x="59.24" y="237.761315" style="stroke: #000000; stroke-width: 0.8"/>
      </g>
     </g>
     <g id="text_23">
      <!-- −25 -->
      <g transform="translate(31.135313 241.560533) scale(0.1 -0.1)">
       <use xlink:href="#DejaVuSans-2212"/>
       <use xlink:href="#DejaVuSans-32" x="83.789062"/>
       <use xlink:href="#DejaVuSans-35" x="147.412109"/>
      </g>
     </g>
    </g>
    <g id="ytick_15">
     <g id="line2d_44">
      <path d="M 59.24 214.253273 
L 705.116085 214.253273 
" clip-path="url(#p1760b3036a)" style="fill: none; stroke: #b0b0b0; stroke-width: 0.8; stroke-linecap: square"/>
     </g>
     <g id="line2d_45">
      <g>
       <use xlink:href="#mb56a18c272" x="59.24" y="214.253273" style="stroke: #000000; stroke-width: 0.8"/>
      </g>
     </g>
     <g id="text_24">
      <!-- 0 -->
      <g transform="translate(45.8775 218.052491) scale(0.1 -0.1)">
       <use xlink:href="#DejaVuSans-30"/>
      </g>
     </g>
    </g>
    <g id="text_25">
     <!-- Phase -->
     <g transform="translate(18.693125 312.074906) rotate(-90) scale(0.1 -0.1)">
      <defs>
       <path id="DejaVuSans-50" d="M 1259 4147 
L 1259 2394 
L 2053 2394 
Q 2494 2394 2734 2622 
Q 2975 2850 2975 3272 
Q 2975 3691 2734 3919 
Q 2494 4147 2053 4147 
L 1259 4147 
z
M 628 4666 
L 2053 4666 
Q 2838 4666 3239 4311 
Q 3641 3956 3641 3272 
Q 3641 2581 3239 2228 
Q 2838 1875 2053 1875 
L 1259 1875 
L 1259 0 
L 628 0 
L 628 4666 
z
" transform="scale(0.015625)"/>
       <path id="DejaVuSans-68" d="M 3513 2113 
L 3513 0 
L 2938 0 
L 2938 2094 
Q 2938 2591 2744 2837 
Q 2550 3084 2163 3084 
Q 1697 3084 1428 2787 
Q 1159 2491 1159 1978 
L 1159 0 
L 581 0 
L 581 4863 
L 1159 4863 
L 1159 2956 
Q 1366 3272 1645 3428 
Q 1925 3584 2291 3584 
Q 2894 3584 3203 3211 
Q 3513 2838 3513 2113 
z
" transform="scale(0.015625)"/>
       <path id="DejaVuSans-73" d="M 2834 3397 
L 2834 2853 
Q 2591 2978 2328 3040 
Q 2066 3103 1784 3103 
Q 1356 3103 1142 2972 
Q 928 2841 928 2578 
Q 928 2378 1081 2264 
Q 1234 2150 1697 2047 
L 1894 2003 
Q 2506 1872 2764 1633 
Q 3022 1394 3022 966 
Q 3022 478 2636 193 
Q 2250 -91 1575 -91 
Q 1294 -91 989 -36 
Q 684 19 347 128 
L 347 722 
Q 666 556 975 473 
Q 1284 391 1588 391 
Q 1994 391 2212 530 
Q 2431 669 2431 922 
Q 2431 1156 2273 1281 
Q 2116 1406 1581 1522 
L 1381 1569 
Q 847 1681 609 1914 
Q 372 2147 372 2553 
Q 372 3047 722 3315 
Q 1072 3584 1716 3584 
Q 2034 3584 2315 3537 
Q 2597 3491 2834 3397 
z
" transform="scale(0.015625)"/>
      </defs>
      <use xlink:href="#DejaVuSans-50"/>
      <use xlink:href="#DejaVuSans-68" x="60.302734"/>
      <use xlink:href="#DejaVuSans-61" x="123.681641"/>
      <use xlink:href="#DejaVuSans-73" x="184.960938"/>
      <use xlink:href="#DejaVuSans-65" x="237.060547"/>
     </g>
    </g>
   </g>
   <g id="line2d_46">
    <path d="M 88.598004 380.038727 
L 255.10838 379.866618 
L 309.208662 379.614181 
L 336.253232 379.28518 
L 352.12549 378.887715 
L 362.706284 378.409056 
L 369.759832 377.883108 
L 375.049827 377.274373 
L 379.164169 376.567573 
L 382.102932 375.846009 
L 384.453911 375.054693 
L 386.217127 374.26775 
L 387.980327 373.227388 
L 389.155785 372.326787 
L 390.331236 371.183677 
L 391.50668 369.687528 
L 392.682117 367.650324 
L 393.269833 366.331061 
L 393.857547 364.726941 
L 394.445259 362.738962 
L 395.03297 360.219119 
L 395.620678 356.938794 
L 396.208385 352.533503 
L 396.796091 346.409959 
L 397.383794 337.620949 
L 397.971496 324.873209 
L 400.322286 256.164746 
L 400.909979 247.023738 
L 401.49767 240.672027 
L 402.08536 236.119557 
L 402.673047 232.741803 
L 403.260733 230.155353 
L 404.4361 226.482341 
L 405.61146 224.016387 
L 406.786813 222.254924 
L 407.962158 220.937739 
L 409.137497 219.917827 
L 410.900492 218.760013 
L 412.663471 217.899834 
L 415.014086 217.050408 
L 417.952314 216.292898 
L 421.47813 215.659213 
L 425.591503 215.152941 
L 430.879999 214.728148 
L 437.931106 214.405253 
L 446.157078 214.258602 
L 454.970239 214.320527 
L 462.607992 214.57609 
L 469.070476 215.005845 
L 473.77033 215.520646 
L 477.295148 216.093286 
L 480.232447 216.768626 
L 482.582256 217.513639 
L 484.344593 218.254948 
L 486.106915 219.232409 
L 487.281788 220.074752 
L 488.456654 221.137806 
L 489.631512 222.518038 
L 490.806364 224.376603 
L 491.981208 227.002602 
L 492.568628 228.762112 
L 493.156046 230.964019 
L 493.743462 233.787239 
L 494.330876 237.51219 
L 494.918289 242.591172 
L 495.5057 249.760044 
L 496.093109 260.146009 
L 496.680516 275.013095 
L 498.442728 329.736894 
L 499.030128 340.98809 
L 499.617527 348.737384 
L 500.204924 354.190064 
L 500.792319 358.159735 
L 501.379712 361.148601 
L 501.967104 363.466643 
L 503.141882 366.80817 
L 504.316653 369.088 
L 505.491417 370.736389 
L 506.666174 371.980915 
L 507.840924 372.952313 
L 509.603036 374.064473 
L 511.365132 374.898624 
L 513.714569 375.731255 
L 516.651325 376.48512 
L 520.175376 377.130326 
L 524.874011 377.728346 
L 530.747148 378.232405 
L 538.969246 378.689752 
L 550.127258 379.070747 
L 566.569492 379.393304 
L 592.404517 379.655516 
L 636.433681 379.854305 
L 675.758082 379.937 
L 675.758082 379.937 
" clip-path="url(#p1760b3036a)" style="fill: none; stroke: #1f77b4; stroke-width: 1.5; stroke-linecap: square"/>
   </g>
   <g id="patch_8">
    <path d="M 59.24 388.328 
L 59.24 205.964 
" style="fill: none; stroke: #000000; stroke-width: 0.8; stroke-linejoin: miter; stroke-linecap: square"/>
   </g>
   <g id="patch_9">
    <path d="M 705.116085 388.328 
L 705.116085 205.964 
" style="fill: none; stroke: #000000; stroke-width: 0.8; stroke-linejoin: miter; stroke-linecap: square"/>
   </g>
   <g id="patch_10">
    <path d="M 59.24 388.328 
L 705.116085 388.328 
" style="fill: none; stroke: #000000; stroke-width: 0.8; stroke-linejoin: miter; stroke-linecap: square"/>
   </g>
   <g id="patch_11">
    <path d="M 59.24 205.964 
L 705.116085 205.964 
" style="fill: none; stroke: #000000; stroke-width: 0.8; stroke-linejoin: miter; stroke-linecap: square"/>
   </g>
  </g>
 </g>
 <defs>
  <clipPath id="pebc779cfdc">
   <rect x="59.24" y="10.8" width="645.876085" height="182.364"/>
  </clipPath>
  <clipPath id="p1760b3036a">
   <rect x="59.24" y="205.964" width="645.876085" height="182.364"/>
  </clipPath>
 </defs>
</svg>
